<?xml version="1.0" encoding="UTF-8"?>
<svg width="70px" height="70px" viewBox="0 0 70 70" version="1.1" xmlns="http://www.w3.org/2000/svg" xmlns:xlink="http://www.w3.org/1999/xlink">
    <!-- Generator: Sketch 52.2 (67145) - http://www.bohemiancoding.com/sketch -->
    <title>icon_innovation</title>
    <desc>Created with Sketch.</desc>
    <defs>
        <path d="M30,0.483 C13.432,0.483 0,13.915 0,30.483 C0,47.052 13.432,60.484 30,60.484 C46.569,60.484 60,47.052 60,30.483" id="path-1"></path>
        <path d="M30,0.483 C13.432,0.483 0,13.915 0,30.483 C0,47.052 13.432,60.484 30,60.484 C46.569,60.484 60,47.052 60,30.483 C60,13.915 46.569,0.483 30,0.483 Z" id="path-3"></path>
        <path d="M11.025,2.781 C11.025,2.781 8.829,2.277 6.873,3.388 C4.985,4.46 4.306,7.054 4.306,7.054 C4.306,7.054 2.813,7.324 1.357,9.624 C-0.1,11.922 1.22,15.347 1.22,15.347 C1.22,15.347 0.155,16.411 0.155,19.072 C0.155,24.983 7.875,26.15 10.266,24.497 C13.458,28.317 17.943,25.761 17.943,25.761 C19.691,28.878 22.884,27.916 22.884,27.916 L25.474,36.118 C26.948,35.374 28.851,34.159 30.613,32.287 L28.962,26.901 C36.338,24.925 34.343,17.971 34.343,17.971 C34.343,17.971 35.768,13.95 34.057,10.681 C32.347,7.413 29.725,6.577 29.725,6.577 C29.725,6.577 29.155,4.006 26.438,2.524 C23.72,1.042 20.755,2.067 20.755,2.067 C20.755,2.067 19.083,0.699 16.024,0.699 C12.966,0.699 11.025,2.781 11.025,2.781" id="path-5"></path>
        <path d="M11.025,2.781 C11.025,2.781 8.829,2.277 6.873,3.388 C4.985,4.46 4.306,7.054 4.306,7.054 C4.306,7.054 2.813,7.324 1.357,9.624 C-0.1,11.922 1.22,15.347 1.22,15.347 C1.22,15.347 0.155,16.411 0.155,19.072 C0.155,24.983 7.875,26.15 10.266,24.497 C13.458,28.317 17.943,25.761 17.943,25.761 C19.691,28.878 22.884,27.916 22.884,27.916 L25.474,36.118 C26.948,35.374 28.851,34.159 30.613,32.287 L28.962,26.901 C36.338,24.925 34.343,17.971 34.343,17.971 C34.343,17.971 35.768,13.95 34.057,10.681 C32.347,7.413 29.725,6.577 29.725,6.577 C29.725,6.577 29.155,4.006 26.438,2.524 C23.72,1.042 20.755,2.067 20.755,2.067 C20.755,2.067 19.083,0.699 16.024,0.699 C12.966,0.699 11.025,2.781 11.025,2.781" id="path-7"></path>
        <linearGradient x1="50%" y1="18.835802%" x2="50%" y2="100%" id="linearGradient-9">
            <stop stop-color="#375EB4" offset="0%"></stop>
            <stop stop-color="#3394C3" offset="100%"></stop>
        </linearGradient>
    </defs>
    <g id="icon_innovation" stroke="none" stroke-width="1" fill="none" fill-rule="evenodd">
        <path d="M65,34.9999 C65,51.5679 51.568,64.9999 35,64.9999 C18.432,64.9999 5,51.5679 5,34.9999 C5,18.4319 18.432,4.9999 35,4.9999 C51.568,4.9999 65,18.4319 65,34.9999" id="Fill-1" fill="#F1F1F1"></path>
        <g id="Group-9" transform="translate(5.000000, 4.516600)">
            <g id="Group-5">
                <mask id="mask-2" fill="white">
                    <use xlink:href="#path-1"></use>
                </mask>
                <g id="Clip-4"></g>
                <path d="M52.7969,29.7587 C52.7969,16.8947 43.4359,6.4667 30.2509,6.4667 C20.3619,6.4667 11.5039,14.6167 10.4919,23.2797 C10.1509,26.2007 7.9699,31.8567 5.4259,34.9197 C4.0829,36.5357 9.2219,36.4437 9.6019,38.3617 C11.2989,46.9357 15.4409,50.9667 24.4749,52.6317 L24.4749,63.4997 L40.3899,63.4997 L40.3899,50.1887 C44.8169,47.8197 48.3899,44.1207 50.5449,39.6447 C51.9899,36.6437 52.7969,33.2937 52.7969,29.7587" id="Fill-3" fill="#FFFFFF" mask="url(#mask-2)"></path>
            </g>
            <g id="Group-8">
                <mask id="mask-4" fill="white">
                    <use xlink:href="#path-3"></use>
                </mask>
                <g id="Clip-7"></g>
                <path d="M52.7969,29.7587 C52.7969,16.8947 43.4359,6.4667 30.2509,6.4667 C20.3619,6.4667 11.5039,14.6167 10.4919,23.2797 C10.1509,26.2007 7.9699,31.8567 5.4259,34.9197 C4.0829,36.5357 9.2219,36.4437 9.6019,38.3617 C11.2989,46.9357 15.4409,50.9667 24.4749,52.6317 L24.4749,63.4997 L40.3899,63.4997 L40.3899,50.1887 C44.8169,47.8197 48.3899,44.1207 50.5449,39.6447 C51.9899,36.6437 52.7969,33.2937 52.7969,29.7587 Z" id="Stroke-6" stroke="#EF4B46" stroke-linecap="round" stroke-linejoin="round" mask="url(#mask-4)"></path>
            </g>
        </g>
        <g id="Group-12" transform="translate(19.000000, 13.516600)">
            <mask id="mask-6" fill="white">
                <use xlink:href="#path-5"></use>
            </mask>
            <g id="Clip-11"></g>
            <path d="M11.025,2.781 C11.025,2.781 8.829,2.277 6.873,3.388 C4.985,4.46 4.306,7.054 4.306,7.054 C4.306,7.054 2.813,7.324 1.357,9.624 C-0.1,11.922 1.22,15.347 1.22,15.347 C1.22,15.347 0.155,16.411 0.155,19.072 C0.155,24.983 7.875,26.15 10.266,24.497 C13.458,28.317 17.943,25.761 17.943,25.761 C19.691,28.878 22.884,27.916 22.884,27.916 L25.474,36.118 C26.948,35.374 28.851,34.159 30.613,32.287 L28.962,26.901 C36.338,24.925 34.343,17.971 34.343,17.971 C34.343,17.971 35.768,13.95 34.057,10.681 C32.347,7.413 29.725,6.577 29.725,6.577 C29.725,6.577 29.155,4.006 26.438,2.524 C23.72,1.042 20.755,2.067 20.755,2.067 C20.755,2.067 19.083,0.699 16.024,0.699 C12.966,0.699 11.025,2.781 11.025,2.781" id="Fill-10" mask="url(#mask-6)"></path>
        </g>
        <path d="M35.0244,14.2162 C31.9654,14.2162 30.0254,16.2972 30.0254,16.2972 C30.0254,16.2972 29.5294,16.1832 28.7974,16.1832 C27.9914,16.1832 26.8984,16.3212 25.8734,16.9042 C23.9844,17.9772 23.3054,20.5702 23.3054,20.5702 C23.3054,20.5702 21.8124,20.8412 20.3564,23.1402 C18.8994,25.4392 20.2194,28.8632 20.2194,28.8632 C20.2194,28.8632 19.1554,29.9272 19.1554,32.5882 C19.1554,36.9132 23.2864,38.6982 26.4404,38.6982 C27.5974,38.6982 28.6244,38.4572 29.2654,38.0132 C30.6304,39.6472 32.2324,40.1142 33.6194,40.1142 C35.4734,40.1142 36.9434,39.2772 36.9434,39.2772 C38.0244,41.2052 39.6574,41.5722 40.7474,41.5722 C41.4194,41.5722 41.8834,41.4322 41.8834,41.4322 L44.4734,49.6342 C45.9484,48.8892 47.8504,47.6752 49.6134,45.8032 L47.9624,40.4182 C55.3374,38.4412 53.3424,31.4882 53.3424,31.4882 C53.3424,31.4882 54.7684,27.4662 53.0574,24.1982 C51.3474,20.9292 48.7244,20.0932 48.7244,20.0932 C48.7244,20.0932 48.1554,17.5232 45.4374,16.0402 C44.2974,15.4192 43.1154,15.2382 42.1254,15.2382 C40.7544,15.2382 39.7554,15.5842 39.7554,15.5842 C39.7554,15.5842 38.0834,14.2162 35.0244,14.2162 M35.0244,15.2162 C37.6474,15.2162 39.0694,16.3172 39.1224,16.3582 L39.5544,16.7082 L40.0794,16.5302 C40.0874,16.5282 40.9574,16.2382 42.1254,16.2382 C43.1774,16.2382 44.1314,16.4672 44.9594,16.9182 C47.2164,18.1502 47.7294,20.2282 47.7494,20.3102 L47.8784,20.8642 L48.4154,21.0442 C48.5064,21.0752 50.6914,21.8332 52.1714,24.6622 C53.6524,27.4922 52.4124,31.1202 52.4004,31.1542 L52.2934,31.4562 L52.3814,31.7642 C52.3884,31.7902 53.1064,34.3652 51.8494,36.5872 C51.0744,37.9582 49.6784,38.9232 47.7034,39.4522 L46.7014,39.7202 L47.0054,40.7112 L48.4834,45.5302 C47.3024,46.7022 46.0854,47.5632 45.0604,48.1722 L42.8374,41.1322 L42.5374,40.2072 L41.6024,40.4732 C41.5984,40.4742 41.2474,40.5722 40.7474,40.5722 C39.4654,40.5722 38.4794,39.9722 37.8154,38.7882 L37.3224,37.9192 L36.4514,38.4072 C36.4384,38.4142 35.1694,39.1142 33.6194,39.1142 C32.2064,39.1142 30.9994,38.5282 30.0324,37.3722 L29.4474,36.6722 L28.6974,37.1912 C28.2384,37.5082 27.3944,37.6982 26.4404,37.6982 C23.9144,37.6982 20.1554,36.3372 20.1554,32.5882 C20.1554,30.4462 20.9114,29.5892 20.9264,29.5702 L21.3834,29.1112 L21.1534,28.5062 C21.1424,28.4762 20.0364,25.5142 21.2014,23.6752 C22.3634,21.8392 23.4624,21.5612 23.4834,21.5542 L24.1114,21.4412 L24.2734,20.8242 C24.2784,20.8012 24.8854,18.6142 26.3674,17.7742 C27.2264,17.2862 28.1634,17.1832 28.7974,17.1832 C29.3924,17.1832 29.8024,17.2722 29.8024,17.2722 L30.3614,17.3952 L30.7534,16.9822 C30.7704,16.9652 32.4614,15.2162 35.0244,15.2162" id="Fill-13" fill="#375EB4"></path>
        <g id="Group-17" transform="translate(19.000000, 13.516600)">
            <mask id="mask-8" fill="white">
                <use xlink:href="#path-7"></use>
            </mask>
            <g id="Clip-16"></g>
            <path d="M11.025,2.781 C11.025,2.781 8.829,2.277 6.873,3.388 C4.985,4.46 4.306,7.054 4.306,7.054 C4.306,7.054 2.813,7.324 1.357,9.624 C-0.1,11.922 1.22,15.347 1.22,15.347 C1.22,15.347 0.155,16.411 0.155,19.072 C0.155,24.983 7.875,26.15 10.266,24.497 C13.458,28.317 17.943,25.761 17.943,25.761 C19.691,28.878 22.884,27.916 22.884,27.916 L25.474,36.118 C26.948,35.374 28.851,34.159 30.613,32.287 L28.962,26.901 C36.338,24.925 34.343,17.971 34.343,17.971 C34.343,17.971 35.768,13.95 34.057,10.681 C32.347,7.413 29.725,6.577 29.725,6.577 C29.725,6.577 29.155,4.006 26.438,2.524 C23.72,1.042 20.755,2.067 20.755,2.067 C20.755,2.067 19.083,0.699 16.024,0.699 C12.966,0.699 11.025,2.781 11.025,2.781" id="Fill-15" fill="url(#linearGradient-9)" mask="url(#mask-8)"></path>
        </g>
        <g id="Group-32" style="mix-blend-mode: multiply;" transform="translate(19.000000, 13.516600)">
            <path d="M16.0244,0.6996 C12.9654,0.6996 11.0254,2.7806 11.0254,2.7806 C11.0254,2.7806 10.5294,2.6666 9.7974,2.6666 C8.9914,2.6666 7.8984,2.8046 6.8734,3.3876 C4.9844,4.4606 4.3054,7.0536 4.3054,7.0536 C4.3054,7.0536 2.8124,7.3246 1.3564,9.6236 C-0.1006,11.9226 1.2194,15.3466 1.2194,15.3466 C1.2194,15.3466 0.1554,16.4106 0.1554,19.0716 C0.1554,23.3966 4.2864,25.1816 7.4404,25.1816 C8.5974,25.1816 9.6244,24.9406 10.2654,24.4966 C11.6304,26.1306 13.2324,26.5976 14.6194,26.5976 C16.4734,26.5976 17.9434,25.7606 17.9434,25.7606 C19.0244,27.6886 20.6574,28.0556 21.7474,28.0556 C22.4194,28.0556 22.8834,27.9156 22.8834,27.9156 L25.4734,36.1176 C26.9484,35.3726 28.8504,34.1586 30.6134,32.2866 L28.9624,26.9016 C36.3374,24.9246 34.3424,17.9716 34.3424,17.9716 C34.3424,17.9716 35.7684,13.9496 34.0574,10.6816 C32.3474,7.4126 29.7244,6.5766 29.7244,6.5766 C29.7244,6.5766 29.1554,4.0066 26.4374,2.5236 C25.2974,1.9026 24.1154,1.7216 23.1254,1.7216 C21.7544,1.7216 20.7554,2.0676 20.7554,2.0676 C20.7554,2.0676 19.0834,0.6996 16.0244,0.6996 M16.0244,1.6996 C18.6474,1.6996 20.0694,2.8006 20.1224,2.8416 L20.5544,3.1916 L21.0794,3.0136 C21.0874,3.0116 21.9574,2.7216 23.1254,2.7216 C24.1774,2.7216 25.1314,2.9506 25.9594,3.4016 C28.2164,4.6336 28.7294,6.7116 28.7494,6.7936 L28.8784,7.3476 L29.4154,7.5276 C29.5064,7.5586 31.6914,8.3166 33.1714,11.1456 C34.6524,13.9756 33.4124,17.6036 33.4004,17.6376 L33.2934,17.9396 L33.3814,18.2476 C33.3884,18.2736 34.1064,20.8486 32.8494,23.0706 C32.0744,24.4416 30.6784,25.4066 28.7034,25.9356 L27.7014,26.2036 L28.0054,27.1946 L29.4834,32.0136 C28.3024,33.1856 27.0854,34.0466 26.0604,34.6556 L23.8374,27.6156 L23.5374,26.6906 L22.6024,26.9566 C22.5984,26.9576 22.2474,27.0556 21.7474,27.0556 C20.4654,27.0556 19.4794,26.4556 18.8154,25.2716 L18.3224,24.4026 L17.4514,24.8906 C17.4384,24.8976 16.1694,25.5976 14.6194,25.5976 C13.2064,25.5976 11.9994,25.0116 11.0324,23.8556 L10.4474,23.1556 L9.6974,23.6746 C9.2384,23.9916 8.3944,24.1816 7.4404,24.1816 C4.9144,24.1816 1.1554,22.8206 1.1554,19.0716 C1.1554,16.9296 1.9114,16.0726 1.9264,16.0536 L2.3834,15.5946 L2.1534,14.9896 C2.1424,14.9596 1.0364,11.9976 2.2014,10.1586 C3.3634,8.3226 4.4624,8.0446 4.4834,8.0376 L5.1114,7.9246 L5.2734,7.3076 C5.2784,7.2846 5.8854,5.0976 7.3674,4.2576 C8.2264,3.7696 9.1634,3.6666 9.7974,3.6666 C10.3924,3.6666 10.8024,3.7556 10.8024,3.7556 L11.3614,3.8786 L11.7534,3.4656 C11.7704,3.4486 13.4614,1.6996 16.0244,1.6996" id="Fill-18" fill="#375EB4"></path>
            <path d="M25.7031,13.3793 C30.3531,12.4773 33.0901,16.0973 33.9531,18.4093" id="Stroke-20" stroke="#375EB4" stroke-linecap="round"></path>
            <path d="M1.6533,15.5165 C1.6533,15.5165 3.6093,13.5215 8.5093,14.9125" id="Stroke-22" stroke="#375EB4" stroke-linecap="round"></path>
            <path d="M8.375,20.3168 C8.375,20.3168 10.328,25.7738 13.989,26.0358 C17.359,26.2758 19.433,24.3428 20.266,23.0928 C21.099,21.8428 21.847,18.7938 25.703,19.2338" id="Stroke-24" stroke="#375EB4" stroke-linecap="round"></path>
            <path d="M20.8379,2.5502 C20.8379,2.5502 16.6479,4.2682 17.1879,7.8172 C17.6709,10.9902 20.1999,10.4012 20.1999,10.4012" id="Stroke-26" stroke="#375EB4" stroke-linecap="round"></path>
            <path d="M13.5059,10.6718 C13.5059,10.6718 16.8569,10.9428 17.1399,7.1538" id="Stroke-28" stroke="#375EB4" stroke-linecap="round"></path>
            <path d="M16,19.1904 C16,19.1904 15.031,15.3274 19.313,15.3274" id="Stroke-30" stroke="#375EB4" stroke-linecap="round"></path>
        </g>
    </g>
</svg>