<?xml version="1.0" encoding="UTF-8"?>
<svg width="70px" height="48px" viewBox="0 0 70 48" version="1.1" xmlns="http://www.w3.org/2000/svg" xmlns:xlink="http://www.w3.org/1999/xlink">
    <!-- Generator: Sketch 51.3 (57544) - http://www.bohemiancoding.com/sketch -->
    <title>icon_gear</title>
    <desc>Created with Sketch.</desc>
    <defs></defs>
    <g id="icon_gear" stroke="none" stroke-width="1" fill="none" fill-rule="evenodd">
        <rect id="bounds" fill="#FFFFFF" opacity="0" x="11" y="0" width="48" height="48"></rect>
        <circle id="inner" stroke="#375EB4" stroke-width="2" cx="35" cy="24" r="5"></circle>
        <circle id="middle" stroke="#375EB4" cx="35" cy="24" r="11.5"></circle>
        <path d="M38.2353684,1 L31.7646316,1 L31.7646316,5.50645029 L30.9782331,5.67839455 C28.8140784,6.15158215 26.7617359,7.00876719 24.8952643,8.20594232 L24.2176998,8.64053955 L21.0245551,5.44860579 L16.448874,10.0242869 L19.6417985,13.2160007 L19.2073656,13.8937514 C18.0098805,15.7619257 17.152784,17.8143588 16.6796577,19.9782331 L16.5077134,20.7646316 L12,20.7646316 L12,27.2353684 L16.5077134,27.2353684 L16.6796577,28.0217669 C17.152784,30.1856412 18.0098805,32.2380743 19.2073656,34.1062486 L19.6417985,34.7839993 L16.448874,37.9757131 L21.0244211,42.5512601 L24.2175683,39.3581129 L24.8952643,39.7927945 C26.763249,40.9909401 28.8156835,41.8487688 30.9782331,42.3216055 L31.7646316,42.4935497 L31.7646316,47 L38.2353684,47 L38.2353684,42.4935497 L39.0217669,42.3216055 C41.1849866,41.8486223 43.2386468,40.9905344 45.1059988,39.7927945 L45.7838265,39.3580285 L48.9757131,42.551126 L53.5512601,37.9755789 L50.3595489,34.7838678 L50.7938975,34.1062486 C51.9913826,32.2380743 52.8484792,30.1856412 53.3216055,28.0217669 L53.4935497,27.2353684 L58,27.2353684 L58,20.7646316 L53.4935497,20.7646316 L53.3216055,19.9782331 C52.8484792,17.8143588 51.9913826,15.7619257 50.7938975,13.8937514 L50.3595489,13.2161322 L53.5512601,10.0244211 L48.9755789,5.44873988 L45.7836949,8.64062393 L45.1059988,8.20594232 C43.2401579,7.00917173 41.1865931,6.15172896 39.0217669,5.67839455 L38.2353684,5.50645029 L38.2353684,1 Z" id="outer" stroke="#375EB4" stroke-width="2"></path>
    </g>
</svg>