<?xml version="1.0" encoding="UTF-8"?>
<svg width="70px" height="70px" viewBox="0 0 70 70" version="1.1" xmlns="http://www.w3.org/2000/svg" xmlns:xlink="http://www.w3.org/1999/xlink">
    <!-- Generator: Sketch 52.2 (67145) - http://www.bohemiancoding.com/sketch -->
    <title>icon_analytics</title>
    <desc>Created with Sketch.</desc>
    <defs>
        <path d="M1.75,0 L1,0 L0.278,0 C0.962,0.992 1.704,1.942 2.5,2.843 L2.5,0 L1.75,0 Z" id="path-1"></path>
        <linearGradient x1="50%" y1="18.835802%" x2="50%" y2="100%" id="linearGradient-3">
            <stop stop-color="#375EB4" offset="0%"></stop>
            <stop stop-color="#3394C3" offset="100%"></stop>
        </linearGradient>
        <path d="M2.75,0 L2,0 L1.25,0 L0.5,0 L0.5,7.799 C1.451,8.613 2.452,9.368 3.5,10.059 L3.5,0 L2.75,0 Z" id="path-4"></path>
        <path d="M2.75,0 L2,0 L1.25,0 L0.5,0 L0.5,19.699 L0.5,19.798 C1.471,20.288 2.472,20.727 3.5,21.111 L3.5,19.699 L3.5,0 L2.75,0 Z" id="path-6"></path>
        <path d="M2.75,0 L2,0 L1.25,0 L0.5,0 L0.5,18.911 L0.5,21.055 C1.482,21.308 2.482,21.512 3.5,21.665 L3.5,18.911 L3.5,0 L2.75,0 Z" id="path-8"></path>
        <path d="M2.75,0 L2,0 L1.25,0 L0.5,0 L0.5,20.487 L0.5,23.963 C0.997,23.988 1.497,24 2,24 C2.502,24 3.003,23.988 3.5,23.963 L3.5,20.487 L3.5,0 L2.75,0 Z" id="path-10"></path>
        <path d="M2.75,0 L2,0 L1.25,0 L0.5,0 L0.5,16.548 L0.5,18.665 C1.518,18.512 2.518,18.308 3.5,18.055 L3.5,16.548 L3.5,0 L2.75,0 Z" id="path-12"></path>
        <path d="M2.75,0 L2,0 L1.25,0 L0.5,0 L0.5,14.972 L0.5,15.111 C1.528,14.727 2.529,14.289 3.5,13.798 L3.5,0 L2.75,0 Z" id="path-14"></path>
        <path d="M2.75,0 L2,0 L1.25,0 L0.5,0 L0.5,16.059 C1.548,15.368 2.55,14.613 3.5,13.799 L3.5,0 L2.75,0 Z" id="path-16"></path>
        <path d="M2.75,0 L2,0 L1.25,0 L0.5,0 L0.5,21.844 C1.608,20.589 2.612,19.24 3.5,17.811 L3.5,0 L2.75,0 Z" id="path-18"></path>
        <path d="M30,0 C13.432,0 0,13.432 0,30 C0,46.569 13.432,60 30,60 C46.569,60 60,46.569 60,30" id="path-20"></path>
        <path d="M30,0 C13.432,0 0,13.432 0,30 C0,46.569 13.432,60 30,60 C46.569,60 60,46.569 60,30" id="path-22"></path>
        <path d="M30,0 C13.432,0 0,13.432 0,30 C0,46.569 13.432,60 30,60 C46.569,60 60,46.569 60,30" id="path-24"></path>
        <path d="M30,0 C13.432,0 0,13.432 0,30 C0,46.569 13.432,60 30,60 C46.569,60 60,46.569 60,30" id="path-26"></path>
        <path d="M30,0 C13.432,0 0,13.432 0,30 C0,46.569 13.432,60 30,60 C46.569,60 60,46.569 60,30" id="path-28"></path>
        <path d="M30,0 C13.432,0 0,13.432 0,30 C0,46.569 13.432,60 30,60 C46.569,60 60,46.569 60,30" id="path-30"></path>
        <path d="M30,0 C13.432,0 0,13.432 0,30 C0,46.569 13.432,60 30,60 C46.569,60 60,46.569 60,30" id="path-32"></path>
        <path d="M30,0 C13.432,0 0,13.432 0,30 C0,46.569 13.432,60 30,60 C46.569,60 60,46.569 60,30" id="path-34"></path>
        <path d="M30,0 C13.432,0 0,13.432 0,30 C0,46.569 13.432,60 30,60 C46.569,60 60,46.569 60,30" id="path-36"></path>
    </defs>
    <g id="icon_analytics" stroke="none" stroke-width="1" fill="none" fill-rule="evenodd">
        <g id="Group-45" transform="translate(5.000000, 5.000000)">
            <path d="M60,30 C60,46.568 46.568,60 30,60 C13.432,60 0,46.568 0,30 C0,13.432 13.432,0 30,0 C46.568,0 60,13.432 60,30" id="Fill-1" fill="#F1F1F1"></path>
            <path d="M4,7 L21,7" id="Stroke-3" stroke="#6D6E71" stroke-linecap="round" stroke-linejoin="round"></path>
            <path d="M25,7 L43,7" id="Stroke-5" stroke="#6D6E71" stroke-linecap="round" stroke-linejoin="round"></path>
            <path d="M4,12 L33,12" id="Stroke-7" stroke="#6D6E71" stroke-linecap="round" stroke-linejoin="round"></path>
            <path d="M4,38 L21.333,27" id="Stroke-9" stroke="#EF4B46"></path>
            <path d="M4,38 L21.333,27" id="Stroke-11" stroke="#EF4B46" style="mix-blend-mode: multiply;"></path>
            <path d="M21.333,27 L38.667,33" id="Stroke-13" stroke="#EF4B46"></path>
            <path d="M21.333,27 L38.667,33" id="Stroke-15" stroke="#EF4B46" style="mix-blend-mode: multiply;"></path>
            <path d="M38.667,33 L56,18" id="Stroke-17" stroke="#EF4B46"></path>
            <path d="M38.667,33 L56,18" id="Stroke-19" stroke="#EF4B46" style="mix-blend-mode: multiply;"></path>
            <path d="M21.333,30.5 C19.403,30.5 17.833,28.93 17.833,27 C17.833,25.07 19.403,23.5 21.333,23.5 C23.263,23.5 24.833,25.07 24.833,27 C24.833,28.93 23.263,30.5 21.333,30.5" id="Fill-21" fill="#EF4B46"></path>
            <path d="M21.333,23 C19.124,23 17.333,24.791 17.333,27 C17.333,29.209 19.124,31 21.333,31 C23.543,31 25.333,29.209 25.333,27 C25.333,24.791 23.543,23 21.333,23 M21.333,24 C22.987,24 24.333,25.346 24.333,27 C24.333,28.654 22.987,30 21.333,30 C19.679,30 18.333,28.654 18.333,27 C18.333,25.346 19.679,24 21.333,24" id="Fill-23" fill="#EF4B46"></path>
            <path d="M21.333,23 C19.124,23 17.333,24.791 17.333,27 C17.333,29.209 19.124,31 21.333,31 C23.543,31 25.333,29.209 25.333,27 C25.333,24.791 23.543,23 21.333,23 M21.333,24 C22.987,24 24.333,25.346 24.333,27 C24.333,28.654 22.987,30 21.333,30 C19.679,30 18.333,28.654 18.333,27 C18.333,25.346 19.679,24 21.333,24" id="Fill-25" fill="#EF4B46" style="mix-blend-mode: multiply;"></path>
            <path d="M4,41.5 C2.07,41.5 0.5,39.93 0.5,38 C0.5,36.07 2.07,34.5 4,34.5 C5.93,34.5 7.5,36.07 7.5,38 C7.5,39.93 5.93,41.5 4,41.5" id="Fill-27" fill="#EF4B46"></path>
            <path d="M4,34 C1.791,34 0,35.791 0,38 C0,40.209 1.791,42 4,42 C6.209,42 8,40.209 8,38 C8,35.791 6.209,34 4,34 M4,35 C5.654,35 7,36.346 7,38 C7,39.654 5.654,41 4,41 C2.346,41 1,39.654 1,38 C1,36.346 2.346,35 4,35" id="Fill-29" fill="#EF4B46"></path>
            <path d="M4,34 C1.791,34 0,35.791 0,38 C0,40.209 1.791,42 4,42 C6.209,42 8,40.209 8,38 C8,35.791 6.209,34 4,34 M4,35 C5.654,35 7,36.346 7,38 C7,39.654 5.654,41 4,41 C2.346,41 1,39.654 1,38 C1,36.346 2.346,35 4,35" id="Fill-31" fill="#EF4B46" style="mix-blend-mode: multiply;"></path>
            <path d="M38.667,36.5 C36.737,36.5 35.167,34.93 35.167,33 C35.167,31.07 36.737,29.5 38.667,29.5 C40.597,29.5 42.167,31.07 42.167,33 C42.167,34.93 40.597,36.5 38.667,36.5" id="Fill-33" fill="#EF4B46"></path>
            <path d="M38.667,29 C36.457,29 34.667,30.791 34.667,33 C34.667,35.209 36.457,37 38.667,37 C40.876,37 42.667,35.209 42.667,33 C42.667,30.791 40.876,29 38.667,29 M38.667,30 C40.321,30 41.667,31.346 41.667,33 C41.667,34.654 40.321,36 38.667,36 C37.013,36 35.667,34.654 35.667,33 C35.667,31.346 37.013,30 38.667,30" id="Fill-35" fill="#EF4B46"></path>
            <path d="M38.667,29 C36.457,29 34.667,30.791 34.667,33 C34.667,35.209 36.457,37 38.667,37 C40.876,37 42.667,35.209 42.667,33 C42.667,30.791 40.876,29 38.667,29 M38.667,30 C40.321,30 41.667,31.346 41.667,33 C41.667,34.654 40.321,36 38.667,36 C37.013,36 35.667,34.654 35.667,33 C35.667,31.346 37.013,30 38.667,30" id="Fill-37" fill="#EF4B46" style="mix-blend-mode: multiply;"></path>
            <path d="M56,21.5 C54.07,21.5 52.5,19.93 52.5,18 C52.5,16.07 54.07,14.5 56,14.5 C57.93,14.5 59.5,16.07 59.5,18 C59.5,19.93 57.93,21.5 56,21.5" id="Fill-39" fill="#EF4B46"></path>
            <path d="M56,14 C53.791,14 52,15.791 52,18 C52,20.209 53.791,22 56,22 C58.209,22 60,20.209 60,18 C60,15.791 58.209,14 56,14 M56,15 C57.654,15 59,16.346 59,18 C59,19.654 57.654,21 56,21 C54.346,21 53,19.654 53,18 C53,16.346 54.346,15 56,15" id="Fill-41" fill="#EF4B46"></path>
            <path d="M56,14 C53.791,14 52,15.791 52,18 C52,20.209 53.791,22 56,22 C58.209,22 60,20.209 60,18 C60,15.791 58.209,14 56,14 M56,15 C57.654,15 59,16.346 59,18 C59,19.654 57.654,21 56,21 C54.346,21 53,19.654 53,18 C53,16.346 54.346,15 56,15" id="Fill-43" fill="#EF4B46" style="mix-blend-mode: multiply;"></path>
        </g>
        <g id="Group-48" transform="translate(10.000000, 52.000000)">
            <mask id="mask-2" fill="white">
                <use xlink:href="#path-1"></use>
            </mask>
            <g id="Clip-47"></g>
            <path d="M1.75,0 L1,0 L0.278,0 C0.962,0.992 1.704,1.942 2.5,2.843 L2.5,0 L1.75,0 Z" id="Fill-46" fill="url(#linearGradient-3)" mask="url(#mask-2)"></path>
        </g>
        <g id="Group-51" transform="translate(15.000000, 50.000000)">
            <mask id="mask-5" fill="white">
                <use xlink:href="#path-4"></use>
            </mask>
            <g id="Clip-50"></g>
            <path d="M2.75,0 L2,0 L1.25,0 L0.5,0 L0.5,7.799 C1.451,8.613 2.452,9.368 3.5,10.059 L3.5,0 L2.75,0 Z" id="Fill-49" fill="url(#linearGradient-3)" mask="url(#mask-5)"></path>
        </g>
        <g id="Group-54" transform="translate(21.000000, 42.000000)">
            <mask id="mask-7" fill="white">
                <use xlink:href="#path-6"></use>
            </mask>
            <g id="Clip-53"></g>
            <path d="M2.75,0 L2,0 L1.25,0 L0.5,0 L0.5,19.699 L0.5,19.798 C1.471,20.288 2.472,20.727 3.5,21.111 L3.5,19.699 L3.5,0 L2.75,0 Z" id="Fill-52" fill="url(#linearGradient-3)" mask="url(#mask-7)"></path>
        </g>
        <g id="Group-57" transform="translate(27.000000, 43.000000)">
            <mask id="mask-9" fill="white">
                <use xlink:href="#path-8"></use>
            </mask>
            <g id="Clip-56"></g>
            <path d="M2.75,0 L2,0 L1.25,0 L0.5,0 L0.5,18.911 L0.5,21.055 C1.482,21.308 2.482,21.512 3.5,21.665 L3.5,18.911 L3.5,0 L2.75,0 Z" id="Fill-55" fill="url(#linearGradient-3)" mask="url(#mask-9)"></path>
        </g>
        <g id="Group-60" transform="translate(33.000000, 41.000000)">
            <mask id="mask-11" fill="white">
                <use xlink:href="#path-10"></use>
            </mask>
            <g id="Clip-59"></g>
            <path d="M2.75,0 L2,0 L1.25,0 L0.5,0 L0.5,20.487 L0.5,23.963 C0.997,23.988 1.497,24 2,24 C2.502,24 3.003,23.988 3.5,23.963 L3.5,20.487 L3.5,0 L2.75,0 Z" id="Fill-58" fill="url(#linearGradient-3)" mask="url(#mask-11)"></path>
        </g>
        <g id="Group-63" transform="translate(39.000000, 46.000000)">
            <mask id="mask-13" fill="white">
                <use xlink:href="#path-12"></use>
            </mask>
            <g id="Clip-62"></g>
            <path d="M2.75,0 L2,0 L1.25,0 L0.5,0 L0.5,16.548 L0.5,18.665 C1.518,18.512 2.518,18.308 3.5,18.055 L3.5,16.548 L3.5,0 L2.75,0 Z" id="Fill-61" fill="url(#linearGradient-3)" mask="url(#mask-13)"></path>
        </g>
        <g id="Group-66" transform="translate(45.000000, 48.000000)">
            <mask id="mask-15" fill="white">
                <use xlink:href="#path-14"></use>
            </mask>
            <g id="Clip-65"></g>
            <path d="M2.75,0 L2,0 L1.25,0 L0.5,0 L0.5,14.972 L0.5,15.111 C1.528,14.727 2.529,14.289 3.5,13.798 L3.5,0 L2.75,0 Z" id="Fill-64" fill="url(#linearGradient-3)" mask="url(#mask-15)"></path>
        </g>
        <g id="Group-69" transform="translate(51.000000, 44.000000)">
            <mask id="mask-17" fill="white">
                <use xlink:href="#path-16"></use>
            </mask>
            <g id="Clip-68"></g>
            <path d="M2.75,0 L2,0 L1.25,0 L0.5,0 L0.5,16.059 C1.548,15.368 2.55,14.613 3.5,13.799 L3.5,0 L2.75,0 Z" id="Fill-67" fill="url(#linearGradient-3)" mask="url(#mask-17)"></path>
        </g>
        <g id="Group-72" transform="translate(57.000000, 33.000000)">
            <mask id="mask-19" fill="white">
                <use xlink:href="#path-18"></use>
            </mask>
            <g id="Clip-71"></g>
            <path d="M2.75,0 L2,0 L1.25,0 L0.5,0 L0.5,21.844 C1.608,20.589 2.612,19.24 3.5,17.811 L3.5,0 L2.75,0 Z" id="Fill-70" fill="url(#linearGradient-3)" mask="url(#mask-19)"></path>
        </g>
        <g id="Group-100" style="mix-blend-mode: multiply;" transform="translate(5.000000, 5.000000)">
            <g id="Group-75">
                <mask id="mask-21" fill="white">
                    <use xlink:href="#path-20"></use>
                </mask>
                <g id="Clip-74"></g>
                <path d="M36,41 L36,42" id="Stroke-73" stroke="#375EB4" stroke-width="3" mask="url(#mask-21)"></path>
            </g>
            <g id="Group-78">
                <mask id="mask-23" fill="white">
                    <use xlink:href="#path-22"></use>
                </mask>
                <g id="Clip-77"></g>
                <path d="M42,43 L42,44" id="Stroke-76" stroke="#375EB4" stroke-width="3" mask="url(#mask-23)"></path>
            </g>
            <g id="Group-81">
                <mask id="mask-25" fill="white">
                    <use xlink:href="#path-24"></use>
                </mask>
                <g id="Clip-80"></g>
                <path d="M48,39 L48,40" id="Stroke-79" stroke="#375EB4" stroke-width="3" mask="url(#mask-25)"></path>
            </g>
            <g id="Group-84">
                <mask id="mask-27" fill="white">
                    <use xlink:href="#path-26"></use>
                </mask>
                <g id="Clip-83"></g>
                <path d="M6,47 L6,48" id="Stroke-82" stroke="#375EB4" stroke-width="3" mask="url(#mask-27)"></path>
            </g>
            <g id="Group-87">
                <mask id="mask-29" fill="white">
                    <use xlink:href="#path-28"></use>
                </mask>
                <g id="Clip-86"></g>
                <path d="M12,45 L12,46" id="Stroke-85" stroke="#375EB4" stroke-width="3" mask="url(#mask-29)"></path>
            </g>
            <g id="Group-90">
                <mask id="mask-31" fill="white">
                    <use xlink:href="#path-30"></use>
                </mask>
                <g id="Clip-89"></g>
                <path d="M18,37 L18,38" id="Stroke-88" stroke="#375EB4" stroke-width="3" mask="url(#mask-31)"></path>
            </g>
            <g id="Group-93">
                <mask id="mask-33" fill="white">
                    <use xlink:href="#path-32"></use>
                </mask>
                <g id="Clip-92"></g>
                <path d="M24,38 L24,39" id="Stroke-91" stroke="#375EB4" stroke-width="3" mask="url(#mask-33)"></path>
            </g>
            <g id="Group-96">
                <mask id="mask-35" fill="white">
                    <use xlink:href="#path-34"></use>
                </mask>
                <g id="Clip-95"></g>
                <path d="M30,36 L30,37" id="Stroke-94" stroke="#375EB4" stroke-width="3" mask="url(#mask-35)"></path>
            </g>
            <g id="Group-99">
                <mask id="mask-37" fill="white">
                    <use xlink:href="#path-36"></use>
                </mask>
                <g id="Clip-98"></g>
                <path d="M54,28 L54,29" id="Stroke-97" stroke="#375EB4" stroke-width="3" mask="url(#mask-37)"></path>
            </g>
        </g>
    </g>
</svg>