<?xml version="1.0" encoding="UTF-8"?>
<svg width="70px" height="70px" viewBox="0 0 70 70" version="1.1" xmlns="http://www.w3.org/2000/svg" xmlns:xlink="http://www.w3.org/1999/xlink">
    <!-- Generator: Sketch 52.2 (67145) - http://www.bohemiancoding.com/sketch -->
    <title>icon_prototype</title>
    <desc>Created with Sketch.</desc>
    <defs>
        <polygon id="path-1" points="0.0003 0 60 0 60 60 0.0003 60"></polygon>
        <path d="M18.952,3.396 C17.396,3.117 15.833,3.13 14.324,3.4 L13.124,0.5 L7.906,2.661 L9.108,5.561 C7.85,6.436 6.735,7.532 5.831,8.83 L2.936,7.63 L0.775,12.848 L3.67,14.048 C3.391,15.604 3.405,17.168 3.675,18.675 L0.775,19.877 L2.936,25.094 L5.837,23.893 C6.711,25.151 7.807,26.266 9.106,27.169 L7.906,30.064 L13.124,32.225 L14.323,29.329 C15.878,29.609 17.443,29.595 18.95,29.325 L20.152,32.225 L25.368,30.064 L24.168,27.163 C25.425,26.288 26.54,25.192 27.443,23.894 L30.339,25.094 L32.5,19.877 L29.604,18.677 C29.883,17.122 29.869,15.558 29.599,14.05 L32.5,12.848 L30.339,7.63 L27.437,8.833 C26.563,7.576 25.467,6.46 24.169,5.557 L25.368,2.661 L20.152,0.5 L18.952,3.396 Z" id="path-3"></path>
        <linearGradient x1="50%" y1="18.835802%" x2="50%" y2="100%" id="linearGradient-5">
            <stop stop-color="#375EB4" offset="0%"></stop>
            <stop stop-color="#3394C3" offset="100%"></stop>
        </linearGradient>
    </defs>
    <g id="icon_prototype" stroke="none" stroke-width="1" fill="none" fill-rule="evenodd">
        <g id="Group-12" transform="translate(5.000000, 5.000000)">
            <g id="Group-3">
                <mask id="mask-2" fill="white">
                    <use xlink:href="#path-1"></use>
                </mask>
                <g id="Clip-2"></g>
                <path d="M60.0003,30 C60.0003,46.568 46.5683,60 30.0003,60 C13.4313,60 0.0003,46.568 0.0003,30 C0.0003,13.432 13.4313,0 30.0003,0 C46.5683,0 60.0003,13.432 60.0003,30" id="Fill-1" fill="#F1F1F1" mask="url(#mask-2)"></path>
            </g>
            <path d="M25.0941,26.6611 L19.8771,24.5001 L18.6771,27.3961 C17.1211,27.1171 15.5581,27.1301 14.0501,27.4011 L12.8481,24.5001 L7.6311,26.6611 L8.8321,29.5611 C7.5741,30.4361 6.4591,31.5331 5.5571,32.8301 L2.6611,31.6311 L0.5001,36.8481 L3.3961,38.0481 C3.1161,39.6041 3.1301,41.1671 3.4011,42.6751 L0.5001,43.8771 L2.6611,49.0941 L5.5621,47.8921 C6.4371,49.1501 7.5321,50.2651 8.8301,51.1681 L7.6311,54.0641 L12.8481,56.2251 L14.0481,53.3291 C15.6041,53.6081 17.1671,53.5951 18.6751,53.3251 L19.8771,56.2251 L25.0941,54.0641 L23.8931,51.1631 C25.1511,50.2881 26.2661,49.1921 27.1681,47.8941 L30.0641,49.0941 L32.2251,43.8771 L29.3291,42.6771 C29.6091,41.1211 29.5951,39.5571 29.3241,38.0501 L32.2251,36.8481 L30.0641,31.6311 L27.1631,32.8321 C26.2881,31.5751 25.1931,30.4601 23.8951,29.5571 L25.0941,26.6611 Z" id="Fill-4" fill="#EF4B46"></path>
            <path d="M25.0941,26.6611 L19.8771,24.5001 L18.6771,27.3961 C17.1211,27.1171 15.5581,27.1301 14.0501,27.4011 L12.8481,24.5001 L7.6311,26.6611 L8.8321,29.5611 C7.5741,30.4361 6.4591,31.5331 5.5571,32.8301 L2.6611,31.6311 L0.5001,36.8481 L3.3961,38.0481 C3.1161,39.6041 3.1301,41.1671 3.4011,42.6751 L0.5001,43.8771 L2.6611,49.0941 L5.5621,47.8921 C6.4371,49.1501 7.5321,50.2651 8.8301,51.1681 L7.6311,54.0641 L12.8481,56.2251 L14.0481,53.3291 C15.6041,53.6081 17.1671,53.5951 18.6751,53.3251 L19.8771,56.2251 L25.0941,54.0641 L23.8931,51.1631 C25.1511,50.2881 26.2661,49.1921 27.1681,47.8941 L30.0641,49.0941 L32.2251,43.8771 L29.3291,42.6771 C29.6091,41.1211 29.5951,39.5571 29.3241,38.0501 L32.2251,36.8481 L30.0641,31.6311 L27.1631,32.8321 C26.2881,31.5751 25.1931,30.4601 23.8951,29.5571 L25.0941,26.6611 Z" id="Stroke-6" stroke="#EF4B46" stroke-linejoin="round"></path>
            <path d="M25.0941,26.6611 L19.8771,24.5001 L18.6771,27.3961 C17.1211,27.1171 15.5581,27.1301 14.0501,27.4011 L12.8481,24.5001 L7.6311,26.6611 L8.8321,29.5611 C7.5741,30.4361 6.4591,31.5331 5.5571,32.8301 L2.6611,31.6311 L0.5001,36.8481 L3.3961,38.0481 C3.1161,39.6041 3.1301,41.1671 3.4011,42.6751 L0.5001,43.8771 L2.6611,49.0941 L5.5621,47.8921 C6.4371,49.1501 7.5321,50.2651 8.8301,51.1681 L7.6311,54.0641 L12.8481,56.2251 L14.0481,53.3291 C15.6041,53.6081 17.1671,53.5951 18.6751,53.3251 L19.8771,56.2251 L25.0941,54.0641 L23.8931,51.1631 C25.1511,50.2881 26.2661,49.1921 27.1681,47.8941 L30.0641,49.0941 L32.2251,43.8771 L29.3291,42.6771 C29.6091,41.1211 29.5951,39.5571 29.3241,38.0501 L32.2251,36.8481 L30.0641,31.6311 L27.1631,32.8321 C26.2881,31.5751 25.1931,30.4601 23.8951,29.5571 L25.0941,26.6611 Z" id="Stroke-8" stroke="#EF4B46" style="mix-blend-mode: multiply;" stroke-linejoin="round"></path>
            <path d="M22.0199,34.7056 C25.1439,37.8306 25.1439,42.8956 22.0199,46.0196 C18.8949,49.1436 13.8309,49.1436 10.7059,46.0196 C7.5819,42.8956 7.5819,37.8306 10.7059,34.7056 C13.8309,31.5816 18.8949,31.5816 22.0199,34.7056" id="Fill-10" fill="#F1F1F1"></path>
        </g>
        <g id="Group-15" transform="translate(32.000000, 8.000000)">
            <mask id="mask-4" fill="white">
                <use xlink:href="#path-3"></use>
            </mask>
            <g id="Clip-14"></g>
            <path d="M18.952,3.396 C17.396,3.117 15.833,3.13 14.324,3.4 L13.124,0.5 L7.906,2.661 L9.108,5.561 C7.85,6.436 6.735,7.532 5.831,8.83 L2.936,7.63 L0.775,12.848 L3.67,14.048 C3.391,15.604 3.405,17.168 3.675,18.675 L0.775,19.877 L2.936,25.094 L5.837,23.893 C6.711,25.151 7.807,26.266 9.106,27.169 L7.906,30.064 L13.124,32.225 L14.323,29.329 C15.878,29.609 17.443,29.595 18.95,29.325 L20.152,32.225 L25.368,30.064 L24.168,27.163 C25.425,26.288 26.54,25.192 27.443,23.894 L30.339,25.094 L32.5,19.877 L29.604,18.677 C29.883,17.122 29.869,15.558 29.599,14.05 L32.5,12.848 L30.339,7.63 L27.437,8.833 C26.563,7.576 25.467,6.46 24.169,5.557 L25.368,2.661 L20.152,0.5 L18.952,3.396 Z" id="Fill-13" fill="url(#linearGradient-5)" mask="url(#mask-4)"></path>
        </g>
        <g id="Group-22" transform="translate(32.000000, 8.000000)">
            <path d="M25.3685,2.6611 L20.1515,0.5001 L18.9525,3.3961 C17.3955,3.1171 15.8325,3.1301 14.3245,3.4011 L13.1235,0.5001 L7.9055,2.6611 L9.1075,5.5611 C7.8495,6.4361 6.7345,7.5331 5.8315,8.8301 L2.9355,7.6311 L0.7745,12.8481 L3.6705,14.0481 C3.3905,15.6041 3.4045,17.1671 3.6755,18.6751 L0.7745,19.8771 L2.9355,25.0941 L5.8365,23.8921 C6.7115,25.1501 7.8075,26.2651 9.1055,27.1681 L7.9055,30.0641 L13.1235,32.2251 L14.3225,29.3291 C15.8785,29.6081 17.4425,29.5951 18.9505,29.3251 L20.1515,32.2251 L25.3685,30.0641 L24.1675,27.1631 C25.4255,26.2881 26.5405,25.1921 27.4425,23.8941 L30.3395,25.0941 L32.5005,19.8771 L29.6035,18.6771 C29.8835,17.1211 29.8695,15.5571 29.5985,14.0501 L32.5005,12.8481 L30.3395,7.6311 L27.4375,8.8321 C26.5625,7.5751 25.4675,6.4601 24.1695,5.5571 L25.3685,2.6611 Z" id="Stroke-16" stroke="#375EB4" stroke-linejoin="round"></path>
            <path d="M25.3685,2.6611 L20.1515,0.5001 L18.9525,3.3961 C17.3955,3.1171 15.8325,3.1301 14.3245,3.4011 L13.1235,0.5001 L7.9055,2.6611 L9.1075,5.5611 C7.8495,6.4361 6.7345,7.5331 5.8315,8.8301 L2.9355,7.6311 L0.7745,12.8481 L3.6705,14.0481 C3.3905,15.6041 3.4045,17.1671 3.6755,18.6751 L0.7745,19.8771 L2.9355,25.0941 L5.8365,23.8921 C6.7115,25.1501 7.8075,26.2651 9.1055,27.1681 L7.9055,30.0641 L13.1235,32.2251 L14.3225,29.3291 C15.8785,29.6081 17.4425,29.5951 18.9505,29.3251 L20.1515,32.2251 L25.3685,30.0641 L24.1675,27.1631 C25.4255,26.2881 26.5405,25.1921 27.4425,23.8941 L30.3395,25.0941 L32.5005,19.8771 L29.6035,18.6771 C29.8835,17.1211 29.8695,15.5571 29.5985,14.0501 L32.5005,12.8481 L30.3395,7.6311 L27.4375,8.8321 C26.5625,7.5751 25.4675,6.4601 24.1695,5.5571 L25.3685,2.6611 Z" id="Stroke-18" stroke="#375EB4" style="mix-blend-mode: multiply;" stroke-linejoin="round"></path>
            <path d="M22.2943,10.7056 C25.4183,13.8306 25.4183,18.8956 22.2943,22.0196 C19.1703,25.1436 14.1053,25.1436 10.9813,22.0196 C7.8563,18.8956 7.8563,13.8306 10.9813,10.7056 C14.1053,7.5816 19.1703,7.5816 22.2943,10.7056" id="Fill-20" fill="#F1F1F1"></path>
        </g>
    </g>
</svg>