<?xml version="1.0" encoding="UTF-8"?>
<svg width="70px" height="48px" viewBox="0 0 70 48" version="1.1" xmlns="http://www.w3.org/2000/svg" xmlns:xlink="http://www.w3.org/1999/xlink">
    <!-- Generator: Sketch 51.3 (57544) - http://www.bohemiancoding.com/sketch -->
    <title>icon_shake</title>
    <desc>Created with Sketch.</desc>
    <defs></defs>
    <g id="icon_shake" stroke="none" stroke-width="1" fill="none" fill-rule="evenodd">
        <path d="M6.13848003,23 C5.63610152,23 5.1747335,23.334919 5.03917105,23.8452718 C4.87626827,24.4524549 5.23624924,25.0778649 5.84457151,25.2407676 C5.9436802,25.2669688 6.04278889,25.2794998 6.13961921,25.2794998 C6.6431369,25.2794998 7.10450492,24.9434416 7.24006737,24.434228 C7.40297015,23.8270449 7.04185,23.2016349 6.43466691,23.0387321 C6.33555822,23.012531 6.23644954,23 6.13848003,23" id="Fill-2" fill="#375EB4"></path>
        <path d="M55.6772836,8.33854579 L45.8998799,5.53103077 L32.9724619,8.94857165 L24.3762074,15.0659698 L22.907804,25.3163141 C22.907804,25.3163141 28.4897875,26.8177537 30.8410556,19.913182 L35.2906938,17.1666183 L50.5260911,28.7281591 L60.9714015,26.0063871" id="Stroke-6" stroke="#375EB4"></path>
        <polyline id="Stroke-8" stroke="#375EB4" points="14.2526635 9.40853275 26.2481085 7.53701335 32.9726898 8.94845774"></polyline>
        <polyline id="Stroke-10" stroke="#375EB4" points="8.99347202 26.133036 30.3990537 43.4191421 36.2760848 42.6843708 37.0108561 41.655691 32.0155505 36.8073396"></polyline>
        <polyline id="Stroke-12" stroke="#375EB4" points="34.9845242 32.6234669 42.1807261 38.5323951 42.1807261 40.2958462 36.0107422 41.6552353"></polyline>
        <polyline id="Stroke-14" stroke="#375EB4" points="39.8017339 28.7279312 47.4410769 34.5343332 47.4410769 36.3672743 42.4867818 38.8643575"></polyline>
        <polyline id="Stroke-16" stroke="#375EB4" points="50.5259771 28.7279312 51.6651574 31.7763777 47.4410769 34.5343332"></polyline>
        <rect id="Rectangle-9" stroke="#375EB4" stroke-width="2" transform="translate(61.533623, 16.613023) rotate(-16.000000) translate(-61.533623, -16.613023) " x="58.2273233" y="4.43976835" width="6.61259857" height="24.3465097"></rect>
        <rect id="Rectangle-9-Copy" stroke="#375EB4" stroke-width="2" transform="translate(8.533623, 16.613023) rotate(17.000000) translate(-8.533623, -16.613023) " x="5.22732335" y="4.43976835" width="6.61259857" height="24.3465097"></rect>
        <polyline id="Path-5" stroke="#375EB4" stroke-width="2" points="9.0401493 25.762871 30.4409891 43.3842141 36.1814788 42.7527872 36.9078361 41.5774114 42.211097 40.3073345 42.211097 38.7789943 47.4252035 36.3561346 47.4252035 34.5179865 51.6514425 31.6975176 50.6307001 28.686023 60.5591399 25.762871"></polyline>
        <polyline id="Path-30" stroke="#375EB4" stroke-width="2" points="14.4716877 9.6069928 26.2043042 7.56550794 32.6895349 9.11483668 45.9467243 5.61447498 55.5473706 8.32581562"></polyline>
    </g>
</svg>