<?xml version="1.0" encoding="UTF-8"?>
<svg width="70px" height="48px" viewBox="0 0 70 48" version="1.1" xmlns="http://www.w3.org/2000/svg" xmlns:xlink="http://www.w3.org/1999/xlink">
    <!-- Generator: Sketch 52.2 (67145) - http://www.bohemiancoding.com/sketch -->
    <title>icon_sme</title>
    <desc>Created with Sketch.</desc>
    <g id="icon_sme" stroke="none" stroke-width="1" fill="none" fill-rule="evenodd">
        <g id="doctor-copy-2" transform="translate(20.000000, 5.000000)" stroke="#375EB4">
            <path d="M1.04137772,36.2401208 C10.1997276,38.5813867 19.8002724,38.5813867 28.9586223,36.2401208 L28.5997661,29.4218528 C28.2922728,23.5794811 23.465428,19 17.6149699,19 L12.3850301,19 C6.53457196,19 1.70772719,23.5794811 1.40023393,29.4218528 L1.04137771,36.240121 Z" id="Rectangle" stroke-width="2"></path>
            <path d="M15,16 C18.6595263,16 22,11.873894 22,7.5 C22,2.88406438 20.2109999,1 15,1 C9.78900013,1 8,2.88406438 8,7.5 C8,11.873894 11.3404737,16 15,16 Z" id="Oval" stroke-width="2"></path>
            <circle id="Oval" cx="22" cy="28" r="2"></circle>
            <g id="Group-2" transform="translate(9.456525, 29.002005) rotate(5.000000) translate(-9.456525, -29.002005) translate(3.456525, 23.502005)">
                <circle id="Oval-Copy-5" cx="10" cy="5" r="1"></circle>
                <circle id="Oval-Copy-6" cx="3" cy="9" r="1"></circle>
                <path d="M9.67034155,4.05407306 C9.32061273,2.90281673 8.52187393,1.94697942 7.47801255,1.39044855 C6.84773277,1.05441719 6.12808861,0.863961031 5.36396103,0.863961031 C2.87867966,0.863961031 0.863961031,2.87867966 0.863961031,5.36396103 C0.863961031,6.60118253 1.36325715,7.72178718 2.17134419,8.53526977" id="Path"></path>
            </g>
            <path d="M23.3202949,26.5302075 C24.0324854,24.3782579 23.6281671,22.2041411 22.1073401,20.0078571" id="Path-7"></path>
            <path d="M7.16710603,25 C6.38903534,24.2278898 6,22.8945564 6,21" id="Path-8"></path>
        </g>
        <g id="nurse-copy-2" transform="translate(47.000000, 4.000000)">
            <path d="M19.9175516,34.3503336 L19.7843426,31.7887517 C19.5136027,26.5824817 15.2133048,22.5 10,22.5 C6.2893434,22.5 3.04122689,24.5682333 1.37944569,27.6378266 C1.48329095,28.2555264 1.67043357,33.5682974 1.92256125,34.7406172 C7.87521362,35.8688605 14.0059733,35.738766 19.9175516,34.3503336 Z M10,20.5 C16.2775092,20.5 21.4556371,25.4158484 21.7816438,31.6848867 L22,35.8838312 C15.4138228,37.6898749 8.52185242,37.9816085 1.83688456,36.7590318 C1.6172613,35.2089144 1.05375408,26.6309502 0.578114113,25.1962061 C2.73668778,22.3365925 6.16297594,20.5 10,20.5 Z" id="Rectangle" fill="#375EB4" fill-rule="nonzero"></path>
            <rect id="Rectangle" fill="#375EB4" x="15" y="30" width="3" height="1"></rect>
            <path d="M8.64145083,22.4094247 L4.28923812,26.7616374 L15.3115566,34.9525224 L16.8226042,33.4414748 L8.64145083,22.4094247 Z" id="Shape" stroke="#375EB4" transform="translate(10.503665, 28.628665) rotate(45.000000) translate(-10.503665, -28.628665) "></path>
            <path d="M10.5,18.5 C13.3564638,18.5 16,15.1904165 16,11.6764706 C16,7.96777717 14.6249483,6.5 10.5,6.5 C6.37505167,6.5 5,7.96777717 5,11.6764706 C5,15.1904165 7.64353625,18.5 10.5,18.5 Z" id="Oval" stroke="#375EB4" stroke-width="2"></path>
            <path d="M6.9336002,6.49458147 L14.0663998,6.49458147 L14.8418311,1.07076436 C14.8451821,1.04732516 14.846864,1.02367753 14.846864,1 C14.846864,0.723857625 14.6230064,0.5 14.346864,0.5 L6.65313601,0.5 C6.62945848,0.5 6.60581085,0.501681874 6.58237165,0.505032925 C6.30900889,0.544115001 6.11908686,0.797401592 6.15816894,1.07076436 L6.9336002,6.49458147 Z" id="Rectangle" stroke="#375EB4"></path>
            <g id="Group-4" transform="translate(9.000000, 2.000000)" fill="#375EB4">
                <rect id="Rectangle" x="1" y="0" width="1" height="3" rx="0.5"></rect>
                <rect id="Rectangle" transform="translate(1.500000, 1.500000) rotate(90.000000) translate(-1.500000, -1.500000) " x="1" y="0" width="1" height="3" rx="0.5"></rect>
            </g>
        </g>
        <g id="surgeon-copy-2" transform="translate(12.000000, 24.500000) scale(-1, 1) translate(-12.000000, -24.500000) translate(1.000000, 7.000000)">
            <path d="M19.9175516,31.3503336 L19.7843426,28.7887517 C19.5136027,23.5824817 15.2133048,19.5 10,19.5 C6.2893434,19.5 3.04122689,21.5682333 1.37944569,24.6378266 C1.48329095,25.2555264 1.67043357,30.5682974 1.92256125,31.7406172 C7.87521362,32.8688605 14.0059733,32.738766 19.9175516,31.3503336 Z M10,17.5 C16.2775092,17.5 21.4556371,22.4158484 21.7816438,28.6848867 L22,32.8838312 C15.4138228,34.6898749 8.52185242,34.9816085 1.83688456,33.7590318 C1.6172613,32.2089144 1.05375408,23.6309502 0.578114113,22.1962061 C2.73668778,19.3365925 6.16297594,17.5 10,17.5 Z" id="Rectangle" fill="#375EB4" fill-rule="nonzero"></path>
            <rect id="Rectangle" fill="#375EB4" x="4" y="25" width="4" height="1"></rect>
            <path d="M12.0900441,18.124422 L8.21756771,21.9968984 L13.149008,23.0558622 L12.0900441,18.124422 Z" id="Shape" stroke="#375EB4" transform="translate(10.507359, 20.414214) rotate(45.000000) translate(-10.507359, -20.414214) "></path>
            <path d="M10.5,15.5 C13.3564638,15.5 16,12.1904165 16,8.67647059 C16,4.96777717 14.6249483,3.5 10.5,3.5 C6.37505167,3.5 5,4.96777717 5,8.67647059 C5,12.1904165 7.64353625,15.5 10.5,15.5 Z" id="Oval" stroke="#375EB4" stroke-width="2"></path>
            <path d="M7.17146058,-2.66453526e-15 L13.830062,-2.66453526e-15 C15.4869163,-2.96889445e-15 16.830062,1.34314575 16.830062,3 C16.830062,3.05507535 16.8285454,3.11014025 16.8255138,3.1651321 L16.6683542,6.01596575 C14.6119916,6.47827743 12.5561135,6.70943326 10.5007199,6.70943326 C8.44532635,6.70943326 6.38993278,6.47827743 4.33453921,6.01596575 L4.17608832,3.16656835 C4.08409516,1.51226993 5.35059381,0.0966208965 7.00489223,0.00462773839 C7.06036145,0.00154317458 7.11590566,-2.65432999e-15 7.17146058,-2.66453526e-15 Z" id="Rectangle" fill="#375EB4"></path>
            <path d="M14.030804,12.1035016 L13.778014,11.8809088 C11.8986379,10.2260353 9.08490234,10.2166532 7.19453219,11.8589568 L6.91304939,12.1035016 L6.91304939,13.9421548 L10.4719267,16 L14.030804,13.9421548 L14.030804,12.1035016 Z" id="Path-9" fill="#375EB4"></path>
        </g>
    </g>
</svg>