<?xml version="1.0" encoding="UTF-8"?>
<svg width="70px" height="48px" viewBox="0 0 70 48" version="1.1" xmlns="http://www.w3.org/2000/svg" xmlns:xlink="http://www.w3.org/1999/xlink">
    <!-- Generator: Sketch 52.2 (67145) - http://www.bohemiancoding.com/sketch -->
    <title>icon_partnership</title>
    <desc>Created with Sketch.</desc>
    <g id="icon_partnership" stroke="none" stroke-width="1" fill="none" fill-rule="evenodd">
        <g id="Group-3" transform="translate(35.500000, 24.000000) rotate(45.000000) translate(-35.500000, -24.000000) translate(16.000000, 5.000000)">
            <g id="Group-2" transform="translate(11.000000, 21.000000)">
                <circle id="Oval" fill="#375EB4" cx="7.5" cy="12.5" r="1"></circle>
                <path d="M9.90570685,6.13172798 L11.9268989,3 L15.9246212,0.733978144 L16.7077248,0.65894848 C17.257492,0.606274932 17.7458667,1.00924893 17.7985402,1.55901611 C17.8015775,1.59071668 17.8030987,1.62254425 17.8030987,1.65439 L17.8030987,2.57642645 L16.4395008,5.0925 L25.1170094,5.0925 L26.1470114,6.61830271 L25.8735129,7.54594155" id="Path-7" stroke="#375EB4"></path>
                <polyline id="Path-8" stroke="#375EB4" points="9.56066017 13.7893789 11.0863294 13.7893789 15.2573548 15.5066164 24.3008392 15.5066164 25.5625033 14 24.3008392 12.7402752 20.5155686 12.7402752"></polyline>
                <polyline id="Path-9" stroke="#375EB4" points="20.4175642 10 25.4472703 10 26.1470114 11.313959 24.8438821 12.7402752"></polyline>
                <polyline id="Path-10" stroke="#375EB4" points="19.5814755 7.54594155 26.5312229 7.54594155 27.2383297 8.9124709 25.8735129 10.3754003"></polyline>
                <polyline id="Path-11" stroke="#375EB4" points="5.34567984 5 9.90570685 4.5537 9.56066017 14.5537 0.865778838 14"></polyline>
            </g>
            <g id="Group-2-Copy-3" transform="translate(30.000000, 13.500000) rotate(-90.000000) translate(-30.000000, -13.500000) translate(16.500000, 5.500000)" stroke="#375EB4">
                <path d="M5.446,6.13172798 L8.90570685,6.13172798 L10.9268989,3 L14.9246212,0.733978144 L15.7077248,0.65894848 C16.257492,0.606274932 16.7458667,1.00924893 16.7985402,1.55901611 C16.8015775,1.59071668 16.8030987,1.62254425 16.8030987,1.65439 L16.8030987,2.57642645 L15.4395008,5.0925 L24.1170094,5.0925 L25.1470114,6.61830271 L24.8735129,7.54594155" id="Path-7"></path>
                <polyline id="Path-8" points="0.9075 13.7893789 8.56066017 13.7893789 10.0863294 13.7893789 14.2573548 15.5066164 23.3008392 15.5066164 24.5625033 14 23.3008392 12.7402752 19.5155686 12.7402752"></polyline>
                <polyline id="Path-9" points="19.4175642 10 24.4472703 10 25.1470114 11.313959 23.8438821 12.7402752"></polyline>
                <polyline id="Path-10" points="18.5814755 7.54594155 25.5312229 7.54594155 26.2383297 8.9124709 24.8735129 10.3754003"></polyline>
            </g>
            <g id="Group-2-Copy-4" transform="translate(9.000000, 25.000000) scale(-1, -1) rotate(-90.000000) translate(-9.000000, -25.000000) translate(-4.000000, 17.000000)" stroke="#375EB4">
                <path d="M4.34567984,6.13172798 L7.90570685,6.13172798 L9.92689888,3 L13.9246212,0.733978144 L14.7077248,0.65894848 C15.257492,0.606274932 15.7458667,1.00924893 15.7985402,1.55901611 C15.8015775,1.59071668 15.8030987,1.62254425 15.8030987,1.65439 L15.8030987,2.57642645 L14.4395008,5.0925 L23.1170094,5.0925 L24.1470114,6.61830271 L23.8735129,7.54594155" id="Path-7"></path>
                <polyline id="Path-8" points="7.89156098e-14 13.7893789 7.56066017 13.7893789 9.08632945 13.7893789 13.2573548 15.5066164 22.3008392 15.5066164 23.5625033 14 22.3008392 12.7402752 18.5155686 12.7402752"></polyline>
                <polyline id="Path-9" points="18.4175642 10 23.4472703 10 24.1470114 11.313959 22.8438821 12.7402752"></polyline>
                <polyline id="Path-10" points="17.5814755 7.54594155 24.5312229 7.54594155 25.2383297 8.9124709 23.8735129 10.3754003"></polyline>
            </g>
            <g id="Group-2-Copy-2" transform="translate(14.000000, 9.000000) rotate(180.000000) translate(-14.000000, -9.000000) translate(0.000000, 1.000000)" stroke="#375EB4">
                <path d="M9.90570685,6.13172798 L11.9268989,3 L15.9246212,0.733978144 L16.7077248,0.65894848 C17.257492,0.606274932 17.7458667,1.00924893 17.7985402,1.55901611 C17.8015775,1.59071668 17.8030987,1.62254425 17.8030987,1.65439 L17.8030987,2.57642645 L16.4395008,5.0925 L25.1170094,5.0925 L26.1470114,6.61830271 L25.8735129,7.54594155" id="Path-7"></path>
                <polyline id="Path-8" points="9.56066017 13.7893789 11.0863294 13.7893789 15.2573548 15.5066164 24.3008392 15.5066164 25.5625033 14 24.3008392 12.7402752 20.5155686 12.7402752"></polyline>
                <polyline id="Path-9" points="20.4175642 10 25.4472703 10 26.1470114 11.313959 24.8438821 12.7402752"></polyline>
                <polyline id="Path-10" points="19.5814755 7.54594155 26.5312229 7.54594155 27.2383297 8.9124709 25.8735129 10.3754003"></polyline>
                <polyline id="Path-11" points="5.40164235 4.5537 9.90570685 4.5537 9.56066017 14.5537 0.897577841 14"></polyline>
            </g>
            <path d="M20.3049958,2.49338356 L19.9598314,12" id="Path-12" stroke="#375EB4"></path>
        </g>
    </g>
</svg>