<?xml version="1.0" encoding="UTF-8"?>
<svg width="70px" height="48px" viewBox="0 0 70 48" version="1.1" xmlns="http://www.w3.org/2000/svg" xmlns:xlink="http://www.w3.org/1999/xlink">
    <!-- Generator: Sketch 51.3 (57544) - http://www.bohemiancoding.com/sketch -->
    <title>icon_globe</title>
    <desc>Created with Sketch.</desc>
    <defs></defs>
    <g id="icon_globe" stroke="none" stroke-width="1" fill="none" fill-rule="evenodd">
        <g id="globe" transform="translate(21.000000, 10.000000)" stroke="#375EB4">
            <path d="M28,14 C28,21.731896 21.7322568,28 14,28 C6.26846525,28 0,21.7315347 0,14 C0,6.26846525 6.26846525,0 14,0 C21.7322568,0 28,6.26810397 28,14 Z" id="Stroke-20" stroke-width="2"></path>
            <path d="M20.5,14 C20.5,6.5096134 17.4950203,0.5 14,0.5 C10.5049797,0.5 7.5,6.5096134 7.5,14 C7.5,21.4903866 10.5049797,27.5 14,27.5 C17.4950203,27.5 20.5,21.4903866 20.5,14 Z" id="Stroke-24"></path>
            <path d="M14,7.5 C6.50881053,7.5 0.5,10.5042323 0.5,14 C0.5,17.4950203 6.5096134,20.5 14,20.5 C21.4911519,20.5 27.5,17.49523 27.5,14 C27.5,10.5040227 21.4919547,7.5 14,7.5 Z" id="Stroke-28"></path>
            <path d="M14,0 L14,28" id="Line-4" stroke-linecap="square"></path>
            <path d="M28,14 L0,14" id="Line-4" stroke-linecap="square"></path>
        </g>
        <g id="arrow" transform="translate(45.000000, 38.000000) rotate(270.000000) translate(-45.000000, -38.000000) translate(35.000000, 27.000000)" stroke="#375EB4">
            <path d="M3,1 C3,11.2121917 10.2894441,19.7218425 19.9489818,21.6096021" id="Oval-5"></path>
            <polyline id="Path-3" transform="translate(3.246692, 2.091038) rotate(-12.000000) translate(-3.246692, -2.091038) " points="0.246301817 3.58618354 3.24708174 0.591037551 6.24708174 3.59103755"></polyline>
        </g>
        <g id="arrow" transform="translate(25.000000, 10.000000) rotate(90.000000) translate(-25.000000, -10.000000) translate(15.000000, -1.000000)" stroke="#375EB4">
            <path d="M3,1 C3,11.2121917 10.2894441,19.7218425 19.9489818,21.6096021" id="Oval-5"></path>
            <polyline id="Path-3" transform="translate(3.246692, 2.091038) rotate(-12.000000) translate(-3.246692, -2.091038) " points="0.246301817 3.58618354 3.24708174 0.591037551 6.24708174 3.59103755"></polyline>
        </g>
        <g id="arrow" transform="translate(49.000000, 14.000000) scale(-1, -1) translate(-49.000000, -14.000000) translate(39.000000, 3.000000)" stroke="#375EB4">
            <path d="M3,1 C3,11.2121917 10.2894441,19.7218425 19.9489818,21.6096021" id="Oval-5"></path>
            <polyline id="Path-3" transform="translate(3.246692, 2.091038) rotate(-12.000000) translate(-3.246692, -2.091038) " points="0.246301817 3.58618354 3.24708174 0.591037551 6.24708174 3.59103755"></polyline>
        </g>
        <g id="arrow" transform="translate(11.000000, 23.000000)" stroke="#375EB4">
            <path d="M3,1 C3,11.2121917 10.2894441,19.7218425 19.9489818,21.6096021" id="Oval-5"></path>
            <polyline id="Path-3" transform="translate(3.246692, 2.091038) rotate(-12.000000) translate(-3.246692, -2.091038) " points="0.246301817 3.58618354 3.24708174 0.591037551 6.24708174 3.59103755"></polyline>
        </g>
    </g>
</svg>