<?xml version="1.0" encoding="UTF-8"?>
<svg width="496px" height="519px" viewBox="0 0 496 519" version="1.1" xmlns="http://www.w3.org/2000/svg" xmlns:xlink="http://www.w3.org/1999/xlink">
    <!-- Generator: Sketch 52.2 (67145) - http://www.bohemiancoding.com/sketch -->
    <title>whitepaper_illustration</title>
    <desc>Created with Sketch.</desc>
    <defs>
        <polygon id="path-1" points="0.684307588 0.372406082 103.810071 0.372406082 103.810071 166.501686 0.684307588 166.501686"></polygon>
    </defs>
    <g id="App" stroke="none" stroke-width="1" fill="none" fill-rule="evenodd">
        <g id="Whitepapers" transform="translate(-798.000000, -247.000000)">
            <g id="whitepaper_illustration" transform="translate(798.000000, 247.000000)">
                <rect id="area" fill-opacity="0" fill="#D8D8D8" x="0" y="0" width="496" height="519"></rect>
                <g id="static" transform="translate(0.000000, 61.000000)">
                    <g id="floor" transform="translate(0.000000, 74.000000)">
                        <path d="M491.148881,171.652321 C491.105372,171.673785 257.822214,305.450206 257.76674,305.482403 C255.538004,306.75953 252.915512,307.199549 250.458354,307.832747 C250.393091,307.854211 250.283232,307.864943 250.142916,307.875675 C249.011688,307.972265 245.781161,307.864943 244.39867,307.467853 C243.431688,307.188817 241.853407,306.405369 240.853793,306.405369 C240.820074,306.405369 240.799407,306.394637 240.776565,306.383905 C240.734144,306.373172 240.701512,306.36244 240.647126,306.330244 C240.027126,306.072672 239.406039,305.793636 238.841512,305.471671 L236.730249,304.269668 L234.871337,303.207184 C234.82674,303.18572 234.794109,303.164255 234.751688,303.142791 C233.021126,302.155432 231.291653,301.168073 229.563267,300.180714 C223.928881,296.971797 218.293407,293.76288 212.660109,290.553963 C204.90467,286.132312 197.138354,281.71066 189.370951,277.289009 C180.125337,272.019516 170.869933,266.750024 161.624319,261.480531 C151.529196,255.728092 141.436249,249.986384 131.331337,244.233944 C121.029547,238.363451 110.729933,232.492957 100.429232,226.622464 C90.5636175,221.009542 80.6969158,215.385888 70.8204246,209.762234 C62.0327404,204.761046 53.2439684,199.749126 44.4551965,194.737205 C37.3730561,190.712644 30.3028807,186.688082 23.2327053,182.652789 C18.5120035,179.969748 13.8021789,177.286707 9.08147719,174.592934 C7.37484561,173.616307 5.65624912,172.63968 3.93765263,171.663053 C1.30537193,170.149818 0.000108771929,168.185832 0.000108771929,166.211114 L0.0642842105,143.512588 C2.22993333,141.570066 4.69905614,140.024634 7.50428421,139.133865 L238.950284,270.978496 C239.503933,271.300461 240.114144,271.579498 240.745021,271.837069 C240.809196,271.858534 240.886425,271.89073 240.9506,271.912195 C241.407442,272.083909 241.896916,272.244892 242.3766,272.38441 C242.528881,272.427338 242.692039,272.459535 242.844319,272.513196 C243.126039,272.588321 243.388179,272.652714 243.669898,272.706375 C243.854811,272.749303 244.051688,272.7815 244.225723,272.824429 C244.454144,272.867357 244.704319,272.910286 244.94253,272.942482 C245.127442,272.963947 245.324319,273.006875 245.541863,273.02834 C245.758319,273.049804 245.98674,273.082 246.215161,273.103465 C246.422916,273.114197 246.617618,273.135661 246.825372,273.146393 C247.042916,273.17859 247.282214,273.189322 247.510635,273.189322 C247.630284,273.200054 247.748846,273.200054 247.890249,273.200054 C247.967477,273.200054 248.043618,273.210786 248.130635,273.210786 C248.369933,273.210786 248.598354,273.210786 248.859407,273.200054 C249.000811,273.200054 249.239021,273.200054 249.435898,273.189322 C249.599056,273.17859 249.782881,273.17859 249.947126,273.157126 C250.077653,273.146393 250.208179,273.135661 250.32674,273.124929 L250.817302,273.092733 C251.327442,273.039072 251.839758,272.963947 252.328144,272.878089 C252.502179,272.856625 252.666425,272.802964 252.84046,272.770768 C253.079758,272.738571 253.340811,272.68491 253.580109,272.620517 C253.754144,272.577589 253.928179,272.53466 254.101126,272.480999 C254.341512,272.416606 254.569933,272.362945 254.798354,272.277088 C254.928881,272.244892 255.059407,272.201963 255.177968,272.159034 C255.527126,272.030248 255.875196,271.912195 256.222179,271.761944 C256.353793,271.719016 256.484319,271.665355 256.614846,271.600962 C257.049933,271.407783 257.474144,271.203872 257.865723,270.978496 L487.20046,139.488026 C489.190986,141.773977 491.518705,143.652106 494.325021,144.939965 L493.868179,166.296971 C493.868179,167.529909 493.868179,168.31443 493.868179,168.650535 C493.868179,169.467742 492.961746,170.468338 491.148881,171.652321 Z" id="Fill-29" fill="#C7D4E5"></path>
                        <path d="M250.218947,306.491012 C250.175439,306.877369 250.164561,307.360317 250.142807,307.875461 C249.011579,307.97205 245.781053,307.864729 244.398561,307.467638 C243.431579,307.188602 241.854386,306.405154 240.853684,306.405154 C240.819965,306.405154 240.799298,306.394422 240.776456,306.38369 C240.734035,306.372958 240.701404,306.362226 240.647018,306.330029 C240.027018,306.072457 239.407018,305.793421 238.841404,305.471456 L236.731228,304.269454 C236.687719,304.237257 236.644211,304.205061 236.599614,304.183596 C236.024211,303.861631 235.447719,303.528934 234.871228,303.206969 C234.827719,303.185505 234.794,303.164041 234.751579,303.142576 C233.021018,302.155217 231.292632,301.167858 229.563158,300.180499 C223.928772,296.971582 218.293298,293.762665 212.66,290.553748 C204.904561,286.132097 197.138246,281.710445 189.37193,277.288794 C180.126316,272.019302 170.869825,266.749809 161.624211,261.480317 C151.530175,255.727877 141.43614,249.986169 131.331228,244.23373 C121.030526,238.363236 110.729825,232.492743 100.429123,226.622249 C90.5635088,221.009327 80.696807,215.385674 70.8203158,209.76202 C62.0326316,204.760831 53.2438596,199.748911 44.4550877,194.736991 C37.3729474,190.712429 30.3027719,186.687868 23.2325965,182.652574 C18.5129825,179.969533 13.8020702,177.286492 9.08245614,174.592719 C7.37473684,173.616092 5.65614035,172.639465 3.93754386,171.662838 C1.30526316,170.149603 0,168.185617 0,166.210899 L0.0652631579,143.512373 C2.22982456,141.569851 4.69894737,140.02442 7.50417544,139.13365 L238.950175,270.978282 C239.503825,271.300247 240.114035,271.579283 240.744912,271.836855 C240.810175,271.858319 240.886316,271.890516 240.950491,271.91198 C241.407333,272.083695 241.897895,272.244677 242.376491,272.384195 C242.528772,272.427124 242.69193,272.45932 242.844211,272.512981 C243.12593,272.588106 243.38807,272.652499 243.669789,272.70616 C243.854702,272.749089 244.051579,272.781285 244.225614,272.824214 C244.454035,272.867143 244.704211,272.910071 244.942421,272.942268 C245.127333,272.963732 245.324211,273.006661 245.541754,273.028125 C245.758211,273.049589 245.986632,273.081786 246.215053,273.10325 C246.422807,273.113982 246.617509,273.135447 246.825263,273.146179 C247.042807,273.178375 247.282105,273.189107 247.510526,273.189107 C247.630175,273.19984 247.748737,273.19984 247.89014,273.19984 C247.967368,273.19984 248.043509,273.210572 248.130526,273.210572 C248.369825,273.210572 248.598246,273.446679 248.859298,273.435947 C249.000702,273.435947 249.24,273.661323 249.435789,273.661323 L249.577193,273.661323 C249.740351,273.661323 250.218947,273.178375 250.218947,273.156911 L250.218947,304.140668 C250.218947,304.913383 250.294,305.729028 250.218947,306.491012" id="Fill-31" fill="#9EBBD3"></path>
                        <path d="M491.179554,137.048069 C496.425625,140.036976 496.453905,144.882548 491.249168,147.867163 L257.871379,281.683293 C252.66773,284.666835 244.18787,284.666835 238.940712,281.679 L4.04337895,147.869309 C-1.20269123,144.880402 -1.22118246,140.039123 3.98246667,137.054508 L237.360256,3.23837801 C242.564993,0.254836491 251.036151,0.249470409 256.282221,3.23837801 L491.179554,137.048069 Z" id="Fill-33" fill="#FFFFFF"></path>
                    </g>
                    <path d="M322.320705,161.952675 C313.671161,166.880884 299.645021,166.880884 290.994389,161.952675 C282.343758,157.024465 282.343758,149.034369 290.994389,144.107233 C299.645021,139.179023 313.671161,139.179023 322.320705,144.107233 C330.971337,149.034369 330.971337,157.024465 322.320705,161.952675" id="shadow" fill="#F4F4F4" style="mix-blend-mode: multiply;"></path>
                    <g id="preacherMan" transform="translate(232.000000, 0.000000)">
                        <path d="M44.0565228,63.3289195 C41.3818211,62.8245078 37.5856807,61.3756657 31.3128035,58.7720428 C29.9640316,58.2107506 28.2911193,57.5163796 27.7994702,57.3575436 C25.1530491,56.6642458 23.5454,54.0048156 24.1991193,51.3689962 C24.8615404,48.7020535 27.6058561,47.0664718 30.2936105,47.722207 C31.2007684,47.9422163 32.3863825,48.4283833 35.2231544,49.6057017 C37.6455053,50.6113055 42.9350842,52.8081794 45.342207,53.4306449 C47.1021368,51.8519436 49.2656105,46.9258804 50.7536105,43.5377363 C52.3841018,39.8265541 54.0700667,35.9887324 56.2520316,32.7980601 C57.8085579,30.5206949 60.939014,29.9196938 63.2482421,31.4554664 C65.5563825,32.991239 66.1644175,36.0821022 64.6089789,38.3583941 C62.9469439,40.788156 61.4491544,44.1966912 60.0024877,47.4925387 C56.9851544,54.3600502 54.1364175,60.84657 48.4324175,63.0949583 C47.2119965,63.5757593 45.9012947,63.6777148 44.0565228,63.3289195" id="Fill-92" fill="#0D3054"></path>
                        <path d="M25.5610526,55.3495557 C25.1194386,55.2658449 24.6778246,55.132766 24.2514386,54.9470996 L18.4974035,52.4529447 C16.089193,51.4087052 15.0395439,49.10129 16.1544561,47.2993597 C17.2693684,45.4963562 20.1235439,44.8824764 22.5350175,45.9277892 L28.2879649,48.421944 C30.6972632,49.4672568 31.7469123,51.7735988 30.6309123,53.5766023 C29.7139649,55.0587141 27.6179298,55.7369869 25.5610526,55.3495557" id="Fill-94" fill="#FBBA9F"></path>
                        <path d="M30.1783123,55.0114926 L0.929540351,40.4994608 C0.499891228,40.2858907 0.32694386,39.7707469 0.542312281,39.3468264 C0.757680702,38.9229059 1.2819614,38.7522645 1.71052281,38.9647614 L30.9592947,53.4767932 C31.3889439,53.6903632 31.5629789,54.2065803 31.3454351,54.6305008 C31.1833649,54.949246 30.8450842,55.1241803 30.5057158,55.1005695 C30.3947684,55.0919838 30.2838211,55.0640802 30.1783123,55.0114926 Z" id="Fill-96" fill="#1D202B"></path>
                        <path d="M29.4467123,48.7011949 C32.1942912,50.2079907 33.6344316,52.8309316 32.6598351,54.5598831 C31.687414,56.2899079 28.668993,56.4691351 25.9203263,54.9623393 C23.1705719,53.4555435 21.732607,50.8315295 22.7061158,49.1036511 C23.6796246,47.3736263 26.6980456,47.1943992 29.4467123,48.7011949" id="Fill-98" fill="#FBBA9F"></path>
                        <path d="M69.2142737,140.702239 C70.1943088,140.681848 71.0492561,141.450271 71.4310456,142.341041 C71.8128351,143.232884 71.8204491,144.230975 71.8204491,145.197943 C71.8226246,146.045784 71.7845544,146.991287 71.1721684,147.585849 C70.7773263,147.968987 70.2182386,148.125677 69.6841684,148.268415 C68.6780281,148.536719 67.6653614,148.807169 66.6265895,148.895173 C65.4507649,148.994982 64.2586246,148.86083 63.0925895,149.035764 C62.3485895,149.147379 61.629607,149.382413 60.8975719,149.553055 C58.8276421,150.032783 56.6326246,149.976975 54.5909754,149.393146 C54.1352211,149.262213 53.6620632,149.089425 53.3640281,148.726678 C52.8691158,148.124604 53.0409754,147.186613 53.5380632,146.585612 C54.0351509,145.98461 54.7758877,145.642254 55.4894316,145.319216 L61.939607,142.396848 C64.047607,141.440612 66.2317474,140.468278 68.5518526,140.414617 C69.2925895,140.398519 70.2693614,140.730143 70.2019228,141.458857 L69.2142737,140.702239 Z" id="Fill-100" fill="#1D202B"></path>
                        <path d="M67.5487579,144.27766 L67.7597754,144.260488 C69.1836,144.146727 70.245214,142.914675 70.1288281,141.510908 L69.7753193,137.219116 C69.6589333,135.814275 68.4113193,134.767889 66.9874947,134.882724 L66.7764772,134.898822 C65.3526526,135.013656 64.293214,136.244635 64.4085123,137.649475 L64.7609333,141.941268 C64.8773193,143.345035 66.1249333,144.391421 67.5487579,144.27766" id="Fill-102" fill="#EF4B46"></path>
                        <path d="M84.1269053,151.515109 C83.7516421,152.339339 83.3622386,153.15391 82.9978526,153.973848 C82.6247649,154.80881 82.2505895,155.648065 81.9808351,156.538835 C81.5816421,157.858891 80.8289404,160.426025 81.7752561,161.623734 C83.1990807,163.427811 85.5246246,161.883452 86.6830456,160.609545 C88.4070807,158.714244 90.0103789,156.662255 91.4755368,154.476113 C92.1042386,153.538122 92.7242386,152.529298 92.9189404,151.347687 C93.5117474,147.726655 91.7474667,142.591315 88.0459579,143.793317 C86.6939228,144.232263 86.1185193,145.372018 85.7987298,146.848764 C85.4419579,148.494005 84.8078175,150.020119 84.1269053,151.515109" id="Fill-104" fill="#1D202B"></path>
                        <path d="M88.4055579,149.479217 L88.6176632,149.479217 C90.0458386,149.479217 91.2031719,148.337315 91.2031719,146.928182 L91.2031719,142.621365 C91.2031719,141.212232 90.0458386,140.069256 88.6176632,140.069256 L88.4055579,140.069256 C86.9773825,140.069256 85.8189614,141.212232 85.8189614,142.621365 L85.8189614,146.928182 C85.8189614,148.337315 86.9773825,149.479217 88.4055579,149.479217" id="Fill-106" fill="#EF4B46"></path>
                        <path d="M88.3481263,110.471344 L89.9720912,71.8956545 L84.5411088,65.7740284 L70.946793,61.124855 L59.4724421,67.1187685 L59.4724421,101.754681 C59.4724421,102.762431 59.546407,103.769108 59.6932491,104.767199 L62.7138456,137.962855 C62.9281263,139.410623 64.1322316,140.518183 65.6126175,140.625504 L67.1876351,140.740339 C69.0824421,140.87771 70.6716,139.34945 70.5813193,137.476688 L70.6454947,131.970014 L68.6038456,105.006526 L69.1335649,86.2810468 L79.3037404,90.0855989 L78.9382667,108.436526 L84.0298807,143.17332 C84.1723719,144.835732 85.5798807,146.11286 87.2701965,146.11286 L89.5065474,146.11286 C91.3023719,146.11286 92.7577404,144.676896 92.7577404,142.905016 L88.3481263,110.471344 Z" id="Fill-108" fill="#0D3054"></path>
                        <path d="M58.5622386,34.8168874 L58.5622386,72.1573047 C58.5622386,73.0105117 59.0103789,73.8025454 59.7478526,74.2490034 L68.0395368,79.2673632 C71.9727298,81.6595625 76.5324491,82.6469215 81.0432211,82.1950975 C82.6193263,82.0287489 84.1954316,81.6939054 85.7225895,81.1583704 L90.3214667,78.1233145 L87.8240632,37.1919152 C87.7566246,35.4522315 87.0604842,33.8295283 85.8737825,32.5921098 C85.4332561,32.107016 84.9078877,31.6884617 84.3150807,31.3375199 L81.3314667,29.4808556 L80.5004491,28.9614189 C78.245607,27.4063283 73.8708,25.8007966 69.937607,25.3318011 C69.1577123,25.231992 68.4126246,25.1815508 67.6990807,25.1815508 C66.1229754,25.1815508 64.7154667,25.4326834 63.6984491,26.0175863 C60.5288351,27.840981 58.5622386,31.1872696 58.5622386,34.8168874" id="Fill-110" fill="#FFFFFF"></path>
                        <path d="M87.8244982,37.1923445 C87.8070947,36.7694973 87.7537965,36.3552357 87.6646035,35.9506332 C85.9916912,34.5382804 84.3622877,33.1978332 82.8786386,34.8806364 C81.8398667,36.0568816 81.1546035,38.772119 80.5019719,40.1780325 C80.5237263,40.2424255 80.5454807,40.3068184 80.5683228,40.3701382 C81.2796912,42.378126 82.2640772,45.7115361 81.7039018,47.7527936 C81.2970947,49.208075 80.1615158,50.3961256 79.8558667,51.8846767 C79.2293404,55.0292007 82.6023579,62.8915838 82.280393,66.086549 C82.0933053,67.9099436 80.7543228,69.3823964 79.9069895,71.0040264 C78.1089895,74.533835 78.8388491,78.8492381 81.0436561,82.1955267 C82.6197614,82.028105 84.1958667,81.6932615 85.7219368,81.1587997 L90.3219018,78.1226706 L87.8244982,37.1923445 Z" id="Fill-112" fill="#FF8358"></path>
                        <path d="M89.083207,37.1683045 C89.0788561,37.0341524 89.0614526,36.9021468 89.0505754,36.769068 L89.1408561,36.769068 L89.083207,34.492776 C89.0114175,32.617867 88.2576281,30.8416939 86.975207,29.5033931 C85.2479088,27.7014628 81.945593,26.9426989 79.6668211,25.9574862 C72.0571368,22.6670048 56.6713474,24.7962661 56.6713474,34.8168874 L56.6713474,36.769068 L56.6713474,80.2375508 C56.6713474,81.3064743 57.234786,82.2991994 58.1582596,82.8583452 L60.846014,84.4853412 C61.3866105,84.8126722 62.070786,84.8405758 62.6200842,84.5293431 C63.3673474,84.1064958 63.806786,83.3466586 63.7937333,82.495598 L63.5294175,62.6325094 C63.3923649,52.3865127 61.822786,42.5086291 63.3836632,32.3238058 C63.5435579,31.2849323 63.7262947,30.2278142 64.2157684,29.2941159 C65.895207,26.0873454 71.1967509,25.9746577 74.3359088,26.6550769 C75.4965053,26.9051363 76.3253474,27.4074015 76.9127158,28.0727957 L74.5045053,27.3859372 C75.6063649,27.7400986 76.6364351,28.2563157 77.4957333,28.9442474 C78.5910667,31.0863873 78.0918035,34.2309113 77.5653474,36.7883859 C74.3446105,52.47237 74.1803649,68.7616481 77.0856632,84.5057323 C77.1889965,85.0702441 77.4011018,85.6980757 77.7078386,86.2185856 C77.7883298,86.9011513 77.9928211,87.5676186 78.3234877,88.1750591 C78.9913474,89.4006722 79.7940842,90.2495863 80.8905053,90.649896 C81.6660491,90.6627746 82.441593,90.6488228 83.2160491,90.6080406 C84.4092772,90.4137884 85.6264351,90.1529969 86.5629614,89.8245927 L90.4482947,87.3626343 C91.1564,86.9151031 91.5664702,86.1273622 91.5229614,85.2988392 C91.1183298,77.5126544 89.0842947,37.175817 89.083207,37.1683045" id="Fill-114" fill="#0D3054"></path>
                        <path d="M70.4952807,34.612547 L69.606614,34.0405227 L64.9239825,54.5958359 C64.7988947,55.23118 64.8652456,55.8815491 65.1154211,56.4503538 L68.0120175,63.0549273 C68.2437018,63.5829498 68.917,63.6494892 69.2846491,63.1804937 L73.0220526,58.4025344 L70.4952807,34.612547 Z" id="Fill-116" fill="#EF4B46"></path>
                        <path d="M68.6035193,31.1235206 L68.9211333,34.1295996 C69.2289579,34.9989049 70.3558351,35.0364675 71.0802561,34.2015051 L73.4297298,31.6429573 L68.6035193,31.1235206 Z" id="Fill-118" fill="#EF4B46"></path>
                        <path d="M78.5140561,31.2289104 C78.8153544,30.4787322 79.0524772,29.7124557 79.1993193,28.9375935 C80.6557754,21.2501446 66.3065825,20.8412491 66.3065825,29.5310821 L66.3065825,30.8887008 C66.3065825,31.4317483 66.7264421,31.8438634 67.1821965,31.7483471 L70.9174246,30.9670456 L74.0228632,34.6052491 C74.4731789,35.3371827 75.3846877,35.3951364 75.8970035,34.7211565 C76.6823368,33.6887223 77.5927579,32.4598896 78.5140561,31.2289104" id="Fill-120" fill="#EDF4FB"></path>
                        <path d="M75.2275123,17.6197755 L76.9624246,26.3686354 L76.9635123,26.3750747 L77.0483544,26.8011416 L76.999407,26.8097273 C77.0015825,26.9481723 76.9852667,27.09091 76.9558982,27.2282817 C76.2227754,28.1748586 74.9708105,28.9228904 73.4327754,29.2126588 C71.6500035,29.5485755 69.1580386,29.7793171 68.9437579,28.3401339 C68.9437579,28.3401339 68.9426702,28.3336946 68.9415825,28.3283285 L68.8991614,28.335841 L68.8143193,27.9097741 L68.8132316,27.904408 L67.0783193,19.1555482 C66.8531614,18.0222317 67.1076877,16.9200385 67.6972316,16.0453671 C68.1943193,15.3069942 68.931793,14.7263842 69.8095825,14.4409086 C70.0184246,14.3818817 70.2457579,14.3207084 70.4709158,14.2777797 C70.9669158,14.2037278 71.4422491,14.2155332 71.9186702,14.2960244 C72.5245298,14.4215907 73.0770912,14.6705769 73.5578632,15.0225919 C74.3910561,15.6300324 75.0132316,16.535827 75.2275123,17.6197755" id="Fill-124" fill="#FBBA9F"></path>
                        <path d="M69.1155088,27.4930442 C72.4624211,26.6806194 74.7161754,24.0136767 74.1973333,21.3907359 L72.6495088,13.5873796 L72.5298596,12.9831588 C71.7358246,12.8854961 70.904807,12.9273516 70.0465965,13.088334 L69.9987368,13.0969198 L69.8247018,13.1301895 C69.6658947,13.1602395 69.5103509,13.2063878 69.354807,13.2514629 C69.3069474,13.2611219 69.2601754,13.2697076 69.2123158,13.2793665 C68.8435789,13.4145918 68.4878947,13.6131368 68.1920351,13.8664159 C68.0462807,13.9608589 67.921193,14.0821324 67.8015439,14.2205773 C67.7471579,14.2796042 67.6927719,14.3397043 67.6394737,14.3998044 C67.5078596,14.5725923 67.3936491,14.7432337 67.281614,14.9278269 C66.7540702,15.835768 66.5397895,16.9969881 66.7769123,18.1893315 L68.2670877,25.7072122 L69.1155088,27.4930442 Z" id="Fill-126" fill="#FBBA9F"></path>
                        <path d="M56.7204035,9.40977759 C57.4720175,10.0354627 61.8642281,12.0026684 61.8642281,12.0026684 L62.8573158,6.73532239 C62.8573158,6.73532239 61.1300175,5.36804473 60.4860877,5.17271935 C59.8421579,4.97739396 57.7831053,6.60009712 57.7831053,6.60009712 L56.7204035,9.40977759 Z" id="Fill-128" fill="#4E2B23"></path>
                        <path d="M73.812607,22.286335 C74.7262912,20.9694985 75.1178702,18.8584819 75.3462912,17.4643738 C75.5823263,16.0208978 77.5598,16.6251186 77.5663263,15.1505193 C77.5706772,14.1019869 76.5721509,12.9826222 76.1240105,12.0746812 C75.5877649,10.987513 74.9296947,10.1031827 73.9105018,9.40129918 C72.6781158,8.55345825 71.2270982,8.07373053 69.7793439,7.68200655 C68.1586421,7.24306105 66.5042211,6.91787649 64.8356596,6.73113684 L64.3755544,5.17282667 L59.1958351,5.17282667 L59.1958351,19.8136444 C59.1958351,19.9563822 59.2317298,20.163513 59.2948175,20.4210849 C60.2008877,24.057142 64.2482912,25.9921511 67.7801158,24.6238002 L73.812607,22.286335 Z" id="Fill-130" fill="#FBBA9F"></path>
                        <path d="M57.4883333,4.32562966 C58.9600175,3.30285446 60.9505439,2.60526381 62.5799474,1.81966943 C64.4584386,0.911728374 66.4848596,0.259212819 68.5852456,0.146525099 C71.3915614,-0.00479840936 74.3414561,0.899922994 76.2286491,2.95405913 C78.926193,5.89037913 79.4232807,10.1489017 79.0708596,13.9180376 C78.933807,15.3819047 78.7325789,17.0056811 77.9135263,18.2763693 C77.4827895,18.9449831 75.2768947,20.998046 74.3066491,20.1877677 C73.4865088,19.5019824 74.4872105,18.2280746 74.1054211,17.1945672 C74.0542982,17.0561223 74.0053509,16.9090916 73.8933158,16.8103557 C73.7029649,16.642934 73.4125439,16.6772769 73.160193,16.7212788 C72.9622281,16.7566949 72.7512105,16.7910378 72.5630351,16.7202056 C72.133386,16.5592231 72.0757368,15.9904184 72.1051053,15.5364479 C72.1964737,14.073654 72.4053158,12.3865578 70.6997719,11.9400998 C69.5206842,11.6310135 68.1882281,12.0613733 67.0428596,11.5709134 C64.7205789,10.5781883 62.6941579,8.86962779 60.2206842,8.34267855 C59.8834912,8.27077305 59.2950351,8.06793516 59.210193,8.3984858 C58.9382632,9.46848253 59.1090351,9.83337609 58.8360175,10.5631632 C57.8211754,10.4290112 56.6888596,9.64878288 56.2798772,8.76123294 C55.8121579,7.74597025 55.7893158,6.50855177 56.3440526,5.53621773 C56.6301228,5.0360989 57.0249649,4.64652136 57.4883333,4.32562966" id="Fill-132" fill="#0D3054"></path>
                        <path d="M69.2811684,27.4705067 C70.2568526,27.1592739 71.138993,26.5464674 71.9330281,25.7866302 C73.2524316,24.3667649 74.157414,22.5637614 74.6740807,20.6298255 C74.777414,20.1125352 74.8470281,19.5984646 74.8492035,19.1026386 C74.8492035,18.8407738 74.8165719,18.5467125 74.6088175,18.3846568 C74.343414,18.1775261 73.9268175,18.3170442 73.7158,18.578909 C73.5047825,18.8407738 73.4373439,19.184203 73.3470632,19.506168 C73.0109579,20.6985113 72.2919754,21.7008954 71.4130982,22.591665 C69.6564316,23.2141305 67.4538,22.3716557 66.0702211,21.3113179 C65.0140456,20.5021127 64.0068175,19.5469502 62.7222211,19.1831298 C58.6334842,18.0251294 57.3434491,20.9732547 58.5627825,23.8537675 C58.7563965,24.3120309 59.0848877,24.7026816 59.4351333,25.0579163 C61.9194842,27.5778283 65.8918351,28.5501623 69.2811684,27.4705067" id="Fill-134" fill="#0D3054"></path>
                        <path d="M72.671807,16.8096045 C72.8251754,16.8943886 72.9981228,16.8933154 73.1645439,16.8493135 C73.1819474,16.8085313 73.1732456,16.762383 73.1971754,16.7216007 L72.671807,16.8096045 Z" id="Fill-138" fill="#FBBA9F"></path>
                        <path d="M76.1134596,14.2832531 C75.3422667,14.089001 74.5786877,14.7125397 74.2425825,15.4240822 C74.073986,15.7825364 73.9684772,16.1764068 73.7237404,16.4876396 C73.5856,16.6625738 73.3789333,16.7935062 73.1646526,16.8493135 C72.9438456,17.4030931 73.3898105,18.0974641 74.0011088,18.2434216 C74.6570035,18.3990379 75.3390035,18.0931713 75.8796,17.6939348 C76.4593544,17.2667947 76.9694947,16.682965 77.0880561,15.978935 C77.2066175,15.2738319 76.8139509,14.4592606 76.1134596,14.2832531" id="Fill-140" fill="#FBBA9F"></path>
                        <path d="M93.0729614,89.977526 C92.7847158,89.977526 92.4942947,89.9496224 92.2006105,89.8916687 C89.8130667,89.4194535 88.2652421,87.1259901 88.7449263,84.7702801 L92.3169965,67.2028013 C93.2535228,62.5954834 92.6454877,57.7198614 90.606014,53.4742175 L82.2936632,36.1728963 C81.2505404,34.0017796 82.1881544,31.4067424 84.390786,30.3775279 C86.5879789,29.3493866 89.2191719,30.2744991 90.2633825,32.4456158 L98.5757333,49.746937 C101.42447,55.674311 102.271804,62.4817225 100.963277,68.9145814 L97.3922947,86.4820603 C96.9713474,88.5480018 95.1309263,89.977526 93.0729614,89.977526" id="Fill-150" fill="#0D3054"></path>
                        <path d="M97.9634561,84.205339 C96.8028596,86.7864244 98.436614,90.3033545 96.7800175,92.5538892 C95.8652456,93.797747 94.1335965,94.1626406 92.725,93.6324717 C91.3164035,93.1023028 90.2362982,91.8112235 89.6391404,90.3537956 C89.0408947,88.8985142 88.8777368,87.2833236 88.8712105,85.6992562 C88.8668596,84.9297601 88.9060175,84.1280675 89.2508246,83.4551608 C89.7261579,82.5289751 90.7007544,82.0106116 91.6742632,81.7970415 C94.1074912,81.2604333 96.809386,82.444191 98.1973158,84.6539435 L97.9634561,84.205339 Z" id="Fill-152" fill="#FBBA9F"></path>
                        <polygon id="Fill-136" fill="#1D202B" points="68.8520632 17.5888669 68.6029754 17.1917768 74.765993 13.428007 75.013993 13.8240239"></polygon>
                        <path d="M62.4414807,14.4388695 C62.5850596,13.9580686 62.8983228,13.7874272 63.2605333,13.9924115 C63.6227439,14.1995423 63.9370947,14.7286379 64.0806737,15.3725678 L64.3145333,15.333932 C64.1296211,14.5054089 63.7260772,13.8271362 63.2605333,13.5620517 C62.7960772,13.2969673 62.3925333,13.5169767 62.2076211,14.1340761 L62.4414807,14.4388695 Z" id="Fill-144" fill="#1D202B"></path>
                        <path d="M65.3976842,14.3450704 C65.2127719,14.3450704 65.0430877,14.3869258 64.8962456,14.4706367 C64.5231579,14.6831336 64.3175789,15.1499827 64.3175789,15.7874732 C64.3175789,17.2062653 65.3302456,18.9373633 66.5767719,19.6467593 C67.1358596,19.9655046 67.6481754,20.0234582 68.0212632,19.8109614 C68.3943509,19.5995378 68.5988421,19.1305422 68.5988421,18.4951981 C68.5988421,17.0764061 67.5861754,15.3442349 66.3396491,14.6348388 C66.0035439,14.4427331 65.6815789,14.3450704 65.3976842,14.3450704 M67.5209123,20.4033768 C67.1532632,20.4033768 66.7518947,20.285323 66.3396491,20.0502887 C64.9658596,19.2668407 63.8444211,17.3543691 63.8444211,15.7874732 C63.8444211,14.9771949 64.1348421,14.3665347 64.6591228,14.0671074 C65.1844912,13.76768 65.8654035,13.8267069 66.5767719,14.2313095 C67.9527368,15.0147574 69.072,16.927229 69.072,18.4951981 C69.072,19.3054765 68.7826667,19.9161366 68.2572982,20.2144908 C68.0364912,20.3400571 67.7874035,20.4033768 67.5209123,20.4033768" id="Fill-146" fill="#1D202B"></path>
                        <path d="M59.0710737,10.7407805 C58.8861614,10.7407805 58.7164772,10.782636 58.5696351,10.8663469 C58.1965474,11.0788437 57.9909684,11.546766 57.9909684,12.1831833 C57.9909684,13.6019754 59.0036351,15.3341466 60.2501614,16.0435426 C60.8081614,16.3612147 61.3226526,16.4202416 61.6946526,16.2066715 C62.0677404,15.9952479 62.2722316,15.5273256 62.2722316,14.8909083 C62.2722316,13.4721162 61.2595649,11.7410182 60.0141263,11.0316222 C59.6769333,10.8384432 59.3549684,10.7407805 59.0710737,10.7407805 M61.193214,16.8001602 C60.8266526,16.8001602 60.4252842,16.6810332 60.0141263,16.447072 C58.6392491,15.663624 57.5188982,13.7500793 57.5188982,12.1831833 C57.5188982,11.372905 57.8082316,10.7622449 58.3325123,10.4628175 C58.8578807,10.1644633 59.538793,10.222417 60.2501614,10.6270196 C61.6261263,11.4115408 62.7453895,13.3240124 62.7453895,14.8909083 C62.7453895,15.7011866 62.4560561,16.3118467 61.9306877,16.6112741 C61.7098807,16.7368404 61.460793,16.8001602 61.193214,16.8001602" id="Fill-148" fill="#1D202B"></path>
                    </g>
                    <path d="M399.347004,223.507467 C390.69746,218.579257 376.671319,218.579257 368.020688,223.507467 C359.370056,228.435677 359.370056,236.425772 368.020688,241.352909 C376.671319,246.281118 390.69746,246.281118 399.347004,241.352909 C407.997635,236.425772 407.997635,228.435677 399.347004,223.507467" id="shadow" fill="#F4F4F4" style="mix-blend-mode: multiply;"></path>
                    <g id="standingLady" transform="translate(361.000000, 75.000000)">
                        <path d="M42.3622105,53.3831483 C43.24,56.1488269 43.4814737,59.0754879 43.1094737,61.9356095 C42.9419649,63.3436694 42.6189123,64.7399239 42.1468421,66.0760783 L36.6571228,81.4906851 C35.958807,83.4664764 37.0095439,85.6504718 39.0283509,86.3416231 C39.3448772,86.4446519 39.6635789,86.5176306 39.9714035,86.5433878 C41.6954386,86.6893452 43.3476842,85.6805218 43.9426667,84.0020114 L49.4312982,68.6024297 C50.2318596,66.3454556 50.7311228,63.9854528 50.9214737,61.5996928 C51.1966667,58.074177 50.8094386,54.492854 49.7369474,51.1132956 L44.4669474,34.4548311 C43.8186667,32.4575754 41.6530175,31.3264053 39.6276842,31.9660423 C37.5892982,32.589581 36.4591579,34.7285012 37.0911228,36.7397087 L42.3622105,53.3831483 Z" id="Fill-162" fill="#EDF4FB"></path>
                        <path d="M39.027807,86.3416231 C39.3443333,86.4446519 39.6630351,86.5176306 39.9708596,86.5433878 C41.6948947,86.6893452 43.3482281,85.6805218 43.9432105,84.0020114 L49.4307544,68.6024297 C50.2324035,66.3454556 50.7316667,63.9854528 50.9220175,61.5996928 C48.3528246,62.0869331 45.7074912,62.200694 43.1100175,61.9356095 C42.9425088,63.3436694 42.6194561,64.7399239 42.1462982,66.0760783 L36.6565789,81.4906851 C35.9593509,83.4664764 37.0100877,85.6504718 39.027807,86.3416231" id="Fill-164" fill="#FFC2B0"></path>
                        <path d="M42.9835158,119.852912 L46.1063579,82.7893842 L45.3003579,73.9181777 L26.1423579,76.6838563 L15.0541474,71.9477524 L14.8724982,118.838722 C14.8724982,118.838722 20.2447439,153.190232 20.2926035,153.539027 C20.3230596,153.762256 20.8636561,156.536521 20.7092,158.298742 C23.4372,158.43504 25.1906035,157.61403 27.2322526,156.141577 C27.1822175,155.329152 27.0810596,154.694881 26.9179018,154.416918 C26.9113754,154.469506 26.9004982,154.49419 26.8950596,154.371843 L26.8091298,121.672013 L29.7579368,89.5731849 L30.6161474,104.538114 L31.6614456,119.776713 L38.0115509,156.585889 C40.0466737,156.566571 41.4150246,156.519349 43.4479719,156.41954 C43.5284632,156.378758 43.6100421,156.339049 43.6905333,156.297193 C43.6394105,156.123332 43.579586,155.951618 43.5023579,155.785269 L42.9835158,119.852912 Z" id="Fill-166" fill="#FFC2B0"></path>
                        <path d="M21.1112211,162.17359 C18.4789404,164.009863 18.7345544,165.729155 14.7872211,164.7697 C13.5265544,164.463833 12.2560982,164.012009 11.369607,163.155583 C10.4831158,162.298083 10.0828351,160.947977 10.722414,159.929494 C11.2858526,159.032285 12.4649404,158.610511 13.5809404,158.362598 C15.4278877,157.953703 17.3575018,157.844235 19.2468702,158.03956 C20.1572912,158.134003 21.1068702,158.318596 21.7921333,158.86379 C23.1952912,159.979935 22.2913965,161.350433 21.1112211,162.17359" id="Fill-168" fill="#1D202B"></path>
                        <path d="M42.6892877,159.522531 L38.2220246,159.522531 C37.6129018,159.522531 37.1201649,159.03529 37.1201649,158.435362 L37.1201649,152.964105 C37.1201649,152.363104 37.6129018,151.875864 38.2220246,151.875864 L42.6892877,151.875864 C43.2984105,151.875864 43.7911474,152.363104 43.7911474,152.964105 L43.7911474,158.435362 C43.7911474,159.03529 43.2984105,159.522531 42.6892877,159.522531" id="Fill-170" fill="#414964"></path>
                        <path d="M20.0231491,161.713531 C22.2236052,160.71866 22.7860602,160.254508 24.166376,158.288376 C24.332797,158.051195 25.099824,157.094878 24.9344907,156.856624 C24.2002801,156.155814 24.5366572,156.295396 23.8013589,155.592439 C21.5932888,153.483569 19.8059807,155.97574 17.558545,157.091621 C14.9785171,158.372639 15.0122433,159.820324 14.9993263,161.070987 C14.9993263,161.897806 19.6555,161.87988 20.0231491,161.713531 Z" id="Fill-172" fill="#FFC2B0"></path>
                        <path d="M26.1796667,165.537372 C25.6140526,165.537372 25.1561228,165.085548 25.1561228,164.527475 L25.1561228,159.293399 C25.1561228,158.735326 25.6140526,158.283502 26.1796667,158.283502 L27.1999474,158.283502 C27.7655614,158.283502 28.2224035,158.735326 28.2224035,159.293399 L28.2224035,164.527475 C28.2224035,165.085548 27.7655614,165.537372 27.1999474,165.537372 L26.1796667,165.537372 Z" id="Fill-174" fill="#1D202B"></path>
                        <path d="M27.8967404,155.333982 C27.0037228,154.987333 25.9399333,155.051726 24.6999333,155.791172 C23.1531965,156.713065 22.0067404,158.217714 20.6568807,159.376788 C18.795793,160.973734 16.9205649,161.86665 14.6439684,160.839582 C13.8945298,161.288186 13.3702491,161.805476 13.3930912,162.402185 C13.4257228,163.27149 15.0040035,164.386562 15.7001439,164.858777 C17.8886351,166.343035 21.4041439,163.959422 23.1836526,163.067579 C24.5846351,162.363549 26.0704596,162.494481 27.4061789,161.907432 C29.2020035,161.118618 29.7730561,157.000687 27.8967404,155.333982" id="Fill-176" fill="#1D202B"></path>
                        <path d="M40.8516947,161.35934 L40.0598351,161.35934 C39.4539754,161.35934 38.9623263,160.874247 38.9623263,160.275392 L38.9623263,155.375086 C38.9623263,154.777304 39.4539754,154.292211 40.0598351,154.292211 L40.8516947,154.292211 C41.4586421,154.292211 41.9492035,154.777304 41.9492035,155.375086 L41.9492035,160.275392 C41.9492035,160.874247 41.4586421,161.35934 40.8516947,161.35934" id="Fill-178" fill="#1D202B"></path>
                        <path d="M40.8251544,157.431154 L39.6232246,157.431154 C37.8611193,157.431154 36.4329439,156.022021 36.4329439,154.28341 L36.4329439,153.269221 C36.4329439,151.608955 37.7969439,150.263142 39.4785579,150.263142 L40.9698211,150.263142 C42.6525228,150.263142 44.0154351,151.608955 44.0154351,153.269221 L44.0154351,154.28341 C44.0154351,156.022021 42.5872596,157.431154 40.8251544,157.431154" id="Fill-180" fill="#1D202B"></path>
                        <path d="M18.5300632,64.2075013 L16.2948,67.6621848 C14.5381333,70.3784954 13.6222737,73.5401909 13.6614316,76.75984 L14.2618526,123.74418 C14.2618526,123.74418 33.5460281,134.250968 44.5635368,122.331827 L45.7078175,88.703665 C45.7078175,88.703665 49.6616772,69.7581764 41.7670105,65.3440374 L18.5300632,64.2075013 Z" id="Fill-182" fill="#EF4B46"></path>
                        <path d="M26.4160281,20.8187585 C26.4301684,20.8187585 26.4432211,20.8337835 26.4573614,20.8488085 C26.4725895,20.7887084 26.4725895,20.71251 26.4725895,20.6513367 C26.4725895,20.71251 26.4573614,20.7736834 26.4160281,20.8187585" id="Fill-184" fill="#8E515A"></path>
                        <polygon id="Fill-186" fill="#FFC2B0" points="36.7270632 31.5147548 28.2896246 31.5147548 27.2486772 25.3877625 26.4687825 20.767566 34.9062211 20.767566"></polygon>
                        <polygon id="Fill-188" fill="#FFC2B0" points="32.744814 25.2363317 28.556007 31.5146475 28.2895158 31.5146475 27.2485684 25.3876552"></polygon>
                        <path d="M20.8839965,14.3485516 C20.273786,14.3485516 19.6385579,14.5009483 19.0424877,14.7950096 C17.3619614,15.6224594 16.5189789,17.3310199 17.1629088,18.6027813 C17.8068386,19.8734695 19.6972947,20.232997 21.3778211,19.4044739 C23.0583474,18.5759509 23.9002421,16.8684636 23.2574,15.5977754 C22.9506632,14.9924814 22.3524175,14.5728538 21.5703474,14.415091 C21.3484526,14.3710891 21.1178561,14.3485516 20.8839965,14.3485516 M19.5384877,20.382174 C18.2908737,20.382174 17.1824877,19.8359069 16.6788737,18.8410353 C15.9011544,17.3063359 16.8529088,15.2768837 18.7999263,14.3163551 C19.7321018,13.8570185 20.7556456,13.705695 21.6780316,13.8924346 C22.6276105,14.0834671 23.3585579,14.6039771 23.7414351,15.3584482 C24.5191544,16.8931476 23.5674,18.9225998 21.6203825,19.8831284 C20.9340316,20.2211916 20.2161368,20.382174 19.5384877,20.382174" id="Fill-190" fill="#1D202B"></path>
                        <path d="M43.7664561,16.8643854 C43.7457895,14.164173 43.1877895,11.5079625 42.709193,8.78413932 C41.3897895,6.52501885 39.5112982,4.64259733 37.1346316,3.33005371 C33.2210175,3.17014447 29.1246667,3.08536037 25.6450526,4.84436201 C22.9681754,6.19768786 21.2887368,10.9971115 20.8112281,13.7660097 C20.6067368,14.9411817 20.5512632,16.1292322 20.6763509,17.3247952 C21.6781404,26.8603227 34.2260702,30.457744 40.7110526,23.42925 C42.0978947,21.9299667 42.7668421,19.8543662 43.5369474,17.5802207 C43.6141754,17.3537721 43.6914035,17.110152 43.7664561,16.8643854" id="Fill-192" fill="#8E515A"></path>
                        <path d="M20.4304175,18.2651474 C20.5196105,20.7228129 20.9470842,23.1472087 22.4046281,24.9502122 C24.0111895,26.9603465 26.6054,27.7577462 29.0658211,27.821066 C30.422207,27.8532625 31.8221018,27.6611568 33.0305579,26.9603465 C35.2995404,25.6198992 36.3611544,22.731874 36.9354702,20.0048312 C37.1410491,18.9670309 37.304207,17.9142057 37.3618561,16.8613804 C37.4064526,15.6647441 37.3324877,14.4530829 37.0083474,13.3036681 C36.3154702,10.8148793 34.5620667,8.75752356 32.4692947,7.46537104 C30.3776105,6.17214531 27.9759263,5.58294952 25.5742421,5.31142578 C24.4092947,5.16761478 23.1573298,5.13649151 22.1109439,5.7256873 C21.4180667,6.10882554 20.8731193,6.84290554 20.7110491,7.64030531 C20.6359965,7.9279273 20.6359965,8.23057432 20.680593,8.51712309 C20.6077158,10.7515596 20.5348386,12.9688246 20.459786,15.2021879 C20.4304175,16.2077916 20.4021368,17.2284204 20.4304175,18.2651474" id="Fill-194" fill="#FFC2B0"></path>
                        <path d="M37.391986,3.2689877 C33.1009333,0.986256468 28.7587579,-0.0515437661 24.096793,1.78580267 C19.6719509,3.52870606 16.6589684,8.26266349 16.9765825,12.9515458 C16.9809333,13.0137924 17.0277053,13.0674532 17.0886175,13.0835514 C19.2999509,13.6255257 21.2926526,13.1275533 23.4300211,12.2475159 C24.8016351,11.6819309 26.0981965,10.9564366 27.3262316,10.13006 L37.3963368,3.35484501 C37.3941614,3.30976992 37.3941614,3.31406278 37.391986,3.2689877" id="Fill-196" fill="#8E515A"></path>
                        <path d="M41.2192351,14.0702666 C41.2605684,15.7358984 40.9244632,17.663395 40.2522526,19.5082539 C39.4332,21.755569 38.0180772,24.1434755 36.0830246,25.6255873 C34.5112702,26.8308093 31.3003228,27.9662722 29.691586,26.2523456 C28.114393,24.5706156 28.9987088,21.5645365 27.4356561,19.8699279 C26.9820772,19.3773215 26.3718667,19.0607227 25.785586,18.7333917 C24.4727088,17.9993117 23.2000772,17.1428851 22.2526737,15.9838114 C19.8564281,13.050711 20.2327789,7.12977628 23.5720772,4.93182915 C26.1532351,3.23292763 29.8852,2.75427312 32.8503228,3.54630681 C33.8575509,3.81568412 34.810393,4.22994564 35.6925333,4.76870026 C35.7425684,4.8041164 35.7915158,4.83094681 35.8535158,4.87280225 C38.9839719,6.85610611 41.134393,10.3805487 41.2192351,14.0702666" id="Fill-198" fill="#8E515A"></path>
                        <path d="M27.0405965,18.8542359 C27.2070175,18.9465325 27.3962807,18.9454593 27.5790175,18.8982378 C27.5975088,18.8520895 27.5877193,18.8027215 27.6138246,18.7587196 L27.0405965,18.8542359 Z" id="Fill-200" fill="#FFC2B0"></path>
                        <path d="M39.9296351,4.15406924 C39.7893193,4.22275509 39.6500912,4.30646596 39.5097754,4.38910363 C39.0681614,4.56189146 38.6276351,4.7411186 38.2143018,4.92785825 C37.9064772,5.07274246 37.6193193,5.23909099 37.3528281,5.43226994 C35.1110386,6.98092117 34.2854596,9.89685006 35.1534596,12.6056482 C35.9453193,15.0858512 38.2219158,17.048764 40.8193895,17.4834166 C41.0576,17.525272 41.2958105,17.5531757 41.5340211,17.5671275 C42.0811439,17.6154222 42.6195649,17.6154222 43.1656,17.5939579 C43.2841614,17.5875186 43.4103368,17.5875186 43.5365123,17.5810793 C44.5383018,14.6715897 44.9233544,11.4648192 44.4338807,8.85261053 C44.397986,8.66694409 44.3555649,8.48020444 44.3142316,8.29990409 C44.2935649,8.21082713 44.2718105,8.12067696 44.2446175,8.03052678 C44.1314947,7.94037661 44.006407,7.85129965 43.8878456,7.76866199 C43.1449333,7.24278596 39.3836,4.59623439 38.5221263,5.03839953 L40.1188982,4.22275509 L39.9296351,4.15406924 Z" id="Fill-202" fill="#4E2B23"></path>
                        <path d="M36.6102421,6.04529113 C38.7378211,2.1366371 45.1597158,1.56353956 47.9638561,5.03217488 C50.7679965,8.49973698 48.774207,14.5516041 44.4385579,15.7289225 C41.2428386,16.5982277 37.5239263,14.7759063 36.3165579,11.7290451 C35.1113649,8.68325698 36.6124175,4.83899593 39.590593,3.40303242 L36.6102421,6.04529113 Z" id="Fill-204" fill="#8E515A"></path>
                        <path d="M18.9348035,52.4168242 C18.7488035,52.4168242 18.4420667,61.1431466 18.3343825,65.2235152 C18.3311193,65.3329833 18.3528737,65.4403049 18.3702772,65.5486998 C18.7977509,68.20813 23.5271544,69.4745253 25.6982421,70.0283049 C29.6042421,71.0253229 33.8474351,70.1892874 37.5369789,68.6642469 C38.749786,68.1630549 39.9299614,67.5577608 41.0731544,66.849438 C41.6398561,66.4942034 41.973786,65.8352486 41.9139614,65.158049 C41.3929439,59.2875555 42.7808737,53.5555068 44.062207,47.8696065 C45.0814,43.3739031 46.5759263,37.5763882 43.7674351,33.4305534 C43.6140667,33.2062511 43.4476456,32.9959007 43.2670842,32.7984289 C41.8530491,31.2519241 39.5992947,30.4620369 37.2378561,30.1593898 C34.8568386,29.842791 32.3550842,30.0273842 30.5146632,30.4094493 C29.4737158,30.6197997 28.3272596,30.889177 27.1601368,31.2250937 C25.0782421,31.8175091 22.2588737,33.2910352 20.6501368,34.3567391 C18.3833298,35.8710474 18.1766632,37.615024 17.0421719,39.8655587 C16.1752596,41.5827049 15.3790491,42.2159026 14.647014,44.1509117 C14.4066281,44.7755236 14.2054,45.4205267 14.1531895,46.0859208 C13.8856105,48.9546282 16.3144877,51.4230259 18.9348035,52.4168242" id="Fill-208" fill="#FFFFFF"></path>
                        <path d="M24.8152316,49.7165045 C24.8282842,45.8454131 24.4312667,41.0395501 22.1068105,40.7980764 C19.2004246,40.4997223 18.7577228,46.4067052 17.5525298,48.4898182 C17.1120035,49.2518018 16.5811965,49.9193424 15.9981789,50.532149 C16.8324596,51.3553059 17.8668807,52.0099679 18.9371965,52.4156437 C18.7511965,52.4156437 18.4444596,61.141966 18.3356877,65.2223347 C18.2976175,66.5252194 19.0840386,67.7100502 20.2870561,68.1243118 C24.5476526,69.593545 23.9961789,67.3902318 24.2115474,63.9258893 C24.4149509,60.6890687 24.6216175,57.4522481 24.6814421,54.2089883 C24.6955825,53.4641761 24.809793,51.7148334 24.8152316,49.7165045" id="Fill-210" fill="#EDF4FB"></path>
                        <path d="M0.0760350877,31.5739964 C-0.0892982456,34.5489521 1.71305263,37.0656445 4.10168421,37.1944305 C6.49031579,37.3232165 8.56133333,35.0168745 8.72557895,32.0419187 C8.89091228,29.0669629 7.0885614,26.5502705 4.69992982,26.4214845 C2.31129825,26.2926986 0.240280702,28.5990406 0.0760350877,31.5739964" id="Fill-212" fill="#FFC2B0"></path>
                        <path d="M7.2311614,32.1273467 C8.02628421,32.1702754 8.70719649,31.568201 8.75070526,30.7826066 L9.2260386,22.238731 C9.26954737,21.4531367 8.65933684,20.7813032 7.86312632,20.7383745 C7.06691579,20.6954459 6.38709123,21.2975203 6.34249474,22.0831147 L5.86824912,30.6269902 C5.82474035,31.4125846 6.43495088,32.0844181 7.2311614,32.1273467" id="Fill-214" fill="#FFC2B0"></path>
                        <path d="M10.7651614,67.1641051 C10.6139684,67.1641051 10.4627754,67.1576658 10.3104947,67.1447872 C7.86421404,66.9419493 5.86824912,65.1325065 5.45491579,62.7456733 L1.28895088,38.6605514 C0.886494737,36.3338183 2.47130175,34.1272854 4.82947719,33.7301954 C7.18656491,33.3331053 9.42400351,34.8967816 9.82645965,37.2235147 L12.1128456,50.4412475 L18.3454772,35.9689247 C19.2798281,33.797808 21.8229158,32.7846917 24.0233719,33.7076578 C26.2260035,34.6306239 27.2517228,37.1387306 26.3162842,39.3109205 L15.7751965,63.7877664 C14.9670211,65.8300971 12.9699684,67.1641051 10.7651614,67.1641051" id="Fill-216" fill="#FFFFFF"></path>
                        <polygon id="Fill-218" fill="#1D202B" points="26.4138526 20.5588255 22.5187298 19.1217887 17.197607 16.0963918 17.4673614 15.6338355 22.7493263 18.6399146 26.6031158 20.0587066"></polygon>
                        <path d="M29.4380386,19.5484996 C29.4815474,20.3727297 29.0801789,21.1540313 28.6255123,21.8462558 C28.3372667,22.2841281 28.0153018,22.7134146 27.5889158,23.0203545 C27.1603544,23.3272944 26.607793,23.5000822 26.0943895,23.3766624 C24.4910912,22.9913777 24.6422842,20.6657178 25.1393719,19.5248888 C25.5178982,18.6534371 26.3271614,17.9322357 27.2810912,17.8163283 C28.3786,17.6821763 29.3793018,18.4409403 29.4380386,19.5484996" id="Fill-220" fill="#FFC2B0"></path>
                        <path d="M37.0977579,32.7389727 C35.7772667,34.6471514 31.3676526,33.9635126 27.1592667,31.2257376 C28.3274772,30.8898209 29.4739333,30.6193704 30.513793,30.40902 C32.3553018,30.0280282 34.8559684,29.8434349 37.2380737,30.1589606 C37.5839684,31.17315 37.5578632,32.0746518 37.0977579,32.7389727" id="Fill-222" fill="#FFC2B0"></path>
                    </g>
                    <g id="sittingLady" transform="translate(193.000000, 176.000000)">
                        <polygon id="Fill-224" fill="#A8C4F2" points="11.8489953 23.3731399 5.84901053 50.0406869 15.9963439 52.1495571 21.5393614 37.1620904"></polygon>
                        <path d="M61.3233474,105.242537 L62.3044702,105.242537 C62.8472421,105.242537 63.2888561,104.807884 63.2888561,104.271276 L63.2888561,99.2368182 C63.2888561,98.7012832 62.8472421,98.2666305 62.3044702,98.2666305 L61.3233474,98.2666305 C60.7794877,98.2666305 60.3400491,98.7012832 60.3400491,99.2368182 L60.3400491,104.271276 C60.3400491,104.807884 60.7794877,105.242537 61.3233474,105.242537" id="Fill-328" fill="#1D202B"></path>
                        <path d="M60.4959193,59.9992763 L60.6003404,62.2326395 L61.9056035,93.6789525 C61.9001649,93.7959331 61.8892877,93.7723223 61.8827614,93.7218812 C61.7272175,93.9901853 61.6304105,94.5986989 61.5814632,95.3800005 C63.5458842,96.7966461 65.2307614,97.5854601 67.8543404,97.4545277 C67.7053228,95.7599191 68.2252526,93.0919032 68.2557088,92.8772599 C68.301393,92.5424164 70.8303404,61.4599237 70.8303404,61.4599237 L70.8303404,61.4330933 C66.9493579,61.5296828 64.3779895,59.7878526 60.4959193,59.9992763" id="Fill-330" fill="#FBBA9F"></path>
                        <path d="M67.4683088,101.181272 C69.9983439,102.947786 69.753607,104.600539 73.5497474,103.677573 C74.7603789,103.383512 75.9818877,102.948859 76.8346596,102.124629 C77.6885193,101.300399 78.0724842,100.00288 77.4579228,99.0230335 C76.9173263,98.1601675 75.7828351,97.7544917 74.7081684,97.5162377 C72.9319228,97.1234405 71.0773614,97.0182653 69.2597825,97.2060781 C68.3852561,97.2962283 67.4715719,97.4743822 66.812414,97.9981118 C65.4625544,99.0713282 66.3327298,100.389238 67.4683088,101.181272" id="Fill-332" fill="#1D202B"></path>
                        <path d="M67.3509619,94.7608619 C71.1001568,96.0630463 73.1340706,97.3720483 73.4527031,98.687868 C73.7713356,100.003688 72.5477414,100.679109 69.7819204,100.714131 L65.3852224,96.3811308 L67.3509619,94.7608619 Z" id="Path-34" fill="#FBBA9F"></path>
                        <path d="M60.9430807,94.6041724 C61.8012912,94.2704021 62.8237474,94.3326486 64.0169754,95.0441911 C65.5038877,95.9295946 66.6068351,97.3773635 67.9044842,98.4913621 C69.6948702,100.027135 71.4972211,100.885708 73.6868,99.8983487 C74.4079579,100.329782 74.9126596,100.827754 74.8898175,101.400852 C74.857186,102.236887 73.3387298,103.307957 72.6708702,103.763001 C70.5672211,105.190379 67.1855018,102.899062 65.4745193,102.040489 C64.1268351,101.364362 62.6975719,101.489929 61.4151509,100.925417 C59.6867649,100.166653 59.1385544,96.2064844 60.9430807,94.6041724" id="Fill-336" fill="#1D202B"></path>
                        <path d="M42.5017789,96.9309055 L43.4829018,96.9309055 C44.0267614,96.9309055 44.4672877,96.4962528 44.4672877,95.9596446 L44.4672877,90.9262598 C44.4672877,90.3896516 44.0267614,89.954999 43.4829018,89.954999 L42.5017789,89.954999 C41.959007,89.954999 41.5184807,90.3896516 41.5184807,90.9262598 L41.5184807,95.9596446 C41.5184807,96.4962528 41.959007,96.9309055 42.5017789,96.9309055" id="Fill-338" fill="#1D202B"></path>
                        <path d="M48.6467404,92.8701767 C51.1767754,94.6366908 50.9320386,96.289444 54.7281789,95.3664779 C55.9398982,95.0724167 57.161407,94.637764 58.0141789,93.8135338 C58.8669509,92.9893037 59.2509158,91.6917851 58.6374421,90.7119385 C58.0957579,89.8490726 56.9623544,89.4433968 55.8876877,89.2051427 C54.1114421,88.8123455 52.2568807,88.7071703 50.4393018,88.8949832 C49.5636877,88.9851334 48.6510912,89.1632873 47.9908456,89.6870169 C46.6420737,90.7602333 47.5111614,92.078143 48.6467404,92.8701767" id="Fill-342" fill="#1D202B"></path>
                        <path d="M50.3268937,86.9514029 C53.1964251,88.8059203 54.6311908,89.9833789 54.6311908,90.4837788 C54.5570311,92.2515442 52.9374804,92.9836095 50.0146431,91.9420591 C48.0660849,91.2476922 47.1630109,89.9588713 47.3054213,88.0755963 L49.1955535,86.0974734 L50.3268937,86.9514029 Z" id="Path-51" fill="#FBBA9F"></path>
                        <path d="M41.6743509,51.6881813 L41.7798596,53.9215446 L43.0851228,85.3667844 C43.0796842,85.4848382 43.068807,85.4612274 43.061193,85.4107862 C42.9056491,85.6780171 42.8088421,86.287604 42.7609825,87.0689055 C44.7243158,88.4855512 46.4102807,89.2743652 49.0327719,89.1434328 C48.8837544,87.4488241 49.4047719,84.7808082 49.4341404,84.566165 C49.4809123,84.2313215 52.0087719,53.1488288 52.0087719,53.1488288 L52.0098596,53.1219984 C48.1277895,53.2185879 45.5564211,51.4767577 41.6743509,51.6881813" id="Fill-340" fill="#FBBA9F"></path>
                        <path d="M42.1215123,86.2925408 C42.9797228,85.9587705 44.0021789,86.0210171 45.1964947,86.7325595 C46.6823193,87.6190363 47.7852667,89.0657319 49.0829158,90.1808037 C50.8733018,91.7155032 52.6756526,92.5751495 54.8652316,91.5867172 C55.5863895,92.0192234 56.0910912,92.5161226 56.0682491,93.0902933 C56.0367053,93.9252557 54.5182491,94.9973988 53.8493018,95.4513694 C51.7467404,96.8798204 48.3639333,94.5874302 46.6540386,93.7288571 C45.3063544,93.0527308 43.8770912,93.1782971 42.5935825,92.6148585 C40.8662842,91.8550213 40.316986,87.8948529 42.1215123,86.2925408" id="Fill-346" fill="#1D202B"></path>
                        <path d="M66.3285965,55.5491846 L59.4955439,50.8463504 C55.4731579,48.0785254 50.1737895,47.8542232 45.955614,50.3215476 C35.2502807,56.5826919 18.9040351,68.1981127 15.9693684,69.0513198 L47.6067719,51.4441319 L15.9758947,69.1833254 L24.7701053,47.238197 C17.3975439,51.3625675 15.9693684,69.0513198 15.9693684,69.0513198 L15.9758947,69.1833254 C15.0959298,76.4253895 26.6377193,81.8515715 35.415614,83.1072346 C38.4144561,83.535448 41.4709474,82.9376664 44.1402105,81.522094 L45.603193,80.7472318 L66.7190877,69.5568047 C73.0811579,66.0076781 72.8570877,58.7892248 66.3285965,55.5491846" id="Fill-348" fill="#0D3054"></path>
                        <path d="M14.0670561,53.1822058 C14.1279684,54.3992332 14.1073018,55.6098213 13.9996175,56.833288 C13.9387053,57.4654124 14.2487053,58.083585 14.7806,58.4162821 C15.8465649,59.0816763 16.9516877,59.640822 18.0840035,60.1130372 C21.3939333,61.4824613 25.1900737,62.2541039 28.7218982,61.4824613 C28.8633018,61.4502648 28.9981789,61.4159219 29.1395825,61.3837254 C31.1692667,60.870728 35.5832316,59.6869703 35.9813368,57.2067673 C36.0020035,57.0994456 36.0226702,57.0007097 36.0161439,56.8998274 C36.0085298,56.6680126 35.9954772,56.4276122 35.9813368,56.1882849 L35.9813368,45.0547382 C37.0799333,41.8286498 39.0965649,39.5276739 38.0915123,35.4301338 C37.5715825,33.342728 36.7840737,31.626655 35.7387754,30.2164487 C33.8787754,27.6890241 31.1953719,26.1264211 27.7712316,25.1422816 C26.6856877,24.8353418 25.6131965,24.5831359 24.6440386,24.3835177 C22.9243544,24.0250634 20.5846702,23.8512023 18.3602842,24.1506297 C16.1565649,24.429666 14.0463895,25.1680388 12.7313368,26.6179542 C12.5627404,26.7982545 12.4017579,26.9978727 12.2603544,27.2028571 C9.64547719,31.0739485 11.033407,36.4883251 11.9840737,40.6921137 C12.9206,44.8218503 13.904986,48.971978 14.0670561,53.1822058" id="Fill-350" fill="#DCEAFF"></path>
                        <path d="M37.3956982,13.5910392 C37.5479789,15.8823561 37.3826456,18.1747463 36.199207,19.9852623 C34.8982947,22.0029091 32.5651368,22.9849021 30.2841895,23.2735973 C29.0278737,23.4292137 27.7084702,23.3819921 26.5185053,22.8421643 C24.2821544,21.8075837 23.0204,19.2232787 22.2263649,16.7420024 C21.9348561,15.797572 21.6846807,14.8338237 21.5280491,13.8614897 C21.373593,12.7539304 21.3257333,11.6206139 21.5171719,10.5227135 C21.9228912,8.14553927 23.3554175,6.07101202 25.1773474,4.67475752 C26.9971018,3.28064945 29.1725404,2.50793366 31.3795228,2.03249881 C32.4465754,1.79102512 33.6082596,1.6450677 34.6361544,2.09581857 C35.3170667,2.38773343 35.8924702,3.01878465 36.1198035,3.74427892 C36.2155228,4.00399729 36.2448912,4.28625319 36.2318386,4.55777694 C36.5124702,6.62586489 36.7931018,8.67892781 37.0748211,10.748089 C37.1977333,11.6785676 37.3239088,12.6251444 37.3956982,13.5910392" id="Fill-360" fill="#FBBA9F"></path>
                        <path d="M32.2559311,35.2132103 C32.2559311,38.629999 31.8436948,48.2807508 32.2559311,51.2255223 C32.5377044,53.238343 32.771566,53.8561317 32.5637835,56.2327126 C32.4017393,58.0884371 32.6090928,59.3435982 32.2559311,60.4136577 C33.2053271,60.1762086 33.8884128,59.7041404 34.6082308,59.2205098 C35.6806048,58.5000042 36.6092903,56.5451175 36.5713929,55.1726473 C36.5713929,55.1726473 36.269819,35.4874592 36.2025183,33.0725801 C35.1838615,31.8700149 33.5085336,31.3630853 32.7159546,33.2536264 C32.6806708,33.3364899 32.2559311,33.8275457 32.2559311,35.2132103 Z" id="Fill-322" fill="#A8C4F2"></path>
                        <path d="M16.7916842,10.894905 C16.7938596,11.0612535 16.7971228,11.2276021 16.800386,11.3928774 C16.8536842,14.1907525 16.994,17.2279548 18.8104912,19.376534 C20.5780351,21.4639398 23.5540351,22.184068 26.3081404,22.0810393 C32.6201754,21.8438584 30.2837544,16.4166032 34.0896842,13.7528802 C35.2394035,12.9490411 36.3401754,12.035734 37.109193,10.8723674 C44.2652982,0.0307356257 27.816807,-1.10687373 21.678807,1.99257516 C20.1984211,2.74060697 18.7626316,3.70328206 17.8935439,5.10382943 C16.8395439,6.80273095 16.7644912,8.88691715 16.7916842,10.894905" id="Fill-362" fill="#1D202B"></path>
                        <path d="M29.1485018,15.6211353 C29.1865719,16.3906314 29.6336246,17.0796363 30.1230982,17.6806375 C30.4330982,18.0605561 30.7713789,18.4297425 31.1988526,18.6744358 C31.6252386,18.9202024 32.1560456,19.0296705 32.6205018,18.8665416 C34.0736947,18.3599834 33.7114842,16.2135507 33.1404316,15.198288 C32.7053439,14.424499 31.8852035,13.8310103 30.9867474,13.8106192 C29.953414,13.7880817 29.0962912,14.5865547 29.1485018,15.6211353" id="Fill-366" fill="#FBBA9F"></path>
                        <path d="M35.8639719,57.0793765 C36.1282877,56.3935912 36.4774456,55.6906345 36.863586,55.0091421 C37.8447088,54.4499964 38.7257614,53.942365 38.7551298,53.8715327 L59.7481123,54.8234756 C60.5573754,54.7526434 61.4275509,54.9984099 62.1965684,55.5167734 C62.3368842,55.6112165 62.469586,55.713172 62.5957614,55.8204937 C63.1657263,56.303441 63.5932,56.9119547 63.8227088,57.5719828 C64.3992,59.239761 63.5116211,60.7165068 61.8430596,60.8656838 L40.1256561,62.0794916 C40.1071649,62.0805648 40.0908491,62.081638 40.0723579,62.081638 C37.4618316,62.1975454 35.0199018,59.2655182 35.8639719,57.0793765" id="Fill-368" fill="#FBBA9F"></path>
                        <path d="M64.3996351,61.5462103 C61.9707579,61.8896396 59.7779158,60.6296836 59.5016351,58.7311638 C59.2253544,56.832644 60.9711439,55.0156887 63.3989333,54.6722595 C65.8278105,54.327757 68.0206526,55.5887862 68.2969333,57.4862328 C68.573214,59.3847526 66.8274246,61.2027811 64.3996351,61.5462103" id="Fill-370" fill="#FBBA9F"></path>
                        <path d="M39.7102561,60.3944345 C39.6917649,60.4008738 39.6732737,60.4062399 39.6536947,60.4126792 C37.4641158,61.090952 35.2832386,59.4017094 34.9395193,56.9204331 L31.9091333,35.0268191 C31.5730281,32.5798858 33.0849579,30.2445669 35.2984667,29.8206465 C37.5065368,29.3892135 39.5732035,31.0344542 39.9114842,33.4813875 L41.1058,42.1132668 L42.2848877,50.6152869 C42.7808877,54.6784841 44.1438,58.9627639 39.7102561,60.3944345" id="Fill-372" fill="#DCEAFF"></path>
                        <path d="M30.6462912,29.4880567 C30.6038702,29.127456 30.5690632,28.7647089 30.5451333,28.4008885 C30.3493439,25.3046593 30.9345368,22.0163243 28.2000105,19.703543 C26.2965018,18.0947917 23.5467474,18.0035683 21.044993,18.1473793 C18.3093789,18.3051421 15.4856596,18.6786214 13.1612035,20.110292 C8.7983614,22.7997723 8.82011579,29.5900123 10.1188526,33.95371 C10.671414,35.7996422 11.062993,37.6004993 11.2881509,39.3348169 C11.2555193,42.1305456 9.61741404,43.5504109 6.3858,44.0859458 C4.0352386,44.4723037 2.03818596,45.8932422 0.934150877,48.2757825 C0.453378947,49.3103631 0.197764912,50.4458261 0.10857193,51.6188516 C6.03337895,54.1548618 12.9762912,54.3040389 19.6385719,53.6204001 C18.5736947,50.0186859 18.7945018,47.6339992 20.6370982,46.2881858 C21.9412737,45.6914775 23.3738,45.2471659 24.9129228,44.9573975 C27.3950982,44.493768 29.4954842,42.9601418 30.6691333,40.426278 C32.3681509,36.7633905 31.0846421,33.1906532 30.6462912,29.4880567" id="Fill-374" fill="#1D202B"></path>
                    </g>
                    <g id="computerMan" transform="translate(112.000000, 118.000000)">
                        <path d="M64.1711509,101.39898 C62.0403088,99.7473 57.1640632,102.625666 54.8243789,103.139737 C53.3124491,103.472434 47.7998877,103.780447 48.2262737,106.365825 C48.0522386,107.003316 47.9750105,107.69876 47.9521684,108.346983 C47.9228,109.187311 47.9445544,110.083447 48.1947298,110.870115 C49.1051509,111.83279 50.1993965,112.449889 51.4306947,112.785806 C51.5764491,112.769708 51.7254667,112.765415 51.8657825,112.735365 C52.9121684,112.506769 53.8486947,111.945477 54.7623789,111.393844 C57.6470105,109.648794 61.9706947,108.116241 64.1406947,105.478275 C65.1076772,104.30203 65.3785193,102.335898 64.1711509,101.39898" id="Fill-226" fill="#1D202B"></path>
                        <path d="M51.7718035,108.03854 L52.0045754,108.040687 C53.5774175,108.060005 54.8674526,106.81722 54.8859439,105.266423 L54.9446807,100.526026 C54.9642596,98.9752282 53.7046807,97.7013203 52.1318386,97.6830756 L51.8990667,97.679856 C50.3262246,97.6616113 49.0361895,98.9033227 49.0176982,100.455194 L48.9589614,105.19559 C48.9393825,106.746388 50.1989614,108.019223 51.7718035,108.03854" id="Fill-228" fill="#DCEAFF"></path>
                        <path d="M48.6849649,64.3431797 L48.0366842,101.156648 C48.2727193,102.751447 49.5997368,103.969548 51.2291404,104.088675 L52.9629649,104.214241 C55.0492105,104.365565 56.7982632,102.682761 56.698193,100.621113 L59.5686842,63.4094815 L48.6849649,64.3431797 Z" id="Fill-230" fill="#375EB4"></path>
                        <path d="M18.6781614,16.7406674 L17.2815298,26.4511292 C17.0868281,27.7947961 18.6890386,28.8841107 20.8579509,28.8841107 C23.0268632,28.8841107 24.9423368,27.7947961 25.1359509,26.4511292 L25.1718456,26.4511292 L26.5695649,16.7406674 L18.6781614,16.7406674 Z" id="Fill-234" fill="#FBBA9F"></path>
                        <path d="M21.3847333,17.8951263 C20.5232596,16.6298042 19.6868035,19.5972474 19.4725228,18.2568002 C19.2495404,16.8680582 17.3841018,17.4497415 17.3786632,16.0320226 C17.3743123,15.0242725 18.3173649,13.9478364 18.7383123,13.0742383 C19.2441018,12.0289256 19.8651895,11.1800114 20.8256456,10.5038851 C21.9873298,9.68824065 23.3556807,9.22675761 24.7207684,8.85005867 C26.2501018,8.42935785 27.8088035,8.11597867 29.3827333,7.93675153 L29.8156456,6.43854147 L34.700593,6.43854147 L34.700593,20.5159207 C34.700593,20.6522191 34.6668737,20.8529106 34.6059614,21.0997504 C33.7521018,24.5962893 29.9363825,26.4572465 26.6068737,25.14041 L21.3847333,17.8951263 Z" id="Fill-238" fill="#FBBA9F"></path>
                        <path d="M37.6399368,6.06828182 C37.4452351,6.65533118 37.0406035,7.14471785 36.5859368,7.53751504 C34.4300772,9.49506171 32.4188842,9.5927244 30.5871649,11.2562098 C29.3221474,12.3991852 28.0897614,15.4342411 28.1702526,17.7835118 C28.1387088,17.8650762 28.122393,17.9466407 28.1049895,18.0282051 C28.122393,18.0936713 28.1539368,18.141966 28.1865684,18.2074322 C28.2681474,18.9747819 28.4954807,19.6272975 28.9164281,20.1005859 C29.6789193,20.9484269 30.8144982,21.3734205 31.9489895,21.4710832 C33.0019018,21.5687459 34.1537965,21.2918561 34.9152,20.6232423 C34.8227439,20.7037335 35.0011298,23.4951693 34.8064281,24.0060203 C34.3800421,25.1178725 33.5957965,25.9710795 32.4961123,26.4314893 C30.2064632,27.3898715 27.6144281,26.2307978 25.7631298,24.8431291 C24.6406035,24.0017274 23.3201123,21.5354762 21.9604632,21.3186865 C21.034814,21.1716559 20.1113404,21.0256984 19.1867789,20.8786678 C18.2143579,20.7316371 17.1277263,20.5191403 16.5273053,19.7195941 C16.2194807,19.3278701 16.0737263,18.8223852 15.9442877,18.3490968 C14.4845684,13.1933653 12.932393,8.35208627 17.1320772,3.63744674 C21.0250246,-0.702640281 32.1426035,-0.882940632 36.6838316,2.98493118 C37.5431298,3.71901118 37.9967088,4.9918458 37.6399368,6.06828182" id="Fill-240" fill="#E7DBA7"></path>
                        <polygon id="Fill-242" fill="#E7DBA7" points="27.5509053 22.1790841 21.3846246 20.179682 21.0060982 13.1930434 27.5509053 13.1930434"></polygon>
                        <path d="M25.3892807,17.7918829 C25.8374211,19.4102931 27.1687895,20.4523862 28.3620175,20.1175427 C29.5563333,19.7826992 30.1611053,18.1986319 29.7129649,16.5802216 C29.2648246,14.9607381 27.9334561,13.9197182 26.7391404,14.2545617 C25.5459123,14.5894052 24.9411404,16.1734726 25.3892807,17.7918829" id="Fill-244" fill="#FBBA9F"></path>
                        <path d="M30.0929053,17.3428491 L30.0232912,17.3428491 C29.3238877,17.3428491 28.7560982,16.7837034 28.7560982,16.092552 L28.7560982,8.74960561 C28.7560982,8.05952749 29.3238877,7.49930854 30.0232912,7.49930854 L30.0929053,7.49930854 C30.7923088,7.49930854 31.3590105,8.05952749 31.3590105,8.74960561 L31.3590105,16.092552 C31.3590105,16.7837034 30.7923088,17.3428491 30.0929053,17.3428491" id="Fill-248" fill="#E7DBA7"></path>
                        <path d="M45.7405088,91.7196415 C43.7739123,90.1956743 39.2740175,92.8508116 37.113807,93.3262465 C35.7182632,93.6321131 30.631,93.9175887 31.0258421,96.3033487 C30.8637719,96.8914713 30.7941579,97.5332546 30.7724035,98.1321094 C30.7441228,98.9080448 30.7647895,99.7344214 30.995386,100.460989 C31.836193,101.349612 32.8466842,101.917344 33.9811754,102.228576 C34.1160526,102.213551 34.2531053,102.209258 34.3847193,102.181355 C35.3495263,101.971004 36.2131754,101.452641 37.0572456,100.942863 C39.7199825,99.3330385 43.7097368,97.9185393 45.7122281,95.4844846 C46.6052456,94.3983896 46.8543333,92.5835807 45.7405088,91.7196415" id="Fill-250" fill="#1D202B"></path>
                        <path d="M34.2971579,97.8471704 L34.5114386,97.8493169 C35.9624561,97.8675615 37.1535088,96.7202932 37.172,95.2886226 L37.2252982,90.9141927 C37.2427018,89.482522 36.0810175,88.3073501 34.63,88.2901786 L34.4135439,88.286959 C32.9625263,88.2697875 31.7725614,89.4170558 31.7551579,90.8487265 L31.7007719,95.2231564 C31.6844561,96.654827 32.8461404,97.8289258 34.2971579,97.8471704" id="Fill-252" fill="#DCEAFF"></path>
                        <path d="M30.9723263,68.4537057 L30.8505018,91.4956613 C31.0680456,92.9670409 32.2928175,94.0917717 33.7960456,94.2012398 L35.3960807,94.3182204 C37.3213439,94.4577385 38.9355193,92.9047944 38.8441509,91.0019818 L41.7092035,68.4537057 L30.9723263,68.4537057 Z" id="Fill-254" fill="#375EB4"></path>
                        <path d="M39.4074807,65.0275698 L12.6800421,81.4789036 L6.2092,77.6324961 C3.81512982,76.2115576 2.35649825,73.654083 2.35649825,70.9002098 L2.35649825,61.7306491 L3.73137544,62.7351796 L6.68888421,61.4848825 L30.1912351,51.5447525 L30.644814,51.5071899 C30.9406737,51.4814327 31.2278316,51.4696273 31.5160772,51.4696273 C36.3031298,51.4696273 40.5408842,54.6645925 41.7384632,59.3126926 C41.7384632,59.3255712 41.7439018,59.3373766 41.7439018,59.3502552 C42.2877614,61.541763 41.3468842,63.8277139 39.4074807,65.0275698" id="Fill-256" fill="#375EB4"></path>
                        <path d="M55.7158737,66.1013228 C54.5193825,61.4532226 50.2827158,58.2518182 45.4956632,58.2518182 C45.2063298,58.2518182 44.9180842,58.2636236 44.6244,58.2893808 L44.1697333,58.3269433 L41.7441193,59.3497185 L27.9105053,65.2084067 C21.5973825,67.8807155 14.3205404,67.0478996 8.79601404,63.0211918 L6.68910175,61.4843459 L2.35562807,58.3269433 L2.35562807,70.9007464 C2.35562807,73.6546196 3.81534737,76.211021 6.20832982,77.6330327 L12.6802596,81.478367 L20.2192421,85.9558257 C23.3942947,87.8436133 27.3818737,87.8189293 30.5308211,85.8796273 L53.3925053,71.8097607 C55.3449614,70.6034655 56.2804,68.2981967 55.7158737,66.1013228" id="Fill-258" fill="#375EB4"></path>
                        <path d="M73.9011263,28.3993389 L48.7236877,14.1684897 C48.2711965,13.911991 47.6827404,13.7907176 47.1758632,13.9066249 C46.4612316,14.0686806 45.7922842,14.2908364 45.7944596,14.9068626 L38.6448807,37.9971129 L40.8594772,39.2881922 C40.1350561,39.6359143 18.0336877,50.2500242 17.997793,50.2757814 L17.9444947,51.166551 C17.9444947,51.5518357 18.1500737,51.9059971 18.4872667,52.0981028 C22.2496877,54.2477552 44.2868807,66.8183386 44.2868807,66.8183386 C45.0123895,67.2326001 45.9064947,67.2315269 46.6320035,66.8183386 L67.578214,54.8723672 C67.7968456,54.7478741 67.9306351,54.5182058 67.9317228,54.2692196 L75.0791263,30.398741 C75.0769509,29.5723644 74.6277228,28.8093075 73.9011263,28.3993389" id="Fill-260" fill="#696969"></path>
                        <path d="M67.2251404,54.1910894 L38.6224737,38.0885509 L45.6752456,15.0487418 C45.6741579,14.3833476 46.4018421,13.9658665 46.9881228,14.2964171 L73.3642281,29.2044658 C73.9385439,29.5296503 74.2931404,30.1317247 74.2953158,30.7842403 L67.2251404,54.1910894 Z" id="Fill-262" fill="#1D202B"></path>
                        <polygon id="Fill-264" fill="#375EB4" points="41.2919544 36.0868951 47.6377088 16.9729114 71.4870421 30.1584478 65.9570772 49.3014083"></polygon>
                        <path d="M67.2091509,54.1890503 L38.6217123,37.9223097 L18.4042737,49.4508 C17.8201684,49.7845703 17.8201684,50.616313 18.4042737,50.9490101 L44.7227298,65.9557946 C45.2959579,66.2831256 46.0029754,66.2831256 46.5751158,65.9557946 L67.2091509,54.1890503 Z" id="Fill-266" fill="#CCCCCC"></path>
                        <path d="M56.1099544,52.1038982 C56.886586,52.5439169 57.273814,52.7639263 58.0504456,53.2028718 C58.8346912,52.7660727 59.2273579,52.5471366 60.0116035,52.1092643 C59.2360596,51.6692456 58.8488316,51.4503094 58.0722,51.0102907 C57.2868667,51.448163 56.8952877,51.6660259 56.1099544,52.1038982" id="Fill-268" fill="#1D202B"></path>
                        <path d="M53.246207,50.481517 C54.0228386,50.9215357 54.4100667,51.1415451 55.1866982,51.5804906 C55.9720316,51.1436915 56.3636105,50.9247554 57.1489439,50.4868831 C56.3723123,50.0468644 55.9850842,49.826855 55.2084526,49.3879095 C54.4231193,49.8257818 54.0315404,50.0436447 53.246207,50.481517" id="Fill-270" fill="#1D202B"></path>
                        <path d="M50.3835474,48.8591358 C51.1590912,49.2991545 51.5463193,49.5191639 52.3229509,49.9581094 C53.1082842,49.5213103 53.4998632,49.3023742 54.2851965,48.8645019 C53.5085649,48.4244832 53.1213368,48.2044738 52.3447053,47.7644551 C51.5604596,48.2023274 51.167793,48.4212635 50.3835474,48.8591358" id="Fill-272" fill="#1D202B"></path>
                        <path d="M47.5196912,47.2366473 C48.2952351,47.676666 48.6835509,47.8956022 49.4590947,48.3356209 C50.2444281,47.8977486 50.636007,47.6798857 51.4213404,47.2420134 C50.6447088,46.8019947 50.2574807,46.5819853 49.4808491,46.1419666 C48.6966035,46.5798389 48.3039368,46.798775 47.5196912,47.2366473" id="Fill-274" fill="#1D202B"></path>
                        <path d="M44.6559439,45.6142661 C45.4314877,46.0542848 45.8198035,46.2742942 46.5953474,46.7132397 C47.3806807,46.2753674 47.7722596,46.0575045 48.557593,45.6196322 C47.7809614,45.1796135 47.3937333,44.9596041 46.6171018,44.5195854 C45.8328561,44.9574577 45.4412772,45.1763938 44.6559439,45.6142661" id="Fill-276" fill="#1D202B"></path>
                        <path d="M41.7921965,43.9918849 C42.5688281,44.4319036 42.9560561,44.651913 43.7316,45.0908585 C44.5169333,44.6529862 44.9085123,44.4351233 45.6938456,43.997251 C44.917214,43.5572323 44.529986,43.3372229 43.7544421,42.8972042 C42.9691088,43.3350765 42.5775298,43.5540126 41.7921965,43.9918849" id="Fill-278" fill="#1D202B"></path>
                        <path d="M38.9295368,42.3695037 C40.2293614,43.1068034 40.8809053,43.4749166 42.1818175,44.2122162 C42.9660632,43.7754172 43.3587298,43.5554078 44.1429754,43.1186087 C42.8420632,42.3813091 42.191607,42.0121227 40.8906947,41.2758962 C40.1064491,41.7137685 39.7137825,41.9316314 38.9295368,42.3695037" id="Fill-280" fill="#1D202B"></path>
                        <path d="M53.3576982,53.6393489 C54.1332421,54.0793676 54.5215579,54.2993769 55.2971018,54.7383224 C56.0824351,54.3015234 56.474014,54.0825872 57.2593474,53.6447149 C56.4827158,53.2046962 56.0954877,52.9857601 55.3188561,52.5457414 C54.5346105,52.9836137 54.1419439,53.2014766 53.3576982,53.6393489" id="Fill-282" fill="#1D202B"></path>
                        <path d="M50.4939509,52.0168604 C51.2694947,52.4568791 51.6578105,52.6768884 52.4333544,53.1158339 C53.2186877,52.6790349 53.6102667,52.4600987 54.3956,52.0222264 C53.6189684,51.5822077 53.2317404,51.3632716 52.4551088,50.9221796 C51.6708632,51.3611251 51.2781965,51.5789881 50.4939509,52.0168604" id="Fill-284" fill="#1D202B"></path>
                        <path d="M47.6302035,50.3944792 C48.4057474,50.8344979 48.7940632,51.0545072 49.569607,51.4934527 C50.3549404,51.0566537 50.7465193,50.8377175 51.5318526,50.3998452 C50.7552211,49.9598265 50.367993,49.7408904 49.5913614,49.2997985 C48.8071158,49.7376707 48.4155368,49.9566069 47.6302035,50.3944792" id="Fill-286" fill="#1D202B"></path>
                        <path d="M44.7664561,48.772098 C45.5430877,49.2121167 45.9303158,49.432126 46.7058596,49.8710715 C47.491193,49.4342725 47.8827719,49.2153363 48.6681053,48.777464 C47.8914737,48.3374453 47.5042456,48.117436 46.7287018,47.6774173 C45.9433684,48.1163628 45.5517895,48.3342257 44.7664561,48.772098" id="Fill-288" fill="#1D202B"></path>
                        <path d="M41.9027088,47.1497168 C42.6793404,47.5897355 43.0665684,47.8097448 43.8432,48.2486903 C44.6274456,47.8108181 45.0201123,47.5929551 45.8043579,47.1550829 C45.028814,46.7150641 44.6404982,46.4950548 43.8649544,46.0550361 C43.0796211,46.4929084 42.6880421,46.7118445 41.9027088,47.1497168" id="Fill-290" fill="#1D202B"></path>
                        <path d="M39.0399404,45.5273356 C39.8154842,45.9673543 40.2027123,46.1873636 40.9793439,46.6263091 C41.7635895,46.1895101 42.1562561,45.9705739 42.9405018,45.5327017 C42.1649579,45.0926829 41.7777298,44.8726736 41.0010982,44.4326549 C40.2157649,44.8716004 39.824186,45.0894633 39.0399404,45.5273356" id="Fill-292" fill="#1D202B"></path>
                        <path d="M36.176193,43.9049544 C36.9517368,44.3449731 37.3400526,44.5649825 38.1155965,45.003928 C38.9009298,44.5671289 39.2925088,44.3481927 40.0778421,43.9103205 C39.3012105,43.4703018 38.9139825,43.2513656 38.1384386,42.8113469 C37.3531053,43.2492192 36.9615263,43.4670821 36.176193,43.9049544" id="Fill-294" fill="#1D202B"></path>
                        <path d="M50.6044632,55.1746922 C51.3810947,55.6147109 51.7683228,55.8347203 52.5438667,56.2736658 C53.3292,55.8368667 53.7207789,55.6179306 54.5061123,55.1800583 C53.7294807,54.7400396 53.3422526,54.5211034 52.5667088,54.0810847 C51.7813754,54.518957 51.3897965,54.7368199 50.6044632,55.1746922" id="Fill-296" fill="#1D202B"></path>
                        <path d="M47.7407158,53.552311 C48.5173474,53.9923297 48.9045754,54.2123391 49.681207,54.6512846 C50.4654526,54.2144855 50.8581193,53.9955494 51.6423649,53.5576771 C50.8668211,53.1176584 50.4785053,52.8987222 49.7029614,52.4587035 C48.9176281,52.8965758 48.5260491,53.1144387 47.7407158,53.552311" id="Fill-298" fill="#1D202B"></path>
                        <path d="M44.8769684,51.9299298 C45.6536,52.3699485 46.0408281,52.5899579 46.8174596,53.0289034 C47.6017053,52.5921043 47.9943719,52.3731682 48.7786175,51.9352959 C48.0030737,51.4952772 47.6147579,51.2763411 46.839214,50.8363223 C46.0538807,51.2741946 45.6623018,51.4920575 44.8769684,51.9299298" id="Fill-300" fill="#1D202B"></path>
                        <path d="M42.0131123,50.3075486 C42.7897439,50.7475673 43.1769719,50.9675767 43.9536035,51.4065222 C44.7378491,50.9697231 45.1305158,50.750787 45.9147614,50.3129147 C45.1392175,49.872896 44.7509018,49.6528866 43.9753579,49.2128679 C43.1900246,49.6518134 42.7984456,49.8696764 42.0131123,50.3075486" id="Fill-302" fill="#1D202B"></path>
                        <path d="M39.1504526,48.6851674 C39.9259965,49.1251862 40.3132246,49.3451955 41.0898561,49.784141 C41.8751895,49.3473419 42.2667684,49.1284058 43.051014,48.6905335 C42.2754702,48.2505148 41.8882421,48.0315787 41.1116105,47.5904867 C40.3262772,48.0294322 39.9346982,48.2472952 39.1504526,48.6851674" id="Fill-304" fill="#1D202B"></path>
                        <path d="M35.049207,46.3620833 C36.3207509,47.0822115 36.9559789,47.4417389 38.2264351,48.1618671 C39.0117684,47.7250681 39.4033474,47.5050587 40.1886807,47.0682596 C38.9171368,46.3481315 38.2819088,45.9875308 37.0114526,45.2674026 C36.2261193,45.7052749 35.8345404,45.924211 35.049207,46.3620833" id="Fill-306" fill="#1D202B"></path>
                        <path d="M33.4229579,45.4402977 C34.1995895,45.8803164 34.5868175,46.1003258 35.3634491,46.5392713 C36.1476947,46.1024722 36.5392737,45.8835361 37.324607,45.4456638 C36.5479754,45.0056451 36.1607474,44.786709 35.3852035,44.3466902 C34.5998702,44.7845625 34.2082912,45.0024255 33.4229579,45.4402977" id="Fill-308" fill="#EFF6FC"></path>
                        <path d="M36.0168421,50.432793 C36.792386,50.8728117 37.1807018,51.0928211 37.9562456,51.5317665 C38.7415789,51.0949675 39.1331579,50.8760313 39.9184912,50.4381591 C39.1418596,49.9981404 38.7546316,49.7792042 37.978,49.3391855 C37.1937544,49.7770578 36.8010877,49.9949207 36.0168421,50.432793" id="Fill-310" fill="#EFF6FC"></path>
                        <path d="M33.1530947,48.8104118 C33.9297263,49.2504305 34.3169544,49.4704399 35.0924982,49.9093854 C35.8778316,49.4725863 36.2694105,49.2536502 37.0547439,48.8157779 C36.2781123,48.3757592 35.8908842,48.156823 35.1142526,47.7168043 C34.330007,48.1546766 33.9384281,48.3725395 33.1530947,48.8104118" id="Fill-312" fill="#EFF6FC"></path>
                        <path d="M30.2893474,47.1884599 C31.0659789,47.6274054 31.453207,47.8474147 32.2298386,48.2874335 C33.0140842,47.8495612 33.4067509,47.630625 34.1909965,47.1927527 C33.4154526,46.7538073 33.0271368,46.5337979 32.251593,46.0937792 C31.4662596,46.5316515 31.0746807,46.7505876 30.2893474,47.1884599" id="Fill-314" fill="#EFF6FC"></path>
                        <path d="M51.5710105,57.0402642 C47.9945895,55.0140317 44.4181684,52.9877992 40.8417474,50.9615667 C40.056414,51.399439 39.6648351,51.6173019 38.8805895,52.0551742 C42.4972561,54.1050175 46.1150105,56.1548607 49.7338526,58.204704 L51.5710105,57.0402642 Z" id="Fill-316" fill="#1D202B"></path>
                        <path d="M43.5905228,57.0020577 L34.3449088,51.7347118 C34.1741368,51.6370491 33.9631193,51.6402687 33.7956105,51.7432975 L28.7442421,54.8137695 C28.6158912,54.8910411 28.6191544,55.0734879 28.7475053,55.1475398 L37.9920316,60.4170322 C38.1617158,60.5136217 38.3727333,60.5104021 38.5402421,60.4084465 L43.5959614,57.335828 C43.7221368,57.2585564 43.7199614,57.0750364 43.5905228,57.0020577" id="Fill-318" fill="#696969"></path>
                        <path d="M34.0762421,72.8890944 C34.1404175,75.0044038 32.8155754,76.9243879 30.7924175,77.6316375 C29.5894,78.0544848 27.5858211,78.7306111 26.0053649,79.0965779 C25.5441719,79.2038995 25.1156105,79.2800979 24.7577509,79.3176604 C20.1741018,79.7727042 15.5404175,78.774613 11.539786,76.3437779 L2.83476842,71.3415164 C1.67090877,70.6664633 0.967154386,69.4226055 0.998698246,68.0896707 C1.14227719,62.089318 2.08206667,55.8571505 2.04508421,49.9802176 C2.00810175,44.2932441 1.62848772,38.4570934 3.4536807,33.0631079 C6.90392632,22.8664792 15.5882772,21.1053311 24.2062772,26.4928773 C26.4589439,27.9009372 29.2554702,28.8163907 31.0610842,30.5710995 C32.1433649,31.6142658 32.8666982,32.9590059 32.9232596,34.8843561 C32.9624175,36.1421657 34.0762421,72.8890944 34.0762421,72.8890944" id="Fill-320" fill="#DCEAFF"></path>
                        <path d="M27.1291965,35.4670053 C27.0704596,35.594718 26.9856175,35.66877 26.8931614,35.7213576 C26.6538632,36.9126277 26.5940386,38.1607784 26.5875123,39.3756593 C26.5744596,41.660537 26.6767053,44.0162469 25.8576526,46.1573136 C25.3583895,47.4580518 24.5262842,48.6385898 24.2119333,49.9972818 C23.4570561,53.2298095 25.7423544,56.3249655 26.4015123,59.5703718 C27.1313719,63.1828182 25.8326351,66.8521449 25.4867404,70.5150324 C25.216986,73.3751541 25.5248105,76.2492275 26.0055825,79.0964705 C27.5860386,78.7305038 29.5896175,78.0554507 30.7926351,77.6315302 C32.815793,76.9242806 34.1395474,75.0042965 34.0764596,72.888987 C34.0764596,72.888987 33.0453018,38.9098834 32.9332667,35.187969 C31.2375123,33.3345244 28.4486,32.5532228 27.1291965,35.4670053" id="Fill-322" fill="#A8C4F2"></path>
                        <path d="M62.4439614,61.5563587 C61.0255754,62.7068467 53.7726632,68.5011419 50.3202421,69.7085103 C48.3928035,70.3835634 46.2565228,70.3857098 44.1071895,69.7557318 C42.5049789,69.2867363 40.8951544,68.4678722 39.3527684,67.3045056 C36.4398561,65.12373 34.1251895,61.9920846 32.7753298,58.4815938 C32.4544526,57.6573636 32.1944877,56.8148888 31.9856456,55.9541693 L26.9723474,35.1080144 C26.3664877,32.5966881 27.5586281,30.5049894 29.6274702,30.43845 C31.7017509,30.374057 33.8717509,32.3562876 34.4776105,34.8740532 L39.4909088,55.7202081 C39.4963474,55.7341599 39.4963474,55.7470385 39.501786,55.7609903 C39.9151193,57.4480865 40.9245228,58.9967377 42.272207,60.0077075 C43.636207,61.0304827 45.1492246,61.3610334 46.4240316,60.9167218 C48.3286281,60.2491812 53.7367684,56.2664752 56.9683825,53.6478273 C58.508593,52.4007498 60.9809789,53.1638067 62.4950842,55.3499484 C64.0081018,57.5296509 63.9841719,60.3157206 62.4439614,61.5563587" id="Fill-324" fill="#FBBA9F"></path>
                        <path d="M42.865014,56.298779 L36.649786,35.9827931 C36.1820667,34.4534597 35.1161018,32.9874462 33.6487684,31.8573493 C32.1825228,30.7272525 30.4900316,30.0682976 28.880207,29.9963921 C27.2758211,29.9266331 25.9488035,30.4557287 25.1428035,31.4849433 C24.3368035,32.5173774 24.1508035,33.9254373 24.6185228,35.451551 L30.8500667,55.8330031 C31.1404877,56.7709942 31.4994351,57.6821549 31.9192947,58.5385816 L32.1825228,59.0741166 C32.3402421,59.3993011 32.7122421,59.6429213 33.0526982,59.6439945 L33.611786,59.6461409 C33.9337509,59.6472141 34.2644175,59.6375552 34.5624526,59.6182373 C37.5243123,59.4626209 40.2795053,58.7263945 42.5299965,57.4900492 L42.8813298,57.2979435 C43.1021368,57.1755968 43.159786,56.9040731 43.0238211,56.6228904 L42.865014,56.298779 Z" id="Fill-326" fill="#DCEAFF"></path>
                    </g>
                    <path d="M98.9102316,250.958303 C113.155004,259.072892 136.248372,259.072892 150.493144,250.958303 C164.736828,242.843714 164.736828,229.687154 150.492056,221.572565 C136.247284,213.459049 113.153916,213.459049 98.9091439,221.572565 C84.6654596,229.687154 84.6654596,242.843714 98.9102316,250.958303" id="shadow" fill="#F4F4F4" style="mix-blend-mode: multiply;"></path>
                    <g id="chair" transform="translate(85.000000, 155.000000)">
                        <path d="M77.0392842,81.0658157 C76.7662667,81.0658157 76.5128281,80.8908814 76.427986,80.6193577 L67.437986,51.7272996 C67.3346526,51.3935294 67.5250035,51.039368 67.8621965,50.9374124 C68.2004772,50.8365301 68.5583368,51.0221965 68.6627579,51.3559668 L77.6516702,80.2480248 C77.7550035,80.5817951 77.5657404,80.9348833 77.2285474,81.037912 C77.1654596,81.0561567 77.1023719,81.0658157 77.0392842,81.0658157" id="Fill-378" fill="#CCCCCC"></path>
                        <path d="M41.9444561,101.957904 C41.5996491,101.957904 41.3146667,101.68638 41.3048772,101.342951 L40.3030877,63.8007692 C40.2932982,63.4519739 40.5717544,63.1622055 40.9252632,63.1525465 C41.2776842,63.1278625 41.5724561,63.4187042 41.5822456,63.7674995 L42.5851228,101.309681 C42.5938246,101.658477 42.3153684,101.949318 41.9618596,101.957904 L41.9444561,101.957904 Z" id="Fill-380" fill="#CCCCCC"></path>
                        <path d="M3.10841754,79.6368281 C3.07361053,79.6368281 3.03880351,79.6336084 3.00290877,79.6282423 C2.65375088,79.5713619 2.41771579,79.2461773 2.47536491,78.9016749 L7.51476842,48.8698611 C7.57241754,48.5253586 7.90199649,48.2913974 8.25115439,48.3493511 C8.59922456,48.4062316 8.83634737,48.7314161 8.77869825,49.0748454 L3.73929474,79.1077324 C3.68708421,79.4168187 3.41515439,79.6368281 3.10841754,79.6368281" id="Fill-382" fill="#CCCCCC"></path>
                        <path d="M0.372150877,3.77534812 L3.97902807,41.9196045 C4.17699298,44.01023 5.38001053,45.8797729 7.21281754,46.9454768 L38.7044667,65.2524017 C40.7178351,66.4222075 43.2065368,66.4597701 45.2558,65.3511376 L69.4716947,52.2428728 C72.7435544,50.4720658 74.8885368,47.1912433 75.1735193,43.5197701 C75.4585018,39.8171736 71.4339404,37.3069205 68.1675193,39.149633 L52.5010982,47.9875699 C50.3006421,49.228208 47.5008526,48.1678702 46.708993,45.7928424 L37.1087825,17.0456686 C36.8194491,16.179583 36.1907474,15.4637476 35.3608175,15.0591451 L5.33758947,0.406521918 C2.91741404,-0.77508931 0.120887719,1.12128402 0.372150877,3.77534812" id="Fill-384" fill="#0D3054"></path>
                    </g>
                    <path d="M196.581877,303.659559 C210.826649,311.774148 233.920018,311.774148 248.164789,303.659559 C262.408474,295.54497 262.408474,282.38841 248.163702,274.274894 C233.91893,266.160305 210.825561,266.160305 196.580789,274.274894 C182.337105,282.389483 182.337105,295.54497 196.581877,303.659559" id="shadow" fill="#F4F4F4" style="mix-blend-mode: multiply;"></path>
                    <g id="chair" transform="translate(183.000000, 207.000000)">
                        <path d="M76.7110386,81.7671789 C76.4369333,81.7671789 76.1845825,81.5922447 76.0997404,81.3207209 L67.1097404,52.4286629 C67.0053193,52.0948926 67.1956702,51.7418044 67.5328632,51.6387757 C67.8722316,51.5389665 68.2300912,51.724633 68.3334246,52.0573301 L77.3223368,80.9504613 C77.4267579,81.2831584 77.236407,81.6362465 76.899214,81.7392753 C76.8361263,81.7585932 76.7741263,81.7671789 76.7110386,81.7671789" id="Fill-388" fill="#CCCCCC"></path>
                        <path d="M41.6161018,102.659697 C41.270207,102.659697 40.9852246,102.388173 40.9765228,102.044744 L39.9736456,64.5025618 C39.9638561,64.1537665 40.2434,63.863998 40.5969088,63.8543391 C40.9482421,63.8296551 41.2441018,64.1204967 41.2538912,64.4692921 L42.2556807,102.011474 C42.2654702,102.360269 41.987014,102.650038 41.6335053,102.659697 L41.6161018,102.659697 Z" id="Fill-390" fill="#CCCCCC"></path>
                        <path d="M2.77897544,80.338084 C2.74525614,80.338084 2.71044912,80.3359376 2.67346667,80.3294983 C2.32539649,80.2726178 2.0893614,79.9474333 2.14701053,79.604004 L7.18641404,49.571117 C7.24297544,49.2266145 7.57364211,48.9926534 7.9228,49.0516803 C8.27087018,49.1074875 8.50690526,49.4337453 8.44925614,49.7771745 L3.40985263,79.8100616 C3.35764211,80.1191479 3.0868,80.338084 2.77897544,80.338084" id="Fill-392" fill="#CCCCCC"></path>
                        <path d="M0.0427087719,4.47671139 L3.64958596,42.6209678 C3.84755088,44.7115933 5.05056842,46.5811362 6.88446316,47.64684 L38.3750246,65.953765 C40.3894807,67.124644 42.8781825,67.1611334 44.9263579,66.0525009 L69.1433404,52.9453093 C72.4152,51.1734291 74.5601825,47.8926066 74.8440772,44.2211334 C75.1301474,40.5196101 71.105586,38.0082838 67.8391649,39.8509963 L52.1716561,48.6889331 C49.9722877,49.9295713 47.1724982,48.8692335 46.3795509,46.4952789 L36.7793404,17.7481051 C36.4910947,16.8809462 35.8613053,16.1661841 35.0324632,15.7615816 L5.00923509,1.10788519 C2.58797193,-0.0737260351 -0.207466667,1.82372051 0.0427087719,4.47671139" id="Fill-394" fill="#EF4B46"></path>
                    </g>
                </g>
                <g id="floats" transform="translate(82.000000, 0.000000)">
                    <g id="whiteboard" transform="translate(47.753712, 0.000000)">
                        <mask id="mask-2" fill="white">
                            <use xlink:href="#path-1"></use>
                        </mask>
                        <g id="Clip-68"></g>
                        <path d="M83.6459404,2.88019078 L79.5463263,0.820688561 C78.5021158,0.199296281 77.1620456,0.199296281 75.7828175,0.975231719 L4.90811579,40.830195 C2.18881754,42.3595283 0.316852632,46.335795 0.745414035,49.6659854 L14.9880105,160.234102 C15.0826421,160.971402 15.3701609,161.844713 15.6540557,162.38776 C15.7062662,162.849243 17.0271465,163.486223 17.4578833,163.749161 L21.9997682,165.845307 L23.2155193,162.101499 L91.5852035,123.655669 C94.3045018,122.126335 96.1775544,118.150069 95.748993,114.818805 L81.9164667,7.43706751 L83.6459404,2.88019078 Z" id="Fill-67" fill="#24468F" mask="url(#mask-2)"></path>
                        <path d="M95.7160351,125.497201 L24.8424211,165.351091 C22.1231228,166.880424 19.5474035,165.406898 19.1177544,162.075634 L4.87515789,51.5075174 C4.44659649,48.1762538 6.31964912,44.1999871 9.03894737,42.6706538 L79.9125614,2.81569048 C82.6318596,1.28743036 85.2075789,2.76202966 85.6361404,6.09329329 L99.8787368,116.660337 C100.308386,119.991601 98.4342456,123.967867 95.7160351,125.497201" id="Fill-70" fill="#ECF5FF" mask="url(#mask-2)"></path>
                        <path d="M91.8633333,115.964571 L27.4627368,152.180257 C26.1009123,152.945461 24.3888421,152.100839 24.1908772,150.568286 L11.380807,51.1154714 C11.2676842,50.2440197 11.6995088,49.3918859 12.4728772,48.9561601 L76.8745614,12.7404735 C78.236386,11.9752703 79.9484561,12.8198916 80.1464211,14.3524445 L92.9564912,113.80526 C93.0685263,114.676711 92.6377895,115.528845 91.8633333,115.964571" id="Fill-72" fill="#B8DAF5" mask="url(#mask-2)"></path>
                        <path d="M77.9619544,12.7507764 C77.6399895,12.7507764 77.3191123,12.8344873 77.0243404,12.9997626 L12.6226561,49.2154492 C11.9526211,49.5921481 11.5827965,50.3230085 11.6796035,51.0774796 L24.4907614,150.530295 C24.5723404,151.160273 24.9497789,151.685075 25.5251825,151.968404 C26.1016737,152.252807 26.7532175,152.235635 27.313393,151.92011 L91.7150772,115.705496 C92.3840246,115.328797 92.7538491,114.596864 92.6570421,113.842393 L79.8458842,14.390651 C79.7643053,13.7595998 79.3879544,13.2358702 78.8114632,12.9514679 C78.5395333,12.8173158 78.2502,12.7507764 77.9619544,12.7507764 M26.3725158,152.762585 C25.991814,152.762585 25.6078491,152.676727 25.2554281,152.502866 C24.5059895,152.13368 23.9969368,151.424284 23.8914281,150.60542 L11.0802702,51.1526047 C10.953007,50.1577331 11.4403053,49.1939848 12.3235333,48.6970857 L76.7241298,12.4824723 C77.451814,12.0735769 78.3328667,12.0488929 79.0812175,12.4180793 C79.8306561,12.7872658 80.3407965,13.4966618 80.4452175,14.3155259 L93.2574632,113.768341 C93.3847263,114.763212 92.8963404,115.726961 92.0131123,116.22386 L91.863007,115.964142 L92.0131123,116.22386 L27.6114281,152.438473 C27.2274632,152.65419 26.8010772,152.762585 26.3725158,152.762585" id="Fill-74" fill="#FFFFFF" mask="url(#mask-2)"></path>
                        <path d="M54.0214702,69.9929182 L41.1396105,54.3239591 C40.8176456,53.9322351 40.7676105,53.3795287 41.0275754,52.9438029 C43.4988737,48.7936751 46.6162772,45.3969453 50.1818211,43.3031002 C60.4846982,37.2555259 70.5732947,44.3226557 72.7139263,59.0868934 C74.8534702,73.8522043 68.2368737,90.7242389 57.9339965,96.7718131 C47.9519965,102.630501 38.1853649,96.1654459 35.6401018,82.3295404 C35.5509088,81.8423002 35.7793298,81.3486206 36.2035404,81.0846094 L54.0084175,70.0669701 C54.0356105,70.0519451 54.0410491,70.0165289 54.0214702,69.9929182" id="Fill-76" fill="#ECF5FF" mask="url(#mask-2)"></path>
                        <path d="M35.2392772,53.5566094 L46.4569263,67.2862665 C46.8561193,67.7735067 46.7310316,68.4947081 46.1926105,68.826332 L29.9181544,78.8050978 C29.2872772,79.1914557 28.4616982,78.8233425 28.3366105,78.1021411 C28.2321895,77.491481 28.1321193,76.9108709 28.1190667,76.8250136 C26.9084351,68.2650398 29.0349263,61.2741084 32.7233825,53.832426 C33.2052421,52.8622384 34.5507509,52.7152078 35.2392772,53.5566094" id="Fill-78" fill="#EF4B46" mask="url(#mask-2)"></path>
                        <polygon id="Fill-80" fill="#FFFFFF" mask="url(#mask-2)" points="80.0896421 95.8444469 65.7154316 103.927913 66.1178877 107.053119 80.493186 98.9707262"></polygon>
                        <polygon id="Fill-82" fill="#FFFFFF" mask="url(#mask-2)" points="84.3034667 99.6598384 66.4583439 109.694412 66.8608 112.820691 84.7059228 102.786118"></polygon>
                        <polygon id="Fill-84" fill="#FFFFFF" mask="url(#mask-2)" points="67.2006035 115.461554 67.6030596 118.587834 74.402393 114.763964 73.9999368 111.637684"></polygon>
                        <path d="M44.0121684,132.592127 L40.1475018,102.594656 C40.0822386,102.085951 39.5035719,101.815501 39.0630456,102.088098 L35.5453614,104.264581 C35.310414,104.410538 35.1820632,104.676696 35.2168702,104.948219 L39.0739228,134.894176 C39.139186,135.398588 39.7102386,135.670111 40.1507649,135.405027 L43.6760632,133.280058 C43.9153614,133.136247 44.0469754,132.86687 44.0121684,132.592127" id="Fill-86" fill="#ECF5FF" mask="url(#mask-2)"></path>
                        <path d="M37.6367193,136.432202 L35.0142281,116.074361 C34.9489649,115.565656 34.3702982,115.295206 33.9308596,115.567803 L30.411,117.744286 C30.1771404,117.890243 30.0477018,118.156401 30.0835965,118.427924 L32.6995614,138.733178 C32.7648246,139.238663 33.3358772,139.510187 33.7764035,139.244029 L37.300614,137.120134 C37.541,136.976323 37.6715263,136.706946 37.6367193,136.432202" id="Fill-88" fill="#EF4B46" mask="url(#mask-2)"></path>
                        <path d="M50.5596947,128.568102 L49.1543614,117.659931 C49.0880105,117.151226 48.5104316,116.880776 48.0699053,117.153373 L44.5522211,119.330929 C44.3172737,119.475813 44.1889228,119.743044 44.2237298,120.014567 L45.6214491,130.869078 C45.6878,131.374563 46.2588526,131.646087 46.6982912,131.379929 L50.2235895,129.256034 C50.4639754,129.111149 50.5945018,128.841772 50.5596947,128.568102" id="Fill-90" fill="#ECF5FF" mask="url(#mask-2)"></path>
                    </g>
                    <g id="floaters" transform="translate(0.000000, 21.000000)">
                        <path d="M161,42.5070122 C161,44.7253569 162.318408,45.6252131 163.946739,44.5156343 C165.574251,43.4052426 166.892659,40.7048612 166.892659,38.4857036 C166.892659,36.267359 165.574251,35.365877 163.946739,36.47383 C162.318408,37.5850346 161,40.2862289 161,42.5070122" id="Fill-7" fill="#FFFFFF"></path>
                        <polygon id="Fill-42" fill="#0D3054" style="mix-blend-mode: multiply;" opacity="0.496000744" points="172.514493 53.6460911 207.531825 33.7289489 207.531825 0.591155351 172.514493 20.5091104"></polygon>
                        <polygon id="Fill-18" fill="#FFFFFF" points="149.384 9.03289941 148 9.82301704 148 21.1545394 149.384 20.3636089"></polygon>
                        <polygon id="Fill-20" fill="#FFFFFF" points="144 16.6604553 144 18.0334066 153.851981 12.4058507 153.851981 11.0328994"></polygon>
                        <polygon id="Fill-42-Copy" fill-opacity="0.347458107" fill="#EF4B46" style="mix-blend-mode: multiply;" points="0.711212671 146.919104 35.7285444 127.001961 35.7285444 113 0.711212671 132.917955"></polygon>
                        <path d="M18,136.363391 C18,138.873559 19.4938673,139.892095 21.3361943,138.637824 C23.1760616,137.381115 24.6682891,134.32388 24.6682891,131.811273 C24.6682891,129.301105 23.1760616,128.282569 21.3361943,129.53684 C19.4938673,130.795175 18,133.851597 18,136.363391" id="Fill-3" fill="#FFFFFF"></path>
                    </g>
                    <g id="speechBubble" transform="translate(245.943301, 42.089926)">
                        <path d="M40.6891895,41.4167296 L40.7152947,31.7803198 C40.7283474,27.1440251 37.4216807,21.4956873 33.3372947,19.1668078 L7.09932982,4.22441619 C5.04354035,3.05031747 3.18136491,2.9408494 1.83476842,3.71463841 C3.19550526,2.93441011 4.55732982,2.15096215 5.91915439,1.36966063 C7.26466316,0.599091275 9.12901404,0.709632561 11.1891544,1.88158484 L37.4216807,16.8261229 C41.5071544,19.152856 44.8149088,24.7990473 44.8018561,29.4364153 L44.7746632,39.0738983 C44.7659614,41.3748742 43.9436456,42.9943577 42.6166281,43.7574145 L38.5289789,46.1023923 C39.8559965,45.3393355 40.6826632,43.719852 40.6891895,41.4167296" id="Fill-154" fill="#24468F"></path>
                        <path d="M7.72933684,3.60302391 C3.64277544,1.27092473 0.316529825,3.14261408 0.302389474,7.77998204 L0.274108772,17.4142454 C0.26214386,22.0516134 3.56663509,27.6967315 7.65863509,30.025611 C7.03428421,31.8372003 6.16410877,33.4985392 4.98937193,34.6157575 C5.20256491,34.7359577 9.88519649,37.3417271 14.6146,33.9911455 L33.8911614,44.9701491 C37.9766351,47.2990286 41.3028807,45.4316321 41.3191965,40.7953374 L41.3453018,31.1578543 C41.3583544,26.5226328 38.0516877,20.874295 33.9673018,18.5443423 L7.72933684,3.60302391 Z" id="Fill-156" fill="#FFFFFF"></path>
                    </g>
                </g>
            </g>
        </g>
    </g>
</svg>