<?xml version="1.0" encoding="UTF-8"?>
<svg width="115px" height="110px" viewBox="0 0 115 110" version="1.1" xmlns="http://www.w3.org/2000/svg" xmlns:xlink="http://www.w3.org/1999/xlink">
    <!-- Generator: Sketch 52.2 (67145) - http://www.bohemiancoding.com/sketch -->
    <title>Group 4</title>
    <desc>Created with Sketch.</desc>
    <g id="App" stroke="none" stroke-width="1" fill="none" fill-rule="evenodd">
        <g id="Home" transform="translate(-1208.000000, -671.000000)">
            <g id="Masthead" transform="translate(0.000000, -6.000000)">
                <g id="Group-3" transform="translate(1194.000000, 658.000000)">
                    <g id="Group-6" transform="translate(5.000000, 5.000000)">
                        <g id="Group-4">
                            <circle id="Oval" transform="translate(66.500000, 66.500000) rotate(171.000000) translate(-66.500000, -66.500000) " cx="66.5" cy="66.5" r="57.5"></circle>
                            <path d="M115.948011,106.211194 L112.113238,103.894965 L109.50748,108.209085 L113.342253,110.525314 L112.167594,112.470092 L103.032617,106.952503 L104.207276,105.007725 L107.795528,107.175054 L110.401286,102.860934 L106.813034,100.693606 L107.995965,98.7351325 L117.130942,104.252721 L115.948011,106.211194 Z M120.99135,97.2735207 L110.663244,94.5861768 L112.564933,87.2775323 L114.454031,87.7690705 L113.124461,92.8789279 L115.369701,93.4631331 L116.671069,88.4616666 L118.560168,88.9532048 L117.2588,93.9546712 L119.658885,94.5791664 L120.988455,89.4693091 L122.893038,89.9648762 L120.99135,97.2735207 Z M124.441137,76.4216782 L120.658074,78.5906932 L120.690014,80.2543867 L124.51331,80.1809855 L124.556921,82.4525669 L113.886887,82.6574145 L113.791066,77.6663343 C113.748377,75.442744 115.178003,74.0550468 117.161638,74.0169642 C119.04929,73.9807243 120.079831,75.1451577 120.373893,76.2917245 L124.391077,73.8141587 L124.441137,76.4216782 Z M117.190173,76.3368439 C116.294338,76.3540425 115.73165,77.052972 115.749156,77.964804 L115.794916,80.3483647 L118.738374,80.291855 L118.692613,77.9082943 C118.675108,76.9964623 118.086008,76.3196453 117.190173,76.3368439 Z M123.957817,66.2648737 L113.744297,69.3593179 L111.554525,62.1317592 L113.422665,61.5657589 L114.95365,66.6189249 L117.17398,65.9462197 L115.675471,61.000242 L117.543612,60.4342417 L119.04212,65.3802194 L121.415577,64.6611207 L119.884593,59.6079546 L121.768046,59.037315 L123.957817,66.2648737 Z M113.532749,54.1512253 L113.340886,55.2719343 C112.851623,54.9608888 111.97499,54.7776893 111.410859,54.9506552 C111.462381,54.9766076 111.561284,55.0860524 111.616563,55.1834603 C111.916646,55.7122459 111.736091,56.3666158 111.151644,56.6982865 C110.539366,57.045751 109.754122,56.8290854 109.422451,56.2446382 C109.051296,55.5906139 109.226598,54.7000652 110.1311,54.1867653 C111.174756,53.5944962 112.438759,53.6498498 113.532749,54.1512253 Z M113.524733,44.6512353 L111.417638,44.9041306 C111.490809,43.8202459 111.189213,42.5150257 110.197942,41.426832 C109.357516,40.504233 108.510435,40.453425 108.060964,40.8628631 C107.469554,41.4015974 107.893407,42.2708022 108.51015,43.3755174 C109.388886,44.9341576 110.542496,46.9133451 108.780095,48.5187733 C107.467166,49.7147635 105.368259,49.5489787 103.676633,47.6919524 C102.534516,46.438164 101.964846,45.0524931 101.975237,43.6145765 L104.056569,43.4284364 C104.046992,44.6058931 104.550721,45.7053408 105.251076,46.4741733 C105.940656,47.2311776 106.638185,47.331645 107.111312,46.9006575 C107.643581,46.4157967 107.205793,45.6025723 106.58905,44.4978571 C105.699539,42.9273887 104.581414,40.9158771 106.331986,39.3212236 C107.775026,38.0067119 109.800617,38.0444936 111.74006,40.1735683 C113.11922,41.687577 113.601879,43.2390822 113.524733,44.6512353 Z M88.3107142,23.6143446 L86.7025902,27.7957722 L91.4066963,29.6049117 L93.0148203,25.423484 L95.1354015,26.2390326 L91.3046204,36.1997907 L89.1840393,35.3842421 L90.6887838,31.4716205 L85.9846777,29.662481 L84.4799331,33.5751026 L82.3444183,32.7538107 L86.1751993,22.7930527 L88.3107142,23.6143446 Z M78.8349021,25.5811131 C78.6530455,28.7919672 76.1745235,30.959281 72.9636694,30.7774244 C69.7368409,30.594663 67.5188896,28.1613499 67.7007463,24.9504958 C67.8826029,21.7396417 70.3611249,19.5723279 73.5879534,19.7550893 C76.7988075,19.936946 79.0167587,22.370259 78.8349021,25.5811131 Z M70.0330085,25.0825907 C69.9199135,27.0793905 71.1128181,28.6533647 73.0776691,28.7646501 C75.0425201,28.8759355 76.389545,27.4458181 76.5026399,25.4490182 C76.6148301,23.4681928 75.4388047,21.879149 73.4739537,21.7678636 C71.5091027,21.6565781 70.1451986,23.1017653 70.0330085,25.0825907 Z M52.9851592,21.8024671 L56.7955883,28.3358122 L56.5701434,20.7797884 L58.8934594,20.1170224 L64.7598057,29.5412838 L62.3134001,30.2391632 L58.3976306,23.3365494 L58.5591676,31.3101229 L56.8512996,31.7973217 L52.7970543,24.9342105 L53.1278395,32.859503 L50.6660477,33.5617716 L50.6618432,22.4652331 L52.9851592,21.8024671 Z M27.1203677,36.8556061 L33.7309982,40.5303213 L29.6817831,34.1468915 L31.3417561,32.3914583 L41.1955889,37.5034736 L39.4476702,39.3519098 L32.5580304,35.4133579 L36.7653296,42.1885037 L35.5450845,43.4789215 L28.5565059,39.644998 L32.8847303,46.2922646 L31.1258185,48.1523262 L25.4603946,38.6110392 L27.1203677,36.8556061 Z M18.8629155,46.0614512 L28.496347,50.6536817 L25.2466726,57.4707427 L23.4846356,56.6307845 L25.7566537,51.864619 L23.6624295,50.866308 L21.4386057,55.531373 L19.6765688,54.6914148 L21.9003926,50.0263498 L19.6617391,48.9591897 L17.3897209,53.7253553 L15.6132411,52.8785121 L18.8629155,46.0614512 Z M10.5351771,69.80578 L21.2057375,69.6304921 L21.274854,73.8379244 C21.3297793,77.1814733 19.2401724,79.5361128 16.0246063,79.5889357 C12.8090401,79.6417586 10.6592189,77.3567612 10.6042936,74.0132123 L10.5351771,69.80578 Z M12.572225,72.0446234 L12.6040238,73.9803622 C12.6387135,76.0920773 14.1787441,77.2989451 15.9865002,77.2692486 C17.8742455,77.2382382 19.3111274,76.0624788 19.2751238,73.8707745 L19.2433249,71.9350356 L12.572225,72.0446234 Z M16.0292853,84.9702488 C19.0743925,83.9358515 22.0124614,85.4218095 23.0468588,88.4669167 C24.0864024,91.5271738 22.6613325,94.4952533 19.6162253,95.5296506 C16.571118,96.5640479 13.6330491,95.07809 12.5935055,92.0178329 C11.5591082,88.9727257 12.984178,86.0046462 16.0292853,84.9702488 Z M18.864872,93.3177816 C20.7585954,92.6744997 21.770975,90.9787687 21.1379856,89.1153449 C20.5049962,87.2519211 18.674362,86.5388359 16.7806386,87.1821178 C14.9020649,87.8202534 13.8693893,89.5059809 14.5023787,91.3694047 C15.1353681,93.2328286 16.9862984,93.9559173 18.864872,93.3177816 Z M22.8521431,112.601104 L30.6471372,105.312095 L32.1989202,106.971599 L24.4039261,114.260608 L22.8521431,112.601104 Z M32.0121407,121.520525 L37.2498662,114.608954 L34.7632308,112.724532 L35.9711934,111.130535 L42.7552447,116.271624 L41.5472822,117.865621 L39.0733988,115.990863 L33.8356733,122.902434 L32.0121407,121.520525 Z" id="Here’s-how-we-do-it" fill="#FFFFFF" transform="translate(67.546049, 71.323393) rotate(170.000000) translate(-67.546049, -71.323393) "></path>
                            <path d="M38.7857489,37.541684 C51.7543928,31.8649736 61.8790444,20.8974338 66.4300321,7.36873622" id="Oval" stroke="#FFFFFF" transform="translate(52.607890, 22.455210) rotate(210.000000) translate(-52.607890, -22.455210) "></path>
                        </g>
                    </g>
                </g>
            </g>
        </g>
    </g>
</svg>