<?xml version="1.0" encoding="UTF-8"?>
<svg width="648px" height="414px" viewBox="0 0 648 414" version="1.1" xmlns="http://www.w3.org/2000/svg" xmlns:xlink="http://www.w3.org/1999/xlink">
    <!-- Generator: Sketch 52.2 (67145) - http://www.bohemiancoding.com/sketch -->
    <title>ouside</title>
    <desc>Created with Sketch.</desc>
    <defs>
        <linearGradient x1="43.2876389%" y1="82.2193791%" x2="43.2876389%" y2="13.1588335%" id="linearGradient-1">
            <stop stop-color="#EEEEEE" stop-opacity="0" offset="0%"></stop>
            <stop stop-color="#ECECEC" offset="28.0542216%"></stop>
            <stop stop-color="#D8D8D8" offset="54.1485781%"></stop>
            <stop stop-color="#EEEEEE" offset="87.4822828%"></stop>
            <stop stop-color="#EEEEEE" stop-opacity="0" offset="100%"></stop>
        </linearGradient>
        <linearGradient x1="66.053355%" y1="50%" x2="35.3638693%" y2="113.706116%" id="linearGradient-2">
            <stop stop-color="#89CB96" offset="0%"></stop>
            <stop stop-color="#63A470" offset="100%"></stop>
        </linearGradient>
    </defs>
    <g id="App" stroke="none" stroke-width="1" fill="none" fill-rule="evenodd">
        <g id="Home" transform="translate(-648.000000, -3644.000000)">
            <g id="section-#team" transform="translate(0.000000, 3451.000000)">
                <g id="ouside" transform="translate(648.000000, 193.000000)">
                    <path d="M71.5360463,414.306417 L593.374474,108.43401 L648,142.516619 C388.89706,323.89876 258.50776,414.495261 256.8321,414.306121 C254.20181,414.009228 192.436459,414.009326 71.5360463,414.306417 Z" id="path" fill="url(#linearGradient-1)"></path>
                    <path d="M68.3595771,131.469119 C69.4645984,141.188656 74.8313579,150.612436 73.0061148,160.224119 C68.7426739,182.68059 35.6720615,169.313382 37.6726778,195.445329 C38.7947255,210.09415 53.9917471,220.64029 44.9659882,235.789624 C37.1303831,248.937752 23.74924,258.189639 20.5950769,273.979358 C20.195805,275.980563 20.002554,277.990194 20,279.991399 L20,280.066392 C20.0136212,295.732247 31.6503972,310.8108 46.7060987,316.561632 C52.4831974,318.768435 58.5803946,319.777884 64.7210095,319.783783 L64.821466,319.783783 C76.7238557,319.772829 88.7939567,315.994554 99.060949,309.847694 C111.371975,302.479889 121.869677,291.466941 126.414907,277.957332 C127.913241,273.503282 128.683691,268.773697 128.695609,264.055908 L128.695609,263.825033 C128.669218,254.309408 125.558473,244.862877 119.125002,237.85571 C114.267335,232.564945 107.317109,227.91288 106.877825,220.776794 C106.735654,218.444442 107.275394,216.293252 108.257825,214.256657 C112.133912,206.221502 122.89212,199.965103 125.697239,191.412585 C127.850243,184.845261 126.961458,176.930601 121.978647,172.09906 C118.701041,168.919882 114.163473,167.442782 110.140958,165.256202 C100.268129,159.889602 100.970473,151.085142 104.315334,141.766689 C107.318812,133.400387 109.111705,124.609409 109.620798,115.745124 C109.951963,109.985866 109.498207,103.593807 105.407585,99.4877551 C103.486993,97.5598573 100.933866,96.3473377 98.3024175,95.6066811 C96.836434,95.1938009 95.3959903,95 93.9887483,95 C78.4324671,94.9991574 66.9063636,118.674046 68.3595771,131.469119" id="bush1" fill="url(#linearGradient-2)"></path>
                    <path d="M564.36998,54.3339595 C568.66998,47.4679595 566.51598,38.8909595 565.54898,29.9729595 C565.23498,27.0829595 564.93398,24.0899595 566.00798,21.4739595 C567.38598,18.1189595 573.12498,14.5799595 576.42698,19.2389595 C577.64698,20.9599595 577.77098,23.0199595 577.65998,24.9339595 C577.36498,29.9679595 575.46898,34.5899595 576.01298,39.7739595 C577.14098,50.5269595 589.37598,58.4989595 595.06198,68.5059595 C597.98498,73.6499595 599.12998,79.4229595 598.29398,84.7919595 C597.13998,92.2049595 592.33498,99.0459595 593.98198,106.652959 C595.96598,115.815959 606.23198,122.093959 613.46098,129.392959 C624.48398,140.522959 629.04198,156.102959 625.11898,169.247959 C623.17698,175.754959 619.29698,181.805959 619.44398,188.720959 C619.57498,194.833959 622.84698,200.808959 624.67698,206.870959 C630.35198,225.675959 620.45398,245.817959 601.71398,253.597959 C592.39798,257.465959 580.95298,258.375959 570.58498,254.800959 C560.21698,251.226959 551.33098,242.786959 549.54798,233.336959 C547.93798,225.056959 551.67398,217.492959 552.15598,209.483959 C552.70698,200.333959 548.89498,195.937959 542.77098,188.150959 C537.48098,181.422959 532.03698,174.380959 530.47598,166.600959 C529.38598,161.162959 530.29298,155.737959 531.93198,150.665959 C534.23098,143.546959 537.97398,136.910959 542.94598,131.133959 C547.22798,126.159959 552.55498,121.571959 554.14098,115.322959 C556.04298,107.827959 552.16298,99.7219595 548.93198,92.0899595 C545.69998,84.4579595 543.11698,75.7159595 547.31498,69.1659595 C549.99298,64.9879595 554.95998,62.5159595 559.22398,59.5639595 C561.52898,57.9679595 563.19198,56.2149595 564.36998,54.3339595" id="bush2" fill="url(#linearGradient-2)"></path>
                    <g id="womanSitting" transform="translate(106.000000, 163.000000)">
                        <path d="M107.14838,187.579284 C118.776931,194.305895 137.62888,194.305895 149.256115,187.579284 C160.884666,180.852672 160.884666,169.947328 149.256115,163.220716 C137.62888,156.494105 118.776931,156.494105 107.14838,163.220716 C95.5198285,169.947328 95.5198285,180.852672 107.14838,187.579284" id="Fill-1" fill="#F4F4F4" style="mix-blend-mode: multiply;"></path>
                        <g id="bench">
                            <path d="M70.4382022,195 C72.0832377,195 73.4157303,193.721101 73.4157303,192.142231 L73.4157303,160.625083 L67.4606742,158.175758 L67.4606742,192.142231 C67.4606742,193.721101 68.7931668,195 70.4382022,195" id="Fill-19" fill="#AAAAAA"></path>
                            <path d="M189.539326,123.727273 C191.184361,123.727273 192.516854,122.444345 192.516854,120.863499 L192.516854,89.2787879 L186.561798,92.1425614 L186.561798,120.863499 C186.561798,122.444345 187.89429,123.727273 189.539326,123.727273" id="Fill-21" fill="#AAAAAA"></path>
                            <path d="M21.011236,137.981818 L21.011236,160.086936 C21.011236,161.656175 19.6787433,162.927273 18.0337079,162.927273 C16.3886724,162.927273 15.0561798,161.656175 15.0561798,160.086936 L15.0561798,141.011156 C17.0402683,139.999602 19.0215663,138.984055 21.011236,137.981818" id="Fill-23" fill="#AAAAAA"></path>
                            <path d="M13.2537391,147.678939 L164.585798,60.6426976 C166.890876,59.3189625 166.890876,57.1491422 164.585798,55.8240912 C162.28204,54.4990403 158.510693,54.4990403 156.206935,55.8240912 L4.87487655,142.859017 C2.56979771,144.185384 2.56979771,146.352572 4.87487655,147.678939 C7.17863443,149.00399 10.9499812,149.00399 13.2537391,147.678939" id="Fill-3" fill="#CCCCCC"></path>
                            <path d="M25.1638514,154.806212 L176.49591,67.7699703 C178.800989,66.4462352 178.800989,64.2764149 176.49591,62.951364 C174.190831,61.626313 170.420805,61.626313 168.117047,62.951364 L16.7849889,149.98629 C14.4799101,151.312656 14.4799101,153.479845 16.7849889,154.806212 C19.0887468,156.131263 22.8600935,156.131263 25.1638514,154.806212" id="Fill-5" fill="#CCCCCC"></path>
                            <path d="M40.6473686,163.121363 L191.98004,76.0851218 C194.283807,74.7613867 194.283807,72.5915664 191.98004,71.2665155 C189.674952,69.9414645 185.904911,69.9414645 183.599822,71.2665155 L32.2671512,158.301441 C29.963384,159.627808 29.963384,161.794997 32.2671512,163.121363 C34.5722394,164.446414 38.3422805,164.446414 40.6473686,163.121363" id="Fill-7" fill="#CCCCCC"></path>
                            <path d="M54.8764628,171.032312 L205.511333,84.8224045 C207.805793,83.5099139 207.805793,81.3606618 205.511333,80.0481712 C203.218189,78.736984 199.464217,78.736984 197.171072,80.0481712 L46.5362017,166.259382 C44.2417424,167.571872 44.2417424,169.719821 46.5362017,171.032312 C48.8293462,172.346106 52.5833183,172.346106 54.8764628,171.032312" id="Fill-9" fill="#CCCCCC"></path>
                            <path d="M4.1835126,88.2975771 L155.288801,1.34823926 C157.590406,0.0257658828 159.472578,1.10898463 159.472578,3.75656055 C159.472578,6.40413647 157.590406,9.6551073 155.288801,10.9788953 L4.1835126,97.9269185 C1.881908,99.2507065 -0.000263794224,98.1688023 -0.000263794224,95.5199118 C-0.000263794224,92.8710213 1.881908,89.6226797 4.1835126,88.2975771" id="Fill-12" fill="#CCCCCC"></path>
                            <path d="M4.18570911,107.125417 L155.409796,19.3876826 C157.71187,18.053218 159.595505,19.1449321 159.595505,21.8165144 C159.596825,24.4894233 157.71187,27.7685452 155.409796,29.1056628 L4.18570911,116.842071 C1.8836351,118.177862 1.13686838e-13,117.084822 1.13686838e-13,114.411913 C1.13686838e-13,111.74033 1.8836351,108.461208 4.18570911,107.125417" id="Fill-15" fill="#CCCCCC"></path>
                            <path d="M4.1869945,125.3193 L155.408511,37.5813541 C157.711886,36.2468863 159.595506,37.3399295 159.595506,40.0115183 C159.595506,42.683107 157.711886,45.9635633 155.408511,47.2993577 L4.1869945,135.035977 C1.88361953,136.371771 1.13686838e-13,135.278728 1.13686838e-13,132.607139 C1.13686838e-13,129.934224 1.88361953,126.656421 4.1869945,125.3193" id="Fill-17" fill="#CCCCCC"></path>
                        </g>
                        <path d="M114.852321,127.160763 L143.75658,110.618304 L146.036941,111.844905 L141.938405,120.842743 L124.096403,131.340199 C120.788226,129.931145 117.706866,128.538 114.852321,127.160763 Z M85.2855538,96.612786 L100.959908,87.5980652 L109.619189,92.2558738 L87.6470328,104.892812 C86.6459392,102.467965 85.8587795,99.7079562 85.2855538,96.612786 Z M89.3078596,108.276537 L113.51767,94.3528584 L122.176945,99.0106643 L94.7890502,114.762379 C93.2339678,113.384443 91.9424796,112.024996 90.9145856,110.684037 C90.3428569,109.938177 89.8072816,109.135677 89.3078596,108.276537 Z M100.448018,119.089045 L128.98865,102.674666 L137.648627,107.332849 L108.658598,124.005938 C105.578935,122.342929 102.842075,120.703965 100.448018,119.089045 Z M74.2366828,84.6768311 L82.5970208,79.826206 C82.8699044,81.6408797 83.3850001,84.58115 84.1423079,88.6470168 L75.4550784,93.6872265 C74.710376,91.8808235 74.3841589,87.7887754 74.2366828,84.6768311 Z M64.9715943,53.3187653 L69.0012707,51 L75,51 L79.2215599,54.7490129 L68.4709031,60.935086 C68.2839011,59.4381213 67.1174648,56.8993477 64.9715943,53.3187653 Z M67.6219453,70.3207536 L83.828495,60.9179793 C83.47143,65.1071554 83.1796017,68.5155843 82.9530101,71.1432659 L72.6434666,77.1246034 C71.7493075,75.7067537 70.5307187,74.4177337 69.2136459,73.5390458 C68.3630321,72.971557 67.868131,71.7613892 67.6219453,70.3207536 Z" id="seatShadow" fill="#CCCCCC" opacity="0.696647" style="mix-blend-mode: multiply;"></path>
                        <path d="M109.434765,2.10552524 C102.095842,-1.29672975 95.3192594,-0.257078632 89.6051616,5.90835557 C86.0549059,9.73885723 85.2878433,14.323073 82.9918385,18.6358463 C80.2112367,23.8604555 74.7200017,27.6830511 71.2112088,32.4280241 C67.2631689,37.7633186 64.6782199,45.0171581 67.3862617,51.1022137 C68.8257997,54.3358054 71.71265,57.3084961 71.1451274,60.8108949 C70.8548875,62.6042602 69.6602394,64.1696664 69.4969795,65.9788438 C69.1523196,69.8396522 74.0863977,72.5013699 77.6288792,71.0664141 C81.1700649,69.6327761 83.0993827,65.6520587 83.6746796,61.8189217 C84.2499766,57.9871023 83.7990682,54.0656806 84.2214709,50.2127784 C85.5716046,37.8700508 95.3438779,37.5511718 104.399622,33.2700229 C106.787622,32.1420871 108.728601,30.8771123 110.317146,29.4434743 C114.269073,25.8778267 116.045497,21.2712103 117.119644,15.1321298 C118.427019,7.6661434 116.285204,5.28245661 109.434765,2.10552524" id="Fill-25" fill="#1D202B"></path>
                        <path d="M131.778069,177.330474 C131.802294,178.394981 131.985896,179.423741 132.318674,180.294942 C133.056904,182.222707 134.259239,183.914797 135.448823,185.581731 C136.151354,186.565474 136.85261,187.549217 137.553865,188.532959 C138.275521,189.543182 139.007377,190.565321 139.947059,191.358406 C140.888017,192.15149 142.075051,192.703604 143.282485,192.614895 C143.608888,192.591063 143.953141,192.510298 144.180093,192.265356 C144.303769,192.132954 144.381544,191.962156 144.44912,191.790034 C145.298276,189.637187 144.716872,187.193057 144.127817,184.948852 C143.296511,181.78843 142.192352,178.810722 141.36997,175.69002 C140.798766,173.522609 140.119185,170.487968 137.55769,170.107976 C133.512083,169.537326 131.693919,173.644418 131.778069,177.330474" id="Fill-27" fill="#1D202B"></path>
                        <path d="M132.944074,173.356482 C133.746075,177.755358 135.88247,181.092959 138.518852,183.29408 C139.652483,184.240982 141.687239,184.881881 142.336154,183.554117 C142.563406,183.093142 142.49904,182.548115 142.42942,182.038548 C141.951272,178.514916 141.473123,174.992598 140.994975,171.468966 C140.849167,170.397298 140.669204,169.248145 139.920456,168.464095 C138.526733,167.006312 135.878529,167.73389 134.697608,169.371597 C133.518001,171.006678 133.694023,170.01775 133.613894,172.032379 L132.944074,173.356482 Z" id="Fill-29" fill="#FFC2B0"></path>
                        <path d="M124.249263,159.5942 C124.508022,160.558121 124.786189,161.515196 125.033304,162.470902 C125.285595,163.445777 125.539179,164.422021 125.658208,165.42565 C125.836752,166.911239 126.151145,169.792049 124.765488,170.768293 C122.68118,172.237452 120.283772,169.972784 119.200864,168.320152 C117.591379,165.859688 116.156557,163.271888 114.917099,160.582767 C114.384054,159.429895 113.876886,158.204455 113.911818,156.922878 C114.021791,152.990517 117.252404,148.155849 121.351156,150.456116 C122.84808,151.295439 123.272445,152.644108 123.320316,154.269356 C123.373361,156.080816 123.780908,157.848461 124.249263,159.5942" id="Fill-31" fill="#1D202B"></path>
                        <path d="M122.873058,154.729685 C122.969157,156.296293 123.065256,157.862901 123.161355,159.428264 C123.205401,160.147485 123.246777,160.889104 123.00119,161.574729 C122.755603,162.261597 122.14831,162.883761 121.410215,162.924824 C120.541318,162.974597 119.869958,162.25662 119.334739,161.600859 L117.463474,159.316275 C116.347656,157.952492 115.181119,156.463032 115.10504,154.701065 C115.016949,152.639215 116.430408,150.807565 117.770458,149.182474 C118.424466,148.389837 120.860426,146.468994 121.663939,145.547285 C122.245266,144.880446 121.559702,147.814958 122.045537,148.272871 C122.88507,149.056797 123.39226,150.171714 123.434971,151.317739 C123.491029,152.807199 122.798314,154.268039 122.858376,155.757499 L122.873058,154.729685 Z" id="Fill-33" fill="#FFC2B0"></path>
                        <path d="M109.912173,101.560331 C108.615997,100.20925 108.996383,98.1894256 110.812331,97.325376 C112.374254,96.5812303 114.237099,96.2499495 116.026993,96.4761599 C117.267153,96.6319113 118.532064,97.0818599 119.193829,97.950854 C119.677127,98.5837487 119.781342,99.3550891 119.830844,100.097999 C119.931151,101.629554 119.83866,103.195721 119.187316,104.633332 C118.305396,106.581461 116.287531,108.281129 113.514107,108.284838 C112.297396,108.28731 111.139305,107.871973 110.339455,107.126591 C108.101435,105.040016 111.55356,103.990548 109.912173,101.560331" id="Fill-35" fill="#FFC2B0"></path>
                        <path d="M128.157723,130.120931 L132.793365,170.142858 C132.835163,170.878388 132.687564,173.652571 133.322369,174.487039 C134.176612,175.613116 136.838612,175.911233 139.496693,175.969815 C139.48755,175.999757 139.499306,176.003662 139.538491,175.971117 C140.066189,175.982833 141.309675,174.083474 140.518128,173.618724 L142.494382,129.477831 C142.263188,124.627241 139.48755,120.16199 135.229395,117.796578 L111.95453,105.340741 C109.638669,104.054541 107.757766,102.142164 106.51428,99.8066942 L99.6372295,86.9030303 L87.7078652,93.2181709 L94.5849158,106.121835 C97.0522944,110.752417 100.784058,114.548531 105.38182,117.100103 L127.810279,129.55594 C128.016656,129.670501 128.14858,129.886603 128.157723,130.120931" id="Fill-37" fill="#FFC2B0"></path>
                        <path d="M121.707532,156.362817 L119.098757,148.804397 L142.617196,116.733532 L117.994373,102.097761 C116.793438,101.47287 115.805444,100.503759 115.15604,99.3162012 L106.764045,83.9759195 L118.760167,77.4 L126.15491,90.9172414 L154.353808,106.775266 C154.386873,106.792477 154.418616,106.809688 154.450359,106.826899 C156.946134,108.178623 159.511831,110.25625 160.005166,113.053697 C160.493212,115.81937 159.933186,118.322422 158.097396,120.440697 L121.707532,156.362817 Z" id="Fill-39" fill="#FFC2B0"></path>
                        <path d="M85.3258427,75.3135283 L86.2081325,89.782677 L88.5180072,99.870952 C90.2189028,107.303506 95.0814476,113.61351 101.816039,117.127808 L120.874827,128.018666 C122.051655,128.691928 123.508429,128.621269 124.616266,127.840018 L154.920615,106.491392 L129.019755,86.9736384 L114.823512,69.0848485 L85.3258427,75.3135283 Z" id="Fill-41" fill="#EF4B46"></path>
                        <path d="M118.599416,68.4579973 C120.814329,69.7402885 123.654612,68.9925075 124.94419,66.7878197 L138.291246,43.9531721 C139.579484,41.7498173 138.829574,38.922645 136.614662,37.6390209 C134.39975,36.3567297 131.559466,37.1045107 130.269889,39.3078656 L116.922832,62.1425131 C115.633255,64.3472009 116.384504,67.1743731 118.599416,68.4579973" id="Fill-43" fill="#FFC2B0"></path>
                        <path d="M107.814146,33.8051214 L107.327733,34.0111585 C104.924722,35.0306407 103.757329,37.9191738 104.718786,40.4638657 L113.913903,64.777581 C114.876623,67.3222729 117.604331,68.5584955 120.006078,67.5403511 L120.492492,67.334314 C122.895503,66.3148318 124.062896,63.4262987 123.101439,60.8816068 L113.906322,36.5665536 C112.943602,34.0231996 110.215894,32.786977 107.814146,33.8051214" id="Fill-45" fill="#FFC2B0"></path>
                        <path d="M103.816888,24.6148242 C103.801404,24.6148242 103.787112,24.6314545 103.771629,24.646897 C103.756146,24.5815636 103.756146,24.4984121 103.756146,24.4318909 C103.756146,24.4984121 103.771629,24.5649333 103.816888,24.6148242" id="Fill-47" fill="#715154"></path>
                        <path d="M82.7079241,52.896453 L85.6492111,74.9727478 C86.0499961,76.4714065 87.0269094,77.699255 88.3320973,78.3447299 C91.8521494,80.0879066 100.353009,80.9463489 110.462283,76.6751715 C112.029826,76.0126066 114.899921,74.5560155 115.244016,72.7734004 L118.387017,56.6773931 L117.681456,55.8403147 C118.165298,53.2965387 116.048627,51.36851 114.875276,49.110005 L111.926611,43.6825682 L111.906391,37.9650464 C111.906391,33.4822163 109.729268,30.0931774 105.750423,31.3446889 L104.371406,31.8192641 L102.164452,32.580425 L92.457282,35.9602948 L89.6175096,36.9423107 L84.094851,38.8563871 C81.4686548,39.7647846 79.9999889,42.7673605 80.763326,45.6319021 L82.7079241,52.896453 Z" id="Fill-49" fill="#EDF4FB"></path>
                        <path d="M80.763326,45.7740321 L82.7079241,53.1095013 C83.6848375,54.3241148 84.6525222,55.5387284 85.6373458,56.7533419 C87.6966422,59.3232783 89.8469062,61.9595869 92.7117277,63.3069451 C97.4697307,65.5463473 102.935699,63.719781 107.76885,61.6542743 C110.75628,60.3905452 113.717342,59.0338949 116.630943,57.5962704 C117.221574,57.3161792 117.829343,57.0108665 118.402835,56.6630755 L118.468753,56.3325413 C118.952596,53.7639324 118.575541,51.1037297 117.402191,48.8231766 L113.709432,41.6841695 L113.709432,37.8664335 C113.709432,33.339841 109.729268,30.0836148 105.750423,31.3473438 L104.371406,31.826552 L102.164452,32.5951435 L92.457282,36.0080084 L89.6175096,36.9996109 L84.094851,38.932373 C81.4686548,39.8496385 79.9999889,42.8815262 80.763326,45.7740321" id="Fill-51" fill="#FFFFFF"></path>
                        <path d="M88.8988764,37.2501704 C90.2700347,39.4427099 92.1566959,41.3394103 94.1422386,43.0452881 C95.6360101,44.3362226 97.2444843,45.5644033 99.1403744,46.1624851 C101.027036,46.768251 103.276263,46.6401821 104.810905,45.413282 C106.058132,44.416906 106.681745,42.8288516 106.755577,41.2676918 C106.829408,39.7052512 106.411469,38.1594596 105.852458,36.69179 C105.269716,35.1536825 104.5314,33.6629605 103.653331,32.2606061 L101.446294,33.002125 L91.7387563,36.2934957 L88.8988764,37.2501704 Z" id="Fill-53" fill="#FFC2B0"></path>
                        <polygon id="Fill-57" fill="#FFC2B0" points="93.6629213 38.2 104.382022 38.2 104.382022 23.9454545 93.6629213 23.9454545"></polygon>
                        <path d="M130.515735,44.0338609 C132.771533,45.8329446 135.697549,45.7445281 137.051269,43.8352441 C138.403781,41.9246788 137.673183,38.9185177 135.417386,37.1181526 C133.161588,35.3177876 130.235572,35.4074855 128.881852,37.3167694 C127.528132,39.2260533 128.259938,42.2334959 130.515735,44.0338609" id="Fill-59" fill="#FFC2B0"></path>
                        <path d="M93.098382,17.4887394 C93.0828989,17.4887394 93.0674157,17.5053697 93.0519326,17.5208121 C93.0364494,17.4542909 93.0364494,17.3699515 93.0364494,17.3034303 C93.0364494,17.3699515 93.0519326,17.4376606 93.098382,17.4887394" id="Fill-60" fill="#715154"></path>
                        <g id="Group-2" transform="translate(127.000000, 83.500000) scale(-1, 1) translate(-127.000000, -83.500000) translate(91.000000, 57.000000)">
                            <path d="M68.4671654,34.5233287 L31.8501404,21 L8,34.8008773 L36.717402,51.619051 C38.8375006,52.7950274 40.681335,53.5652635 42.8483979,52.4782639 L71.1034985,37.928411 C72.0569465,37.4205019 72.2962403,36.1666708 71.5962499,35.3466015 L68.4671654,34.5233287 Z" id="Fill-298" fill="#1D202B"></path>
                            <polygon id="Fill-300" fill="#696969" points="37.8469815 52 4 33.2615667 31.9621448 14 71 35.0947632"></polygon>
                            <polygon id="Fill-302" fill="#1D202B" points="34.5819385 20 57 31.384416 47.6319535 35 27 24.8008375"></polygon>
                            <path d="M3.85110618,0.514661136 L19.9607789,8.84428968 C20.7493068,9.2646315 20.3248311,9.03521959 36.6120103,17.5441813 C37.2660957,17.8956995 37.7290914,18.5461933 37.8272798,19.2499698 L41.9798911,49.0268956 C42.1913737,50.5432343 40.6966451,51.4919635 39.2887754,50.7326841 L6.99916317,33.6104153 C6.34583308,33.258157 5.88283731,32.6076632 5.78464897,31.9038867 L0.0155746316,1.86704497 C-0.19590794,0.34996622 1.80467242,-0.08074812 2.47783067,0.0119467306 L3.85110618,0.514661136 Z" id="Fill-312" fill="#1D202B"></path>
                            <path d="M18.1728902,9.71679439 C18.1803704,9.72124808 34.6637704,18.4430617 34.6637704,18.4430617 C35.3115569,18.7956457 35.770094,19.4481116 35.8673368,20.1540218 L39.9799586,50.0212232 C40.1901526,51.542159 38.7090702,52.4930223 37.3147583,51.7321832 L5.3360946,34.5580043 C4.68905608,34.204678 4.23051895,33.5522121 4.13327616,32.8463019 L0.019906381,2.97910055 C-0.189539616,1.45816471 1.29154279,0.507301448 2.68585472,1.26739823 L18.1728902,9.71679439 Z" id="Fill-314" fill="#696969"></path>
                            <path d="M19,28.6180754 C19,29.8522479 18.104065,30.3528434 17,29.7357572 C15.895122,29.1186709 15,27.6176714 15,26.3819246 C15,25.1477521 15.895935,24.6471566 17,25.2642428 C18.104065,25.8813291 19,27.3839028 19,28.6180754" id="Fill-316" fill="#DDDDDD"></path>
                        </g>
                        <path d="M113.230681,102.345455 C112.584207,102.345455 111.927069,102.230415 111.287259,101.987113 C106.775268,100.276063 102.703146,99.5197097 98.3924287,98.7210435 C93.7937968,97.8681631 89.0392113,96.9861922 83.6061609,94.924734 C82.7064286,94.5835818 80.5963897,93.782271 79.2687846,91.6176738 C78.1797753,89.8457982 78.1797753,88.0673112 78.1797753,87.2144308 L78.1957705,45.9707219 C78.1971035,42.9902686 80.632379,40.5757576 83.6368185,40.5757576 L83.6381514,40.5757576 C86.6439239,40.5757576 89.0791994,42.9942355 89.0778664,45.9746888 L89.0632041,85.405531 C92.9647101,86.7317931 96.5849664,87.403519 100.390501,88.1083024 C104.989133,88.9611827 109.743718,89.8431536 115.176769,91.9046118 C117.982601,92.9703817 119.387516,96.0923206 118.313169,98.875752 C117.484082,101.025804 115.420696,102.345455 113.230681,102.345455" id="Fill-66" fill="#DCEFFE"></path>
                        <path d="M95.7936404,23.4443368 C95.5637753,23.5714398 95.3303371,23.5358034 95.1159551,23.4217671 C95.1040449,23.3409913 95.1290562,23.2578398 95.105236,23.1782519 L95.7936404,23.4443368 Z" id="Fill-68" fill="#FFC2B0"></path>
                        <path d="M90.977973,18.0297931 C92.2585964,17.8062766 93.2702748,19.1978881 93.5768441,20.6753704 C93.7315222,21.4179 93.7733271,22.2172558 94.0645679,22.8840171 C94.227607,23.2590703 94.5104868,23.559618 94.8323845,23.714943 C95.007965,24.8552563 94.0826833,26.1344782 93.0710048,26.2961173 C91.982684,26.4691216 91.000269,25.7228036 90.2700768,24.8211606 C89.4883253,23.8551144 88.8654323,22.5948347 88.9002697,21.1792298 C88.9365006,19.7623621 89.8144034,18.2331048 90.977973,18.0297931" id="Fill-69" fill="#FFC2B0"></path>
                        <path d="M103.191011,25.1333333 L103.191011,37.0121212 C102.854224,37.0048037 102.517436,36.9816315 102.180649,36.9426047 C100.6937,36.7682036 99.3224034,35.5303217 98.1150521,34.5851409 C96.3815497,33.1972497 95.5033605,31.4239686 95.1004864,29.2957874 C94.9772095,28.6494058 94.9034975,27.9627777 94.861558,27.254197 C94.8539326,27.0493062 94.861558,26.8358783 94.8539326,26.62367 C94.9530625,26.5529339 95.0343998,26.457806 95.0839648,26.3248709 C95.0915902,26.3090162 95.0915902,26.3004791 95.1004864,26.2846245 C95.240285,25.8980151 95.3953343,25.5126252 95.5605508,25.1333333 L103.191011,25.1333333 Z" id="Fill-70" fill="#FFC2B0"></path>
                        <path d="M93.9319136,22.4601299 C96.326768,15.9320091 101.886399,9.52829579 109.652864,9.38293543 C110.348675,9.3698399 110.554537,8.78446978 110.39122,8.28291105 C110.576495,7.97254703 110.592964,7.58622895 110.417296,7.31515152 C110.490033,7.31646107 110.564143,7.31515152 110.636881,7.31646107 C112.119083,7.34003302 113.690492,7.51682265 114.888606,8.42696186 C115.681858,9.01887974 116.226705,10.0206877 116.280229,11.0342815 C116.318656,11.4035754 116.261015,11.7781075 116.151222,12.1238295 C115.825961,14.8987719 115.502073,17.651452 115.175439,20.4250848 C115.024474,21.6730887 114.869392,22.9407358 114.637455,24.2175498 C114.066532,27.2386882 113.078398,30.1629196 110.916853,32.1403444 C108.531605,34.3469409 105.140381,34.8851671 102.051088,34.5407547 C100.350672,34.3443218 98.7778913,32.935243 97.3972474,31.8587906 C94.811628,29.8106499 93.8852517,26.9898732 93.6780179,23.5182486 C93.6670386,23.27991 93.6711558,23.0402618 93.6629213,22.8032328 C93.7768313,22.7168023 93.8756448,22.6120381 93.9319136,22.4601299" id="Fill-71" fill="#FFC2B0"></path>
                        <path d="M94.8539326,16.3884871 C100.541065,21.3572566 109.147738,22.9358967 116.312277,20.3219319 C117.109995,20.031199 117.91314,19.6773205 118.493792,19.0721752 C120.136711,17.3606663 120.245244,12.7878723 119.130067,10.7145917 C116.841376,6.45884119 112.158174,4.13560926 107.222633,3.77515311 C103.98699,3.53967264 100.733712,5.08279329 98.7163532,7.54547176 C96.6989948,10.0094658 95.8809268,13.2982992 96.2350159,16.4266376 L94.8539326,16.3884871 Z" id="Fill-72" fill="#1D202B"></path>
                        <path d="M111.287259,101.987113 C106.775268,100.276063 102.703146,99.5197097 98.3924287,98.7210435 C93.7937968,97.8681631 89.0392113,96.9861922 83.6061609,94.924734 C82.7064286,94.5835818 80.5963897,93.782271 79.2687846,91.6176738 C78.1797753,89.8457982 78.1797753,88.0673112 78.1797753,87.2144308 L78.1957705,45.9707219 C78.1971035,42.9902686 80.9791253,39.3869159 83.9835648,39.3869159 L84.8542098,39.4657302 C87.8124707,40.035944 89.171779,45.2879289 89.1704461,48.2683823 L89.0632041,85.405531 C92.9647101,86.7317931 96.5849664,87.403519 100.390501,88.1083024 C104.989133,88.9611827 109.743718,89.8431536 115.176769,91.9046118 C117.982601,92.9703817 119.387516,96.0923206 118.313169,98.875752 C117.484082,101.025804 115.420696,102.345455 113.230681,102.345455 C112.584207,102.345455 111.927069,102.230415 111.287259,101.987113 Z" id="Fill-73" fill="#FFC2B0"></path>
                    </g>
                    <g id="manStanding" transform="translate(397.000000, 64.000000)">
                        <path d="M72.8575876,17.1894699 C73.9512756,17.1143583 68.4466566,13.9570887 63.9674967,15.0619876 C64.0772967,16.496124 66.3080635,17.7070344 66.3080635,17.7070344 L70.1952091,18 C70.1952091,18 72.5805229,18.2023539 72.5205291,17.5224876 L72.8575876,17.1894699 Z" id="Fill-1" fill="#E2E8F2"></path>
                        <path d="M20.5650813,80.4133816 C18.4330086,81.6129101 15.6984682,80.9141985 14.4569502,78.8523363 L1.60735392,57.4940964 C0.365835985,55.430023 1.08833998,52.7866382 3.22155588,51.5871097 C5.35362857,50.3864757 8.088169,51.0862928 9.32968693,53.1481551 L22.4582247,73.4859666 C23.6997426,75.5489344 22.6982972,79.2127476 20.5650813,80.4133816" id="Fill-3" fill="#274C9D"></path>
                        <path d="M34.2783405,47.5492511 C36.7125895,48.5262495 36.1346824,51.2582053 35.1593933,53.6967205 L23.0755726,79.4205531 C22.1002835,81.8602056 18.5375711,82.2477038 17.100915,81.5229134 C15.6642589,80.7981229 14.6480634,79.292051 13.981597,77.9545072 C13.3151305,76.6169635 14.290023,75.064437 15.2641768,72.6259218 L25.0000372,51.4356346 C27.0902668,47.3377008 31.3490671,46.3754882 33.7844514,47.3513492 L34.2783405,47.5492511 Z" id="Fill-5" fill="#274C9D"></path>
                        <polygon id="Fill-9" fill="#FF8358" points="45.1003348 40 36 42.3339356 36.3250891 43.4154895 39.2260503 53 46 42.6125986"></polygon>
                        <path d="M56.5010141,66.8768647 C59.5217645,67.4861284 62.433562,65.776368 63.2980019,63.0324332 C63.3387096,62.9054096 63.336315,62.7559039 63.3710363,62.6187633 L72.3015862,18.1560022 L74.6099519,12.7187171 L76,6.65305851 L72.0513536,6.44285129 C70.797796,5.57054754 68.2619461,6.03142967 67.8201479,7.43430994 L52.255441,59.9670049 C51.28564,63.0425501 53.158194,66.202403 56.5010141,66.8768647" id="Fill-11" fill="#FBBA9F"></path>
                        <path d="M70.775247,11.8390269 C73.8074878,12.6876681 77.9030124,10.0415111 78.799276,7.17038611 C79.6955396,4.29926114 81.4927715,-0.407245495 77.5842625,0.0282121708 C71.7103252,0.68195552 69.314408,3.48068983 66.9090812,5.10224062 C64.3332056,6.84073018 67.7430062,10.9892719 70.775247,11.8390269" id="Fill-13" fill="#FBBA9F"></path>
                        <path d="M51.272546,59.9186996 L63.9348278,15 L64.8822757,15.9182525 C66.0463482,17.046585 68.4269393,17.5130527 70.2648286,17.5130527 C70.7961291,17.5130527 71.313748,17.4622269 71.8028637,17.3628343 L73,17.12 L63.4354509,62.8654657 C63.4240496,62.9129031 63.4137885,62.9806708 63.4023872,63.0506974 C63.3761642,63.1986569 63.3465208,63.3522638 63.3180176,63.448268 C62.4937037,66.2109318 60.0184819,68.0011289 57.261648,67.9999995 C56.8181375,67.9999995 56.366646,67.9536915 55.9128744,67.8576873 C54.196979,67.4928711 52.7661161,66.4797438 51.8813753,65.0024076 C50.9795326,63.4979643 50.7572073,61.6445174 51.272546,59.9186996" id="Fill-15" fill="#375EB4"></path>
                        <path d="M60.3850724,211.752693 C50.2318357,217.415769 33.7690298,217.415769 23.615793,211.752693 C13.4614023,206.090731 13.4614023,196.910105 23.615793,191.248143 C33.7690298,185.583952 50.2318357,185.583952 60.3850724,191.248143 C70.5383092,196.910105 70.5383092,206.090731 60.3850724,211.752693" id="Fill-17" fill="#F4F4F4" style="mix-blend-mode: multiply;"></path>
                        <path d="M39.6639068,189.334087 C40.9192272,189.310732 42.0123033,190.202458 42.5002203,191.239619 C42.9881372,192.275719 42.9976114,193.436024 42.9999799,194.561296 C43.0011641,195.547502 42.9526093,196.646235 42.1698105,197.33626 C41.6641295,197.782123 40.9476495,197.964714 40.2643289,198.13032 C38.9770334,198.443486 37.681448,198.756651 36.3527033,198.859624 C34.8475031,198.975336 33.3221704,198.819284 31.8288129,199.023107 C30.8778485,199.15262 29.9588593,199.426507 29.0209218,199.62396 C26.3717221,200.18235 23.5626467,200.117594 20.948975,199.438184 C20.3663168,199.286379 19.7611577,199.086802 19.3798245,198.663232 C18.7450587,197.963653 18.9653319,196.872351 19.6024662,196.173833 C20.2384163,195.475314 21.1846436,195.077223 22.0988958,194.701424 C24.8499422,193.568721 27.6009886,192.436017 30.3532193,191.303314 C33.0521581,190.192903 35.8458381,189.061261 38.8147892,189.000752 C39.763385,188.980582 41.0139683,189.365934 40.9287013,190.213073 L39.6639068,189.334087 Z" id="Fill-20" fill="#1D202B"></path>
                        <path d="M37.3909265,192.990192 L37.685089,192.969919 C39.6706858,192.836546 41.1492394,191.398244 40.9879661,189.757215 L40.4951149,184.7413 C40.3338416,183.099204 38.5933802,181.877501 36.6090735,182.009808 L36.314911,182.030081 C34.3293142,182.163454 32.8507606,183.601756 33.0120339,185.242785 L33.5048851,190.2587 C33.6661584,191.900796 35.4053296,193.122499 37.3909265,192.990192" id="Fill-22" fill="#FBBA9F"></path>
                        <path d="M48.8381809,202.810275 C48.3259233,203.729767 47.7938739,204.637837 47.2944228,205.551618 C46.7856578,206.483674 46.2757287,207.419157 45.9066704,208.411752 C45.3606503,209.884081 44.3314783,212.747642 45.6249287,214.082904 C47.5715076,216.095507 50.7475046,214.371888 52.3296821,212.952101 C54.6837386,210.838982 56.8736398,208.548819 58.8749371,206.112451 C59.7329685,205.066172 60.5816862,203.941079 60.8459646,202.624092 C61.656263,198.585181 59.2451596,192.858059 54.1912727,194.199032 C52.344817,194.689047 51.557803,195.959203 51.1200556,197.606293 C50.6334109,199.440708 49.7672299,201.142625 48.8381809,202.810275" id="Fill-24" fill="#1D202B"></path>
                        <path d="M56.3628395,202 L56.6383637,202 C58.4948436,202 60,200.663691 60,199.016786 L60,193.983214 C60,192.335242 58.4948436,191 56.6383637,191 L56.3628395,191 C54.5063596,191 53,192.335242 53,193.983214 L53,199.016786 C53,200.663691 54.5063596,202 56.3628395,202" id="Fill-26" fill="#FBBA9F"></path>
                        <path d="M39.1000897,94 L56.4125294,95.9870681 L62.8426356,113.052919 L61.1829666,151.207895 L60.9056495,195.036076 C60.9056495,197.225597 59.0816588,199 56.8321089,199 L54.029448,199 C51.9109286,199 50.1460755,197.421875 49.9698221,195.368847 L45.9579201,143.468429 L44.5409356,124.645993 L41.0007934,123.249482 L39.3774069,145.809107 L41.009888,186.794633 C41.1246846,189.108238 39.1325574,190.995445 36.7577749,190.826239 L34.7842007,190.685235 C32.9300613,190.552126 31.4203119,189.183816 31.1524531,187.394749 L25,142.309934 L25,97.6475395 L39.1000897,94 Z" id="Fill-28" fill="#0D3054"></path>
                        <path d="M25,58.8983108 L25,105.169019 L36.8073364,112.254111 C41.7085166,115.206985 47.3902424,116.425793 53.0085561,115.868817 C54.9743317,115.662488 56.9378015,115.248702 58.8390121,114.589125 L63,113.141439 L61.4585091,61.8320174 C61.3743439,59.6830379 60.5073273,57.6795035 59.0292485,56.1506388 C58.4804454,55.5519462 57.8255712,55.0355597 57.0865318,54.6014794 L53.3682757,52.3081823 L52.3340817,51.6689003 C49.5243484,49.7476721 44.0743651,47.7644324 39.1731849,47.1860344 C38.202403,47.0620115 37.2731272,47 36.3853576,47 C34.4207349,47 32.6671016,47.3100574 31.4000121,48.0327729 C27.4500137,50.2843532 25,54.4154449 25,58.8983108" id="Fill-30" fill="#375EB4"></path>
                        <path d="M43,56 C46.3639069,56 49,54.0225692 49,51.499451 C49,48.9774308 46.3639069,47 43,47 C39.6360931,47 37,48.9774308 37,51.499451 C37,54.0225692 39.6360931,56 43,56" id="Fill-32" fill="#EDF4FB"></path>
                        <path d="M38,51.4735982 L38,40.9174034 C38,39.6138428 38.522797,38.4287877 39.3656291,37.5405716 C39.8478737,37.0262807 40.4495835,36.6120867 41.1323981,36.3359574 C41.6749233,36.1380647 42.2371767,36.0195592 42.8399825,36 C43.1205612,36 43.4011399,36.0195592 43.6630864,36.0391183 C44.766769,36.177183 45.7707146,36.6914739 46.5346339,37.4427758 C47.4377466,38.3309919 48,39.5551653 48,40.9174034 L48,51.4701465 L47.9430075,51.9890396 C47.5966681,53.7125469 45.5537045,55 43,55 C40.4462955,55 38.4033319,53.7125469 38.0569925,51.9890396 L38,51.4735982 Z" id="Fill-34" fill="#FBBA9F"></path>
                        <path d="M46.3931513,43.5869184 L44.1771255,54.8922226 C43.0405725,55.0423649 42.2059144,55.0541238 41.6731513,54.9274995 C39.5175725,54.415173 38.0912396,53.0623777 38.0548949,51.7489817 C38.005076,49.9486661 38.005076,48.8386798 38.0548949,48.4190226 L46.3931513,43.5869184 Z" id="Path-9" fill="#FBBA9F" opacity="0.28922526" style="mix-blend-mode: multiply;"></path>
                        <path d="M31.2260226,46.6929089 C33.0265209,49.0063456 35.9326676,49.9239209 38.689433,49.9961799 C40.2092753,50.032883 41.7777797,49.8126649 43.1323972,49.0063456 C45.6752756,47.4636722 46.8635365,44.1420497 47.5074608,41.0039422 C47.7383229,39.8110944 47.9205229,38.598748 47.9872919,37.3886956 C48.035954,36.0123327 49.0620487,34.027224 48.699912,32.7047687 C47.9224498,29.8419338 46.4322796,27.9272159 44.0874447,26.439597 C41.7426098,24.953125 37.4683534,24.4130342 34.7760936,24.1010586 C33.4712699,23.9358951 32.0679904,23.8991921 30.8955729,24.5781978 C30.1203741,25.0197809 29.5092685,25.8628032 29.3270685,26.7815254 C29.244456,27.1107056 29.244456,27.4605311 29.2942498,27.7908582 C29.2116374,30.360069 29.1301567,32.9109283 29.0464126,35.4801391 C29.0135939,36.6362839 28.9807753,37.8107803 29.0135939,39.0036281 C29.1120498,41.82976 29.5918809,44.6191888 31.2260226,46.6929089 Z" id="Fill-36" fill="#FBBA9F"></path>
                        <path d="M47.471,37.572 C47.486,37.572 47.5,37.588 47.514,37.604 C47.529,37.54 47.529,37.46 47.529,37.396 C47.529,37.46 47.514,37.524 47.471,37.572" id="Fill-38" fill="#3772CE"></path>
                        <path d="M46.916,37.332187 C46.857,37.300187 46.814,37.268187 46.755,37.236187 C46.609,37.156187 46.405,37.092187 46.303,37.236187 C46.23,37.332187 46.347,37.444187 46.435,37.460187 L46.084,37.828187 C46.42,37.924187 46.799,37.684187 46.916,37.332187" id="Fill-40" fill="#3772CE"></path>
                        <path d="M29.997856,32.3640681 C29.1775832,30.7745171 26.3517045,29.1124604 26,27.3611657 C27.6060429,23.1714441 34.4175348,18.3247081 39.4927641,18.0246455 C39.6296617,18.0090289 39.7587684,18.0090289 39.8945531,18.0012205 C41.7287587,17.9476778 44.5546375,19.6710856 46.3654704,20.1496241 C51.0622834,21.3878006 52.8964891,24.979628 52.9944321,30.0070708 C53.0701153,33.8944988 52.3733843,37.8053519 50.9565495,41.3737542 C50.5692293,42.3453324 50.0617064,43.362645 49.1757673,43.7664467 C45.9180488,45.2622978 47.3270928,39.1327663 47.0466196,37.8577791 C46.6225708,35.8911979 46.2363637,34.9497376 46.7739373,32.8916874 C47.0399416,31.8810677 47.0165689,30.5748472 46.099466,30.0661909 C45.7366317,29.8620591 45.2970011,29.8464425 44.8796302,29.8386342 C40.7281817,29.8163247 34.5533195,31.0991202 30.4541815,29.1481556 C30.2594084,30.2134335 30.1169458,31.2876353 29.997856,32.3640681" id="Fill-44" fill="#0D3054"></path>
                        <path d="M45.8778977,38.2096743 C45.2628645,38.2406928 44.8574446,39.1267413 45.0469753,39.8145416 C45.2377611,40.5050391 45.8603253,40.9352515 46.4741033,40.9918938 C47.0878813,41.0485362 47.6928732,40.8003887 48.2514237,40.4955987 C49.3070215,39.9224319 50.3274745,39.0687503 50.789377,37.8104804 C51.2512795,36.5522105 50.9512939,34.8408016 49.9107581,34.2271759 C48.9254499,33.6459173 47.676556,34.248754 46.9811919,35.2575277 C46.2883382,36.2649528 46.0159663,37.5744705 45.7649324,38.838135 L45.8778977,38.2096743 Z" id="Fill-46" fill="#FBBA9F"></path>
                        <path d="M36.5698904,47.9989526 C34.3233327,48.0532273 32.4266488,45.9922157 32.0128662,43.2270608 C31.9337926,42.697168 32.2284231,42.1972691 32.6432889,42.1886994 L40.3275126,42.0001661 C40.7217976,41.9901681 41.0500073,42.4329357 40.9936809,42.9385477 C40.6817191,45.7551208 38.8337792,47.9432495 36.5698904,47.9989526" id="Fill-48" fill="#FFFFFF"></path>
                        <path d="M1.69432421,54.7359203 C1.69432421,54.7359203 2.74537421,56.5359869 3.35613474,57.1695925 C3.96802421,57.8009592 7.26229263,58.1457481 8.21964,57.5345314 C9.17698737,56.9233147 10.5339821,56.0579842 10.5339821,56.0579842 C11.3095689,55.3684064 11.3739189,54.1761981 10.6784874,53.4071397 L4.38121895,46.4441953 C3.68691632,45.6751369 2.48345842,45.6113286 1.70900053,46.2997869 C-0.559054737,48.3170258 -0.575988947,51.2029536 1.69432421,54.7359203" id="Fill-50" fill="#FBBA9F"></path>
                        <path d="M7.29405172,38.6143271 C7.03268725,38.4748702 6.76899955,38.4512525 6.53667558,38.5052358 L6.53319072,38.5018619 L6.52273614,38.5063605 C6.39495796,38.5378507 6.28228084,38.5974573 6.18238153,38.6750583 L5.49260617,39.1196075 L5.18653005,40.0174475 L7.58940531,54.6895775 C7.6416782,55.0607127 7.88794161,55.4026069 8.23642756,55.5870499 L14.5614476,58.954258 L16.5190172,60.9104789 L17.7036158,60.0477439 C18.0242229,59.8824201 18.0509536,59.5536975 17.9893877,59.1195818 L15.7788252,43.4621765 C15.7265523,43.092166 15.4802889,42.7502718 15.1329646,42.5647042 L7.29405172,38.6143271 Z" id="Fill-53" fill="#1D202B"></path>
                        <path d="M15.6291951,60.8609988 L7.72369959,56.4644428 C7.39375219,56.2802295 7.15980956,55.9408306 7.11015192,55.5735206 L5.01018571,40.0303889 C4.90314592,39.2388301 5.65904547,38.7431291 6.37080491,39.1394666 L14.2763004,43.5360226 C14.6062478,43.7202359 14.8401904,44.0596348 14.8898481,44.4269449 L16.9898143,59.9700766 C17.0968541,60.7616353 16.3409545,61.2562199 15.6291951,60.8609988" id="Fill-55" fill="#696969"></path>
                        <path d="M9.59694314,49.7019022 C7.66292476,46.7739307 5.22692725,44.7713512 2.41351995,45.9517376 L2.51297687,47.1465602 C2.37703269,47.6441856 2.232592,47.0722701 2,47.57815 C2.45456335,49.3705449 2.91018877,51.1652983 3.36581419,52.9576933 C3.44015866,53.2501367 3.52406171,53.5602682 3.71310908,53.7477621 C3.89259789,53.9270016 4.13368639,53.957661 4.35990601,53.9753491 C5.87228501,54.0861946 7.40059498,53.8220522 8.83862951,53.206506 C9.960169,52.7277479 10.3733119,50.8917222 9.6128741,49.7266655 L9.59694314,49.7019022 Z" id="Fill-57" fill="#FBBA9F"></path>
                    </g>
                </g>
            </g>
        </g>
    </g>
</svg>