<?xml version="1.0" encoding="UTF-8"?>
<svg width="306px" height="333px" viewBox="0 0 306 333" version="1.1" xmlns="http://www.w3.org/2000/svg" xmlns:xlink="http://www.w3.org/1999/xlink">
    <!-- Generator: Sketch 52.2 (67145) - http://www.bohemiancoding.com/sketch -->
    <title>ideation</title>
    <desc>Created with Sketch.</desc>
    <g id="App" stroke="none" stroke-width="1" fill="none" fill-rule="evenodd">
        <g id="Our-Services" transform="translate(-562.000000, -380.000000)">
            <g id="ideation" transform="translate(562.000000, 380.000000)">
                <g id="floor" transform="translate(7.000000, 102.000000)">
                    <path d="M296.075636,103.102855 C296.049408,103.115748 155.421052,183.468468 155.387612,183.487807 C154.044079,184.254913 152.463182,184.51921 150.981952,184.899539 C150.942609,184.912432 150.876384,184.918878 150.791798,184.925324 C150.109868,184.983341 148.162434,184.918878 147.329037,184.680366 C146.746118,184.512763 145.794695,184.042186 145.192105,184.042186 C145.171778,184.042186 145.15932,184.03574 145.14555,184.029293 C145.119978,184.022847 145.100307,184.016401 145.067522,183.997062 C144.693772,183.842352 144.319366,183.674749 143.979057,183.481361 L142.70634,182.759379 L141.585745,182.121198 C141.558862,182.108306 141.539191,182.095413 141.513618,182.082521 C140.470397,181.489464 139.427831,180.896407 138.385921,180.303351 C134.989386,178.375917 131.592195,176.448483 128.196316,174.521049 C123.521162,171.865187 118.839452,169.209325 114.157085,166.553463 C108.58362,163.388346 103.004254,160.223229 97.4307893,157.058111 C91.3452213,153.602912 85.2609647,150.154159 79.1694954,146.69896 C72.9593441,143.172852 66.7505042,139.646744 60.5410086,136.120636 C54.5937936,132.749238 48.645923,129.371394 42.6921511,125.99355 C37.3947366,122.989589 32.0966664,119.979183 26.7985963,116.968776 C22.5293221,114.551426 18.2672607,112.134075 14.0051993,109.710279 C11.1594537,108.098712 8.32026513,106.487145 5.47451952,104.869132 C4.44572346,104.282522 3.40971469,103.695912 2.37370592,103.109301 C0.786907675,102.200378 6.55701751e-05,101.020711 6.55701751e-05,99.8345976 L0.0387519737,86.2007426 C1.34425417,85.0339682 2.83269715,84.1057057 4.52375197,83.5706655 L144.044627,162.763058 C144.378379,162.956446 144.746228,163.124049 145.126535,163.278759 C145.165221,163.291652 145.211776,163.310991 145.250462,163.323883 C145.525857,163.427023 145.820923,163.523717 146.110087,163.607519 C146.201886,163.633304 146.300241,163.652643 146.392039,163.684874 C146.561866,163.729998 146.71989,163.768676 146.889717,163.800907 C147.001186,163.826692 147.119868,163.846031 147.22478,163.871816 C147.362478,163.897601 147.513289,163.923386 147.656888,163.942725 C147.768357,163.955617 147.887039,163.981402 148.01818,163.994295 C148.148664,164.007187 148.286362,164.026526 148.424059,164.039419 C148.549298,164.045865 148.666669,164.058758 148.791908,164.065204 C148.923048,164.084543 149.067302,164.090989 149.205,164.090989 C149.277127,164.097435 149.348598,164.097435 149.43384,164.097435 C149.480395,164.097435 149.526294,164.103881 149.57875,164.103881 C149.723004,164.103881 149.860702,164.103881 150.01807,164.097435 C150.103311,164.097435 150.24691,164.097435 150.365592,164.090989 C150.463947,164.084543 150.574761,164.084543 150.673772,164.07165 C150.752456,164.065204 150.83114,164.058758 150.902612,164.052311 L151.198333,164.032973 C151.505857,164.000741 151.814693,163.955617 152.109103,163.904047 C152.214015,163.891155 152.313026,163.858923 152.417938,163.839585 C152.562193,163.820246 152.719561,163.788014 152.863816,163.749337 C152.968728,163.723552 153.07364,163.697767 153.177897,163.665535 C153.322807,163.626858 153.460504,163.594626 153.598202,163.543056 C153.676886,163.523717 153.75557,163.497932 153.827041,163.472147 C154.037522,163.394792 154.247346,163.323883 154.456515,163.233635 C154.535855,163.20785 154.614539,163.175619 154.693223,163.136941 C154.955504,163.020909 155.211228,162.898429 155.44728,162.763058 L293.695438,83.7833924 C294.895373,85.1564473 296.298574,86.284544 297.990285,87.0580961 L297.71489,99.8861678 C297.71489,100.626731 297.71489,101.097953 297.71489,101.299834 C297.71489,101.790689 297.168472,102.391696 296.075636,103.102855 Z" id="Fill-29" fill="#C7D4E5"></path>
                    <path d="M150.837632,184.093627 C150.811404,184.325693 150.804846,184.615775 150.791732,184.925196 C150.109803,184.983212 148.162368,184.918749 147.328971,184.680237 C146.746053,184.512634 145.795285,184.042057 145.192039,184.042057 C145.171713,184.042057 145.159254,184.035611 145.145485,184.029164 C145.119912,184.022718 145.100241,184.016272 145.067456,183.996933 C144.693706,183.842223 144.319956,183.67462 143.978991,183.481232 L142.70693,182.75925 C142.680702,182.739911 142.654474,182.720572 142.62759,182.70768 C142.280724,182.514292 141.933202,182.314457 141.58568,182.121069 C141.559452,182.108177 141.539125,182.095284 141.513553,182.082392 C140.470331,181.489335 139.428421,180.896279 138.385855,180.303222 C134.98932,178.375788 131.592129,176.448354 128.19625,174.52092 C123.521096,171.865058 118.839386,169.209196 114.157675,166.553334 C108.584211,163.388217 103.004189,160.2231 97.4307237,157.057983 C91.3458114,153.602783 85.2608991,150.15403 79.1694298,146.698831 C72.9599342,143.172723 66.7504386,139.646615 60.540943,136.120507 C54.5937281,132.749109 48.6458575,129.371265 42.6920855,125.993421 C37.3946711,122.98946 32.0966009,119.979054 26.7985307,116.968647 C22.5292566,114.551297 18.2671952,112.133947 14.0051338,109.71015 C11.1600439,108.098583 8.32019956,106.487016 5.47510965,104.869003 C4.44565789,104.282393 3.40964912,103.695783 2.37364035,103.109172 C0.786842105,102.200249 0,101.020582 0,99.8344687 L0.0393421053,86.2006136 C1.3441886,85.0338393 2.83263158,84.1055768 4.5236864,83.5705366 L144.044561,162.762929 C144.378314,162.956317 144.746162,163.12392 145.126469,163.27863 C145.165811,163.291523 145.211711,163.310862 145.250397,163.323754 C145.525792,163.426894 145.821513,163.523588 146.110022,163.60739 C146.20182,163.633175 146.300175,163.652514 146.391974,163.684745 C146.5618,163.729869 146.719825,163.768547 146.889651,163.800778 C147.001121,163.826563 147.119803,163.845902 147.224715,163.871687 C147.362412,163.897472 147.513224,163.923257 147.656822,163.942596 C147.768292,163.955488 147.886974,163.981273 148.018114,163.994166 C148.148599,164.007059 148.286296,164.026397 148.423993,164.03929 C148.549232,164.045736 148.666603,164.058629 148.791842,164.065075 C148.922982,164.084414 149.067237,164.09086 149.204934,164.09086 C149.277061,164.097306 149.348533,164.097306 149.433774,164.097306 C149.480329,164.097306 149.526228,164.103753 149.578684,164.103753 C149.722939,164.103753 149.860636,164.24557 150.018004,164.239124 C150.103246,164.239124 150.2475,164.374496 150.365526,164.374496 L150.450768,164.374496 C150.549123,164.374496 150.837632,164.084414 150.837632,164.071521 L150.837632,182.681895 C150.837632,183.146026 150.882875,183.635942 150.837632,184.093627" id="Fill-31" fill="#9EBBD3"></path>
                    <path d="M296.094127,82.3178335 C299.256576,84.1131189 299.273624,87.0236086 296.136091,88.8163155 L155.45069,169.192887 C152.313813,170.984949 147.201962,170.984949 144.038857,169.190309 L2.43744013,88.8176047 C-0.72500943,87.0223193 -0.73615636,84.1144082 2.40072083,82.3217013 L143.086122,1.94512965 C146.223655,0.153067373 151.33026,0.149844239 154.49271,1.94512965 L296.094127,82.3178335 Z" id="Fill-33" fill="#FFFFFF"></path>
                </g>
                <g id="board" transform="translate(34.000000, 4.623123)">
                    <g id="target" transform="translate(0.002462, 0.071917)">
                        <polygon id="Rectangle-5" fill="#2096F3" points="0.77690664 64.579865 115.509754 0.585472651 115.509754 77.5667003 0.77690664 141.561093"></polygon>
                        <polygon id="Rectangle-5-Copy" fill="#FFFFFF" points="5.63846796 67.1579777 111.976229 7.84610186 111.976229 75.8115101 5.63846796 135.123386"></polygon>
                        <path d="M65.2504444,47.7536525 C64.8469518,47.9871616 64.5,48.5406318 64.5,48.916133 L64.5,68.2299468 C64.5,68.3728304 64.5064731,68.3756644 64.7495556,68.2349877 L77.7495556,60.7116309 C78.1530482,60.4781218 78.5,59.9246516 78.5,59.5491505 L78.5,40.2353367 C78.5,40.092453 78.4935269,40.0896191 78.2504444,40.2302957 L65.2504444,47.7536525 Z" id="Rectangle-8" stroke="#2096F3" opacity="0.4"></path>
                        <path d="M87.2504444,36.5719709 C86.8469518,36.80548 86.5,37.3589501 86.5,37.7344513 L86.5,57.0482651 C86.5,57.1911488 86.5064731,57.1939827 86.7495556,57.053306 L99.7495556,49.5299492 C100.153048,49.2964401 100.5,48.74297 100.5,48.3674688 L100.5,29.053655 C100.5,28.9107713 100.493527,28.9079374 100.250444,29.0486141 L87.2504444,36.5719709 Z" id="Rectangle-8-Copy" stroke="#2096F3" opacity="0.4"></path>
                        <polygon id="Rectangle-5-Copy-2" fill="#CCCCCC" points="9.52771701 68.856468 107.470391 14.2271087 107.470391 19.7753053 9.52771701 74.4046646"></polygon>
                        <polygon id="Rectangle-5-Copy-3" fill="#2096F3" opacity="0.4" points="9.52771701 81.1851179 58.4990542 53.8704383 58.4990542 57.3380612 9.52771701 84.6527408"></polygon>
                        <polygon id="Rectangle-5-Copy-4" fill="#2096F3" opacity="0.4" points="9.52771701 88.0687113 58.4990542 60.7540316 58.4990542 64.2216545 9.52771701 91.5363342"></polygon>
                        <polygon id="Rectangle-5-Copy-5" fill="#2096F3" opacity="0.4" points="9.52771701 95.5246646 44.5072436 76.0141791 44.5072436 79.481802 9.52771701 98.9922875"></polygon>
                        <polygon id="Rectangle-5-Copy-6" fill="#CCCCCC" opacity="0.4" points="9.52771701 104.257805 107.470391 49.6284459 107.470391 50.3219705 9.52771701 104.95133"></polygon>
                        <polygon id="Rectangle-5-Copy-7" fill="#CCCCCC" opacity="0.4" points="9.52771701 115.07488 107.470391 60.4455212 107.470391 61.1390457 9.52771701 115.768405"></polygon>
                        <polygon id="Rectangle-5-Copy-8" fill="#CCCCCC" opacity="0.4" points="9.52771701 125.891956 107.470391 71.2625964 107.470391 71.956121 9.52771701 126.58548"></polygon>
                        <polygon id="Rectangle-5-Copy-9" fill="#CCCCCC" opacity="0.4" points="9.52771701 103.663034 10.2273075 103.272825 10.2273075 126.159136 9.52771701 126.549345"></polygon>
                        <polygon id="Rectangle-5-Copy-10" fill="#CCCCCC" opacity="0.4" points="28.9739623 93.721108 29.6735528 93.3308983 29.6735528 116.217209 28.9739623 116.607419"></polygon>
                        <polygon id="Rectangle-5-Copy-11" fill="#EAEAEA" points="48.4202075 82.7958112 49.1197981 82.4056015 49.1197981 105.291912 48.4202075 105.682122"></polygon>
                        <polygon id="Rectangle-5-Copy-12" fill="#CCCCCC" opacity="0.4" points="67.8664528 71.8705144 68.5660433 71.4803047 68.5660433 94.3666156 67.8664528 94.7568253"></polygon>
                        <polygon id="Rectangle-5-Copy-13" fill="#CCCCCC" opacity="0.4" points="88.2850103 59.858099 88.9846009 59.4678893 88.9846009 82.3542002 88.2850103 82.74441"></polygon>
                        <polygon id="Rectangle-5-Copy-14" fill="#CCCCCC" opacity="0.4" points="107.731256 48.9328022 108.430846 48.5425925 108.430846 71.4289035 107.731256 71.8191132"></polygon>
                        <path d="M97.5627486,42.5712893 C101.670229,40.1963583 105,34.8863294 105,30.7110076 C105,26.5356858 101.670229,25.0761807 97.5627486,27.4511116 C93.4552681,29.8260425 90.1254973,35.1360715 90.1254973,39.3113933 C90.1254973,43.4867151 93.4552681,44.9462202 97.5627486,42.5712893 Z" id="Oval-5" stroke="#EF4B46"></path>
                        <path d="M68.5,54.2582187 C69.8807119,53.4598959 71,51.6749526 71,50.2714362 C71,48.8679197 69.8807119,48.3773134 68.5,49.1756362 C67.1192881,49.973959 66,51.7589023 66,53.1624188 C66,54.5659352 67.1192881,55.0565415 68.5,54.2582187 Z" id="Oval-5-Copy" stroke="#EF4B46"></path>
                        <polyline id="Path-47" stroke="#EF4B46" stroke-linecap="round" stroke-linejoin="round" points="74 52.3506006 76.5 53.8753754 81 45.7432432"></polyline>
                    </g>
                </g>
                <path d="M118.467397,204.31017 C110.811663,199.89661 98.3981995,199.89661 90.7418005,204.31017 C83.0860665,208.72373 83.0860665,215.879328 90.7418005,220.292888 C98.3981995,224.706448 110.811663,224.706448 118.467397,220.292888 C126.123796,215.879328 126.123796,208.72373 118.467397,204.31017" id="shadow" fill="#F4F4F4" style="mix-blend-mode: multiply;"></path>
                <g id="standingWoman" transform="translate(71.000000, 70.000000)">
                    <path d="M28.5278188,34.222312 C28.3389197,33.5641961 28.1879335,32.8409992 28.0682087,32.1098332 C28.3382546,31.1037328 28.5777041,30.1965822 28.5597454,30.1261884 L40.6579335,17.9214934 C41.0716491,17.3722888 41.6742638,17.0163351 42.3546995,16.9187135 C42.47775,16.9014471 42.6014656,16.8928139 42.7238509,16.8928139 C43.2765803,16.8928139 43.8120161,17.0701266 44.2616491,17.4074857 C45.397039,18.2588525 45.6278417,19.8725977 44.7764656,21.0055398 L33.3367638,35.2217714 C33.3274518,35.2323969 33.318805,35.2443506 33.308828,35.2563042 C31.9186904,36.9430996 29.1304335,36.322173 28.5278188,34.222312" id="Fill-62" fill="#FBBA9F"></path>
                    <path d="M15.6566743,52.4537143 C15.6380505,52.4530502 15.6194266,52.451722 15.6014679,52.4503938 C13.4723624,52.2989807 11.9917661,50.2509189 12.3569266,48.1510579 L15.5761927,29.618888 C15.9373624,27.5482471 17.912156,26.1549807 19.9920413,26.5182394 C22.0692661,26.8728649 23.4613991,28.8505328 23.1002294,30.9218378 L21.8318119,38.2275212 L20.5833486,45.4242934 C19.9268578,48.8430425 19.9800688,52.7133745 15.6566743,52.4537143" id="Fill-64" fill="#A8C4F2"></path>
                    <path d="M17.0227339,109.445682 L14.3535367,74.465929 L15.0419541,66.5499444 L31.4196376,69.0183768 L40.8971835,64.7927552 L44.1982615,108.541188 C44.1982615,108.541188 39.5449587,136.65223 39.5043853,136.963025 C39.478445,137.162253 39.014844,139.637991 39.1472064,141.210562 C36.8152339,141.332091 35.317344,140.598933 33.5720229,139.284693 C33.6152569,138.560168 33.7010596,137.995025 33.8400734,137.746655 C33.8460596,137.793141 33.8553716,137.81572 33.8600275,137.706145 L33.3172752,111.068724 L28.3287431,80.5191336 L27.5944312,93.873373 L26.7018165,109.377944 L24.4170688,134.597527 C22.6764037,134.581589 20.2346835,134.539087 18.4960138,134.450099 C18.4268394,134.413574 18.357,134.378377 18.2878257,134.341188 C18.333055,134.18579 18.3842706,134.03172 18.4507844,133.883628 L17.0227339,109.445682 Z" id="Fill-66" fill="#FBBA9F"></path>
                    <path d="M38.9410803,144.069348 C41.2610803,145.707665 41.0362638,147.241719 44.517594,146.385703 C45.6283739,146.112761 46.7484656,145.710321 47.5306674,144.944622 C48.3135344,144.180252 48.6653922,142.976252 48.1013555,142.066445 C47.6044977,141.265549 46.5655528,140.889008 45.5804839,140.66853 C43.9522271,140.303943 42.2514702,140.206321 40.5846353,140.380314 C39.7818142,140.463989 38.944406,140.628684 38.340461,141.115464 C37.1026399,142.110939 37.9001399,143.334198 38.9410803,144.069348" id="Fill-68" fill="#1D202B"></path>
                    <path d="M43.588473,143.523853 C42.4852138,144.389068 42.596344,145.437645 41.3059771,145.823483 C40.3155872,145.535931 39.4229725,145.192595 39.0990505,145.043838 C37.158844,144.15661 35.442789,142.765336 34.2255872,141.010139 C34.0785917,140.798293 33.9369174,140.511405 34.0825826,140.298896 C34.7297615,139.672656 35.3776055,139.047745 36.0261147,138.420842 C37.9729725,136.539467 40.8516881,139.225058 42.8151743,140.247761 C43.5568028,140.634263 44.3209387,141.441135 44.5382223,141.796109 C44.7555059,142.151082 45.2901834,142.760862 43.588473,143.523853 Z" id="Fill-70" fill="#FBBA9F"></path>
                    <path d="M33.5718899,147.070715 L34.471156,147.070715 C34.9700092,147.070715 35.3737477,146.667611 35.3737477,146.170205 L35.3737477,141.498314 C35.3737477,141.000244 34.9700092,140.59714 34.471156,140.59714 L33.5718899,140.59714 C33.0730367,140.59714 32.6692982,141.000244 32.6692982,141.498314 L32.6692982,146.170205 C32.6692982,146.667611 33.0730367,147.070715 33.5718899,147.070715" id="Fill-72" fill="#1D202B"></path>
                    <path d="M32.9574358,137.966005 C33.7449587,137.656537 34.6821376,137.713649 35.7769541,138.373758 C37.1404862,139.196568 38.1508303,140.539364 39.3420917,141.573356 C40.9823211,142.997835 42.6358532,143.794746 44.6432385,142.878298 C45.3043853,143.27941 45.7673211,143.740954 45.747367,144.273557 C45.7174358,145.048553 44.3253028,146.043364 43.7113807,146.464398 C41.7831468,147.789927 38.6816101,145.662839 37.1132156,144.866592 C35.8773899,144.23836 34.5670688,144.35524 33.3897752,143.831935 C31.8060826,143.126669 31.3025734,139.452244 32.9574358,137.966005" id="Fill-74" fill="#1D202B"></path>
                    <path d="M29.8660092,137.553669 C29.8407339,136.623276 29.3106193,136.062781 28.671422,135.6796 C28.3874083,135.508928 28.133512,134.990259 27.8395212,134.876035 C26.1733515,134.227217 23.9456193,132.934241 21.9362385,132.928264 C21.7347018,132.81404 21.5411468,132.724388 21.3555734,132.695832 L21.46,132.962133 C20.5953211,133.083662 19.7725459,133.555168 19.0502064,134.627677 C19.018945,134.674164 18.9870183,134.72065 18.956422,134.767801 C20.5959862,135.672959 21.8537615,135.326967 23.3183945,136.538272 C25.1555046,138.057052 27.0045872,140.860851 29.1556422,139.597747 C29.5839908,138.977484 29.8859633,138.274874 29.8660092,137.553669 Z" id="Fill-76" fill="#FBBA9F"></path>
                    <path d="M29.556055,134.563725 C29.1183945,134.559741 28.6754128,134.590953 28.2284404,134.654706 C28.0348853,134.681934 27.8779128,134.778227 27.7455505,134.901748 C27.7808028,134.960853 27.8213761,135.0173 27.8473165,135.080389 C28.0648165,135.449625 28.2044954,135.869331 28.2883028,136.336853 C28.3149083,136.487602 28.3079331,136.628977 28.2284404,136.730737 C28.0195156,136.998183 27.4811372,137.311208 27.2034362,137.311208 C25.1026667,137.444306 23.6443119,135.982891 22.470344,134.942922 C21.6143119,134.187185 21.2138991,134.320667 20.2866972,133.774783 C20.2368119,133.745563 20.1895872,133.71103 20.1383716,133.683802 C19.217156,133.200343 18.4283028,133.367694 17.7651606,133.918227 C17.6480963,134.09554 17.5430046,134.288127 17.4512156,134.490675 C16.6789908,136.191416 17.1725229,139.080883 19.3102752,139.049007 C19.7998165,139.041038 22.1211468,139.406289 22.5069266,139.600204 C26.3241514,141.518103 29.3179358,142.426582 31.8341514,138.338428 C32.4926376,137.26791 32.7886239,136.437795 32.3143807,135.537949 C31.8966743,134.745022 30.3848165,134.571694 29.556055,134.563725 Z" id="Fill-78" fill="#1D202B"></path>
                    <path d="M38.6708349,55.3792417 L40.6416376,58.4626239 C42.1914083,60.8865622 42.9982202,63.7076278 42.963633,66.5804927 L46.4615917,103.935041 C46.7229908,106.726886 44.9949633,109.321497 42.311133,110.146964 C35.4628761,112.254794 22.6210642,114.806238 15.7149404,107.245543 L14.7052615,77.2385158 C14.7052615,77.2385158 11.2186101,60.3327089 18.1799404,56.3933112 L38.6708349,55.3792417 Z" id="Fill-80" fill="#EF4B46"></path>
                    <path d="M18.1191468,52.7358208 C18.1763486,53.8986471 18.1577248,55.0554965 18.0559587,56.2249637 C17.9980917,56.8286239 18.2914174,57.4196664 18.7942615,57.7371027 C19.7992844,58.3726394 20.8435505,58.9065699 21.9124266,59.3574888 C25.0372431,60.6664154 28.6210046,61.4035583 31.9560046,60.6664154 C32.0896972,60.6352031 32.2167385,60.6033266 32.3504312,60.5714502 C34.2660275,60.0820139 38.4351101,58.9504 38.8102477,56.5802533 C38.8295367,56.4793112 38.8488257,56.3836819 38.8421743,56.2887166 C38.8361881,56.0662456 38.8228853,55.8371336 38.8102477,55.6080216 L38.8102477,44.9712494 C39.8478624,41.8885313 41.7508211,39.6897205 40.803,35.7755583 C40.3127936,33.7799598 39.5678394,32.1409792 38.5814404,30.7935351 C36.8248119,28.3788942 34.2913028,26.8853498 31.0587339,25.9449946 C30.0337569,25.6527938 29.0220826,25.4110641 28.1055229,25.2204695 C26.4825872,24.8777977 24.2736651,24.7124386 22.1738257,24.9979985 C20.0926101,25.2656278 18.1005229,25.9702301 16.858711,27.3555274 C16.6997431,27.5275274 16.5474266,27.718122 16.4137339,27.9153575 C13.944078,31.6130255 15.2550642,36.7856432 16.1523349,40.8020757 C17.037633,44.7487784 17.9668303,48.7134116 18.1191468,52.7358208" id="Fill-82" fill="#DCEAFF"></path>
                    <path d="M31.7170872,16.6627722 C31.7044495,16.6627722 31.6924771,16.6760541 31.6798394,16.6893359 C31.667867,16.6355444 31.667867,16.5671429 31.667867,16.5133514 C31.667867,16.5671429 31.6798394,16.6215985 31.7170872,16.6627722" id="Fill-84" fill="#3772CE"></path>
                    <polygon id="Fill-86" fill="#FBBA9F" points="22.6243899 26.2071784 30.0652844 26.2071784 30.9825092 20.7397035 31.6709266 16.6170162 24.2300321 16.6170162"></polygon>
                    <polygon id="Fill-88" fill="#E7AC94" points="26.1358509 20.6044942 29.8293601 26.207444 30.0648188 26.207444 30.9827087 20.739305"></polygon>
                    <path d="M31.1662867,14.9091691 C31.0192913,14.9921807 30.8523417,14.9908525 30.6913784,14.9483506 C30.6754151,14.9078409 30.6840619,14.8633467 30.660117,14.8241653 L31.1662867,14.9091691 Z" id="Fill-90" fill="#FF8358"></path>
                    <path d="M33.4455803,22.3192479 C33.5320482,22.3252247 33.6185161,22.3424911 33.7056491,22.3537807 L33.023883,21.7016417 C33.1682179,21.90419 33.3072317,22.112051 33.4455803,22.3192479" id="Fill-92" fill="#FF8358"></path>
                    <path d="M22.2976743,27.2992788 C23.4623303,29.0020124 27.3500596,28.3917112 31.0615275,25.9485143 C30.0318945,25.6496726 29.0202202,25.4079429 28.1029954,25.2206687 C26.4793945,24.8793251 24.2737982,24.7152942 22.1739587,24.9968695 C21.8679954,25.9020278 21.8919404,26.706244 22.2976743,27.2992788" id="Fill-94" fill="#FBBA9F"></path>
                    <path d="M31.6960023,16.2178965 C31.684695,16.2178965 31.6740528,16.2311784 31.6634106,16.2437961 C31.6527683,16.1919969 31.6527683,16.1275799 31.6527683,16.0757807 C31.6527683,16.1275799 31.6634106,16.1787151 31.6960023,16.2178965" id="Fill-96" fill="#3772CE"></path>
                    <path d="M36.3415894,14.0517591 C36.2730803,16.1363459 35.9411766,18.1923768 34.8091124,19.7217822 C33.5619794,21.4265081 31.5492729,22.1032185 29.6389977,22.1576741 C28.58675,22.1849019 27.4999151,22.0221992 26.5620711,21.4265081 C24.8007867,20.2902456 23.9773463,17.8410718 23.531039,15.527373 C23.3707408,14.6467861 23.2450298,13.7542456 23.1991353,12.8610409 C23.1645482,11.8463073 23.22175,10.8176278 23.4738372,9.84340386 C24.0112683,7.73225328 25.372805,5.98635367 26.9970711,4.89060077 C28.6213372,3.79484788 30.4850528,3.29345792 32.3500986,3.06368185 C33.2533555,2.9421529 34.2257867,2.914261 35.0379197,3.41498687 C35.5753509,3.74039228 35.9983784,4.3626471 36.1247546,5.03935753 C36.1819564,5.28307954 36.1819564,5.5400834 36.1473693,5.78380541 C36.2045711,7.67779768 36.2617729,9.55850811 36.3189748,11.4538286 C36.3415894,12.3058595 36.3648693,13.1725004 36.3415894,14.0517591" id="Fill-98" fill="#FBBA9F"></path>
                    <path d="M31.2114495,14.5511568 C31.0817477,14.6301838 30.9347523,14.6281915 30.793078,14.5883459 C30.7791101,14.5498286 30.7864266,14.5073266 30.7658073,14.4701375 L31.2114495,14.5511568 Z" id="Fill-100" fill="#FF8358"></path>
                    <path d="M34.947328,2.80893591 C29.4266858,-0.384685714 23.6506307,-0.324253282 19.587305,3.9412139 C17.9929702,5.61539151 16.4857683,10.786017 16.6939564,13.1740942 C16.8974885,15.5024031 18.6694151,17.293461 20.466617,18.6023876 C22.7393922,20.2592988 25.6101261,21.5277158 28.2015023,20.9619089 C28.4389564,21.0024185 28.6730849,21.0110517 28.9032225,21.0037467 C29.384117,20.6106039 29.8211124,20.1483954 30.1862729,19.5892293 C30.4809289,19.1369822 30.8627179,18.7757158 31.2910665,18.5412911 C31.5378326,17.2622486 31.5079014,15.8185112 32.3127179,14.86421 C32.6645757,14.4471598 33.1388188,14.1788664 33.5937729,13.9006116 C34.6120986,13.2783568 35.599828,12.5525035 36.334805,11.5696463 C39.0306078,7.96694363 38.0568463,4.60862703 34.947328,2.80893591" id="Fill-102" fill="#1D202B"></path>
                    <path d="M29.9672431,14.523929 C29.9333211,15.2232185 30.2452706,15.885983 30.5984587,16.473705 C30.821945,16.8442687 31.0713716,17.2081915 31.4032752,17.4691799 C31.7351789,17.7288402 32.1641927,17.8756046 32.5626101,17.7713421 C33.8070826,17.4439444 33.6906835,15.4715892 33.3042385,14.5033421 C33.0095826,13.7642069 32.3823578,13.1532417 31.6420596,13.0542919 C30.7893532,12.940068 30.0131376,13.5849019 29.9672431,14.523929" id="Fill-104" fill="#FBBA9F"></path>
                    <path d="M32.4263899,35.8844695 C33.3795321,34.1850564 34.1963211,32.9551568 36.2489358,33.286539 C37.671,33.5163151 39.0538211,34.0515737 40.4379725,34.5177668 C40.5703349,34.9228633 40.6947156,35.3372571 40.8024679,35.7755583 C41.7509541,39.6897205 39.8479954,41.8885313 38.8103807,44.9712494 L38.8103807,55.6080216 C38.8230183,55.8371336 38.8363211,56.0662456 38.8423073,56.2887166 C38.8489587,56.3836819 38.8296697,56.4793112 38.8103807,56.5802533 C38.4352431,58.9504 34.2661606,60.0820139 32.3505642,60.5714502 C32.2168716,60.6033266 32.0898303,60.6352031 31.9554725,60.6664154 L31.9554725,36.5173498 C32.1277431,36.339373 32.2873761,36.1321761 32.4263899,35.8844695" id="Fill-106" fill="#A8C4F2"></path>
                    <path d="M17.7368922,56.1995954 C17.8366628,55.0639969 17.8579472,53.9363676 17.8027408,52.7536185 L17.7761353,52.1917961 L18.2716628,52.4580973 C23.2222821,55.1284139 27.8981995,57.6499737 35.7907225,54.304939 C36.0707454,54.1860664 36.3594151,54.0771552 36.64875,53.9675799 C37.3365023,53.7065915 38.0475344,53.437634 38.6288647,53.0325375 L39.1290482,52.6845529 L39.1290482,55.5892942 C39.1410206,55.8210625 39.1529931,56.0528309 39.1589794,56.2679969 C39.1676261,56.4021436 39.1450115,56.5236726 39.1250573,56.627271 C38.7093463,59.2584062 34.3074656,60.3959969 32.4271216,60.8821127 C31.3442775,61.1610317 30.2547821,61.277912 29.1892317,61.277912 C26.3790252,61.277912 23.7311124,60.4624062 21.7889106,59.6475645 C20.6994151,59.192661 19.6338647,58.6408 18.620195,58.0045992 C18.0195757,57.6214178 17.673039,56.9128309 17.7368922,56.1995954" id="Fill-108" fill="#1D202B"></path>
                    <path d="M38.8141055,55.4038795 C38.6198853,54.7258409 38.4642431,53.980729 38.3411927,53.228312 C38.6192202,52.1909992 38.8659862,51.2566208 38.8473624,51.1842347 L51.3087156,38.6142888 C51.7344037,38.0484819 52.3549771,37.6812386 53.0560321,37.5809606 C53.1830734,37.5630301 53.3101147,37.5543969 53.4364908,37.5543969 C54.0051835,37.5543969 54.5565826,37.7363583 55.0201835,38.0836788 C56.1901606,38.9609452 56.4282798,40.6231691 55.5509633,41.7899799 L43.7680505,56.4332232 C43.7587385,56.4445127 43.7487615,56.4564664 43.7394495,56.4684201 C42.3074083,58.2056865 39.435344,57.5668293 38.8141055,55.4038795" id="Fill-110" fill="#FBBA9F"></path>
                    <path d="M56.0339197,40.7834811 C55.3282087,43.0593266 53.2928876,44.4512649 51.487039,43.8940911 C49.6811904,43.3362533 48.7892408,41.0391568 49.4949518,38.7626471 C50.1999977,36.4868015 52.2359839,35.0948633 54.0418326,35.6520371 C55.8476812,36.210539 56.7396307,38.5076355 56.0339197,40.7834811" id="Fill-112" fill="#FBBA9F"></path>
                    <path d="M50.5783945,39.2367429 C49.9771101,39.0507969 49.6398853,38.413268 49.8254587,37.8116 L51.8514679,31.2762641 C52.0377064,30.6752602 52.6769037,30.3392293 53.2788532,30.5251753 C53.8808028,30.7111212 54.2180275,31.3486502 54.0311239,31.9496541 L52.0057798,38.48499 C51.8188761,39.0859938 51.180344,39.4226888 50.5783945,39.2367429" id="Fill-114" fill="#FBBA9F"></path>
                    <path d="M40.4009243,57.9713946 C40.3823005,57.9760432 40.3636766,57.9806919 40.3450528,57.9853405 C38.1826904,58.4986842 36.0715436,56.9267768 35.7762225,54.727966 L33.173539,35.3298193 C32.8842041,33.1615568 34.4100298,31.163966 36.5896858,30.8757498 C38.7633555,30.5808927 40.7654197,32.109634 41.0547546,34.2778965 L42.0817271,41.9255876 L43.0940665,49.4583907 C43.5124381,53.0564448 44.7768647,56.8809544 40.4009243,57.9713946" id="Fill-116" fill="#DCEAFF"></path>
                    <path d="M55.3006055,27.0119923 L44.3903532,33.8720695 C43.6946193,34.3090425 42.8246193,33.8627722 42.4454908,32.8752664 L38.4666376,12.590556 C38.0881743,11.6030502 38.3449174,10.4488571 39.0406514,10.010556 L49.9509037,3.15114286 C50.6459725,2.71416988 51.5166376,3.15977606 51.8957661,4.14728185 L55.873289,24.4326564 C56.2524174,25.4201622 55.9963394,26.5750193 55.3006055,27.0119923" id="Fill-118" fill="#696969"></path>
                    <path d="M55.960555,27.1046996 L45.0509679,33.9647768 C44.3552339,34.4017498 43.4845688,33.9554795 43.1054404,32.9686378 L39.1272523,12.6832633 C38.748789,11.6957575 39.0055321,10.5415645 39.7006009,10.1039274 L50.6108532,3.24385019 C51.3065872,2.80687722 52.1772523,3.25314749 52.5557156,4.23998919 L56.5339037,24.5253637 C56.9130321,25.5128695 56.656289,26.6677266 55.960555,27.1046996" id="Fill-120" fill="#1D202B"></path>
                    <path d="M54.3522523,24.4366409 L46.0446835,29.6603938 C45.5152339,29.9931042 44.8520917,29.6530888 44.563422,28.902 L41.5343853,13.4558687 C41.2457156,12.7034517 41.4412661,11.8241931 41.9707156,11.4914826 L50.2782844,6.26772973 C50.8083991,5.93501931 51.4708761,6.27437066 51.7595459,7.02612355 L54.7885826,22.4729189 C55.0772523,23.2246718 54.8817018,24.1039305 54.3522523,24.4366409" id="Fill-122" fill="#375EB4"></path>
                    <path d="M37.4100665,24.2161622 C36.9936904,23.7685637 37.0189656,23.06861 37.4659381,22.652888 L42.3360757,18.1277606 C42.7843784,17.7120386 43.4847683,17.73661 43.9018096,18.1842085 C44.3188509,18.6311429 44.2935757,19.3310965 43.8452729,19.7474826 L38.9758005,24.2719459 C38.5274977,24.688332 37.8264427,24.6630965 37.4100665,24.2161622" id="Fill-124" fill="#FBBA9F"></path>
                    <path d="M18.5533486,140.952496 L19.4532798,140.952496 C19.9514679,140.952496 20.3552064,140.549392 20.3552064,140.051986 L20.3552064,135.380094 C20.3552064,134.882025 19.9514679,134.47892 19.4532798,134.47892 L18.5533486,134.47892 C18.0544954,134.47892 17.6507569,134.882025 17.6507569,135.380094 L17.6507569,140.051986 C17.6507569,140.549392 18.0544954,140.952496 18.5533486,140.952496" id="Fill-126" fill="#1D202B"></path>
                    <path d="M20.097,3.83555676 C16.1001881,4.05138687 11.2958991,4.80778842 9.7454633,8.49217452 C8.62936239,11.147217 9.78005046,14.2086842 9.3403945,17.0543212 C8.79032569,20.614522 5.90761927,23.2649158 3.66344495,26.0853174 C1.41927064,28.9057189 -0.290798165,32.9746147 1.6926422,35.9829544 C2.09970642,36.6005606 2.64844495,37.1398039 2.8985367,37.8351089 C3.47122018,39.4249467 2.32252752,41.0513097 1.51238991,42.5335645 C-0.811600917,46.7864139 -0.427151376,52.3687768 2.45688532,56.2630162 C3.36346789,57.4876031 4.57202294,58.5913251 6.06459174,58.9007923 C9.0716789,59.5230471 11.7142706,56.7683907 13.0631697,54.0137344 C15.036633,49.9820278 15.7223899,45.3353714 14.998055,40.9072015 C14.8197982,39.8200819 14.563055,38.6838193 14.9142477,37.6392015 C15.4476881,36.0533483 17.1504404,35.2478039 18.4733991,34.2197884 C22.0604862,31.4339197 23.1014266,25.8714795 20.7628028,21.9792324 C19.9586514,20.6404216 18.7747064,19.3646996 18.811289,17.8034178 C18.879133,14.8787537 22.8480092,13.8195259 24.3352569,11.2986301 C25.4207615,9.45975753 24.8667018,6.83526332 23.1306927,5.58876139 C21.3946835,4.34292355 18.7254862,4.6557112 17.3253716,6.26945637 L20.097,3.83555676 Z" id="Fill-128" fill="#1D202B"></path>
                </g>
                <path d="M209.367362,169.497942 C201.276628,164.834019 188.158784,164.834019 180.06805,169.497942 C171.977317,174.161865 171.977317,181.723224 180.06805,186.387811 C188.158784,191.051734 201.276628,191.051734 209.367362,186.387811 C217.458096,181.723224 217.458096,174.161865 209.367362,169.497942" id="shadow" fill="#F4F4F4" style="mix-blend-mode: multiply;"></path>
                <g id="preacherMan" transform="translate(120.000000, 22.000000)">
                    <path d="M71.9492179,142.380661 C72.9396078,142.360074 73.8029564,143.144368 74.1880711,144.056167 C74.5731858,144.967966 74.5805023,145.988012 74.5824977,146.976846 C74.583828,147.843487 74.54525,148.810406 73.9273372,149.417387 C73.5282546,149.809866 72.9622225,149.969912 72.4227959,150.115348 C71.4064656,150.390947 70.3834839,150.666545 69.3345619,150.756198 C68.1466261,150.859132 66.9420619,150.721001 65.7634381,150.899642 C65.0118326,151.013866 64.2861674,151.254931 63.5465344,151.428924 C61.4553417,151.919024 59.2371078,151.862576 57.1738509,151.264893 C56.7135757,151.132074 56.236672,150.955425 55.9346995,150.584198 C55.4345161,149.968584 55.6087821,149.00897 56.110961,148.395348 C56.6124748,147.781063 57.3600894,147.430422 58.0810986,147.099703 C60.2541032,146.103564 62.4264427,145.10809 64.598117,144.111951 C66.7285528,143.135734 68.9348142,142.140924 71.2787592,142.087132 C72.0277041,142.069202 73.0154335,142.408553 72.9469243,143.153001 L71.9492179,142.380661 Z" id="Fill-8" fill="#1D202B"></path>
                    <path d="M70.2662867,146.035761 L70.4791307,146.018494 C71.9178234,145.901614 72.9893601,144.642494 72.8722959,143.206726 L72.515117,138.819066 C72.3987179,137.383297 71.1382821,136.31278 69.6989243,136.42966 L69.4860803,136.447591 C68.0473876,136.563807 66.9765161,137.822927 67.0929151,139.258695 L67.4507592,143.646355 C67.5671583,145.082124 68.827594,146.152641 70.2662867,146.035761" id="Fill-10" fill="#EF4B46"></path>
                    <path d="M80.6512133,154.705955 C80.2720849,155.549353 79.8783234,156.381461 79.509172,157.219546 C79.1333693,158.073569 78.7555711,158.931577 78.4828647,159.842048 C78.0791261,161.191484 77.3175436,163.816642 78.2746766,165.041229 C79.7140344,166.885415 82.0633005,165.306202 83.2332775,164.003917 C84.9746078,162.066758 86.594883,159.968225 88.0754794,157.73289 C88.7106858,156.77394 89.3379106,155.743268 89.533461,154.535283 C90.1334151,150.832303 88.3495161,145.58265 84.6101124,146.811886 C83.2445849,147.260812 82.6632546,148.424967 82.3393326,149.935778 C81.9794931,151.61726 81.3389656,153.177878 80.6512133,154.705955" id="Fill-12" fill="#1D202B"></path>
                    <path d="M84.9740092,152.624822 L85.1875183,152.624822 C86.630867,152.624822 87.800844,151.456683 87.800844,150.015602 L87.800844,145.613331 C87.800844,144.17225 86.630867,143.004775 85.1875183,143.004775 L84.9740092,143.004775 C83.5306606,143.004775 82.3606835,144.17225 82.3606835,145.613331 L82.3606835,150.015602 C82.3606835,151.456683 83.5306606,152.624822 84.9740092,152.624822" id="Fill-14" fill="#EF4B46"></path>
                    <path d="M71.7894518,61.0215398 L85.5245436,65.7751151 L91.0119289,72.0335243 L89.3716995,111.472659 L89.3716995,145.903208 C89.3716995,147.714853 87.9004151,149.183161 86.0859197,149.183161 L83.8271124,149.183161 C82.119039,149.183161 80.6969748,147.876891 80.5539702,146.177478 L77.0952546,105.067486 L75.9532133,89.4918564 L73.0984427,88.335671 L71.7894518,107.00398 L73.3292454,139.082312 C73.4216995,140.996891 71.8153922,142.559501 69.9011261,142.418714 L68.310117,142.301833 C66.8148876,142.192258 65.5970206,141.05998 65.3808509,139.579053 L60.4202546,105.641262 C60.2719289,104.621215 60.1967683,103.591872 60.1967683,102.5612 L60.1967683,67.150451 L71.7894518,61.0215398 Z" id="Fill-16" fill="#0D3054"></path>
                    <path d="M44.0565228,63.3289195 C41.3818211,62.8245078 37.5856807,61.3756657 31.3128035,58.7720428 C29.9640316,58.2107506 28.2911193,57.5163796 27.7994702,57.3575436 C25.1530491,56.6642458 23.5454,54.0048156 24.1991193,51.3689962 C24.8615404,48.7020535 27.6058561,47.0664718 30.2936105,47.722207 C31.2007684,47.9422163 32.3863825,48.4283833 35.2231544,49.6057017 C37.6455053,50.6113055 42.9350842,52.8081794 45.342207,53.4306449 C47.1021368,51.8519436 49.2656105,46.9258804 50.7536105,43.5377363 C52.3841018,39.8265541 54.0700667,35.9887324 56.2520316,32.7980601 C57.8085579,30.5206949 60.939014,29.9196938 63.2482421,31.4554664 C65.5563825,32.991239 66.1644175,36.0821022 64.6089789,38.3583941 C62.9469439,40.788156 61.4491544,44.1966912 60.0024877,47.4925387 C56.9851544,54.3600502 54.1364175,60.84657 48.4324175,63.0949583 C47.2119965,63.5757593 45.9012947,63.6777148 44.0565228,63.3289195" id="Fill-92" fill="#0D3054"></path>
                    <path d="M25.5610526,55.3495557 C25.1194386,55.2658449 24.6778246,55.132766 24.2514386,54.9470996 L18.4974035,52.4529447 C16.089193,51.4087052 15.0395439,49.10129 16.1544561,47.2993597 C17.2693684,45.4963562 20.1235439,44.8824764 22.5350175,45.9277892 L28.2879649,48.421944 C30.6972632,49.4672568 31.7469123,51.7735988 30.6309123,53.5766023 C29.7139649,55.0587141 27.6179298,55.7369869 25.5610526,55.3495557" id="Fill-94" fill="#FBBA9F"></path>
                    <path d="M30.1783123,55.0114926 L0.929540351,40.4994608 C0.499891228,40.2858907 0.32694386,39.7707469 0.542312281,39.3468264 C0.757680702,38.9229059 1.2819614,38.7522645 1.71052281,38.9647614 L30.9592947,53.4767932 C31.3889439,53.6903632 31.5629789,54.2065803 31.3454351,54.6305008 C31.1833649,54.949246 30.8450842,55.1241803 30.5057158,55.1005695 C30.3947684,55.0919838 30.2838211,55.0640802 30.1783123,55.0114926 Z" id="Fill-96" fill="#1D202B"></path>
                    <path d="M29.4467123,48.7011949 C32.1942912,50.2079907 33.6344316,52.8309316 32.6598351,54.5598831 C31.687414,56.2899079 28.668993,56.4691351 25.9203263,54.9623393 C23.1705719,53.4555435 21.732607,50.8315295 22.7061158,49.1036511 C23.6796246,47.3736263 26.6980456,47.1943992 29.4467123,48.7011949" id="Fill-98" fill="#FBBA9F"></path>
                    <path d="M58.5622386,34.8168874 L58.5622386,72.1573047 C58.5622386,73.0105117 59.0103789,73.8025454 59.7478526,74.2490034 L68.0395368,79.2673632 C71.9727298,81.6595625 76.5324491,82.6469215 81.0432211,82.1950975 C82.6193263,82.0287489 84.1954316,81.6939054 85.7225895,81.1583704 L90.3214667,78.1233145 L87.8240632,37.1919152 C87.7566246,35.4522315 87.0604842,33.8295283 85.8737825,32.5921098 C85.4332561,32.107016 84.9078877,31.6884617 84.3150807,31.3375199 L81.3314667,29.4808556 L80.5004491,28.9614189 C78.245607,27.4063283 73.8708,25.8007966 69.937607,25.3318011 C69.1577123,25.231992 68.4126246,25.1815508 67.6990807,25.1815508 C66.1229754,25.1815508 64.7154667,25.4326834 63.6984491,26.0175863 C60.5288351,27.840981 58.5622386,31.1872696 58.5622386,34.8168874" id="Fill-110" fill="#FFFFFF"></path>
                    <path d="M87.8244982,37.1923445 C87.8070947,36.7694973 87.7537965,36.3552357 87.6646035,35.9506332 C85.9916912,34.5382804 84.3622877,33.1978332 82.8786386,34.8806364 C81.8398667,36.0568816 81.1546035,38.772119 80.5019719,40.1780325 C80.5237263,40.2424255 80.5454807,40.3068184 80.5683228,40.3701382 C81.2796912,42.378126 82.2640772,45.7115361 81.7039018,47.7527936 C81.2970947,49.208075 80.1615158,50.3961256 79.8558667,51.8846767 C79.2293404,55.0292007 82.6023579,62.8915838 82.280393,66.086549 C82.0933053,67.9099436 80.7543228,69.3823964 79.9069895,71.0040264 C78.1089895,74.533835 78.8388491,78.8492381 81.0436561,82.1955267 C82.6197614,82.028105 84.1958667,81.6932615 85.7219368,81.1587997 L90.3219018,78.1226706 L87.8244982,37.1923445 Z" id="Fill-112" fill="#FF8358"></path>
                    <path d="M89.083207,37.1683045 C89.0788561,37.0341524 89.0614526,36.9021468 89.0505754,36.769068 L89.1408561,36.769068 L89.083207,34.492776 C89.0114175,32.617867 88.2576281,30.8416939 86.975207,29.5033931 C85.2479088,27.7014628 81.945593,26.9426989 79.6668211,25.9574862 C72.0571368,22.6670048 56.6713474,24.7962661 56.6713474,34.8168874 L56.6713474,36.769068 L56.6713474,80.2375508 C56.6713474,81.3064743 57.234786,82.2991994 58.1582596,82.8583452 L60.846014,84.4853412 C61.3866105,84.8126722 62.070786,84.8405758 62.6200842,84.5293431 C63.3673474,84.1064958 63.806786,83.3466586 63.7937333,82.495598 L63.5294175,62.6325094 C63.3923649,52.3865127 61.822786,42.5086291 63.3836632,32.3238058 C63.5435579,31.2849323 63.7262947,30.2278142 64.2157684,29.2941159 C65.895207,26.0873454 71.1967509,25.9746577 74.3359088,26.6550769 C75.4965053,26.9051363 76.3253474,27.4074015 76.9127158,28.0727957 L74.5045053,27.3859372 C75.6063649,27.7400986 76.6364351,28.2563157 77.4957333,28.9442474 C78.5910667,31.0863873 78.0918035,34.2309113 77.5653474,36.7883859 C74.3446105,52.47237 74.1803649,68.7616481 77.0856632,84.5057323 C77.1889965,85.0702441 77.4011018,85.6980757 77.7078386,86.2185856 C77.7883298,86.9011513 77.9928211,87.5676186 78.3234877,88.1750591 C78.9913474,89.4006722 79.7940842,90.2495863 80.8905053,90.649896 C81.6660491,90.6627746 82.441593,90.6488228 83.2160491,90.6080406 C84.4092772,90.4137884 85.6264351,90.1529969 86.5629614,89.8245927 L90.4482947,87.3626343 C91.1564,86.9151031 91.5664702,86.1273622 91.5229614,85.2988392 C91.1183298,77.5126544 89.0842947,37.175817 89.083207,37.1683045" id="Fill-114" fill="#0D3054"></path>
                    <path d="M70.4952807,34.612547 L69.606614,34.0405227 L64.9239825,54.5958359 C64.7988947,55.23118 64.8652456,55.8815491 65.1154211,56.4503538 L68.0120175,63.0549273 C68.2437018,63.5829498 68.917,63.6494892 69.2846491,63.1804937 L73.0220526,58.4025344 L70.4952807,34.612547 Z" id="Fill-116" fill="#EF4B46"></path>
                    <path d="M68.6035193,31.1235206 L68.9211333,34.1295996 C69.2289579,34.9989049 70.3558351,35.0364675 71.0802561,34.2015051 L73.4297298,31.6429573 L68.6035193,31.1235206 Z" id="Fill-118" fill="#EF4B46"></path>
                    <path d="M78.5140561,31.2289104 C78.8153544,30.4787322 79.0524772,29.7124557 79.1993193,28.9375935 C80.6557754,21.2501446 66.3065825,20.8412491 66.3065825,29.5310821 L66.3065825,30.8887008 C66.3065825,31.4317483 66.7264421,31.8438634 67.1821965,31.7483471 L70.9174246,30.9670456 L74.0228632,34.6052491 C74.4731789,35.3371827 75.3846877,35.3951364 75.8970035,34.7211565 C76.6823368,33.6887223 77.5927579,32.4598896 78.5140561,31.2289104" id="Fill-120" fill="#EDF4FB"></path>
                    <path d="M75.2275123,17.6197755 L76.9624246,26.3686354 L76.9635123,26.3750747 L77.0483544,26.8011416 L76.999407,26.8097273 C77.0015825,26.9481723 76.9852667,27.09091 76.9558982,27.2282817 C76.2227754,28.1748586 74.9708105,28.9228904 73.4327754,29.2126588 C71.6500035,29.5485755 69.1580386,29.7793171 68.9437579,28.3401339 C68.9437579,28.3401339 68.9426702,28.3336946 68.9415825,28.3283285 L68.8991614,28.335841 L68.8143193,27.9097741 L68.8132316,27.904408 L67.0783193,19.1555482 C66.8531614,18.0222317 67.1076877,16.9200385 67.6972316,16.0453671 C68.1943193,15.3069942 68.931793,14.7263842 69.8095825,14.4409086 C70.0184246,14.3818817 70.2457579,14.3207084 70.4709158,14.2777797 C70.9669158,14.2037278 71.4422491,14.2155332 71.9186702,14.2960244 C72.5245298,14.4215907 73.0770912,14.6705769 73.5578632,15.0225919 C74.3910561,15.6300324 75.0132316,16.535827 75.2275123,17.6197755" id="Fill-124" fill="#FBBA9F"></path>
                    <path d="M69.1155088,27.4930442 C72.4624211,26.6806194 74.7161754,24.0136767 74.1973333,21.3907359 L72.6495088,13.5873796 L72.5298596,12.9831588 C71.7358246,12.8854961 70.904807,12.9273516 70.0465965,13.088334 L69.9987368,13.0969198 L69.8247018,13.1301895 C69.6658947,13.1602395 69.5103509,13.2063878 69.354807,13.2514629 C69.3069474,13.2611219 69.2601754,13.2697076 69.2123158,13.2793665 C68.8435789,13.4145918 68.4878947,13.6131368 68.1920351,13.8664159 C68.0462807,13.9608589 67.921193,14.0821324 67.8015439,14.2205773 C67.7471579,14.2796042 67.6927719,14.3397043 67.6394737,14.3998044 C67.5078596,14.5725923 67.3936491,14.7432337 67.281614,14.9278269 C66.7540702,15.835768 66.5397895,16.9969881 66.7769123,18.1893315 L68.2670877,25.7072122 L69.1155088,27.4930442 Z" id="Fill-126" fill="#FBBA9F"></path>
                    <path d="M56.7204035,9.40977759 C57.4720175,10.0354627 61.8642281,12.0026684 61.8642281,12.0026684 L62.8573158,6.73532239 C62.8573158,6.73532239 61.1300175,5.36804473 60.4860877,5.17271935 C59.8421579,4.97739396 57.7831053,6.60009712 57.7831053,6.60009712 L56.7204035,9.40977759 Z" id="Fill-128" fill="#4E2B23"></path>
                    <path d="M73.812607,22.286335 C74.7262912,20.9694985 75.1178702,18.8584819 75.3462912,17.4643738 C75.5823263,16.0208978 77.5598,16.6251186 77.5663263,15.1505193 C77.5706772,14.1019869 76.5721509,12.9826222 76.1240105,12.0746812 C75.5877649,10.987513 74.9296947,10.1031827 73.9105018,9.40129918 C72.6781158,8.55345825 71.2270982,8.07373053 69.7793439,7.68200655 C68.1586421,7.24306105 66.5042211,6.91787649 64.8356596,6.73113684 L64.3755544,5.17282667 L59.1958351,5.17282667 L59.1958351,19.8136444 C59.1958351,19.9563822 59.2317298,20.163513 59.2948175,20.4210849 C60.2008877,24.057142 64.2482912,25.9921511 67.7801158,24.6238002 L73.812607,22.286335 Z" id="Fill-130" fill="#FBBA9F"></path>
                    <path d="M57.4883333,4.32562966 C58.9600175,3.30285446 60.9505439,2.60526381 62.5799474,1.81966943 C64.4584386,0.911728374 66.4848596,0.259212819 68.5852456,0.146525099 C71.3915614,-0.00479840936 74.3414561,0.899922994 76.2286491,2.95405913 C78.926193,5.89037913 79.4232807,10.1489017 79.0708596,13.9180376 C78.933807,15.3819047 78.7325789,17.0056811 77.9135263,18.2763693 C77.4827895,18.9449831 75.2768947,20.998046 74.3066491,20.1877677 C73.4865088,19.5019824 74.4872105,18.2280746 74.1054211,17.1945672 C74.0542982,17.0561223 74.0053509,16.9090916 73.8933158,16.8103557 C73.7029649,16.642934 73.4125439,16.6772769 73.160193,16.7212788 C72.9622281,16.7566949 72.7512105,16.7910378 72.5630351,16.7202056 C72.133386,16.5592231 72.0757368,15.9904184 72.1051053,15.5364479 C72.1964737,14.073654 72.4053158,12.3865578 70.6997719,11.9400998 C69.5206842,11.6310135 68.1882281,12.0613733 67.0428596,11.5709134 C64.7205789,10.5781883 62.6941579,8.86962779 60.2206842,8.34267855 C59.8834912,8.27077305 59.2950351,8.06793516 59.210193,8.3984858 C58.9382632,9.46848253 59.1090351,9.83337609 58.8360175,10.5631632 C57.8211754,10.4290112 56.6888596,9.64878288 56.2798772,8.76123294 C55.8121579,7.74597025 55.7893158,6.50855177 56.3440526,5.53621773 C56.6301228,5.0360989 57.0249649,4.64652136 57.4883333,4.32562966" id="Fill-132" fill="#0D3054"></path>
                    <path d="M69.2811684,27.4705067 C70.2568526,27.1592739 71.138993,26.5464674 71.9330281,25.7866302 C73.2524316,24.3667649 74.157414,22.5637614 74.6740807,20.6298255 C74.777414,20.1125352 74.8470281,19.5984646 74.8492035,19.1026386 C74.8492035,18.8407738 74.8165719,18.5467125 74.6088175,18.3846568 C74.343414,18.1775261 73.9268175,18.3170442 73.7158,18.578909 C73.5047825,18.8407738 73.4373439,19.184203 73.3470632,19.506168 C73.0109579,20.6985113 72.2919754,21.7008954 71.4130982,22.591665 C69.6564316,23.2141305 67.4538,22.3716557 66.0702211,21.3113179 C65.0140456,20.5021127 64.0068175,19.5469502 62.7222211,19.1831298 C58.6334842,18.0251294 57.3434491,20.9732547 58.5627825,23.8537675 C58.7563965,24.3120309 59.0848877,24.7026816 59.4351333,25.0579163 C61.9194842,27.5778283 65.8918351,28.5501623 69.2811684,27.4705067" id="Fill-134" fill="#0D3054"></path>
                    <path d="M72.671807,16.8096045 C72.8251754,16.8943886 72.9981228,16.8933154 73.1645439,16.8493135 C73.1819474,16.8085313 73.1732456,16.762383 73.1971754,16.7216007 L72.671807,16.8096045 Z" id="Fill-138" fill="#FBBA9F"></path>
                    <path d="M76.1134596,14.2832531 C75.3422667,14.089001 74.5786877,14.7125397 74.2425825,15.4240822 C74.073986,15.7825364 73.9684772,16.1764068 73.7237404,16.4876396 C73.5856,16.6625738 73.3789333,16.7935062 73.1646526,16.8493135 C72.9438456,17.4030931 73.3898105,18.0974641 74.0011088,18.2434216 C74.6570035,18.3990379 75.3390035,18.0931713 75.8796,17.6939348 C76.4593544,17.2667947 76.9694947,16.682965 77.0880561,15.978935 C77.2066175,15.2738319 76.8139509,14.4592606 76.1134596,14.2832531" id="Fill-140" fill="#FBBA9F"></path>
                    <path d="M93.0729614,89.977526 C92.7847158,89.977526 92.4942947,89.9496224 92.2006105,89.8916687 C89.8130667,89.4194535 88.2652421,87.1259901 88.7449263,84.7702801 L92.3169965,67.2028013 C93.2535228,62.5954834 92.6454877,57.7198614 90.606014,53.4742175 L82.2936632,36.1728963 C81.2505404,34.0017796 82.1881544,31.4067424 84.390786,30.3775279 C86.5879789,29.3493866 89.2191719,30.2744991 90.2633825,32.4456158 L98.5757333,49.746937 C101.42447,55.674311 102.271804,62.4817225 100.963277,68.9145814 L97.3922947,86.4820603 C96.9713474,88.5480018 95.1309263,89.977526 93.0729614,89.977526" id="Fill-150" fill="#0D3054"></path>
                    <path d="M97.9634561,84.205339 C96.8028596,86.7864244 98.436614,90.3033545 96.7800175,92.5538892 C95.8652456,93.797747 94.1335965,94.1626406 92.725,93.6324717 C91.3164035,93.1023028 90.2362982,91.8112235 89.6391404,90.3537956 C89.0408947,88.8985142 88.8777368,87.2833236 88.8712105,85.6992562 C88.8668596,84.9297601 88.9060175,84.1280675 89.2508246,83.4551608 C89.7261579,82.5289751 90.7007544,82.0106116 91.6742632,81.7970415 C94.1074912,81.2604333 96.809386,82.444191 98.1973158,84.6539435 L97.9634561,84.205339 Z" id="Fill-152" fill="#FBBA9F"></path>
                    <polygon id="Fill-136" fill="#1D202B" points="68.8520632 17.5888669 68.6029754 17.1917768 74.765993 13.428007 75.013993 13.8240239"></polygon>
                    <path d="M62.4414807,14.4388695 C62.5850596,13.9580686 62.8983228,13.7874272 63.2605333,13.9924115 C63.6227439,14.1995423 63.9370947,14.7286379 64.0806737,15.3725678 L64.3145333,15.333932 C64.1296211,14.5054089 63.7260772,13.8271362 63.2605333,13.5620517 C62.7960772,13.2969673 62.3925333,13.5169767 62.2076211,14.1340761 L62.4414807,14.4388695 Z" id="Fill-144" fill="#1D202B"></path>
                    <path d="M65.3976842,14.3450704 C65.2127719,14.3450704 65.0430877,14.3869258 64.8962456,14.4706367 C64.5231579,14.6831336 64.3175789,15.1499827 64.3175789,15.7874732 C64.3175789,17.2062653 65.3302456,18.9373633 66.5767719,19.6467593 C67.1358596,19.9655046 67.6481754,20.0234582 68.0212632,19.8109614 C68.3943509,19.5995378 68.5988421,19.1305422 68.5988421,18.4951981 C68.5988421,17.0764061 67.5861754,15.3442349 66.3396491,14.6348388 C66.0035439,14.4427331 65.6815789,14.3450704 65.3976842,14.3450704 M67.5209123,20.4033768 C67.1532632,20.4033768 66.7518947,20.285323 66.3396491,20.0502887 C64.9658596,19.2668407 63.8444211,17.3543691 63.8444211,15.7874732 C63.8444211,14.9771949 64.1348421,14.3665347 64.6591228,14.0671074 C65.1844912,13.76768 65.8654035,13.8267069 66.5767719,14.2313095 C67.9527368,15.0147574 69.072,16.927229 69.072,18.4951981 C69.072,19.3054765 68.7826667,19.9161366 68.2572982,20.2144908 C68.0364912,20.3400571 67.7874035,20.4033768 67.5209123,20.4033768" id="Fill-146" fill="#1D202B"></path>
                    <path d="M59.0710737,10.7407805 C58.8861614,10.7407805 58.7164772,10.782636 58.5696351,10.8663469 C58.1965474,11.0788437 57.9909684,11.546766 57.9909684,12.1831833 C57.9909684,13.6019754 59.0036351,15.3341466 60.2501614,16.0435426 C60.8081614,16.3612147 61.3226526,16.4202416 61.6946526,16.2066715 C62.0677404,15.9952479 62.2722316,15.5273256 62.2722316,14.8909083 C62.2722316,13.4721162 61.2595649,11.7410182 60.0141263,11.0316222 C59.6769333,10.8384432 59.3549684,10.7407805 59.0710737,10.7407805 M61.193214,16.8001602 C60.8266526,16.8001602 60.4252842,16.6810332 60.0141263,16.447072 C58.6392491,15.663624 57.5188982,13.7500793 57.5188982,12.1831833 C57.5188982,11.372905 57.8082316,10.7622449 58.3325123,10.4628175 C58.8578807,10.1644633 59.538793,10.222417 60.2501614,10.6270196 C61.6261263,11.4115408 62.7453895,13.3240124 62.7453895,14.8909083 C62.7453895,15.7011866 62.4560561,16.3118467 61.9306877,16.6112741 C61.7098807,16.7368404 61.460793,16.8001602 61.193214,16.8001602" id="Fill-148" fill="#1D202B"></path>
                </g>
            </g>
        </g>
    </g>
</svg>