<?xml version="1.0" encoding="UTF-8"?>
<svg width="306px" height="333px" viewBox="0 0 306 333" version="1.1" xmlns="http://www.w3.org/2000/svg" xmlns:xlink="http://www.w3.org/1999/xlink">
    <!-- Generator: Sketch 52.2 (67145) - http://www.bohemiancoding.com/sketch -->
    <title>ideation</title>
    <desc>Created with Sketch.</desc>
    <g id="App" stroke="none" stroke-width="1" fill="none" fill-rule="evenodd">
        <g id="Our-Services" transform="translate(-562.000000, -380.000000)">
            <g id="ideation" transform="translate(562.000000, 380.000000)">
                <g id="flash" transform="translate(16.017694, 0.867746)" fill="#FFFFFF">
                    <path d="M118.440966,2.56812257 C118.440966,3.42563276 118.93681,3.77373779 119.55052,3.34429337 C120.162874,2.91553827 120.659396,1.87191252 120.659396,1.01509164 C120.659396,0.156892131 120.162874,-0.191212892 119.55052,0.237542205 C118.93681,0.66698662 118.440966,1.70992306 118.440966,2.56812257" id="Fill-1"></path>
                    <path d="M7.34405777,120.113577 C7.34405777,120.971088 7.84057964,121.319882 8.45293404,120.891816 C9.06596583,120.462372 9.56181032,119.418746 9.56181032,118.561236 C9.56181032,117.702347 9.06596583,117.354931 8.45293404,117.784376 C7.84057964,118.212441 7.34405777,119.257446 7.34405777,120.113577" id="Fill-5"></path>
                    <path d="M3.0695827,66.5418749 C3.0695827,68.7624794 4.63574383,69.6632523 6.57006969,68.5525432 C8.50342158,67.4410204 10.0695827,64.737888 10.0695827,62.5164698 C10.0695827,60.2958653 8.50342158,59.393465 6.57006969,60.5025467 C4.63574383,61.6148832 3.0695827,64.3188293 3.0695827,66.5418749" id="Fill-7"></path>
                    <path d="M28.434243,80.6347454 C28.434243,81.4929449 28.9314423,81.8403606 29.5437967,81.4122948 C30.1561511,80.9828504 30.6526729,79.9392246 30.6526729,79.0817145 C30.6526729,78.2235149 30.1561511,77.8767886 29.5437967,78.3048543 C28.9314423,78.7329201 28.434243,79.7779245 28.434243,80.6347454" id="Fill-10"></path>
                    <path d="M140.797134,40.0185406 C140.797134,42.6248477 142.307021,43.6815705 144.170502,42.3794509 C146.032628,41.0738847 147.541838,37.9009592 147.541838,35.294652 C147.541838,32.6876556 146.032628,31.6295542 144.170502,32.9316738 C142.307021,34.2372399 140.797134,37.4101655 140.797134,40.0185406" id="Fill-12"></path>
                    <polygon id="Fill-14" points="17.3482662 34.8331511 16.2048434 35.5031671 16.2048434 45.1122444 17.3482662 44.441539"></polygon>
                    <polygon id="Fill-16" points="12.7064979 41.7767778 12.7064979 42.9410341 20.8459342 38.168204 20.8459342 37.0039478"></polygon>
                    <polygon id="Fill-18" points="4.64183602 102.18734 3.4984132 102.857356 3.4984132 112.466434 4.64183602 111.795728"></polygon>
                    <polygon id="Fill-20" points="0 109.130623 0 110.294879 8.13943635 105.522738 8.13943635 104.358482"></polygon>
                    <polygon id="Fill-22" points="142.96397 13.6805018 142.283877 14.0789269 142.283877 19.7947425 142.96397 19.3963173"></polygon>
                    <polygon id="Fill-24" points="140.20282 17.8106817 140.20282 18.5034452 145.044078 15.6641489 145.044078 14.9720748"></polygon>
                </g>
                <g id="flow" transform="translate(0.000000, 119.000000)" stroke-dasharray="2,5" stroke-linecap="round" stroke-linejoin="round" stroke-width="2">
                    <path d="M1,46.0613672 L1,17.472973" id="Path-10-Copy" stroke="#FFFFFF"></path>
                    <path d="M218,-3.19744231e-14 L285.434898,40.4020384 L253.510742,59.6973878" id="Path-9" stroke="#EF4B46"></path>
                </g>
            </g>
        </g>
    </g>
</svg>