<?xml version="1.0" encoding="UTF-8"?>
<svg width="344px" height="371px" viewBox="0 0 344 371" version="1.1" xmlns="http://www.w3.org/2000/svg" xmlns:xlink="http://www.w3.org/1999/xlink">
    <!-- Generator: Sketch 52.2 (67145) - http://www.bohemiancoding.com/sketch -->
    <title>research</title>
    <desc>Created with Sketch.</desc>
    <defs>
        <linearGradient x1="41.3040931%" y1="79.5300561%" x2="6.19035339%" y2="19.8497075%" id="linearGradient-1">
            <stop stop-color="#FFFFFF" stop-opacity="0" offset="0%"></stop>
            <stop stop-color="#FFFFFF" stop-opacity="0.671563632" offset="100%"></stop>
        </linearGradient>
        <linearGradient x1="55.0477213%" y1="65.6081649%" x2="56.0569818%" y2="87.6965151%" id="linearGradient-2">
            <stop stop-color="#2096F3" stop-opacity="0" offset="0%"></stop>
            <stop stop-color="#2096F3" stop-opacity="0.0705279226" offset="100%"></stop>
        </linearGradient>
        <polygon id="path-3" points="9 100.126877 166.6486 6.95975399 166.6486 108.611406 9 201.778529"></polygon>
        <polygon id="path-4" points="100.030375 106.101412 160.430899 70.3151411 160.430899 94.7115375 100.030375 130.497809"></polygon>
        <mask id="mask-5" maskContentUnits="userSpaceOnUse" maskUnits="objectBoundingBox" x="0" y="0" width="60.4005239" height="60.1826676" fill="white">
            <use xlink:href="#path-4"></use>
        </mask>
    </defs>
    <g id="App" stroke="none" stroke-width="1" fill="none" fill-rule="evenodd">
        <g id="Our-Services" transform="translate(-810.000000, -92.000000)">
            <g id="research" transform="translate(810.000000, 91.000000)">
                <g id="floor" transform="translate(0.000000, 141.000000)">
                    <path d="M296.075636,103.102855 C296.049408,103.115748 155.421052,183.468468 155.387612,183.487807 C154.044079,184.254913 152.463182,184.51921 150.981952,184.899539 C150.942609,184.912432 150.876384,184.918878 150.791798,184.925324 C150.109868,184.983341 148.162434,184.918878 147.329037,184.680366 C146.746118,184.512763 145.794695,184.042186 145.192105,184.042186 C145.171778,184.042186 145.15932,184.03574 145.14555,184.029293 C145.119978,184.022847 145.100307,184.016401 145.067522,183.997062 C144.693772,183.842352 144.319366,183.674749 143.979057,183.481361 L142.70634,182.759379 L141.585745,182.121198 C141.558862,182.108306 141.539191,182.095413 141.513618,182.082521 C140.470397,181.489464 139.427831,180.896407 138.385921,180.303351 C134.989386,178.375917 131.592195,176.448483 128.196316,174.521049 C123.521162,171.865187 118.839452,169.209325 114.157085,166.553463 C108.58362,163.388346 103.004254,160.223229 97.4307893,157.058111 C91.3452213,153.602912 85.2609647,150.154159 79.1694954,146.69896 C72.9593441,143.172852 66.7505042,139.646744 60.5410086,136.120636 C54.5937936,132.749238 48.645923,129.371394 42.6921511,125.99355 C37.3947366,122.989589 32.0966664,119.979183 26.7985963,116.968776 C22.5293221,114.551426 18.2672607,112.134075 14.0051993,109.710279 C11.1594537,108.098712 8.32026513,106.487145 5.47451952,104.869132 C4.44572346,104.282522 3.40971469,103.695912 2.37370592,103.109301 C0.786907675,102.200378 6.55701751e-05,101.020711 6.55701751e-05,99.8345976 L0.0387519737,86.2007426 C1.34425417,85.0339682 2.83269715,84.1057057 4.52375197,83.5706655 L144.044627,162.763058 C144.378379,162.956446 144.746228,163.124049 145.126535,163.278759 C145.165221,163.291652 145.211776,163.310991 145.250462,163.323883 C145.525857,163.427023 145.820923,163.523717 146.110087,163.607519 C146.201886,163.633304 146.300241,163.652643 146.392039,163.684874 C146.561866,163.729998 146.71989,163.768676 146.889717,163.800907 C147.001186,163.826692 147.119868,163.846031 147.22478,163.871816 C147.362478,163.897601 147.513289,163.923386 147.656888,163.942725 C147.768357,163.955617 147.887039,163.981402 148.01818,163.994295 C148.148664,164.007187 148.286362,164.026526 148.424059,164.039419 C148.549298,164.045865 148.666669,164.058758 148.791908,164.065204 C148.923048,164.084543 149.067302,164.090989 149.205,164.090989 C149.277127,164.097435 149.348598,164.097435 149.43384,164.097435 C149.480395,164.097435 149.526294,164.103881 149.57875,164.103881 C149.723004,164.103881 149.860702,164.103881 150.01807,164.097435 C150.103311,164.097435 150.24691,164.097435 150.365592,164.090989 C150.463947,164.084543 150.574761,164.084543 150.673772,164.07165 C150.752456,164.065204 150.83114,164.058758 150.902612,164.052311 L151.198333,164.032973 C151.505857,164.000741 151.814693,163.955617 152.109103,163.904047 C152.214015,163.891155 152.313026,163.858923 152.417938,163.839585 C152.562193,163.820246 152.719561,163.788014 152.863816,163.749337 C152.968728,163.723552 153.07364,163.697767 153.177897,163.665535 C153.322807,163.626858 153.460504,163.594626 153.598202,163.543056 C153.676886,163.523717 153.75557,163.497932 153.827041,163.472147 C154.037522,163.394792 154.247346,163.323883 154.456515,163.233635 C154.535855,163.20785 154.614539,163.175619 154.693223,163.136941 C154.955504,163.020909 155.211228,162.898429 155.44728,162.763058 L293.695438,83.7833924 C294.895373,85.1564473 296.298574,86.284544 297.990285,87.0580961 L297.71489,99.8861678 C297.71489,100.626731 297.71489,101.097953 297.71489,101.299834 C297.71489,101.790689 297.168472,102.391696 296.075636,103.102855 Z" id="Fill-29" fill="#C7D4E5"></path>
                    <path d="M150.837632,184.093627 C150.811404,184.325693 150.804846,184.615775 150.791732,184.925196 C150.109803,184.983212 148.162368,184.918749 147.328971,184.680237 C146.746053,184.512634 145.795285,184.042057 145.192039,184.042057 C145.171713,184.042057 145.159254,184.035611 145.145485,184.029164 C145.119912,184.022718 145.100241,184.016272 145.067456,183.996933 C144.693706,183.842223 144.319956,183.67462 143.978991,183.481232 L142.70693,182.75925 C142.680702,182.739911 142.654474,182.720572 142.62759,182.70768 C142.280724,182.514292 141.933202,182.314457 141.58568,182.121069 C141.559452,182.108177 141.539125,182.095284 141.513553,182.082392 C140.470331,181.489335 139.428421,180.896279 138.385855,180.303222 C134.98932,178.375788 131.592129,176.448354 128.19625,174.52092 C123.521096,171.865058 118.839386,169.209196 114.157675,166.553334 C108.584211,163.388217 103.004189,160.2231 97.4307237,157.057983 C91.3458114,153.602783 85.2608991,150.15403 79.1694298,146.698831 C72.9599342,143.172723 66.7504386,139.646615 60.540943,136.120507 C54.5937281,132.749109 48.6458575,129.371265 42.6920855,125.993421 C37.3946711,122.98946 32.0966009,119.979054 26.7985307,116.968647 C22.5292566,114.551297 18.2671952,112.133947 14.0051338,109.71015 C11.1600439,108.098583 8.32019956,106.487016 5.47510965,104.869003 C4.44565789,104.282393 3.40964912,103.695783 2.37364035,103.109172 C0.786842105,102.200249 0,101.020582 0,99.8344687 L0.0393421053,86.2006136 C1.3441886,85.0338393 2.83263158,84.1055768 4.5236864,83.5705366 L144.044561,162.762929 C144.378314,162.956317 144.746162,163.12392 145.126469,163.27863 C145.165811,163.291523 145.211711,163.310862 145.250397,163.323754 C145.525792,163.426894 145.821513,163.523588 146.110022,163.60739 C146.20182,163.633175 146.300175,163.652514 146.391974,163.684745 C146.5618,163.729869 146.719825,163.768547 146.889651,163.800778 C147.001121,163.826563 147.119803,163.845902 147.224715,163.871687 C147.362412,163.897472 147.513224,163.923257 147.656822,163.942596 C147.768292,163.955488 147.886974,163.981273 148.018114,163.994166 C148.148599,164.007059 148.286296,164.026397 148.423993,164.03929 C148.549232,164.045736 148.666603,164.058629 148.791842,164.065075 C148.922982,164.084414 149.067237,164.09086 149.204934,164.09086 C149.277061,164.097306 149.348533,164.097306 149.433774,164.097306 C149.480329,164.097306 149.526228,164.103753 149.578684,164.103753 C149.722939,164.103753 149.860636,164.24557 150.018004,164.239124 C150.103246,164.239124 150.2475,164.374496 150.365526,164.374496 L150.450768,164.374496 C150.549123,164.374496 150.837632,164.084414 150.837632,164.071521 L150.837632,182.681895 C150.837632,183.146026 150.882875,183.635942 150.837632,184.093627" id="Fill-31" fill="#9EBBD3"></path>
                    <path d="M296.094127,82.3178335 C299.256576,84.1131189 299.273624,87.0236086 296.136091,88.8163155 L155.45069,169.192887 C152.313813,170.984949 147.201962,170.984949 144.038857,169.190309 L2.43744013,88.8176047 C-0.72500943,87.0223193 -0.73615636,84.1144082 2.40072083,82.3217013 L143.086122,1.94512965 C146.223655,0.153067373 151.33026,0.149844239 154.49271,1.94512965 L296.094127,82.3178335 Z" id="Fill-33" fill="#FFFFFF"></path>
                </g>
                <g id="charts" transform="translate(227.500000, 101.807808) scale(-1, 1) translate(-227.500000, -101.807808) translate(144.000000, 0.807808)">
                    <polygon id="Rectangle-Copy-2" fill="url(#linearGradient-1)" points="0 94.536036 159.6486 0.345089022 159.6486 101.996741 0 196.187688"></polygon>
                    <g id="Rectangle">
                        <use fill="#FFFFFF" xlink:href="#path-3"></use>
                        <use fill="url(#linearGradient-2)" xlink:href="#path-3"></use>
                    </g>
                    <polygon id="Rectangle-Copy" fill="#2096F3" points="9 99.6186186 166.6486 6.95975399 166.6486 22.2075017 9 114.866366"></polygon>
                    <path d="M17.6356639,104.95798 C18.6167901,104.376679 19.4121499,102.995222 19.4121499,101.872409 C19.4121499,100.749596 18.6167901,100.310613 17.6356639,100.891913 C16.6545378,101.473214 15.8591779,102.854671 15.8591779,103.977484 C15.8591779,105.100297 16.6545378,105.53928 17.6356639,104.95798 Z" id="Oval" fill="#FFFFFF"></path>
                    <path d="M24.6356639,99.875397 C25.6167901,99.2940966 26.4121499,97.9126397 26.4121499,96.7898266 C26.4121499,95.6670134 25.6167901,95.2280306 24.6356639,95.8093309 C23.6545378,96.3906313 22.8591779,97.7720882 22.8591779,98.8949013 C22.8591779,100.017714 23.6545378,100.456697 24.6356639,99.875397 Z" id="Oval-Copy" fill="#FFFFFF"></path>
                    <path d="M31.6356639,95.8093309 C32.6167901,95.2280306 33.4121499,93.8465736 33.4121499,92.7237605 C33.4121499,91.6009474 32.6167901,91.1619645 31.6356639,91.7432648 C30.6545378,92.3245652 29.8591779,93.7060221 29.8591779,94.8288353 C29.8591779,95.9516484 30.6545378,96.3906313 31.6356639,95.8093309 Z" id="Oval-Copy-2" fill="#FFFFFF"></path>
                    <path d="M114.686384,46.8208038 C115.912792,46.0941783 116.906992,44.3673572 116.906992,42.9638408 C116.906992,41.5603243 115.912792,41.0115958 114.686384,41.7382212 C113.459977,42.4648466 112.465777,44.1916678 112.465777,45.5951842 C112.465777,46.9987007 113.459977,47.5474292 114.686384,46.8208038 Z" id="Oval-2" stroke="#FFFFFF" stroke-width="0.5"></path>
                    <path d="M116.018749,45.3812908 L117.795235,46.3617865" id="Line" stroke="#FFFFFF" stroke-width="0.6" stroke-linecap="square"></path>
                    <path d="M126.677665,43.2853043 C128.639917,42.1227036 130.230637,39.3597897 130.230637,37.1141634 C130.230637,34.8685372 128.639917,33.9905714 126.677665,35.1531721 C124.715413,36.3157728 123.124693,39.0786867 123.124693,41.324313 C123.124693,43.5699393 124.715413,44.447905 126.677665,43.2853043 Z" id="Oval-Copy-3" fill="#FFFFFF"></path>
                    <polygon id="Rectangle-2" fill="#FFFFFF" points="134.671852 32.3689868 162.207385 16.0546573 162.207385 20.1207233 134.671852 36.4350528"></polygon>
                    <path d="M105,92.6080711 C109.839502,81.8890257 113.107559,74.9085417 114.804171,71.6666193 C119.75447,62.2902058 123.485747,59.3420275 125.998002,62.8220842 C129.178897,67.9531129 130.798487,70.8303016 130.85677,71.4536501 C132.551062,74.390059 134.778669,72.4003818 137.539592,65.4846184 L140.903218,56.9265575 C143.245531,52.404007 145.207447,51.3166943 146.788968,53.6646195 C148.471971,54.8980486 149.313472,55.7284286 149.313472,56.1557593 C151.919635,57.7480703 154.466021,55.5013653 156.952627,49.4156442 C158.961637,41.651218 160.191621,35.6715768 160.642578,31.4767205" id="Path-23" stroke="#EF4B46" stroke-linecap="round"></path>
                    <path d="M106.018189,95.7234603 C110.857691,85.0044148 115.521651,86.6239649 117.218263,83.3820425 C122.168561,74.005629 125.396987,69.1574909 127.909242,72.6375477 C131.090137,77.7685764 134.144703,58.6504896 139.109316,55.0644863 C141.485089,54.0321761 143.691165,55.2760549 145.727542,58.7961225 C151.327579,62.8956469 155.484209,58.6167545 157.970815,52.5310334" id="Path-23-Copy" stroke="#2096F3" opacity="0.4" stroke-linecap="round"></path>
                    <use id="Rectangle-3-Copy" stroke="#2096F3" mask="url(#mask-5)" stroke-width="2" opacity="0.4" stroke-linecap="round" stroke-linejoin="round" stroke-dasharray="2,5" xlink:href="#path-4"></use>
                    <polygon id="Rectangle-4" fill="#CCCCCC" opacity="0.4" points="17.2070313 120.416787 91.1479448 77.0566703 91.1479448 79.0897033 17.2070313 122.44982"></polygon>
                    <polygon id="Rectangle-4-Copy" fill="#CCCCCC" opacity="0.4" points="17.2070313 124.482853 91.1479448 81.1227363 91.1479448 83.1557694 17.2070313 126.515886"></polygon>
                    <polygon id="Rectangle-4-Copy-2" fill="#CCCCCC" opacity="0.4" points="17.2070313 128.548919 91.1479448 85.1888024 91.1479448 87.2218354 17.2070313 130.581952"></polygon>
                    <polygon id="Rectangle-4-Copy-3" fill="#CCCCCC" opacity="0.4" points="17.2070313 132.614985 91.1479448 89.2548684 91.1479448 91.2879015 17.2070313 134.648018"></polygon>
                    <polygon id="Rectangle-4-Copy-4" fill="#CCCCCC" opacity="0.4" points="17.2070313 136.681051 91.1479448 93.3209345 91.1479448 95.3539675 17.2070313 138.714084"></polygon>
                    <polygon id="Rectangle-14" fill="#2096F3" opacity="0.4" points="58 159.665135 61.552972 157.56006 61.552972 162.642643 58 164.747717"></polygon>
                    <polygon id="Rectangle-14-Copy" fill="#2096F3" opacity="0.4" points="51 158.648618 54.552972 156.543544 54.552972 165.692192 51 167.797267"></polygon>
                    <polygon id="Rectangle-14-Copy-2" fill="#2096F3" opacity="0.4" points="42 159.665135 45.552972 157.56006 45.552972 170.774775 42 172.87985"></polygon>
                    <polygon id="Rectangle-14-Copy-8" fill="#2096F3" opacity="0.4" points="34 154.582552 37.552972 152.477477 37.552972 175.857357 34 177.962432"></polygon>
                    <polygon id="Rectangle-14-Copy-4" fill="#2096F3" opacity="0.4" points="26 165.764234 29.552972 163.659159 29.552972 180.93994 26 183.045015"></polygon>
                    <polygon id="Rectangle-14-Copy-5" fill="#2096F3" opacity="0.4" points="19 161.698168 22.552972 159.593093 22.552972 185.006006 19 187.111081"></polygon>
                    <path d="M45.552972,155.527027 C50.0431465,143.729381 57.1313979,135.158481 66.8177262,129.814327 C76.5040545,124.470173 84.7209851,115.380616 91.4685179,102.545657" id="Path-2" stroke="#2096F3" opacity="0.4" stroke-linecap="round" stroke-dasharray="2,5"></path>
                </g>
                <path d="M147.281575,228.507467 C138.632032,223.579257 124.605891,223.579257 115.95526,228.507467 C107.304628,233.435677 107.304628,241.425772 115.95526,246.352909 C124.605891,251.281118 138.632032,251.281118 147.281575,246.352909 C155.932207,241.425772 155.932207,233.435677 147.281575,228.507467" id="shadow" fill="#F4F4F4" style="mix-blend-mode: multiply;"></path>
                <g id="standingLady" transform="translate(134.000000, 161.000000) scale(-1, 1) translate(-134.000000, -161.000000) translate(108.000000, 78.000000)">
                    <path d="M42.3622105,53.3831483 C43.24,56.1488269 43.4814737,59.0754879 43.1094737,61.9356095 C42.9419649,63.3436694 42.6189123,64.7399239 42.1468421,66.0760783 L36.6571228,81.4906851 C35.958807,83.4664764 37.0095439,85.6504718 39.0283509,86.3416231 C39.3448772,86.4446519 39.6635789,86.5176306 39.9714035,86.5433878 C41.6954386,86.6893452 43.3476842,85.6805218 43.9426667,84.0020114 L49.4312982,68.6024297 C50.2318596,66.3454556 50.7311228,63.9854528 50.9214737,61.5996928 C51.1966667,58.074177 50.8094386,54.492854 49.7369474,51.1132956 L44.4669474,34.4548311 C43.8186667,32.4575754 41.6530175,31.3264053 39.6276842,31.9660423 C37.5892982,32.589581 36.4591579,34.7285012 37.0911228,36.7397087 L42.3622105,53.3831483 Z" id="Fill-162" fill="#EDF4FB"></path>
                    <path d="M39.027807,86.3416231 C39.3443333,86.4446519 39.6630351,86.5176306 39.9708596,86.5433878 C41.6948947,86.6893452 43.3482281,85.6805218 43.9432105,84.0020114 L49.4307544,68.6024297 C50.2324035,66.3454556 50.7316667,63.9854528 50.9220175,61.5996928 C48.3528246,62.0869331 45.7074912,62.200694 43.1100175,61.9356095 C42.9425088,63.3436694 42.6194561,64.7399239 42.1462982,66.0760783 L36.6565789,81.4906851 C35.9593509,83.4664764 37.0100877,85.6504718 39.027807,86.3416231" id="Fill-164" fill="#FFC2B0"></path>
                    <path d="M42.9835158,119.852912 L46.1063579,82.7893842 L45.3003579,73.9181777 L26.1423579,76.6838563 L15.0541474,71.9477524 L14.8724982,118.838722 C14.8724982,118.838722 20.2447439,153.190232 20.2926035,153.539027 C20.3230596,153.762256 20.8636561,156.536521 20.7092,158.298742 C23.4372,158.43504 25.1906035,157.61403 27.2322526,156.141577 C27.1822175,155.329152 27.0810596,154.694881 26.9179018,154.416918 C26.9113754,154.469506 26.9004982,154.49419 26.8950596,154.371843 L26.8091298,121.672013 L29.7579368,89.5731849 L30.6161474,104.538114 L31.6614456,119.776713 L38.0115509,156.585889 C40.0466737,156.566571 41.4150246,156.519349 43.4479719,156.41954 C43.5284632,156.378758 43.6100421,156.339049 43.6905333,156.297193 C43.6394105,156.123332 43.579586,155.951618 43.5023579,155.785269 L42.9835158,119.852912 Z" id="Fill-166" fill="#FFC2B0"></path>
                    <path d="M21.1112211,162.17359 C18.4789404,164.009863 18.7345544,165.729155 14.7872211,164.7697 C13.5265544,164.463833 12.2560982,164.012009 11.369607,163.155583 C10.4831158,162.298083 10.0828351,160.947977 10.722414,159.929494 C11.2858526,159.032285 12.4649404,158.610511 13.5809404,158.362598 C15.4278877,157.953703 17.3575018,157.844235 19.2468702,158.03956 C20.1572912,158.134003 21.1068702,158.318596 21.7921333,158.86379 C23.1952912,159.979935 22.2913965,161.350433 21.1112211,162.17359" id="Fill-168" fill="#1D202B"></path>
                    <path d="M42.6892877,159.522531 L38.2220246,159.522531 C37.6129018,159.522531 37.1201649,159.03529 37.1201649,158.435362 L37.1201649,152.964105 C37.1201649,152.363104 37.6129018,151.875864 38.2220246,151.875864 L42.6892877,151.875864 C43.2984105,151.875864 43.7911474,152.363104 43.7911474,152.964105 L43.7911474,158.435362 C43.7911474,159.03529 43.2984105,159.522531 42.6892877,159.522531" id="Fill-170" fill="#414964"></path>
                    <path d="M20.0231491,161.713531 C22.2236052,160.71866 22.7860602,160.254508 24.166376,158.288376 C24.332797,158.051195 25.099824,157.094878 24.9344907,156.856624 C24.2002801,156.155814 24.5366572,156.295396 23.8013589,155.592439 C21.5932888,153.483569 19.8059807,155.97574 17.558545,157.091621 C14.9785171,158.372639 15.0122433,159.820324 14.9993263,161.070987 C14.9993263,161.897806 19.6555,161.87988 20.0231491,161.713531 Z" id="Fill-172" fill="#FFC2B0"></path>
                    <path d="M26.1796667,165.537372 C25.6140526,165.537372 25.1561228,165.085548 25.1561228,164.527475 L25.1561228,159.293399 C25.1561228,158.735326 25.6140526,158.283502 26.1796667,158.283502 L27.1999474,158.283502 C27.7655614,158.283502 28.2224035,158.735326 28.2224035,159.293399 L28.2224035,164.527475 C28.2224035,165.085548 27.7655614,165.537372 27.1999474,165.537372 L26.1796667,165.537372 Z" id="Fill-174" fill="#1D202B"></path>
                    <path d="M27.8967404,155.333982 C27.0037228,154.987333 25.9399333,155.051726 24.6999333,155.791172 C23.1531965,156.713065 22.0067404,158.217714 20.6568807,159.376788 C18.795793,160.973734 16.9205649,161.86665 14.6439684,160.839582 C13.8945298,161.288186 13.3702491,161.805476 13.3930912,162.402185 C13.4257228,163.27149 15.0040035,164.386562 15.7001439,164.858777 C17.8886351,166.343035 21.4041439,163.959422 23.1836526,163.067579 C24.5846351,162.363549 26.0704596,162.494481 27.4061789,161.907432 C29.2020035,161.118618 29.7730561,157.000687 27.8967404,155.333982" id="Fill-176" fill="#1D202B"></path>
                    <path d="M40.8516947,161.35934 L40.0598351,161.35934 C39.4539754,161.35934 38.9623263,160.874247 38.9623263,160.275392 L38.9623263,155.375086 C38.9623263,154.777304 39.4539754,154.292211 40.0598351,154.292211 L40.8516947,154.292211 C41.4586421,154.292211 41.9492035,154.777304 41.9492035,155.375086 L41.9492035,160.275392 C41.9492035,160.874247 41.4586421,161.35934 40.8516947,161.35934" id="Fill-178" fill="#1D202B"></path>
                    <path d="M40.8251544,157.431154 L39.6232246,157.431154 C37.8611193,157.431154 36.4329439,156.022021 36.4329439,154.28341 L36.4329439,153.269221 C36.4329439,151.608955 37.7969439,150.263142 39.4785579,150.263142 L40.9698211,150.263142 C42.6525228,150.263142 44.0154351,151.608955 44.0154351,153.269221 L44.0154351,154.28341 C44.0154351,156.022021 42.5872596,157.431154 40.8251544,157.431154" id="Fill-180" fill="#1D202B"></path>
                    <path d="M18.5300632,64.2075013 L16.2948,67.6621848 C14.5381333,70.3784954 13.6222737,73.5401909 13.6614316,76.75984 L14.2618526,123.74418 C14.2618526,123.74418 33.5460281,134.250968 44.5635368,122.331827 L45.7078175,88.703665 C45.7078175,88.703665 49.6616772,69.7581764 41.7670105,65.3440374 L18.5300632,64.2075013 Z" id="Fill-182" fill="#EF4B46"></path>
                    <path d="M26.4160281,20.8187585 C26.4301684,20.8187585 26.4432211,20.8337835 26.4573614,20.8488085 C26.4725895,20.7887084 26.4725895,20.71251 26.4725895,20.6513367 C26.4725895,20.71251 26.4573614,20.7736834 26.4160281,20.8187585" id="Fill-184" fill="#8E515A"></path>
                    <polygon id="Fill-186" fill="#FFC2B0" points="36.7270632 31.5147548 28.2896246 31.5147548 27.2486772 25.3877625 26.4687825 20.767566 34.9062211 20.767566"></polygon>
                    <polygon id="Fill-188" fill="#FFC2B0" points="32.744814 25.2363317 28.556007 31.5146475 28.2895158 31.5146475 27.2485684 25.3876552"></polygon>
                    <path d="M20.8839965,14.3485516 C20.273786,14.3485516 19.6385579,14.5009483 19.0424877,14.7950096 C17.3619614,15.6224594 16.5189789,17.3310199 17.1629088,18.6027813 C17.8068386,19.8734695 19.6972947,20.232997 21.3778211,19.4044739 C23.0583474,18.5759509 23.9002421,16.8684636 23.2574,15.5977754 C22.9506632,14.9924814 22.3524175,14.5728538 21.5703474,14.415091 C21.3484526,14.3710891 21.1178561,14.3485516 20.8839965,14.3485516 M19.5384877,20.382174 C18.2908737,20.382174 17.1824877,19.8359069 16.6788737,18.8410353 C15.9011544,17.3063359 16.8529088,15.2768837 18.7999263,14.3163551 C19.7321018,13.8570185 20.7556456,13.705695 21.6780316,13.8924346 C22.6276105,14.0834671 23.3585579,14.6039771 23.7414351,15.3584482 C24.5191544,16.8931476 23.5674,18.9225998 21.6203825,19.8831284 C20.9340316,20.2211916 20.2161368,20.382174 19.5384877,20.382174" id="Fill-190" fill="#1D202B"></path>
                    <path d="M43.7664561,16.8643854 C43.7457895,14.164173 43.1877895,11.5079625 42.709193,8.78413932 C41.3897895,6.52501885 39.5112982,4.64259733 37.1346316,3.33005371 C33.2210175,3.17014447 29.1246667,3.08536037 25.6450526,4.84436201 C22.9681754,6.19768786 21.2887368,10.9971115 20.8112281,13.7660097 C20.6067368,14.9411817 20.5512632,16.1292322 20.6763509,17.3247952 C21.6781404,26.8603227 34.2260702,30.457744 40.7110526,23.42925 C42.0978947,21.9299667 42.7668421,19.8543662 43.5369474,17.5802207 C43.6141754,17.3537721 43.6914035,17.110152 43.7664561,16.8643854" id="Fill-192" fill="#8E515A"></path>
                    <path d="M20.4304175,18.2651474 C20.5196105,20.7228129 20.9470842,23.1472087 22.4046281,24.9502122 C24.0111895,26.9603465 26.6054,27.7577462 29.0658211,27.821066 C30.422207,27.8532625 31.8221018,27.6611568 33.0305579,26.9603465 C35.2995404,25.6198992 36.3611544,22.731874 36.9354702,20.0048312 C37.1410491,18.9670309 37.304207,17.9142057 37.3618561,16.8613804 C37.4064526,15.6647441 37.3324877,14.4530829 37.0083474,13.3036681 C36.3154702,10.8148793 34.5620667,8.75752356 32.4692947,7.46537104 C30.3776105,6.17214531 27.9759263,5.58294952 25.5742421,5.31142578 C24.4092947,5.16761478 23.1573298,5.13649151 22.1109439,5.7256873 C21.4180667,6.10882554 20.8731193,6.84290554 20.7110491,7.64030531 C20.6359965,7.9279273 20.6359965,8.23057432 20.680593,8.51712309 C20.6077158,10.7515596 20.5348386,12.9688246 20.459786,15.2021879 C20.4304175,16.2077916 20.4021368,17.2284204 20.4304175,18.2651474" id="Fill-194" fill="#FFC2B0"></path>
                    <path d="M37.391986,3.2689877 C33.1009333,0.986256468 28.7587579,-0.0515437661 24.096793,1.78580267 C19.6719509,3.52870606 16.6589684,8.26266349 16.9765825,12.9515458 C16.9809333,13.0137924 17.0277053,13.0674532 17.0886175,13.0835514 C19.2999509,13.6255257 21.2926526,13.1275533 23.4300211,12.2475159 C24.8016351,11.6819309 26.0981965,10.9564366 27.3262316,10.13006 L37.3963368,3.35484501 C37.3941614,3.30976992 37.3941614,3.31406278 37.391986,3.2689877" id="Fill-196" fill="#8E515A"></path>
                    <path d="M41.2192351,14.0702666 C41.2605684,15.7358984 40.9244632,17.663395 40.2522526,19.5082539 C39.4332,21.755569 38.0180772,24.1434755 36.0830246,25.6255873 C34.5112702,26.8308093 31.3003228,27.9662722 29.691586,26.2523456 C28.114393,24.5706156 28.9987088,21.5645365 27.4356561,19.8699279 C26.9820772,19.3773215 26.3718667,19.0607227 25.785586,18.7333917 C24.4727088,17.9993117 23.2000772,17.1428851 22.2526737,15.9838114 C19.8564281,13.050711 20.2327789,7.12977628 23.5720772,4.93182915 C26.1532351,3.23292763 29.8852,2.75427312 32.8503228,3.54630681 C33.8575509,3.81568412 34.810393,4.22994564 35.6925333,4.76870026 C35.7425684,4.8041164 35.7915158,4.83094681 35.8535158,4.87280225 C38.9839719,6.85610611 41.134393,10.3805487 41.2192351,14.0702666" id="Fill-198" fill="#8E515A"></path>
                    <path d="M27.0405965,18.8542359 C27.2070175,18.9465325 27.3962807,18.9454593 27.5790175,18.8982378 C27.5975088,18.8520895 27.5877193,18.8027215 27.6138246,18.7587196 L27.0405965,18.8542359 Z" id="Fill-200" fill="#FFC2B0"></path>
                    <path d="M39.9296351,4.15406924 C39.7893193,4.22275509 39.6500912,4.30646596 39.5097754,4.38910363 C39.0681614,4.56189146 38.6276351,4.7411186 38.2143018,4.92785825 C37.9064772,5.07274246 37.6193193,5.23909099 37.3528281,5.43226994 C35.1110386,6.98092117 34.2854596,9.89685006 35.1534596,12.6056482 C35.9453193,15.0858512 38.2219158,17.048764 40.8193895,17.4834166 C41.0576,17.525272 41.2958105,17.5531757 41.5340211,17.5671275 C42.0811439,17.6154222 42.6195649,17.6154222 43.1656,17.5939579 C43.2841614,17.5875186 43.4103368,17.5875186 43.5365123,17.5810793 C44.5383018,14.6715897 44.9233544,11.4648192 44.4338807,8.85261053 C44.397986,8.66694409 44.3555649,8.48020444 44.3142316,8.29990409 C44.2935649,8.21082713 44.2718105,8.12067696 44.2446175,8.03052678 C44.1314947,7.94037661 44.006407,7.85129965 43.8878456,7.76866199 C43.1449333,7.24278596 39.3836,4.59623439 38.5221263,5.03839953 L40.1188982,4.22275509 L39.9296351,4.15406924 Z" id="Fill-202" fill="#4E2B23"></path>
                    <path d="M36.6102421,6.04529113 C38.7378211,2.1366371 45.1597158,1.56353956 47.9638561,5.03217488 C50.7679965,8.49973698 48.774207,14.5516041 44.4385579,15.7289225 C41.2428386,16.5982277 37.5239263,14.7759063 36.3165579,11.7290451 C35.1113649,8.68325698 36.6124175,4.83899593 39.590593,3.40303242 L36.6102421,6.04529113 Z" id="Fill-204" fill="#8E515A"></path>
                    <path d="M18.9348035,52.4168242 C18.7488035,52.4168242 18.4420667,61.1431466 18.3343825,65.2235152 C18.3311193,65.3329833 18.3528737,65.4403049 18.3702772,65.5486998 C18.7977509,68.20813 23.5271544,69.4745253 25.6982421,70.0283049 C29.6042421,71.0253229 33.8474351,70.1892874 37.5369789,68.6642469 C38.749786,68.1630549 39.9299614,67.5577608 41.0731544,66.849438 C41.6398561,66.4942034 41.973786,65.8352486 41.9139614,65.158049 C41.3929439,59.2875555 42.7808737,53.5555068 44.062207,47.8696065 C45.0814,43.3739031 46.5759263,37.5763882 43.7674351,33.4305534 C43.6140667,33.2062511 43.4476456,32.9959007 43.2670842,32.7984289 C41.8530491,31.2519241 39.5992947,30.4620369 37.2378561,30.1593898 C34.8568386,29.842791 32.3550842,30.0273842 30.5146632,30.4094493 C29.4737158,30.6197997 28.3272596,30.889177 27.1601368,31.2250937 C25.0782421,31.8175091 22.2588737,33.2910352 20.6501368,34.3567391 C18.3833298,35.8710474 18.1766632,37.615024 17.0421719,39.8655587 C16.1752596,41.5827049 15.3790491,42.2159026 14.647014,44.1509117 C14.4066281,44.7755236 14.2054,45.4205267 14.1531895,46.0859208 C13.8856105,48.9546282 16.3144877,51.4230259 18.9348035,52.4168242" id="Fill-208" fill="#FFFFFF"></path>
                    <path d="M24.8152316,49.7165045 C24.8282842,45.8454131 24.4312667,41.0395501 22.1068105,40.7980764 C19.2004246,40.4997223 18.7577228,46.4067052 17.5525298,48.4898182 C17.1120035,49.2518018 16.5811965,49.9193424 15.9981789,50.532149 C16.8324596,51.3553059 17.8668807,52.0099679 18.9371965,52.4156437 C18.7511965,52.4156437 18.4444596,61.141966 18.3356877,65.2223347 C18.2976175,66.5252194 19.0840386,67.7100502 20.2870561,68.1243118 C24.5476526,69.593545 23.9961789,67.3902318 24.2115474,63.9258893 C24.4149509,60.6890687 24.6216175,57.4522481 24.6814421,54.2089883 C24.6955825,53.4641761 24.809793,51.7148334 24.8152316,49.7165045" id="Fill-210" fill="#EDF4FB"></path>
                    <path d="M0.0760350877,31.5739964 C-0.0892982456,34.5489521 1.71305263,37.0656445 4.10168421,37.1944305 C6.49031579,37.3232165 8.56133333,35.0168745 8.72557895,32.0419187 C8.89091228,29.0669629 7.0885614,26.5502705 4.69992982,26.4214845 C2.31129825,26.2926986 0.240280702,28.5990406 0.0760350877,31.5739964" id="Fill-212" fill="#FFC2B0"></path>
                    <path d="M7.2311614,32.1273467 C8.02628421,32.1702754 8.70719649,31.568201 8.75070526,30.7826066 L9.2260386,22.238731 C9.26954737,21.4531367 8.65933684,20.7813032 7.86312632,20.7383745 C7.06691579,20.6954459 6.38709123,21.2975203 6.34249474,22.0831147 L5.86824912,30.6269902 C5.82474035,31.4125846 6.43495088,32.0844181 7.2311614,32.1273467" id="Fill-214" fill="#FFC2B0"></path>
                    <path d="M10.7651614,67.1641051 C10.6139684,67.1641051 10.4627754,67.1576658 10.3104947,67.1447872 C7.86421404,66.9419493 5.86824912,65.1325065 5.45491579,62.7456733 L1.28895088,38.6605514 C0.886494737,36.3338183 2.47130175,34.1272854 4.82947719,33.7301954 C7.18656491,33.3331053 9.42400351,34.8967816 9.82645965,37.2235147 L12.1128456,50.4412475 L18.3454772,35.9689247 C19.2798281,33.797808 21.8229158,32.7846917 24.0233719,33.7076578 C26.2260035,34.6306239 27.2517228,37.1387306 26.3162842,39.3109205 L15.7751965,63.7877664 C14.9670211,65.8300971 12.9699684,67.1641051 10.7651614,67.1641051" id="Fill-216" fill="#FFFFFF"></path>
                    <polygon id="Fill-218" fill="#1D202B" points="26.4138526 20.5588255 22.5187298 19.1217887 17.197607 16.0963918 17.4673614 15.6338355 22.7493263 18.6399146 26.6031158 20.0587066"></polygon>
                    <path d="M29.4380386,19.5484996 C29.4815474,20.3727297 29.0801789,21.1540313 28.6255123,21.8462558 C28.3372667,22.2841281 28.0153018,22.7134146 27.5889158,23.0203545 C27.1603544,23.3272944 26.607793,23.5000822 26.0943895,23.3766624 C24.4910912,22.9913777 24.6422842,20.6657178 25.1393719,19.5248888 C25.5178982,18.6534371 26.3271614,17.9322357 27.2810912,17.8163283 C28.3786,17.6821763 29.3793018,18.4409403 29.4380386,19.5484996" id="Fill-220" fill="#FFC2B0"></path>
                    <path d="M37.0977579,32.7389727 C35.7772667,34.6471514 31.3676526,33.9635126 27.1592667,31.2257376 C28.3274772,30.8898209 29.4739333,30.6193704 30.513793,30.40902 C32.3553018,30.0280282 34.8559684,29.8434349 37.2380737,30.1589606 C37.5839684,31.17315 37.5578632,32.0746518 37.0977579,32.7389727" id="Fill-222" fill="#FFC2B0"></path>
                </g>
            </g>
        </g>
    </g>
</svg>