<?xml version="1.0" encoding="UTF-8"?>
<svg width="299px" height="302px" viewBox="0 0 299 302" version="1.1" xmlns="http://www.w3.org/2000/svg" xmlns:xlink="http://www.w3.org/1999/xlink">
    <!-- Generator: Sketch 52.2 (67145) - http://www.bohemiancoding.com/sketch -->
    <title>poc</title>
    <desc>Created with Sketch.</desc>
    <g id="App" stroke="none" stroke-width="1" fill="none" fill-rule="evenodd">
        <g id="Our-Services" transform="translate(-1019.000000, -404.000000)">
            <g id="poc" transform="translate(1019.000000, 404.000000)">
                <g id="flow" transform="translate(7.000000, 110.000000)" stroke-dasharray="2,5" stroke-linecap="round" stroke-linejoin="round" stroke-width="2">
                    <path d="M40,0.472972973 L0,25.4238329 L40,49.2657658" id="Path-6" stroke="#00A1DE"></path>
                    <path d="M225,51.4309309 L290,10.7702703" id="Path-8" stroke="#EF4B46"></path>
                </g>
                <g id="flash" transform="translate(75.000000, 36.316817)" fill="#FFFFFF">
                    <path d="M12.5583909,5.79134263 C12.5583909,4.20487495 14.8777077,4.21942578 14.9603008,5.79134263 C14.8777077,7.36325949 12.5583909,7.37609845 12.5583909,5.79134263 M13.7595555,2.97447447 C12.2561083,2.97447447 11.0063102,4.26222232 11.0000213,5.79134263 C10.9941518,7.28879351 12.2003474,8.53545668 13.6513878,8.60179131 C15.1711859,8.67197763 16.3123971,7.48565759 16.4960306,6.02843546 C16.5128008,5.95568134 16.5237015,5.87864757 16.5186704,5.79134263 C16.5237015,5.70489363 16.5128008,5.62871579 16.4964499,5.55724557 C16.3199437,4.13597253 15.2386859,2.97447447 13.7595555,2.97447447" id="Fill-47"></path>
                    <path d="M145.406697,2.83997167 C145.406697,1.40793067 147.500252,1.42145142 147.574805,2.83997167 C147.500252,4.25887823 145.406697,4.27046745 145.406697,2.83997167 M146.490562,0.297297297 C145.133839,0.297297297 144.005696,1.45969584 144.000019,2.83997167 C143.994721,4.19166077 145.083506,5.31697381 146.393302,5.37723774 C147.765163,5.44020583 148.795289,4.36936211 148.961047,3.05398589 C148.976185,2.98831366 148.985646,2.91916466 148.981483,2.83997167 C148.985646,2.76193761 148.976564,2.69356122 148.961426,2.6286616 C148.802101,1.3457352 147.826092,0.297297297 146.490562,0.297297297" id="Fill-51"></path>
                    <path d="M154.54857,21.1357468 C154.440402,21.2461619 154.332235,21.356149 154.224905,21.4661361 C153.936458,21.7605763 153.913818,22.3010966 154.224905,22.5912571 C154.536412,22.8822735 155.017297,22.9062396 155.326287,22.5912571 C155.434036,22.480842 155.542204,22.3708549 155.650371,22.2604398 C155.938399,21.9664276 155.961039,21.4259073 155.650371,21.1357468 C155.338446,20.8447304 154.857141,20.8207643 154.54857,21.1357468" id="Fill-63"></path>
                    <path d="M151.54857,24.18546 C151.440822,24.2958751 151.332654,24.4058622 151.224905,24.5158493 C150.936458,24.8102894 150.913818,25.3508097 151.224905,25.6405423 C151.536831,25.9319867 152.017716,25.9559528 152.326707,25.6405423 C152.434455,25.5305552 152.542623,25.4205681 152.650371,25.310153 C152.938399,25.0161408 152.961458,24.4756205 152.650371,24.18546 C152.338865,23.8944435 151.857561,23.8700495 151.54857,24.18546" id="Fill-65"></path>
                    <path d="M155.324827,24.1873788 C155.036799,23.8933666 154.50728,23.8698285 154.223026,24.1873788 C153.937513,24.505785 153.914035,24.9966613 154.223026,25.3120718 C154.330774,25.4220589 154.438942,25.532474 154.547109,25.6424611 C154.835137,25.9369013 155.364237,25.9600114 155.648491,25.6424611 C155.933585,25.3244828 155.957482,24.8331785 155.648491,24.5177681 C155.540743,24.407781 155.432994,24.2973659 155.324827,24.1873788" id="Fill-67"></path>
                    <path d="M151.546536,22.5930689 C151.834564,22.8870811 152.364083,22.9106192 152.648757,22.5930689 C152.93385,22.2746627 152.957328,21.7837864 152.648757,21.4683759 C152.540589,21.3583888 152.432421,21.2479737 152.324673,21.1379866 C152.036645,20.8435464 151.506707,20.8204363 151.222871,21.1379866 C150.937778,21.4563928 150.913881,21.9472691 151.222871,22.2626796 C151.33062,22.3726667 151.438788,22.4830818 151.546536,22.5930689" id="Fill-69"></path>
                    <path d="M47.54857,11.227502 C47.4408216,11.3374891 47.3326539,11.4479042 47.2249054,11.5578913 C46.9364582,11.8523315 46.9138184,12.3928518 47.2249054,12.6825843 C47.5368309,12.9740288 48.017716,12.9979948 48.3267066,12.6825843 L48.6503712,12.3521951 C48.9383992,12.0581828 48.9614582,11.5176626 48.6503712,11.227502 C48.3384458,10.9364856 47.8575607,10.9120915 47.54857,11.227502" id="Fill-71"></path>
                    <path d="M44.54857,14.2770516 C44.4404023,14.3870387 44.3326539,14.4974537 44.2249054,14.6074409 C43.9364582,14.9014531 43.9138184,15.4424013 44.2249054,15.7321339 C44.5364116,16.0231503 45.017716,16.0475444 45.3262874,15.7321339 L45.6503712,15.4017446 C45.9383992,15.1073044 45.9610389,14.5672121 45.6503712,14.2770516 C45.3384458,13.9860351 44.8571414,13.9616411 44.54857,14.2770516" id="Fill-73"></path>
                    <path d="M48.3248268,14.2788069 C48.0367988,13.9847947 47.5072802,13.9616845 47.2230255,14.2788069 C46.9375131,14.5972131 46.9140348,15.0885174 47.2230255,15.4034999 C47.330774,15.513915 47.4389417,15.6239021 47.5466901,15.7343172 C47.8351373,16.0283294 48.3642367,16.0514395 48.6484914,15.7343172 C48.9335845,15.4159109 48.957482,14.9246066 48.6484914,14.6091962 L48.3248268,14.2788069 Z" id="Fill-75"></path>
                    <path d="M44.5466901,12.6847676 C44.8347181,12.9787798 45.3642367,13.0023179 45.6484914,12.6847676 C45.9335845,12.3663614 45.957482,11.8750571 45.6484914,11.5600746 C45.5407429,11.4496595 45.4325752,11.3396724 45.3244075,11.2292573 C45.0363796,10.9352451 44.5068609,10.912135 44.2230255,11.2292573 C43.9375131,11.5476636 43.9140348,12.0389678 44.2230255,12.3543783 C44.330774,12.4643654 44.4385224,12.5747805 44.5466901,12.6847676" id="Fill-77"></path>
                    <path d="M54.7527719,21.8327069 L55.9539365,21.8327069 L55.9539365,23.0588277 C55.9539365,24.082093 57.512306,24.0838048 57.512306,23.0588277 L57.512306,21.8327069 L58.7130514,21.8327069 C59.7159085,21.8327069 59.7175855,20.2419596 58.7130514,20.2419596 L57.512306,20.2419596 L57.512306,19.0158388 C57.512306,17.9925735 55.9539365,17.9908617 55.9539365,19.0158388 L55.9539365,20.2419596 L54.7527719,20.2419596 C53.7499147,20.2419596 53.7482377,21.8327069 54.7527719,21.8327069" id="Fill-79"></path>
                    <path d="M4.71305137,15.5062238 L3.51188678,15.5062238 L3.51188678,14.280103 C3.51188678,13.2568378 1.95351721,13.2551259 1.95351721,14.280103 L1.95351721,15.5062238 L0.75277187,15.5062238 C-0.250085272,15.5062238 -0.251762291,17.0969712 0.75277187,17.0969712 L1.95351721,17.0969712 L1.95351721,18.323092 C1.95351721,19.3463572 3.51188678,19.3480691 3.51188678,18.323092 L3.51188678,17.0969712 L4.71305137,17.0969712 C5.71590852,17.0969712 5.71758554,15.5062238 4.71305137,15.5062238" id="Fill-81"></path>
                    <path d="M181.713366,6.63835598 L180.512201,6.63835598 L180.512201,5.41223515 C180.512201,4.38896992 178.953832,4.38725806 178.953832,5.41223515 L178.953832,6.63835598 L177.753086,6.63835598 C176.74981,6.63835598 176.748133,8.22910331 177.753086,8.22910331 L178.953832,8.22910331 L178.953832,9.45522414 C178.953832,10.4784894 180.512201,10.4806292 180.512201,9.45522414 L180.512201,8.22910331 L181.713366,8.22910331 C182.716223,8.22910331 182.7179,6.63835598 181.713366,6.63835598" id="Fill-83"></path>
                </g>
            </g>
        </g>
    </g>
</svg>