<?xml version="1.0" encoding="UTF-8"?>
<svg width="299px" height="302px" viewBox="0 0 299 302" version="1.1" xmlns="http://www.w3.org/2000/svg" xmlns:xlink="http://www.w3.org/1999/xlink">
    <!-- Generator: Sketch 52.2 (67145) - http://www.bohemiancoding.com/sketch -->
    <title>poc</title>
    <desc>Created with Sketch.</desc>
    <g id="App" stroke="none" stroke-width="1" fill="none" fill-rule="evenodd">
        <g id="Our-Services" transform="translate(-1019.000000, -404.000000)">
            <g id="poc" transform="translate(1019.000000, 404.000000)">
                <g id="floor" transform="translate(0.000000, 71.000000)">
                    <path d="M296.075636,103.102855 C296.049408,103.115748 155.421052,183.468468 155.387612,183.487807 C154.044079,184.254913 152.463182,184.51921 150.981952,184.899539 C150.942609,184.912432 150.876384,184.918878 150.791798,184.925324 C150.109868,184.983341 148.162434,184.918878 147.329037,184.680366 C146.746118,184.512763 145.794695,184.042186 145.192105,184.042186 C145.171778,184.042186 145.15932,184.03574 145.14555,184.029293 C145.119978,184.022847 145.100307,184.016401 145.067522,183.997062 C144.693772,183.842352 144.319366,183.674749 143.979057,183.481361 L142.70634,182.759379 L141.585745,182.121198 C141.558862,182.108306 141.539191,182.095413 141.513618,182.082521 C140.470397,181.489464 139.427831,180.896407 138.385921,180.303351 C134.989386,178.375917 131.592195,176.448483 128.196316,174.521049 C123.521162,171.865187 118.839452,169.209325 114.157085,166.553463 C108.58362,163.388346 103.004254,160.223229 97.4307893,157.058111 C91.3452213,153.602912 85.2609647,150.154159 79.1694954,146.69896 C72.9593441,143.172852 66.7505042,139.646744 60.5410086,136.120636 C54.5937936,132.749238 48.645923,129.371394 42.6921511,125.99355 C37.3947366,122.989589 32.0966664,119.979183 26.7985963,116.968776 C22.5293221,114.551426 18.2672607,112.134075 14.0051993,109.710279 C11.1594537,108.098712 8.32026513,106.487145 5.47451952,104.869132 C4.44572346,104.282522 3.40971469,103.695912 2.37370592,103.109301 C0.786907675,102.200378 6.55701751e-05,101.020711 6.55701751e-05,99.8345976 L0.0387519737,86.2007426 C1.34425417,85.0339682 2.83269715,84.1057057 4.52375197,83.5706655 L144.044627,162.763058 C144.378379,162.956446 144.746228,163.124049 145.126535,163.278759 C145.165221,163.291652 145.211776,163.310991 145.250462,163.323883 C145.525857,163.427023 145.820923,163.523717 146.110087,163.607519 C146.201886,163.633304 146.300241,163.652643 146.392039,163.684874 C146.561866,163.729998 146.71989,163.768676 146.889717,163.800907 C147.001186,163.826692 147.119868,163.846031 147.22478,163.871816 C147.362478,163.897601 147.513289,163.923386 147.656888,163.942725 C147.768357,163.955617 147.887039,163.981402 148.01818,163.994295 C148.148664,164.007187 148.286362,164.026526 148.424059,164.039419 C148.549298,164.045865 148.666669,164.058758 148.791908,164.065204 C148.923048,164.084543 149.067302,164.090989 149.205,164.090989 C149.277127,164.097435 149.348598,164.097435 149.43384,164.097435 C149.480395,164.097435 149.526294,164.103881 149.57875,164.103881 C149.723004,164.103881 149.860702,164.103881 150.01807,164.097435 C150.103311,164.097435 150.24691,164.097435 150.365592,164.090989 C150.463947,164.084543 150.574761,164.084543 150.673772,164.07165 C150.752456,164.065204 150.83114,164.058758 150.902612,164.052311 L151.198333,164.032973 C151.505857,164.000741 151.814693,163.955617 152.109103,163.904047 C152.214015,163.891155 152.313026,163.858923 152.417938,163.839585 C152.562193,163.820246 152.719561,163.788014 152.863816,163.749337 C152.968728,163.723552 153.07364,163.697767 153.177897,163.665535 C153.322807,163.626858 153.460504,163.594626 153.598202,163.543056 C153.676886,163.523717 153.75557,163.497932 153.827041,163.472147 C154.037522,163.394792 154.247346,163.323883 154.456515,163.233635 C154.535855,163.20785 154.614539,163.175619 154.693223,163.136941 C154.955504,163.020909 155.211228,162.898429 155.44728,162.763058 L293.695438,83.7833924 C294.895373,85.1564473 296.298574,86.284544 297.990285,87.0580961 L297.71489,99.8861678 C297.71489,100.626731 297.71489,101.097953 297.71489,101.299834 C297.71489,101.790689 297.168472,102.391696 296.075636,103.102855 Z" id="Fill-29" fill="#C7D4E5"></path>
                    <path d="M150.837632,184.093627 C150.811404,184.325693 150.804846,184.615775 150.791732,184.925196 C150.109803,184.983212 148.162368,184.918749 147.328971,184.680237 C146.746053,184.512634 145.795285,184.042057 145.192039,184.042057 C145.171713,184.042057 145.159254,184.035611 145.145485,184.029164 C145.119912,184.022718 145.100241,184.016272 145.067456,183.996933 C144.693706,183.842223 144.319956,183.67462 143.978991,183.481232 L142.70693,182.75925 C142.680702,182.739911 142.654474,182.720572 142.62759,182.70768 C142.280724,182.514292 141.933202,182.314457 141.58568,182.121069 C141.559452,182.108177 141.539125,182.095284 141.513553,182.082392 C140.470331,181.489335 139.428421,180.896279 138.385855,180.303222 C134.98932,178.375788 131.592129,176.448354 128.19625,174.52092 C123.521096,171.865058 118.839386,169.209196 114.157675,166.553334 C108.584211,163.388217 103.004189,160.2231 97.4307237,157.057983 C91.3458114,153.602783 85.2608991,150.15403 79.1694298,146.698831 C72.9599342,143.172723 66.7504386,139.646615 60.540943,136.120507 C54.5937281,132.749109 48.6458575,129.371265 42.6920855,125.993421 C37.3946711,122.98946 32.0966009,119.979054 26.7985307,116.968647 C22.5292566,114.551297 18.2671952,112.133947 14.0051338,109.71015 C11.1600439,108.098583 8.32019956,106.487016 5.47510965,104.869003 C4.44565789,104.282393 3.40964912,103.695783 2.37364035,103.109172 C0.786842105,102.200249 0,101.020582 0,99.8344687 L0.0393421053,86.2006136 C1.3441886,85.0338393 2.83263158,84.1055768 4.5236864,83.5705366 L144.044561,162.762929 C144.378314,162.956317 144.746162,163.12392 145.126469,163.27863 C145.165811,163.291523 145.211711,163.310862 145.250397,163.323754 C145.525792,163.426894 145.821513,163.523588 146.110022,163.60739 C146.20182,163.633175 146.300175,163.652514 146.391974,163.684745 C146.5618,163.729869 146.719825,163.768547 146.889651,163.800778 C147.001121,163.826563 147.119803,163.845902 147.224715,163.871687 C147.362412,163.897472 147.513224,163.923257 147.656822,163.942596 C147.768292,163.955488 147.886974,163.981273 148.018114,163.994166 C148.148599,164.007059 148.286296,164.026397 148.423993,164.03929 C148.549232,164.045736 148.666603,164.058629 148.791842,164.065075 C148.922982,164.084414 149.067237,164.09086 149.204934,164.09086 C149.277061,164.097306 149.348533,164.097306 149.433774,164.097306 C149.480329,164.097306 149.526228,164.103753 149.578684,164.103753 C149.722939,164.103753 149.860636,164.24557 150.018004,164.239124 C150.103246,164.239124 150.2475,164.374496 150.365526,164.374496 L150.450768,164.374496 C150.549123,164.374496 150.837632,164.084414 150.837632,164.071521 L150.837632,182.681895 C150.837632,183.146026 150.882875,183.635942 150.837632,184.093627" id="Fill-31" fill="#9EBBD3"></path>
                    <path d="M296.094127,82.3178335 C299.256576,84.1131189 299.273624,87.0236086 296.136091,88.8163155 L155.45069,169.192887 C152.313813,170.984949 147.201962,170.984949 144.038857,169.190309 L2.43744013,88.8176047 C-0.72500943,87.0223193 -0.73615636,84.1144082 2.40072083,82.3217013 L143.086122,1.94512965 C146.223655,0.153067373 151.33026,0.149844239 154.49271,1.94512965 L296.094127,82.3178335 Z" id="Fill-33" fill="#FFFFFF"></path>
                </g>
                <path d="M220.046,154.306538 C208.371333,147.577923 189.442667,147.577923 177.767333,154.306538 C166.092,161.035818 166.092,171.94669 177.767333,178.67597 C189.442667,185.405916 208.371333,186.3217 220.046,179.593085 C231.721333,172.863805 231.721333,161.035818 220.046,154.306538" id="shadow" fill="#F4F4F4" style="mix-blend-mode: multiply;"></path>
                <g id="sittingMan" transform="translate(163.000000, 26.000000)">
                    <path d="M23.0134667,146.471069 C23.0134667,144.988245 24.0554667,143.185296 25.3421333,142.443883 C26.6288,141.702471 27.6714667,142.303454 27.6714667,143.786944 C27.6714667,145.269103 26.6288,147.072052 25.3421333,147.81413 C24.0554667,148.555542 23.0134667,147.954559 23.0134667,146.471069" id="Fill-5" fill="#4263C0"></path>
                    <path d="M23.0134667,146.471069 C23.0134667,144.988245 24.0554667,143.185296 25.3421333,142.443883 C26.6288,141.702471 27.6714667,142.303454 27.6714667,143.786944 C27.6714667,145.269103 26.6288,147.072052 25.3421333,147.81413 C24.0554667,148.555542 23.0134667,147.954559 23.0134667,146.471069" id="Fill-7" fill="#1D202B"></path>
                    <polygon id="Fill-9" fill="#1D202B" points="27.0525333 142.325084 29.0598667 143.368652 25.9085333 149.102949 23.5585333 147.882348 24.1538667 144.653145"></polygon>
                    <path d="M24.9926667,147.496734 C24.9926667,146.013244 26.0353333,144.21096 27.322,143.468882 C28.6086667,142.728136 29.6506667,143.328453 29.6506667,144.811943 C29.6506667,146.294102 28.6086667,148.097717 27.322,148.839129 C26.0353333,149.580541 24.9926667,148.979558 24.9926667,147.496734" id="Fill-11" fill="#A0D2FF"></path>
                    <path d="M24.9926667,147.496734 C24.9926667,146.013244 26.0353333,144.21096 27.322,143.468882 C28.6086667,142.728136 29.6506667,143.328453 29.6506667,144.811943 C29.6506667,146.294102 28.6086667,148.097717 27.322,148.839129 C26.0353333,149.580541 24.9926667,148.979558 24.9926667,147.496734" id="Fill-13" fill="#CCCCCC"></path>
                    <path d="M51.0219333,130.843246 C51.0219333,129.359756 52.0646,127.557472 53.3512667,126.81606 C54.6379333,126.074648 55.6806,126.675631 55.6806,128.158455 C55.6806,129.641279 54.6379333,131.444229 53.3512667,132.186306 C52.0646,132.927053 51.0219333,132.326735 51.0219333,130.843246" id="Fill-15" fill="#4263C0"></path>
                    <path d="M51.0219333,130.843246 C51.0219333,129.359756 52.0646,127.557472 53.3512667,126.81606 C54.6379333,126.074648 55.6806,126.675631 55.6806,128.158455 C55.6806,129.641279 54.6379333,131.444229 53.3512667,132.186306 C52.0646,132.927053 51.0219333,132.326735 51.0219333,130.843246" id="Fill-17" fill="#1D202B"></path>
                    <polygon id="Fill-19" fill="#1D202B" points="55.0616667 126.696595 57.069 127.740828 53.9176667 133.47446 51.5676667 132.253859 52.163 129.024656"></polygon>
                    <path d="M53.0017333,131.868178 C53.0017333,130.385354 54.0444,128.582404 55.3304,127.840992 C56.6170667,127.09958 57.6597333,127.700563 57.6597333,129.183388 C57.6597333,130.666212 56.6170667,132.469161 55.3310667,133.211239 C54.0444,133.952651 53.0017333,133.351668 53.0017333,131.868178" id="Fill-21" fill="#A0D2FF"></path>
                    <path d="M53.0017333,131.868178 C53.0017333,130.385354 54.0444,128.582404 55.3304,127.840992 C56.6170667,127.09958 57.6597333,127.700563 57.6597333,129.183388 C57.6597333,130.666212 56.6170667,132.469161 55.3310667,133.211239 C54.0444,133.952651 53.0017333,133.351668 53.0017333,131.868178" id="Fill-23" fill="#CCCCCC"></path>
                    <path d="M49.7081333,147.161967 C49.7081333,145.678477 50.7508,143.876193 52.0368,143.134116 C53.3234667,142.393369 54.3661333,142.993686 54.3661333,144.477176 C54.3661333,145.959335 53.3241333,147.76295 52.0374667,148.504362 C50.7508,149.245774 49.7081333,148.644791 49.7081333,147.161967" id="Fill-25" fill="#4263C0"></path>
                    <path d="M49.7081333,147.161967 C49.7081333,145.678477 50.7508,143.876193 52.0368,143.134116 C53.3234667,142.393369 54.3661333,142.993686 54.3661333,144.477176 C54.3661333,145.959335 53.3241333,147.76295 52.0374667,148.504362 C50.7508,149.245774 49.7081333,148.644791 49.7081333,147.161967" id="Fill-27" fill="#1D202B"></path>
                    <polygon id="Fill-29" fill="#1D202B" points="53.7472 143.015383 55.7545333 144.059616 52.6038667 149.793248 50.2532 148.572647 50.8485333 145.343444"></polygon>
                    <path d="M51.6879333,148.186966 C51.6879333,146.704142 52.7299333,144.901192 54.0166,144.15978 C55.3032667,143.418368 56.3459333,144.019351 56.3459333,145.502175 C56.3459333,146.985 55.3032667,148.787949 54.0166,149.530027 C52.7299333,150.270773 51.6879333,149.670456 51.6879333,148.186966" id="Fill-31" fill="#A0D2FF"></path>
                    <path d="M51.6879333,148.186966 C51.6879333,146.704142 52.7299333,144.901192 54.0166,144.15978 C55.3032667,143.418368 56.3459333,144.019351 56.3459333,145.502175 C56.3459333,146.985 55.3032667,148.787949 54.0166,149.530027 C52.7299333,150.270773 51.6879333,149.670456 51.6879333,148.186966" id="Fill-33" fill="#CCCCCC"></path>
                    <path d="M22.5167333,131.423664 C22.5167333,129.940174 23.5594,128.13789 24.8460667,127.395812 C26.1327333,126.655066 27.1747333,127.255383 27.1747333,128.738873 C27.1747333,130.221032 26.1327333,132.024647 24.8460667,132.766059 C23.5594,133.507471 22.5167333,132.906488 22.5167333,131.423664" id="Fill-35" fill="#4263C0"></path>
                    <path d="M22.5167333,131.423664 C22.5167333,129.940174 23.5594,128.13789 24.8460667,127.395812 C26.1327333,126.655066 27.1747333,127.255383 27.1747333,128.738873 C27.1747333,130.221032 26.1327333,132.024647 24.8460667,132.766059 C23.5594,133.507471 22.5167333,132.906488 22.5167333,131.423664" id="Fill-37" fill="#4263C0"></path>
                    <polygon id="Fill-39" fill="#1D202B" points="26.5558 127.277013 28.5638 128.321246 25.4124667 134.054878 23.0618 132.834277 23.6571333 129.605074"></polygon>
                    <path d="M24.4965333,132.448596 C24.4965333,130.965772 25.5385333,129.162822 26.8252,128.42141 C28.1118667,127.679998 29.1545333,128.280981 29.1545333,129.763805 C29.1545333,131.24663 28.1118667,133.049579 26.8252,133.791657 C25.5392,134.532403 24.4965333,133.932086 24.4965333,132.448596" id="Fill-41" fill="#A0D2FF"></path>
                    <path d="M24.4965333,132.448596 C24.4965333,130.965772 25.5385333,129.162822 26.8252,128.42141 C28.1118667,127.679998 29.1545333,128.280981 29.1545333,129.763805 C29.1545333,131.24663 28.1118667,133.049579 26.8252,133.791657 C25.5392,134.532403 24.4965333,133.932086 24.4965333,132.448596" id="Fill-43" fill="#CCCCCC"></path>
                    <path d="M56.1736667,140.731448 L45.867,134.790833 L56.1736667,128.850218 C57.865,127.875201 57.865,126.279235 56.1736667,125.304218 L56.173,125.304218 C54.4816667,124.329201 51.7136667,124.329201 50.021,125.304218 L39.715,131.244833 L29.4083333,125.304218 C27.7163333,124.329201 24.9476667,124.329201 23.2563333,125.304218 C21.5643333,126.279235 21.5643333,127.875201 23.2563333,128.850218 L33.563,134.790833 L23.2563333,140.731448 C21.5643333,141.70713 21.5643333,143.302431 23.2563333,144.277448 C24.9476667,145.252465 27.7156667,145.252465 29.4083333,144.277448 L39.715,138.336833 L50.021,144.277448 C51.7136667,145.252465 54.4816667,145.252465 56.173,144.277448 C57.865,143.302431 57.865,141.70713 56.1736667,140.731448" id="Fill-45" fill="#EFF6FC"></path>
                    <path d="M56.1736667,140.731448 L45.867,134.790833 L56.1736667,128.850218 C57.865,127.875201 57.865,126.279235 56.1736667,125.304218 L56.173,125.304218 C54.4816667,124.329201 51.7136667,124.329201 50.021,125.304218 L39.715,131.244833 L29.4083333,125.304218 C27.7163333,124.329201 24.9476667,124.329201 23.2563333,125.304218 C21.5643333,126.279235 21.5643333,127.875201 23.2563333,128.850218 L33.563,134.790833 L23.2563333,140.731448 C21.5643333,141.70713 21.5643333,143.302431 23.2563333,144.277448 C24.9476667,145.252465 27.7156667,145.252465 29.4083333,144.277448 L39.715,138.336833 L50.021,144.277448 C51.7136667,145.252465 54.4816667,145.252465 56.173,144.277448 C57.865,143.302431 57.865,141.70713 56.1736667,140.731448" id="Fill-47" fill="#AAAAAA"></path>
                    <path d="M34.5245333,134.614198 C34.5245333,136.536279 36.8478667,138.09431 39.7145333,138.09431 C42.5818667,138.09431 44.9052,136.536279 44.9052,134.614198 C44.9052,132.691452 42.5818667,129.507506 39.7145333,129.507506 C36.8478667,129.507506 34.5245333,132.691452 34.5245333,134.614198" id="Fill-49" fill="#CCCCCC"></path>
                    <path d="M35.9067333,132.060586 C35.9067333,133.470866 37.6120667,134.614265 39.7147333,134.614265 C41.8180667,134.614265 43.5234,133.470866 43.5234,132.060586 C43.5234,130.650971 41.8180667,129.507572 39.7147333,129.507572 C37.6120667,129.507572 35.9067333,130.650971 35.9067333,132.060586" id="Fill-51" fill="#AAAAAA"></path>
                    <path d="M39.7146667,104.656422 C38.4286667,104.656422 37.386,105.711969 37.386,107.013766 L37.386,129.70404 C37.386,131.005837 38.4286667,132.060719 39.7146667,132.060719 C41.0013333,132.060719 42.044,131.005837 42.044,129.70404 L42.044,107.013766 C42.044,105.711969 41.0013333,104.656422 39.7146667,104.656422" id="Fill-53" fill="#CCCCCC"></path>
                    <path d="M4.811,99.8078922 L44.3723333,122.71846 C45.983,123.650882 47.9756667,123.62426 49.5603333,122.648578 L80.4263333,103.64673 L38.8883333,78.9671557 L4.811,99.8078922 Z" id="Fill-55" fill="#092139"></path>
                    <path d="M52.9126,48.8797318 L80.7812667,64.3968095 C83.6286,65.8669885 85.2479333,68.6542723 84.9319333,71.5420527 L80.4266,103.646397 C80.1279333,106.375779 78.3246,108.803005 75.6006,110.141407 L48.7539333,123.331755 C46.9326,124.226907 44.6992667,123.024276 44.7792667,121.192708 L44.7859333,121.036306 C44.9266,117.810431 46.6972667,114.808843 49.6146,112.84683 L65.1506,102.402502 C66.3646,101.586549 66.2792667,99.7769446 64.9946,99.078127 L37.1292667,82.9800324 C36.5052667,82.6412723 35.1359333,83.2755324 34.5372667,83.6575527 L6.73193333,99.799573 C5.70193333,100.46711 4.32926667,99.8122182 4.2026,98.592948 L3.7046,93.8037182 C3.4826,91.6640054 5.11726667,90.1938264 6.9526,89.0670662 L31.1486,74.8424682 L40.8699333,52.3358838 C42.8866,48.2381507 48.5319333,46.6188905 52.9126,48.8797318" id="Fill-57" fill="#0D3054"></path>
                    <path d="M35.2804,50.8301649 L19.1290667,33.5021514 C16.9890667,31.2053709 16.0597333,27.9974655 16.6484,24.9166784 L23.6084,4.47593176 C23.7890667,3.53552297 24.2650667,2.72156689 24.9190667,2.11392838 C25.9004,1.20280338 27.2884,0.752232432 28.7090667,1.02244189 C31.0710667,1.47301284 32.6230667,3.75315473 32.1677333,6.11382703 L25.2110667,26.5519115 C25.1444,26.9192899 25.2544,27.3006446 25.5104,27.5755128 L41.6610667,44.9028608 C43.3017333,46.6618845 43.1984,49.4172223 41.4397333,51.0511243 C39.6770667,52.6883541 36.9210667,52.5898541 35.2804,50.8301649" id="Fill-60" fill="#FBBA9F"></path>
                    <path d="M41.3253333,44.3684983 L28.4373333,30.5418936 C28.0033333,31.1315625 27.522,31.6926132 26.9633333,32.2050794 C25.028,33.9794105 22.884,34.9178226 20.4493333,35.3876943 C20.1553333,35.4442652 20.0433333,35.8069848 20.2473333,36.0259476 L34.1966667,50.9906267 C36.4833333,53.4444747 39.9306667,53.9496199 41.9,52.120049 C43.8653333,50.2951368 43.6126667,46.8223463 41.3253333,44.3684983" id="Fill-62" fill="#DCEAFF"></path>
                    <path d="M9.8162,108.931721 C7.75686667,109.009589 5.7402,107.919434 4.73486667,105.9694 C3.3502,103.284609 4.4082,99.9875216 7.09753333,98.6045284 L33.9388667,84.8085385 C36.6268667,83.4262108 39.9322,84.4824236 41.3162,87.1672142 C42.7002,89.8520047 41.6428667,93.1497581 38.9535333,94.5314203 L12.1122,108.328076 C11.3762,108.706768 10.5928667,108.902437 9.8162,108.931721" id="Fill-64" fill="#375EB4"></path>
                    <path d="M3.11566667,158.023189 C5.75166667,155.351709 19.8643333,139.706182 19.5336667,152.482564 C19.4943333,154.011976 19.4036667,155.622584 18.581,156.913068 C17.2203333,159.048122 14.4036667,159.589872 12.1936667,160.828443 C10.875,161.567193 9.73966667,162.588132 8.489,163.436696 C7.23766667,164.284595 5.79633333,164.978088 4.285,164.921517 C2.773,164.865611 1.21966667,163.865304 0.948333333,162.380483 C0.644333333,160.717963 1.92833333,159.227152 3.11566667,158.023189" id="Fill-66" fill="#715255"></path>
                    <path d="M16.4340667,142.106721 C16.0127333,141.821204 15.5860667,141.544339 15.1447333,141.290102 C14.9720667,141.190271 14.7060667,141.097096 14.5454,141.045849 C14.4994,141.033204 14.4627333,141.02189 14.4414,141.015234 C14.0587333,141.083119 13.6794,141.115065 13.3060667,141.109075 C13.2767333,141.21889 13.2520667,141.330035 13.2320667,141.444508 L12.0474,148.537173 C11.7314,150.42265 13.0100667,152.207629 14.9027333,152.523096 C16.7954,152.838562 18.5854,151.565383 18.9000667,149.679241 L19.7427333,144.639102 C18.6647333,143.762585 17.5867333,142.8874 16.4340667,142.106721" id="Fill-68" fill="#EF4B46"></path>
                    <path d="M42.199,85.800327 L34.357,83.6093676 L32.3016667,87.7290635 L30.2883333,88.7160601 C30.735,90.1815804 31.0276667,91.6424419 31.1323333,93.0999757 C35.2476667,95.4260399 41.5183333,96.389077 39.2923333,99.4013135 C35.5803333,104.42082 20.0143333,111.489526 17.681,113.338398 C16.753,114.073155 16.101,115.092763 15.8163333,116.240155 L11.291,143.593871 C10.7223333,146.287979 12.781,148.821026 15.539,148.821026 L17.627,148.821026 C19.4463333,148.821026 21.0216667,147.558496 21.4143333,145.78483 L25.3316667,122.594736 L59.0896667,105.175543 C61.2296667,103.861766 62.6016667,101.595601 62.7723333,99.0938338 L63.1516667,88.8138946 L42.199,85.800327 Z" id="Fill-70" fill="#375EB4"></path>
                    <path d="M64.4913333,95.011275 C62.4773333,96.8641399 58.6853333,96.9007446 54.7533333,96.1100824 C50.5113333,95.266177 46.1113333,93.4552412 43.6213333,91.924498 C43.0473333,91.5757547 36.378,88.5142682 33.5606667,86.81115 C32.796,86.3485993 32.5026667,85.3995385 32.8486667,84.5762649 C36.3133333,76.3495182 38.5933333,66.2466128 35.8006667,57.9113831 C35.2586667,56.3074304 34.7786667,54.7034777 34.468,53.1354642 L34.468,52.1085351 L34.444,53.0083459 C33.5606667,48.39615 34.2246667,44.1187209 39.428,41.0871838 C40.4146667,40.5154845 41.7713333,40.2665723 43.2993333,40.2665723 C43.9806667,40.2665723 44.7046667,40.2792176 45.448,40.4129912 C55.368,42.2172716 60.62,45.4072074 63.6086667,50.3042547 C65.6166667,53.5793797 66.616,57.6258662 67.3213333,62.5289034 C68.374,69.8325453 68.21,91.5963865 64.4913333,95.011275" id="Fill-72" fill="#DCEAFF"></path>
                    <path d="M34.3702667,55.9588868 C34.4022667,56.035424 34.4362667,56.1139578 34.4676,56.1898294 L34.4676,53.1330017 C34.4596,53.0910726 34.4522667,53.0504747 34.4442667,53.0092111 L34.3702667,55.9588868 Z" id="Fill-74" fill="#E2E8F2"></path>
                    <path d="M64.4913333,95.011275 C62.4773333,96.8641399 58.6853333,96.9007446 54.7533333,96.1100824 C54.8746667,94.7250926 55.2946667,93.3520824 55.928,92.1128459 C59.2206667,86.777873 59.6466667,85.2471297 58.9833333,78.9218324 C58.722,76.4180689 58.466,73.8484169 59.1293333,71.4245182 C59.7686667,69.121748 61.2286667,66.8915216 60.7846667,64.5461568 C60.5893333,63.482623 60.0113333,62.5408831 59.58,61.5512243 C58.6726667,59.4667514 58.4113333,57.1094068 58.8373333,54.8791804 C59.068,53.6459338 59.5313333,52.418677 60.4253333,51.5375014 C61.272,50.7055757 62.428,50.3102446 63.6086667,50.3042547 C65.6166667,53.5793797 66.616,57.6258662 67.3213333,62.5289034 C68.374,69.8325453 68.21,91.5963865 64.4913333,95.011275" id="Fill-76" fill="#A8C4F2"></path>
                    <path d="M64.8578667,55.4902797 L81.0092,38.1629318 C83.1498667,35.8661514 84.0785333,32.6575804 83.4898667,29.5774588 L79.5732,9.74435068 C79.3932,8.80394189 78.9165333,7.98998581 78.2618667,7.3823473 C77.2812,6.4712223 75.8932,6.02065135 74.4725333,6.29086081 C72.1112,6.74143176 70.5592,9.02090811 71.0138667,11.3829115 L74.9272,31.2126919 C74.9938667,31.5794047 74.8838667,31.9607595 74.6278667,32.2356277 L58.4772,49.5629757 C56.8372,51.3226649 56.9398667,54.0780027 58.6992,55.7112392 C60.4612,57.3491345 63.2172,57.2506345 64.8578667,55.4902797" id="Fill-78" fill="#FBBA9F"></path>
                    <path d="M78.6046,40.3908287 C74.4879333,40.3908287 72.6532667,36.8701193 73.0859333,33.7167882 L58.8132667,49.0288794 C56.5259333,51.4820618 56.2732667,54.9555179 58.2379333,56.7810956 C60.2072667,58.6106666 63.6552667,58.1048557 65.9419333,55.6516733 L79.6012667,40.9971361 C79.8446,40.7362443 79.6352667,40.3196159 79.2799333,40.3562206 C79.0626,40.3781834 78.8372667,40.3908287 78.6046,40.3908287" id="Fill-80" fill="#DCEAFF"></path>
                    <path d="M36.3988667,128.949317 C35.3355333,128.949317 34.2642,128.625864 33.3388667,127.953003 L7.0022,108.795418 C4.67953333,107.105611 4.1682,103.856442 5.86086667,101.537033 C7.5522,99.2196209 10.8075333,98.7078203 13.1315333,100.398293 L39.4675333,119.555878 C41.7902,121.245685 42.3015333,124.494854 40.6082,126.813597 C39.5902,128.209236 38.0055333,128.949317 36.3988667,128.949317" id="Fill-82" fill="#375EB4"></path>
                    <path d="M43.479,128.538545 C43.923,128.290299 44.3616667,128.034066 44.787,127.754539 C44.9536667,127.64539 45.1556667,127.450386 45.2736667,127.330589 C45.3063333,127.29465 45.3316667,127.266697 45.3476667,127.250059 C45.4583333,126.880018 45.599,126.527947 45.771,126.196508 C45.6863333,126.121302 45.5976667,126.049424 45.5036667,125.980873 L39.6823333,121.744042 C38.1336667,120.617947 35.9636667,120.957373 34.835,122.503424 C33.7063333,124.048809 34.047,126.215143 35.595,127.341903 L39.7323333,130.352809 C40.9983333,129.784437 42.265,129.2154 43.479,128.538545" id="Fill-84" fill="#EF4B46"></path>
                    <path d="M41.3194667,47.5817946 L42.4821333,50.8283014 C43.0774667,51.7673791 44.4354667,51.807977 45.0854667,50.9055041 L47.2294667,48.1428453 L41.3194667,47.5817946 Z" id="Fill-86" fill="#EF4B46"></path>
                    <path d="M54.852,46.6614851 C53.2353333,48.4717554 51.5006667,50.4870122 50.0946667,52.0596845 C49.4793333,52.7491845 48.3853333,52.6899514 47.8446667,51.9405527 L44.116,48.2215122 L39.6333333,49.0194953 C39.0853333,49.1166642 38.582,48.6967081 38.582,48.1416473 L38.582,46.7533297 C38.582,43.6811946 40.7306667,41.0243568 43.74,40.3814446 C44.7273333,40.1704682 45.7806667,40.0566608 46.8713333,40.0566608 C49.8313333,40.0566608 52.5033333,40.8932453 54.3926667,42.2343095 C55.84,43.2619041 56.0346667,45.3383905 54.852,46.6614851" id="Fill-88" fill="#EDF4FB"></path>
                    <path d="M52.1182667,43.3610696 C52.1182667,44.2116304 51.7109333,44.9836574 51.0349333,45.5786507 C50.9016,45.6944547 50.7549333,45.8102588 50.5969333,45.912752 C49.7329333,46.4964311 48.5642667,46.848502 47.2556,46.848502 C45.4722667,46.848502 43.9442667,46.1922791 43.0929333,45.1959649 C43.0929333,45.1959649 43.0929333,45.189975 43.0862667,45.1839851 C43.0749333,45.1720054 43.0622667,45.1533703 43.0496,45.1354007 C42.7396,44.7527149 42.5329333,44.3274345 42.4409333,43.8655493 C42.4109333,43.7018264 42.3922667,43.531448 42.3922667,43.3610696 C42.3922667,43.1906912 42.4109333,43.0209784 42.4409333,42.8565899 C42.5329333,42.3953703 42.7396,41.9694243 43.0496,41.5933939 C43.8836,40.560475 45.4362667,39.8802926 47.2556,39.8802926 C48.5582667,39.8802926 49.7329333,40.2323635 50.5969333,40.815377 C50.8222667,40.9671203 51.0229333,41.1308432 51.2056,41.3072115 C51.7776,41.8782453 52.1182667,42.5837182 52.1182667,43.3610696" id="Fill-90" fill="#A8C4F2"></path>
                    <path d="M50.5968,36.0212889 L50.5968,45.9125524 C49.7328,46.4962314 48.5641333,46.8489679 47.2554667,46.8489679 C45.4721333,46.8489679 43.9441333,46.1920794 43.0928,45.1957652 C43.0928,45.1957652 43.0928,45.1897753 43.0861333,45.184451 C43.0748,45.1718057 43.0621333,45.1538361 43.0501333,45.135201 C42.7394667,44.7525152 42.5328,44.3272348 42.4414667,43.8653497 L42.4414667,36.0212889 C42.4414667,34.891201 42.8974667,33.8762517 43.6348,33.1414949 C44.2548,32.5218767 45.0768,32.0965963 45.9774667,31.9814578 C46.1908,31.9628226 46.4214667,31.9441875 46.6468,31.9441875 C47.1394667,31.9628226 47.5961333,32.0599916 48.0408,32.2237145 C48.6008,32.4553226 49.0874667,32.7947483 49.4828,33.2206943 C50.1708,33.955451 50.5968,34.9397855 50.5968,36.0212889" id="Fill-92" fill="#FBBA9F"></path>
                    <path d="M42.9340667,45.4434794 C46.4200667,45.2631179 49.1854,43.0422091 49.1854,40.3461044 L49.1854,32.3243443 L49.1854,31.7033949 C48.4167333,31.458476 47.5820667,31.344003 46.6980667,31.344003 L46.6487333,31.344003 L46.4694,31.344003 C46.3054,31.344003 46.1420667,31.3606416 45.9780667,31.3766145 L45.8307333,31.3766145 C45.4380667,31.442503 45.0454,31.572949 44.7014,31.7686179 C44.5380667,31.8345064 44.3907333,31.9323409 44.2434,32.0468139 C44.1780667,32.0953983 44.1127333,32.1446483 44.0467333,32.1938983 C43.8834,32.3409828 43.7360667,32.4874017 43.5887333,32.6511247 C42.8854,33.4511044 42.4434,34.5625571 42.4434,35.7878172 L42.4434,43.516074 L42.9340667,45.4434794 Z" id="Fill-94" fill="#FF8358"></path>
                    <path d="M44.0336667,50.1360726 L43.1456667,49.5696976 L39.651,69.9066199 C39.5616667,70.5348902 39.659,71.1791334 39.9283333,71.7421807 L43.0576667,78.2764578 C43.3076667,78.7982416 43.9623333,78.8641301 44.293,78.4002483 L47.6656667,73.6735794 L44.0336667,50.1360726 Z" id="Fill-96" fill="#EF4B46"></path>
                    <path d="M51.826,35.0268382 C51.8406667,35.0268382 51.8553333,35.0414801 51.87,35.056122 C51.8846667,34.9975544 51.8846667,34.9243449 51.8846667,34.8651118 C51.8846667,34.9243449 51.87,34.9829125 51.826,35.0268382" id="Fill-98" fill="#3772CE"></path>
                    <path d="M49.6801333,41.1629223 C50.5888,39.8384966 50.9788,37.7120946 51.2061333,36.3084696 C51.4421333,34.8542635 53.4101333,35.4638986 53.4161333,33.9777466 C53.4194667,32.9221993 52.4261333,31.7961047 51.9808,30.881652 C51.4468,29.7861723 50.7921333,28.8970101 49.7774667,28.1902061 C48.5521333,27.3363176 47.1081333,26.8531351 45.6661333,26.4578041 C44.0541333,26.0165507 42.4074667,25.6891047 40.7474667,25.5020878 L40.2894667,23.9320777 L35.1341333,23.9320777 L35.1341333,38.6738007 C35.1341333,38.8168919 35.1694667,39.0265372 35.2334667,39.2854324 C36.1348,42.9465709 40.1621333,44.8946081 43.6774667,43.5169392 L49.6801333,41.1629223 Z" id="Fill-100" fill="#FBBA9F"></path>
                    <path d="M33.4347333,23.0795868 C34.8994,22.0493301 36.8807333,21.3471848 38.5020667,20.5558571 C40.3720667,19.6420699 42.3894,18.9851814 44.4787333,18.871374 C47.2714,18.7196307 50.2060667,19.6294247 52.0847333,21.6979247 C54.7687333,24.6542557 55.2634,28.9423334 54.9127333,32.7372456 C54.7760667,34.2120834 54.5767333,35.8473166 53.7614,37.1251544 C53.3327333,37.7986814 51.1367333,39.8665159 50.1720667,39.0498976 C49.3554,38.3590666 50.3514,37.0772355 49.9720667,36.0369956 C49.9207333,35.8972321 49.8714,35.7488166 49.7600667,35.6503166 C49.5714,35.4812693 49.2820667,35.5158774 49.0320667,35.5604686 C48.8340667,35.5964078 48.6247333,35.6303503 48.4367333,35.5591375 C48.0087333,35.3967456 47.9514,34.8237152 47.9800667,34.3671544 C48.0727333,32.8936476 48.2800667,31.1951882 46.5834,30.7466139 C45.4087333,30.4351409 44.0834,30.8677422 42.9434,30.3745767 C40.6327333,29.3742693 38.6160667,27.6545125 36.1547333,27.1240767 C35.8187333,27.0515328 35.2334,26.8478774 35.1494,27.1806476 C34.8780667,28.2574922 35.0487333,28.6248706 34.7774,29.3602929 C33.7660667,29.2245226 32.6400667,28.4391848 32.2327333,27.5446983 C31.7667333,26.522428 31.7460667,25.2778672 32.2974,24.2981916 C32.5807333,23.7943774 32.9754,23.402374 33.4347333,23.0795868" id="Fill-102" fill="#715255"></path>
                    <path d="M45.171,45.7574149 C46.1423333,45.4439453 47.0196667,44.8269892 47.809,44.0616176 C49.1236667,42.6333676 50.023,40.8164419 50.5383333,38.8697358 C50.6396667,38.3486176 50.7103333,37.8314926 50.7116667,37.3316716 C50.7123333,37.0687831 50.6796667,36.7726176 50.473,36.6095601 C50.209,36.3999149 49.7936667,36.5410095 49.5836667,36.8052291 C49.3736667,37.0681176 49.307,37.4141986 49.217,37.7383169 C49.0496667,38.3393 48.787,38.8910331 48.4576667,39.4054959 C47.6736667,40.6274284 46.247,41.2430534 44.8303333,40.9215973 C43.5183333,40.6241007 42.2596667,39.8853507 41.4703333,39.1199791 C40.6943333,38.3679182 39.7876667,37.7516277 38.7503333,37.4448135 C34.163,36.0844486 33.5663333,38.7892054 35.3756667,42.1688203 C35.6976667,42.7698034 36.3703333,43.6529757 36.8716667,44.1155264 C39.249,46.3138068 41.9816667,46.785675 45.171,45.7574149" id="Fill-104" fill="#715255"></path>
                    <path d="M48.5447333,35.6488524 C48.6974,35.7347071 48.8687333,35.733376 49.0354,35.6894503 C49.0527333,35.6475213 49.0434,35.601599 49.0680667,35.561001 L48.5447333,35.6488524 Z" id="Fill-106" fill="#FF8358"></path>
                    <path d="M51.9692,33.1056223 C51.2025333,32.9099534 50.4425333,33.5382236 50.1085333,34.2550108 C49.9405333,34.6150682 49.8358667,35.0117304 49.5912,35.3252 C49.4538667,35.5015682 49.2492,35.6333453 49.0358667,35.6892507 C48.8158667,36.2469736 49.2598667,36.9464568 49.8672,37.0922101 C50.5205333,37.2499432 51.1998667,36.941798 51.7378667,36.5398115 C52.3138667,36.1092068 52.8212,35.5215345 52.9392,34.8120682 C53.0572,34.1032676 52.6672,33.2833216 51.9692,33.1056223" id="Fill-108" fill="#FBBA9F"></path>
                    <path d="M47.7602,125.513065 L45.6095333,123.604294 L45.6075333,123.605625 C45.3002,123.310125 44.8862,123.170362 44.4028667,123.252223 C43.2815333,123.43924 42.0515333,124.589294 40.8628667,125.297429 C39.6088667,126.044166 38.3895333,126.298402 37.1848667,126.593902 C35.9788667,126.889402 34.7228667,127.256115 33.4815333,128.181217 C31.0562,129.98949 29.2962,134.965071 30.9195333,136.420608 C31.0575333,136.610287 31.2328667,136.750051 31.4328667,136.850548 L33.6308667,138.694095 L36.8868667,134.364754 C36.9862,134.275571 37.0855333,134.186389 37.1848667,134.096541 C38.3895333,133.003058 39.6088667,131.851673 40.8628667,131.152855 C42.0522,130.489977 43.2815333,130.223095 44.4028667,129.118298 C45.0542,128.476051 45.5795333,127.580899 45.8848667,126.691737 L47.7602,125.513065 Z" id="Fill-110" fill="#715255"></path>
                    <path d="M35.4268667,129.838412 C33.0008667,131.646021 31.2415333,136.621602 32.8642,138.077139 C33.3815333,138.786605 34.4002,138.852494 35.4268667,138.433869 C36.6675333,137.928723 37.9242,136.84722 39.1295333,135.753737 C40.3348667,134.659588 41.5542,133.508869 42.8082,132.809385 C43.9968667,132.146507 45.2268667,131.879625 46.3475333,130.774828 C47.2742,129.861706 47.9535333,128.440112 48.0928667,127.245467 C48.0942,127.238146 48.0942,127.230159 48.0948667,127.222173 C48.0988667,127.190892 48.1002,127.160943 48.1028667,127.130328 C48.1075333,127.069098 48.1128667,127.008534 48.1155333,126.949301 C48.1168667,126.906041 48.1155333,126.864777 48.1162,126.822848 C48.1155333,126.780254 48.1168667,126.737659 48.1155333,126.696396 C48.1128667,126.639825 48.1075333,126.58525 48.1028667,126.530676 C48.1002,126.502723 48.0988667,126.474105 48.0948667,126.447483 C48.0942,126.440828 48.0942,126.432842 48.0915333,126.426852 C47.9535333,125.391936 47.2742,124.753683 46.3475333,124.908754 C45.2268667,125.095771 43.9968667,126.24649 42.8082,126.95396 C41.5535333,127.700696 40.3348667,127.954933 39.1295333,128.250433 C37.9242,128.546598 36.6675333,128.912646 35.4268667,129.838412" id="Fill-112" fill="#56393C"></path>
                    <path d="M33.8924,5.98551081 C33.8924,8.79542297 31.6110667,11.0729027 28.7970667,11.0729027 C25.9830667,11.0729027 23.7017333,8.79542297 23.7017333,5.98551081 C23.7017333,3.17626419 25.9830667,0.898784459 28.7970667,0.898784459 C31.6110667,0.898784459 33.8924,3.17626419 33.8924,5.98551081" id="Fill-114" fill="#FBBA9F"></path>
                    <path d="M79.8090667,11.2279071 C79.8090667,14.0378193 77.5277333,16.315299 74.7137333,16.315299 C71.8997333,16.315299 69.6184,14.0378193 69.6184,11.2279071 C69.6184,8.41866047 71.8997333,6.14118074 74.7137333,6.14118074 C77.5277333,6.14118074 79.8090667,8.41866047 79.8090667,11.2279071" id="Fill-116" fill="#FBBA9F"></path>
                </g>
                <path d="M111.531067,157.31017 C101.2924,151.408822 84.6910667,151.408822 74.4530667,157.31017 C64.2137333,163.211518 64.2137333,172.779994 74.4530667,178.681342 C84.6910667,184.583356 101.2924,185.387329 111.531067,179.485315 C121.769733,173.583967 121.769733,163.211518 111.531067,157.31017" id="shadow" fill="#F4F4F4" style="mix-blend-mode: multiply;"></path>
                <g id="sittingLady" transform="translate(60.000000, 54.000000)">
                    <path d="M17.5564667,119.750419 C17.5564667,118.265598 18.6011333,116.459321 19.8898,115.715912 C21.1784667,114.973834 22.2224667,115.576149 22.2224667,117.06097 C22.2224667,118.545791 21.1784667,120.352068 19.8898,121.095476 C18.6011333,121.837554 17.5564667,121.23524 17.5564667,119.750419" id="Fill-118" fill="#4263C0"></path>
                    <path d="M17.5564667,119.750419 C17.5564667,118.265598 18.6011333,116.459321 19.8898,115.715912 C21.1784667,114.973834 22.2224667,115.576149 22.2224667,117.06097 C22.2224667,118.545791 21.1784667,120.352068 19.8898,121.095476 C18.6011333,121.837554 17.5564667,121.23524 17.5564667,119.750419" id="Fill-120" fill="#1D202B"></path>
                    <polygon id="Fill-122" fill="#1D202B" points="21.6026667 115.597313 23.6133333 116.642877 20.4566667 122.385826 18.1026667 121.162563 18.6993333 117.928701"></polygon>
                    <path d="M19.5395333,120.777348 C19.5395333,119.292527 20.5835333,117.48625 21.8722,116.742841 C23.1608667,116.000764 24.2055333,116.603078 24.2055333,118.087899 C24.2055333,119.57272 23.1608667,121.378997 21.8722,122.122405 C20.5835333,122.864483 19.5395333,122.262169 19.5395333,120.777348" id="Fill-124" fill="#A0D2FF"></path>
                    <path d="M19.5395333,120.777348 C19.5395333,119.292527 20.5835333,117.48625 21.8722,116.742841 C23.1608667,116.000764 24.2055333,116.603078 24.2055333,118.087899 C24.2055333,119.57272 23.1608667,121.378997 21.8722,122.122405 C20.5835333,122.864483 19.5395333,122.262169 19.5395333,120.777348" id="Fill-126" fill="#CCCCCC"></path>
                    <path d="M45.6111333,104.097238 C45.6104667,102.611752 46.6551333,100.80614 47.9438,100.062731 C49.2324667,99.3199882 50.2764667,99.9229679 50.2764667,101.407789 C50.2764667,102.89261 49.2324667,104.698887 47.9438,105.44163 C46.6551333,106.184373 45.6111333,105.582059 45.6111333,104.097238" id="Fill-128" fill="#4263C0"></path>
                    <path d="M45.6111333,104.097238 C45.6104667,102.611752 46.6551333,100.80614 47.9438,100.062731 C49.2324667,99.3199882 50.2764667,99.9229679 50.2764667,101.407789 C50.2764667,102.89261 49.2324667,104.698887 47.9438,105.44163 C46.6551333,106.184373 45.6111333,105.582059 45.6111333,104.097238" id="Fill-130" fill="#1D202B"></path>
                    <polygon id="Fill-132" fill="#1D202B" points="49.6567333 99.9434666 51.6674 100.989696 48.5107333 106.73198 46.1567333 105.509382 46.7540667 102.275521"></polygon>
                    <path d="M47.5935333,105.123502 C47.5935333,103.638681 48.6375333,101.833069 49.9262,101.08966 C51.2148667,100.346917 52.2595333,100.949897 52.2595333,102.434718 C52.2595333,103.919539 51.2148667,105.725816 49.9262,106.468559 C48.6375333,107.211302 47.5935333,106.608988 47.5935333,105.123502" id="Fill-134" fill="#A0D2FF"></path>
                    <path d="M47.5935333,105.123502 C47.5935333,103.638681 48.6375333,101.833069 49.9262,101.08966 C51.2148667,100.346917 52.2595333,100.949897 52.2595333,102.434718 C52.2595333,103.919539 51.2148667,105.725816 49.9262,106.468559 C48.6375333,107.211302 47.5935333,106.608988 47.5935333,105.123502" id="Fill-136" fill="#CCCCCC"></path>
                    <path d="M44.2947333,120.441982 C44.2947333,118.957161 45.3387333,117.150884 46.6274,116.407475 C47.9160667,115.665398 48.9607333,116.267712 48.9607333,117.752533 C48.9607333,119.238019 47.9160667,121.043631 46.6274,121.78704 C45.3387333,122.529117 44.2947333,121.926803 44.2947333,120.441982" id="Fill-138" fill="#4263C0"></path>
                    <path d="M44.2947333,120.441982 C44.2947333,118.957161 45.3387333,117.150884 46.6274,116.407475 C47.9160667,115.665398 48.9607333,116.267712 48.9607333,117.752533 C48.9607333,119.238019 47.9160667,121.043631 46.6274,121.78704 C45.3387333,122.529117 44.2947333,121.926803 44.2947333,120.441982" id="Fill-140" fill="#1D202B"></path>
                    <polygon id="Fill-142" fill="#1D202B" points="48.3403333 116.288876 50.351 117.33444 47.195 123.07739 44.841 121.854792 45.4376667 118.620265"></polygon>
                    <path d="M46.2771333,121.468911 C46.2771333,119.98409 47.3218,118.177813 48.6104667,117.434404 C49.8991333,116.692327 50.9431333,117.294641 50.9431333,118.779462 C50.9431333,120.264283 49.8991333,122.07056 48.6104667,122.813969 C47.3218,123.556046 46.2771333,122.953732 46.2771333,121.468911" id="Fill-144" fill="#A0D2FF"></path>
                    <path d="M46.2771333,121.468911 C46.2771333,119.98409 47.3218,118.177813 48.6104667,117.434404 C49.8991333,116.692327 50.9431333,117.294641 50.9431333,118.779462 C50.9431333,120.264283 49.8991333,122.07056 48.6104667,122.813969 C47.3218,123.556046 46.2771333,122.953732 46.2771333,121.468911" id="Fill-146" fill="#CCCCCC"></path>
                    <path d="M17.0597333,104.678322 C17.0597333,103.192835 18.1037333,101.387224 19.3924,100.643815 C20.6810667,99.9017372 21.7250667,100.504051 21.7250667,101.988872 C21.7250667,103.473693 20.6810667,105.27997 19.3924,106.023379 C18.1037333,106.765457 17.0597333,106.163143 17.0597333,104.678322" id="Fill-148" fill="#4263C0"></path>
                    <path d="M17.0597333,104.678322 C17.0597333,103.192835 18.1037333,101.387224 19.3924,100.643815 C20.6810667,99.9017372 21.7250667,100.504051 21.7250667,101.988872 C21.7250667,103.473693 20.6810667,105.27997 19.3924,106.023379 C18.1037333,106.765457 17.0597333,106.163143 17.0597333,104.678322" id="Fill-150" fill="#1D202B"></path>
                    <polygon id="Fill-152" fill="#1D202B" points="21.1052667 100.525149 23.1159333 101.570713 19.9592667 107.313662 17.6052667 106.090399 18.2026 102.856537"></polygon>
                    <path d="M19.0421333,105.705184 C19.0421333,104.219698 20.0861333,102.414086 21.3748,101.670677 C22.6641333,100.927934 23.7081333,101.530914 23.7081333,103.015735 C23.7081333,104.500556 22.6641333,106.306833 21.3748,107.049576 C20.0861333,107.792319 19.0421333,107.190005 19.0421333,105.705184" id="Fill-154" fill="#A0D2FF"></path>
                    <path d="M19.0421333,105.705184 C19.0421333,104.219698 20.0861333,102.414086 21.3748,101.670677 C22.6641333,100.927934 23.7081333,101.530914 23.7081333,103.015735 C23.7081333,104.500556 22.6641333,106.306833 21.3748,107.049576 C20.0861333,107.792319 19.0421333,107.190005 19.0421333,105.705184" id="Fill-156" fill="#CCCCCC"></path>
                    <path d="M50.77,114.001679 L40.4473333,108.051081 L50.77,102.100483 C52.4646667,101.124135 52.4646667,99.5261726 50.77,98.5491591 C49.076,97.5721456 46.3033333,97.5721456 44.6086667,98.5491591 L34.2846667,104.499757 L23.962,98.5491591 C22.2673333,97.5721456 19.4946667,97.5721456 17.8,98.5491591 C16.1053333,99.5255071 16.1053333,101.124135 17.8,102.100483 L28.1233333,108.051081 L17.8,114.001679 C16.1053333,114.978027 16.1053333,116.57599 17.8,117.553004 C19.4946667,118.530017 22.2673333,118.530017 23.962,117.553004 L34.2846667,111.603071 L44.6086667,117.553004 C46.3033333,118.530017 49.076,118.530017 50.77,117.553004 C52.4646667,116.57599 52.4646667,114.978027 50.77,114.001679" id="Fill-158" fill="#EFF6FC"></path>
                    <path d="M50.77,114.001679 L40.4473333,108.051081 L50.77,102.100483 C52.4646667,101.124135 52.4646667,99.5261726 50.77,98.5491591 C49.076,97.5721456 46.3033333,97.5721456 44.6086667,98.5491591 L34.2846667,104.499757 L23.962,98.5491591 C22.2673333,97.5721456 19.4946667,97.5721456 17.8,98.5491591 C16.1053333,99.5255071 16.1053333,101.124135 17.8,102.100483 L28.1233333,108.051081 L17.8,114.001679 C16.1053333,114.978027 16.1053333,116.57599 17.8,117.553004 C19.4946667,118.530017 22.2673333,118.530017 23.962,117.553004 L34.2846667,111.603071 L44.6086667,117.553004 C46.3033333,118.530017 49.076,118.530017 50.77,117.553004 C52.4646667,116.57599 52.4646667,114.978027 50.77,114.001679" id="Fill-160" fill="#AAAAAA"></path>
                    <path d="M29.0864,107.874048 C29.0864,109.799456 31.4137333,111.360149 34.2850667,111.360149 C37.1564,111.360149 39.4844,109.799456 39.4844,107.874048 C39.4844,105.948639 37.1564,102.758703 34.2850667,102.758703 C31.4137333,102.758703 29.0864,105.948639 29.0864,107.874048" id="Fill-162" fill="#CCCCCC"></path>
                    <path d="M30.4711333,105.316508 C30.4711333,106.728785 32.1791333,107.874181 34.2851333,107.874181 C36.3918,107.874181 38.0991333,106.728785 38.0991333,105.316508 C38.0991333,103.904231 36.3918,102.758836 34.2851333,102.758836 C32.1791333,102.758836 30.4711333,103.904231 30.4711333,105.316508" id="Fill-164" fill="#AAAAAA"></path>
                    <path d="M34.2849333,77.8681524 C32.9969333,77.8681524 31.9522667,78.9250307 31.9522667,80.2288247 L31.9522667,102.955703 C31.9522667,104.259497 32.9969333,105.316375 34.2849333,105.316375 C35.5742667,105.316375 36.6182667,104.259497 36.6182667,102.955703 L36.6182667,80.2288247 C36.6182667,78.9250307 35.5742667,77.8681524 34.2849333,77.8681524" id="Fill-166" fill="#CCCCCC"></path>
                    <path d="M23.4386,72.2942503 C22.2966,72.2942503 21.2599333,72.0546557 20.3386,71.5734699 C18.0632667,70.3894733 17.4592667,68.225801 17.3979333,67.9842098 L17.3472667,67.576899 L17.3472667,57.5245747 C17.3472667,56.5821693 18.1366,55.8174632 19.1099333,55.8174632 L19.1119333,55.8174632 C20.0852667,55.8174632 20.8739333,56.5821693 20.8739333,57.5245747 L20.8739333,67.3066895 C20.9899333,67.585551 21.3212667,68.2211422 22.0426,68.5831963 C22.6346,68.8780307 23.4199333,68.9492436 24.3566,68.7961693 C25.2312667,68.653078 26.0959333,69.079024 26.3952667,69.8876557 C26.7692667,70.901274 26.0852667,71.9721287 24.9892667,72.1578145 C24.4526,72.2489936 23.9359333,72.2942503 23.4386,72.2942503" id="Fill-168" fill="#AAAAAA"></path>
                    <path d="M7.96593333,17.2838639 L14.1206,13.5022625 C16.3432667,12.1372389 18.5332667,11.9542152 20.4139333,12.7335632 L20.4179333,12.7249111 L20.6032667,12.8067726 C20.6552667,12.8313976 20.7086,12.8520294 20.7606,12.8773199 L24.8199333,14.6776071 L24.2819333,16.5644145 C24.9546,17.8728672 25.4506,19.4468706 25.7019333,21.2644618 L28.6459333,42.4958706 C29.2632667,46.9503334 27.2139333,52.1282389 24.0686,54.0609686 L11.3472667,61.8770767 L10.4366,65.0690091 L6.08993333,63.1342828 L6.08326667,63.0870294 C4.60993333,62.3868807 3.47793333,60.6811003 3.12993333,58.1733436 L0.1866,36.9412693 C-0.862733333,29.3694145 2.61993333,20.568972 7.96593333,17.2838639" id="Fill-170" fill="#C33632"></path>
                    <path d="M14.1801333,64.6262916 L28.3048,55.9483084 C31.4501333,54.0162443 33.4994667,48.8376733 32.8821333,44.3832105 L29.9381333,23.1518017 C28.8881333,15.579947 23.7034667,12.1044943 18.3574667,15.3896024 L12.2021333,19.1712037 C6.85613333,22.4556463 3.3728,31.2567544 4.42213333,38.8286091 L7.36613333,60.0600179 C7.98346667,64.5144807 11.0341333,66.5590213 14.1801333,64.6262916" id="Fill-172" fill="#EF4B46"></path>
                    <path d="M15.2634667,73.2666051 L17.8241333,73.0795882 C18.1654667,72.8353348 18.5281333,72.5977368 18.9388,72.3801051 L25.0628,69.1222841 C30.3834667,66.2924057 39.5254667,66.9027064 45.4828,70.4866422 L53.6748,75.4302774 L60.0201333,77.4295611 L60.0121333,81.3788787 C60.0121333,81.3788787 59.9968,81.3895274 59.9881333,81.3941861 C59.9894667,82.5309294 59.3081333,83.6051118 57.8581333,84.3764733 L44.1468,91.8531557 C41.0174667,93.5176726 35.6381333,93.1589463 32.1341333,91.0505139 L20.0921333,83.9917909 C17.0428,82.1575611 15.4288,79.9000476 15.2841333,77.7530139 L15.2634667,77.7496861 L15.2634667,73.2666051 Z" id="Fill-174" fill="#C33632"></path>
                    <path d="M44.1469333,88.0248334 L57.8576,80.5488166 C60.9882667,78.8842997 60.6842667,75.8254753 57.1796,73.7170429 L45.4829333,66.6583199 C39.5249333,63.0757152 30.3829333,62.464749 25.0629333,65.2946274 L18.9382667,68.5517828 C13.6182667,71.3816611 14.1349333,76.5815294 20.0922667,80.1634686 L32.1336,87.2228571 C35.6382667,89.330624 41.0176,89.6900159 44.1469333,88.0248334" id="Fill-176" fill="#EF4B46"></path>
                    <path d="M34.7823333,1.2627723 C30.0023333,-0.91287973 25.5883333,-0.24867027 21.8663333,3.69399189 C19.5543333,6.14384662 19.0543333,9.07422162 17.559,11.8315561 C15.7476667,15.1719041 12.1716667,17.6164345 9.885,20.6499682 C7.31433333,24.0615291 5.63033333,28.7003466 7.39433333,32.5897655 C8.33166667,34.6576 10.2123333,36.5583838 9.843,38.7979277 C9.65433333,39.9446541 8.87566667,40.9449615 8.76966667,42.1016709 C8.545,44.5701608 11.759,46.271948 14.0656667,45.3554986 C16.3723333,44.4383838 17.6296667,41.8933568 18.0036667,39.4428365 C18.3783333,36.9929818 18.0843333,34.4845595 18.359,32.0213939 C19.2396667,24.1294142 25.6036667,23.9264243 31.5023333,21.1883905 C33.0576667,20.4669446 34.3223333,19.6589784 35.3563333,18.7425291 C37.931,16.4623872 39.0876667,13.5167047 39.7876667,9.59134662 C40.639,4.81808986 39.2436667,3.29400203 34.7823333,1.2627723" id="Fill-178" fill="#1D202B"></path>
                    <path d="M51.0506,122.354746 C51.0672667,123.072198 51.1959333,123.766357 51.4299333,124.354695 C51.9486,125.655161 52.7919333,126.795898 53.6259333,127.919996 C54.1192667,128.58354 54.6112667,129.246418 55.1032667,129.910627 C55.6092667,130.592141 56.1226,131.281641 56.7826,131.816735 C57.4426,132.35183 58.2752667,132.723867 59.1226,132.663969 C59.3512667,132.647996 59.5926,132.593421 59.7526,132.428367 C59.8392667,132.338519 59.8939333,132.222715 59.9412667,132.107577 C60.5366,130.655367 60.1292667,129.007489 59.7152667,127.493384 C59.1319333,125.361658 58.3579333,123.353056 57.7806,121.247952 C57.3799333,119.786425 56.9032667,117.738556 55.1059333,117.482989 C52.2679333,117.098972 50.9912667,119.868286 51.0506,122.354746" id="Fill-180" fill="#1D202B"></path>
                    <path d="M52.0506,120.665055 C52.8372954,123.034549 53.9506667,124.824367 55.7466667,126.320502 C56.5186667,126.964745 57.904,127.400674 58.346,126.498201 C58.5006667,126.184066 58.4566667,125.814026 58.41,125.467279 C58.084,123.071999 57.758,120.676053 57.4326667,118.280107 C57.334,117.550674 57.21,116.76933 56.7006667,116.236897 C55.752,115.245242 53.948,115.74107 53.1446667,116.853188 C52.3406667,117.965972 52.1052667,116.629652 52.0506,118 L52.0506,120.665055 Z" id="Fill-182" fill="#FBBA9F"></path>
                    <path d="M45.6456667,106.609254 C45.825,107.237525 46.017,107.862467 46.1876667,108.484748 C46.3623333,109.120339 46.5376667,109.758592 46.6203333,110.412819 C46.743,111.38118 46.961,113.261332 46.003,113.897589 C44.5616667,114.856633 42.9036667,113.378467 42.1556667,112.300292 C41.0416667,110.696339 40.0503333,109.007862 39.1923333,107.254163 C38.825,106.501437 38.4736667,105.703454 38.4983333,104.866204 C38.5743333,102.30121 40.8076667,99.1478794 43.6416667,100.648673 C44.6763333,101.197079 44.9703333,102.075592 45.003,103.136464 C45.0403333,104.317798 45.3216667,105.469849 45.6456667,106.609254" id="Fill-184" fill="#1D202B"></path>
                    <path d="M44.8429333,103.412197 C44.9076,104.53563 44.9716,105.660393 45.0362667,106.784491 C45.0656,107.300285 45.0929333,107.833383 44.9289333,108.325218 C44.7642667,108.817052 44.3569333,109.26363 43.8622667,109.293579 C43.2802667,109.329518 42.8302667,108.81439 42.4709333,108.343187 C42.0529333,107.796778 41.6349333,107.25037 41.2176,106.70263 C40.4689333,105.724951 39.6876,104.655427 39.6362667,103.3909 C39.5776,101.911403 40.5249333,100.597626 41.4229333,99.4309338 C41.8609333,98.8618966 42.3889333,98.2422784 43.0789333,98.2129946 C43.5362667,98.1930284 43.9622667,98.449927 44.2889333,98.777373 C44.8509333,99.3410858 45.1909333,100.1404 45.2196,100.963008 C45.2569333,102.032532 44.7929333,103.080758 44.8329333,104.148951 L44.8429333,103.412197 Z" id="Fill-186" fill="#FBBA9F"></path>
                    <path d="M35.5577333,66.8139899 C34.6677333,65.8376419 34.9290667,64.3794426 36.1764,63.7538345 C37.2484,63.2167432 38.5277333,62.9771486 39.7570667,63.1402061 C40.6084,63.2526824 41.4777333,63.5787973 41.9324,64.206402 C42.2630667,64.6636284 42.3350667,65.2206858 42.3690667,65.757777 C42.4384,66.8632399 42.3750667,67.9953243 41.9277333,69.0348986 C41.3217333,70.4405203 39.9357333,71.6691081 38.0310667,71.6731014 C37.1957333,71.6744324 36.4010667,71.3749392 35.8510667,70.8351858 C34.3150667,69.3277365 36.6844,68.5703514 35.5577333,66.8139899" id="Fill-188" fill="#FF8358"></path>
                    <path d="M48.6658,86.7866618 L51.8404667,117.814162 C51.8691333,118.317976 51.7678,120.221422 52.2024667,120.794452 C52.7884667,121.567145 54.6104667,121.7708 56.4311333,121.811398 C56.4258,121.83203 56.4324667,121.834027 56.4604667,121.812064 C56.8211333,121.82005 57.6738,120.516922 57.1304667,120.198128 L58.4844667,86.3447429 C58.3264667,83.0183713 56.4258,79.9542226 53.5091333,78.3316348 L37.5684667,69.7874253 C35.9831333,68.9049186 34.6944667,67.5924726 33.8431333,65.9911821 L29.1324667,57.1388274 L20.9624667,61.4714963 L25.6731333,70.3231855 C27.3618,73.4998105 29.9191333,76.1040706 33.0671333,77.8544422 L48.4284667,86.3999828 C48.5684667,86.477851 48.6598,86.6262666 48.6658,86.7866618" id="Fill-190" fill="#FBBA9F"></path>
                    <path d="M44.8331333,104.149217 L41.4231333,99.4305345 L58.3658,77.129602 L40.6758,67.9251764 C39.8638,67.5025581 39.1958,66.8496628 38.7564667,66.048352 L33.0804667,55.7005277 L41.1938,51.2647 L46.1964667,60.3832709 L65.9864667,70.6805142 C66.0091333,70.6918284 66.0304667,70.7031426 66.0518,70.7151223 C67.7398,71.6275784 68.8998,73.2335277 69.2344667,75.1210007 C69.5638,76.9865108 69.0418,78.869325 67.8011333,80.2982405 L44.8331333,104.149217 Z" id="Fill-192" fill="#FBBA9F"></path>
                    <path d="M19.4744,49.6132277 L20.0697333,59.3048291 L21.6270667,66.0627277 C22.7744,71.0416365 26.0517333,75.2678189 30.5937333,77.6231669 L43.4444,84.9188223 C44.2377333,85.3693932 45.2197333,85.3221399 45.9664,84.7983595 L66.0517333,70.7148561 L48.9357333,57.4240115 L39.3637333,45.4402885 L19.4744,49.6132277 Z" id="Fill-194" fill="#0D3054"></path>
                    <path d="M41.7882,45.0201328 C43.2682,45.8793456 45.1648667,45.3788591 46.0255333,43.9013591 L54.9422,28.6032443 C55.8035333,27.1257443 55.3022,25.2316159 53.8222,24.372403 C52.3428667,23.5125247 50.4448667,24.0136767 49.5842,25.4905111 L40.6675333,40.7892916 C39.8068667,42.266126 40.3082,44.1609199 41.7882,45.0201328" id="Fill-196" fill="#FBBA9F"></path>
                    <path d="M33.9340667,21.310251 L33.5894,21.4480179 C31.8887333,22.1282003 31.0614,24.0562713 31.7427333,25.7540652 L38.2534,41.9839368 C38.9347333,43.6823963 40.8654,44.5076666 42.5667333,43.8281497 L42.9114,43.6903828 C44.6127333,43.0095348 45.4394,41.0821294 44.7580667,39.3836699 L38.2474,23.1537983 C37.5660667,21.4560044 35.6354,20.6307341 33.9340667,21.310251" id="Fill-198" fill="#FBBA9F"></path>
                    <path d="M31.617,15.0584294 C31.6056667,15.0584294 31.5943333,15.0710747 31.583,15.0830544 C31.5716667,15.0331389 31.5716667,14.970578 31.5716667,14.921328 C31.5716667,14.970578 31.583,15.0204936 31.617,15.0584294" id="Fill-200" fill="#3772CE"></path>
                    <path d="M16.1599333,29.680222 L17.4792667,34.6165361 L19.4746,49.6131611 C19.7472667,50.6307726 20.4099333,51.4640294 21.2952667,51.9039517 C23.6839333,53.0879483 29.4519333,53.6716274 36.3126,50.7692051 C37.3752667,50.3192997 39.3226,49.3296409 39.5566,48.1183571 L41.7006,37.0064922 L41.7446,36.7842017 C42.0732667,35.0551274 41.8166,33.2661544 41.0206,31.7314179 L38.5152667,26.9288774 L38.5152667,24.361222 C38.5152667,21.3150429 35.8146,19.124749 33.1146,19.9753098 L32.1786,20.2974314 L30.6806,20.8145564 L24.0939333,23.1100057 L22.1679333,23.7775429 L18.4206,25.0780091 C16.6386,25.6949652 15.6419333,27.734847 16.1599333,29.680222" id="Fill-202" fill="#EDF4FB"></path>
                    <path d="M16.1599333,29.680222 L17.4792667,34.6165361 C18.1426,35.4338199 18.7992667,36.2504382 19.4672667,37.067722 C20.8652667,38.7961307 22.3232667,40.5691307 24.2666,41.4762625 C27.4966,42.9817152 31.2039333,41.7537929 34.4839333,40.3641443 C36.5106,39.5135834 38.5206,38.6017929 40.4972667,37.6347625 C40.8979333,37.445749 41.3106,37.240097 41.7006,37.0064922 L41.7446,36.7842017 C42.0732667,35.0551274 41.8166,33.2661544 41.0206,31.7314179 L38.5152667,26.9288774 L38.5152667,24.361222 C38.5152667,21.3150429 35.8146,19.124749 33.1146,19.9753098 L32.1786,20.2974314 L30.6806,20.8145564 L24.0939333,23.1100057 L22.1679333,23.7775429 L18.4206,25.0780091 C16.6386,25.6949652 15.6419333,27.734847 16.1599333,29.680222" id="Fill-204" fill="#FFFFFF"></path>
                    <path d="M22.1678,23.7774098 C23.0978,25.3061564 24.3778,26.6285855 25.7258,27.8179064 C26.7384667,28.7190483 27.8304667,29.5749334 29.1164667,29.9915618 C30.3971333,30.4141801 31.9231333,30.3249976 32.9638,29.4691125 C33.8104667,28.7742882 34.2338,27.6681598 34.2838,26.5786699 C34.3338,25.4891801 34.0498,24.4110044 33.6711333,23.3880686 C33.2758,22.3152172 32.7744667,21.2756429 32.1791333,20.2972983 L30.6811333,20.8144233 L24.0944667,23.1098726 L22.1678,23.7774098 Z" id="Fill-206" fill="#FBBA9F"></path>
                    <path d="M43.8292667,35.1604824 L43.7492667,35.3255365 C43.7706,35.3308608 43.7912667,35.3308608 43.8132667,35.3308608 C43.8132667,35.2776176 43.8232667,35.21905 43.8292667,35.1604824" id="Fill-208" fill="#E2E8F2"></path>
                    <polygon id="Fill-210" fill="#FBBA9F" points="24.722 24.256 31.5726667 24.256 31.5726667 15.0143041 24.722 15.0143041"></polygon>
                    <path d="M50.1951333,28.7163196 C51.8664667,29.9708635 54.0338,29.9089682 55.0364667,28.5778872 C56.0391333,27.2474716 55.4971333,25.1516845 53.8258,23.8971405 C52.1544667,22.6425966 49.9871333,22.7044919 48.9851333,24.035573 C47.9824667,25.3659885 48.5244667,27.4617757 50.1951333,28.7163196" id="Fill-212" fill="#FBBA9F"></path>
                    <path d="M24.4705333,11.5058405 C24.4592,11.5058405 24.4492,11.5178203 24.4378667,11.5291345 C24.4272,11.4818811 24.4272,11.4219824 24.4272,11.3740635 C24.4272,11.4219824 24.4378667,11.4692358 24.4705333,11.5058405" id="Fill-213" fill="#3772CE"></path>
                    <path d="M67.2438,60.0169574 L49.7116131,46.61556 L22.4411333,62.1060892 L41.6058,71.7570926 C43.1004667,72.5098189 44.8724667,72.4732142 46.3344667,71.6592581 L67.2438,60.0169574 Z" id="Fill-214" fill="#696969"></path>
                    <polygon id="Fill-215" fill="#CCCCCC" points="46.1502 72.0726253 69.3975333 59.1278618 50.1915333 45.8230409 22.7708667 61.002024"></polygon>
                    <polygon id="Fill-216" fill="#1D202B" points="50.3656667 51.4441297 35.0316667 59.2589068 41.439 61.7407074 55.5516667 54.7392209"></polygon>
                    <path d="M58.249,42.2530814 C58.2436667,42.2564091 46.913,48.288203 46.913,48.288203 C46.4683333,48.5317909 46.153,48.9830274 46.0863333,49.4715341 L43.259,70.1245882 C43.115,71.1768078 44.1323333,71.8350274 45.091,71.3085848 L67.073,59.4320139 C67.5176667,59.1877605 67.8323333,58.736524 67.8996667,58.2486828 L71.8303151,37.8628313 C71.9743151,36.8106117 69.853,35.884524 68.8943333,36.4109666 L58.249,42.2530814 Z" id="Fill-217" fill="#696969"></path>
                    <path d="M70.3930667,37.2903453 L59.7470667,43.1331257 C59.7417333,43.1364534 48.4110667,49.1675818 48.4110667,49.1675818 C47.9664,49.4118351 47.6517333,49.8630716 47.5844,50.3509128 L44.7570667,71.0046324 C44.6130667,72.056852 45.6304,72.7150716 46.5890667,72.1886291 L68.5710667,60.3113926 C69.0157333,60.0678047 69.3310667,59.6165682 69.3977333,59.1280615 L72.2250667,38.4743419 C72.3690667,37.4221223 71.3510667,36.7645682 70.3930667,37.2903453" id="Fill-218" fill="#CCCCCC"></path>
                    <path d="M38.0942,67.5711753 C37.6602,67.5711753 37.2195333,67.4939726 36.7895333,67.3295841 C33.7615333,66.1722091 31.0282,65.6630706 28.1355333,65.1226517 C25.0495333,64.5469591 21.8582,63.9526314 18.2122,62.5589895 C17.6082,62.328047 16.1915333,61.7882936 15.3015333,60.3247699 C14.5708667,59.128128 14.5708667,57.928824 14.5708667,57.3518003 L14.5808667,29.4969321 C14.5815333,27.4843375 16.2168667,25.8524321 18.2328667,25.8524321 L18.2342,25.8524321 C20.2508667,25.8530976 21.8855333,27.4863341 21.8848667,29.4995943 L21.8748667,56.1305334 C24.4928667,57.026351 26.9222,57.4795841 29.4768667,57.9561111 C32.5628667,58.5318037 35.7535333,59.126797 39.4002,60.5197733 C41.2835333,61.2392226 42.2262,63.3469895 41.5048667,65.2278071 C40.9488667,66.679351 39.5635333,67.5711753 38.0942,67.5711753" id="Fill-219" fill="#E2E8F2"></path>
                    <path d="M61.3722,54.7042801 C61.3722,55.3199051 60.8022,55.9594895 60.0982,56.1325301 C59.3942,56.3055706 58.8242,55.9475098 58.8242,55.3318848 C58.8242,54.7169253 59.3942,54.0773409 60.0982,53.9036348 C60.8022,53.7299287 61.3722,54.0886551 61.3722,54.7042801" id="Fill-220" fill="#696969"></path>
                    <path d="M26.1951333,14.5423693 C26.0324667,14.6335483 25.8671333,14.6075922 25.7151333,14.5270618 C25.7071333,14.4698253 25.7244667,14.4105922 25.7084667,14.3546868 L26.1951333,14.5423693 Z" id="Fill-221" fill="#FF8358"></path>
                    <path d="M23.3806667,10.7344125 C24.1566667,10.5853314 24.7686667,11.5137605 24.9546667,12.4987605 C25.048,12.9945882 25.0733333,13.5283517 25.25,13.9722672 C25.3486667,14.2225105 25.52,14.4235037 25.7153333,14.5266625 C25.8213333,15.2880409 25.2606667,16.1419294 24.648,16.2490814 C23.9886667,16.3648855 23.394,15.8663956 22.9513333,15.2654125 C22.4786667,14.6211693 22.1013333,13.779926 22.1226667,12.8348584 C22.144,11.8897909 22.6753333,10.8695172 23.3806667,10.7344125" id="Fill-222" fill="#FBBA9F"></path>
                    <path d="M31.5727333,15.0142375 L31.5727333,23.7128524 C31.3360667,23.707528 31.0987333,23.6895584 30.8620667,23.6609402 C29.8154,23.5344875 28.8500667,22.6273557 28.0000667,21.9351936 C26.7800667,20.9189132 26.1614,19.6204436 25.8780667,18.0617476 C25.7914,17.5885483 25.7394,17.0860652 25.7100667,16.5669436 C25.7040667,16.4165314 25.7100667,16.2607949 25.7040667,16.105724 C25.7740667,16.0538118 25.8320667,15.9839301 25.8660667,15.8860956 C25.8720667,15.8741159 25.8720667,15.8687916 25.8780667,15.8574774 C25.9760667,15.5746226 26.0860667,15.2911024 26.2014,15.0142375 L31.5727333,15.0142375 Z" id="Fill-223" fill="#FF8358"></path>
                    <path d="M25.449,14.128403 C26.9223333,9.92751115 30.341,5.8078152 35.117,5.71463953 C35.545,5.70665304 35.671,5.32929155 35.571,5.00716993 C35.6843333,4.80750777 35.6943333,4.55793007 35.5863333,4.38355845 C35.631,4.38488953 35.6763333,4.38355845 35.721,4.38488953 C36.6323333,4.40019696 37.5996667,4.51400439 38.3356667,5.09968007 C38.8236667,5.4810348 39.1583333,6.12527804 39.191,6.77750777 C39.215,7.0144402 39.1803333,7.25536588 39.113,7.4789875 C38.9116667,9.26263615 38.713,11.0349706 38.513,12.8192848 C38.419,13.6219267 38.3236667,14.4372139 38.1823333,15.2584909 C37.831,17.2025348 37.223,19.0833524 35.8936667,20.3552003 C34.427,21.7754639 32.3416667,22.1222105 30.4416667,21.8999199 C29.3963333,21.7741328 28.429,20.867001 27.5803333,20.1748389 C25.9903333,18.8570686 25.421,17.0421395 25.2936667,14.8085855 C25.2863333,14.6561767 25.2883333,14.5024368 25.2836667,14.348697 C25.3536667,14.2934571 25.415,14.225572 25.449,14.128403" id="Fill-224" fill="#FBBA9F"></path>
                    <path d="M25.6866667,10.5354824 C29.2246667,13.7174318 34.5786667,14.7277223 39.0353333,13.0538878 C39.532,12.868202 40.0313333,12.6412527 40.392,12.2539081 C41.414,11.1584284 41.482,8.22871892 40.788,6.90096554 C39.364,4.17557703 36.4506667,2.68742838 33.3806667,2.45715135 C31.368,2.30673919 29.3446667,3.29440135 28.0893333,4.87239797 C26.8346667,6.44972905 26.3253333,8.55616486 26.546,10.5594419 L25.6866667,10.5354824 Z" id="Fill-225" fill="#1D202B"></path>
                    <path d="M38.0942,67.5711753 C37.6602,67.5711753 37.2195333,67.4939726 36.7895333,67.3295841 C33.7615333,66.1722091 31.0282,65.6630706 28.1355333,65.1226517 C25.0495333,64.5469591 21.8582,63.9526314 18.2122,62.5589895 C17.6082,62.328047 16.1915333,61.7882936 15.3015333,60.3247699 C14.5708667,59.128128 14.5708667,57.928824 14.5708667,57.3518003 L14.5808667,29.4969321 C14.5815333,27.4843375 16.2168667,25.8524321 18.2328667,25.8524321 L18.2342,25.8524321 C20.2508667,25.8530976 21.8855333,27.4863341 21.8848667,29.4995943 L21.8748667,56.1305334 C24.4928667,57.026351 26.9222,57.4795841 29.4768667,57.9561111 C32.5628667,58.5318037 35.7535333,59.126797 39.4002,60.5197733 C41.2835333,61.2392226 42.2262,63.3469895 41.5048667,65.2278071 C40.9488667,66.679351 39.5635333,67.5711753 38.0942,67.5711753" id="Fill-226" fill="#FBBA9F"></path>
                </g>
                <g id="bubble" transform="translate(127.000000, 0.000000)">
                    <path d="M4.9132,44.8591628 L4.8832,34.1952068 C4.86986667,29.0658858 8.48586667,22.8151291 12.9538667,20.236825 L41.6492,3.70280135 C43.8972,2.40366622 45.9345333,2.28253784 47.4065333,3.13775743 C45.9185333,2.27588243 44.4285333,1.40868311 42.9398667,0.544145945 C41.4678667,-0.309077028 39.4285333,-0.186617568 37.1758667,1.11052095 L8.48586667,17.6472068 C4.01786667,20.2215176 0.400533333,26.4702777 0.414533333,31.6022608 L0.4452,42.2662169 C0.454533333,44.812575 1.35386667,46.6048757 2.80453333,47.4494466 L7.27586667,50.0437236 C5.8232,49.1991527 4.91986667,47.406852 4.9132,44.8591628" id="Fill-227" fill="#24468F"></path>
                    <path d="M40.9600667,3.01523142 C45.4287333,0.434930743 49.0674,2.50542736 49.0827333,7.63674493 L49.1127333,18.2987044 C49.1267333,23.4306875 45.5134,29.6767855 41.0380667,32.2537584 C41.7200667,34.257701 42.6714,36.0979206 43.9567333,37.3331639 C43.7240667,37.4669375 38.6014,40.3493936 33.4294,36.6416672 L12.3480667,48.7911098 C7.88006667,51.3687483 4.24073333,49.3015794 4.22406667,44.1709274 L4.19473333,33.5069713 C4.18073333,28.3769848 7.7974,22.1275591 12.2647333,19.5492551 L40.9600667,3.01523142 Z" id="Fill-228" fill="#FFFFFF"></path>
                    <path d="M34.949,18.6547686 C33.3376667,19.5831976 32.0316667,21.8413767 32.0316667,23.6982348 C32.0316667,25.5550929 33.3376667,26.3084848 34.949,25.3793902 C36.5596667,24.4509611 37.8656667,22.1927821 37.8656667,20.335924 C37.8656667,18.4784003 36.5596667,17.725674 34.949,18.6547686" id="Fill-229" fill="#EF4B46"></path>
                    <path d="M26.5414667,23.5007689 C24.9301333,24.429198 23.6241333,26.687377 23.6241333,28.5442351 C23.6241333,30.4010932 24.9301333,31.1538196 26.5414667,30.2253905 C28.1521333,29.2969615 29.4581333,27.0387824 29.4581333,25.1812588 C29.4581333,23.3244007 28.1521333,22.5716743 26.5414667,23.5007689" id="Fill-230" fill="#274C9D"></path>
                    <path d="M18.1332667,28.3461037 C16.5226,29.2751983 15.2166,31.5327118 15.2166,33.3902355 C15.2166,35.2470936 16.5226,35.9998199 18.1339333,35.0713909 C19.7446,34.1429618 21.0506,31.8841172 21.0506,30.0272591 C21.0506,28.170401 19.7446,27.4176747 18.1332667,28.3461037" id="Fill-231" fill="#DCEAFF"></path>
                </g>
            </g>
        </g>
    </g>
</svg>