<?xml version="1.0" encoding="UTF-8"?>
<svg width="648px" height="345px" viewBox="0 0 648 345" version="1.1" xmlns="http://www.w3.org/2000/svg" xmlns:xlink="http://www.w3.org/1999/xlink">
    <!-- Generator: Sketch 52.2 (67145) - http://www.bohemiancoding.com/sketch -->
    <title>background</title>
    <desc>Created with Sketch.</desc>
    <defs>
        <path d="M1.98951966e-13,48.3081369 C91.844474,19.9250511 161.638926,58.3505233 209.383355,163.584554 C281,321.435599 415.5079,232.741603 474.191543,307.816288 C513.313972,357.866079 511.133728,372.593983 467.650811,352 L1.98951966e-13,352 L1.98951966e-13,48.3081369 Z" id="path-1"></path>
        <linearGradient x1="53.8919277%" y1="106.664786%" x2="44.3226479%" y2="18.722866%" id="linearGradient-2">
            <stop stop-color="#0B45A7" offset="0%"></stop>
            <stop stop-color="#186ECB" offset="100%"></stop>
        </linearGradient>
    </defs>
    <g id="Projects" stroke="none" stroke-width="1" fill="none" fill-rule="evenodd">
        <g id="Gamified-Training" transform="translate(-360.000000, -58.000000)">
            <g id="slide">
                <g id="graphicArea" transform="translate(360.000000, 0.000000)">
                    <g id="background" transform="translate(0.000000, 58.000000)">
                        <rect fill="#F1F8F8" x="0" y="0" width="648" height="345"></rect>
                        <g id="Path-21">
                            <use fill="#EFB643" xlink:href="#path-1"></use>
                            <use fill="#A4D7FF" xlink:href="#path-1"></use>
                        </g>
                        <path d="M713.309051,15.9453447 C564.589248,-12.0486264 498.910324,0.245233097 516.27228,52.8269231 C516.646898,53.9614758 531.473,90.4491685 531.883585,91.6063986 C570.165295,199.503093 364.686989,106.76895 345.126018,199.503093 C334.863953,248.153219 454.684091,284.458029 412,318.731845 C314.693245,396.865731 62.0503447,356.252469 31,415.616952 C-2.75145823,480.145636 288.353832,445.693881 488.525942,415.616952 C513.866797,411.809354 604.41421,419.891663 637.551612,427.374297 C654.315685,431.159731 683.134238,434.987703 724.00727,438.858216 L713.309051,15.9453447 Z" id="Path-6" fill="url(#linearGradient-2)"></path>
                        <rect id="Rectangle-8-Copy" stroke="#FFFFFF" stroke-width="6" opacity="0.8" transform="translate(609.490381, 48.490381) rotate(30.000000) translate(-609.490381, -48.490381) " x="597.490381" y="36.4903811" width="24" height="24"></rect>
                        <g id="Group-2" opacity="0.454844" transform="translate(61.351597, 254.142305) rotate(-30.000000) translate(-61.351597, -254.142305) translate(37.851597, 242.142305)" stroke="#FFFFFF" stroke-linecap="round" stroke-linejoin="round" stroke-width="4">
                            <polyline id="Path-14" points="0 23.191343 10.7259961 11.5956715 23.191343 23.191343 34.7870144 11.5956715 46.6725777 23.191343"></polyline>
                            <polyline id="Path-14-Copy" points="0 11.5956715 10.7259961 4.54747351e-13 23.191343 11.5956715 34.7870144 4.54747351e-13 46.6725777 11.5956715"></polyline>
                        </g>
                        <rect id="Rectangle-8" stroke="#005EBD" stroke-width="6" transform="translate(162.213203, 63.213203) rotate(45.000000) translate(-162.213203, -63.213203) " x="150.213203" y="51.2132034" width="24" height="24"></rect>
                        <path d="M649.881345,275.557692 L588.736844,275.557692 C597.863286,270.732303 608.267108,268 619.309095,268 C630.351081,268 640.754903,270.732303 649.881345,275.557692 Z M574.596838,285.634615 L664.021351,285.634615 C666.51888,287.968606 668.833588,290.495776 670.941658,293.192308 L567.676531,293.192308 C569.784601,290.495776 572.099309,287.968606 574.596838,285.634615 Z M561.187525,303.269231 L677.430664,303.269231 C678.699034,305.702817 679.819049,308.226049 680.77871,310.826923 L557.839476,310.826923 C558.79914,308.226049 559.919155,305.702817 561.187529,303.269223 Z M555.019123,320.903846 L683.599066,320.903846 C684.080664,323.376188 684.423196,325.898243 684.618189,328.461538 L554,328.461538 C554.194993,325.898243 554.537525,323.376188 555.019123,320.903846 Z M554,338.538462 L684.618189,338.538462 C684.423196,341.101757 684.080664,343.623812 683.599066,346.096154 L555.019123,346.096154 C554.537525,343.623812 554.194993,341.101757 554,338.538462 Z M557.839476,356.173077 L680.778713,356.173077 C679.819049,358.773951 678.699034,361.297183 677.43066,363.730777 L561.187525,363.730769 C559.919155,361.297183 558.79914,358.773951 557.839479,356.173077 Z M567.676531,373.807692 L670.941658,373.807692 C668.833588,376.504224 666.51888,379.031394 664.021351,381.365385 L574.596838,381.365385 C572.099309,379.031394 569.784601,376.504224 567.676531,373.807692 Z M588.736844,391.442308 L649.881345,391.442308 C640.754903,396.267697 630.351081,399 619.309095,399 C608.267108,399 597.863286,396.267697 588.736844,391.442308 Z" id="Combined-Shape" fill="#FFFFFF" opacity="0.24933"></path>
                    </g>
                </g>
            </g>
        </g>
    </g>
</svg>